# https://github.com/mikedh/trimesh
v -0.91298246 -0.39960706 -0.08232358
v -0.80719078 -0.55468994 -0.18906803
v -0.84017789 -0.51925850 -0.15643446
v -0.84430730 -0.45101225 -0.27874091
v -0.82539010 -0.51011914 -0.22884437
v -0.91298246 -0.39960706 0.08232358
v -0.85065079 -0.52573109 0.00000000
v -0.75672245 -0.64246702 -0.10273712
v -0.70134616 -0.70970225 -0.02747010
v -0.68949062 -0.72243756 -0.01246647
v -0.70290703 -0.71128172 0.00000000
v -0.61564201 -0.78384304 0.06899736
v -0.61564201 -0.78384304 0.08108629
v -0.60942906 -0.78845954 0.07548316
v -0.59473759 -0.79676270 0.08907107
v -0.77351040 -0.61607307 -0.12957767
v -0.78020436 -0.62023956 -0.08114185
v -0.78020436 -0.62023956 0.08114185
v -0.91624415 -0.26408276 -0.30125889
v -0.86707705 -0.28420156 -0.40282044
v -0.86314774 -0.35182551 -0.35541749
v -0.85900742 -0.38443869 -0.33132890
v -0.86846328 -0.26034522 -0.41954321
v -0.86810338 -0.24858432 -0.42721704
v -0.86372560 -0.19971664 -0.45752683
v -0.85373908 -0.12428441 -0.50254786
v -0.85065079 0.00000000 -0.52573109
v -0.82909536 -0.02616237 -0.55474073
v -0.79667985 0.06550595 -0.59836608
v -0.92430460 -0.13165537 -0.35822880
v -0.91504341 0.00000000 -0.40335536
v -0.85710764 -0.14005467 -0.49383566
v -0.86492932 -0.13120037 -0.48444164
v -0.95105654 -0.26286554 -0.16245985
v -0.89100653 -0.38618737 -0.23867694
v -0.96386129 -0.26640469 0.00000000
v -0.96639258 -0.13279247 -0.22011703
v -0.98768836 -0.13307111 -0.08224247
v -0.96193838 0.00000000 -0.27326652
v -0.99043888 0.00000000 -0.13795224
v -0.98768836 -0.13307111 0.08224247
v -1.00000000 0.00000000 0.00000000
v -0.99043888 0.00000000 0.13795224
v -0.84017789 -0.51925850 0.15643446
v -0.80901700 -0.50000000 0.30901700
v -0.69378048 -0.70204645 0.16062203
v -0.64741188 -0.70230985 0.29600459
v -0.58778524 -0.68819094 0.42532539
v -0.75865233 -0.60682517 0.23708633
v -0.70710677 -0.60150093 0.37174803
v -0.75793540 -0.46842986 0.45399049
v -0.64657778 -0.56425422 0.51337546
v -0.68819094 -0.42532539 0.58778524
v -0.95105654 -0.26286554 0.16245985
v -0.91624415 -0.26408276 0.30125889
v -0.89100653 -0.38618737 0.23867694
v -0.84391147 -0.38361374 0.37503856
v -0.86266845 -0.25989193 0.43388855
v -0.96639258 -0.13279247 0.22011703
v -0.96193838 0.00000000 0.27326652
v -0.92430460 -0.13165537 0.35822880
v -0.91504341 0.00000000 0.40335536
v -0.86492932 -0.13120037 0.48444164
v -0.85065079 0.00000000 0.52573109
v -0.78345168 -0.34615302 0.51612163
v -0.79264921 -0.21302287 0.57125163
v -0.70230985 -0.29600459 0.64741188
v -0.60150093 -0.37174803 0.70710677
v -0.60682517 -0.23708633 0.75865233
v -0.78384304 -0.08108629 0.61564201
v -0.70204645 -0.16062203 0.69378048
v -0.71128172 0.00000000 0.70290703
v -0.62023956 -0.08114185 0.78020436
v -0.57125163 -0.79264921 0.21302287
v -0.51561010 -0.83897769 0.16057812
v -0.51425022 -0.83951086 0.16167834
v -0.51612163 -0.78345168 0.34615302
v -0.43984371 -0.85963291 0.25786000
v -0.43624747 -0.86039609 0.26236638
v -0.42840570 -0.86092091 0.27141869
v -0.51337546 -0.64657778 0.56425422
v -0.45399049 -0.75793540 0.46842986
v -0.35601890 -0.86255813 0.35279983
v -0.37503856 -0.84391147 0.38361374
v -0.32629135 -0.86074722 0.38453376
v -0.27165881 -0.85256231 0.43955314
v -0.30901700 -0.80901700 0.50000000
v -0.19179045 -0.83295739 0.51479596
v -0.17019452 -0.82626879 0.53419828
v -0.56425422 -0.51337546 0.64657778
v -0.42532539 -0.58778524 0.68819094
v -0.46842986 -0.45399049 0.75793540
v -0.37174803 -0.70710677 0.60150093
v -0.29600459 -0.64741188 0.70230985
v -0.23708633 -0.75865233 0.60682517
v -0.34615302 -0.51612163 0.78345168
v -0.21302287 -0.57125163 0.79264921
v -0.25989193 -0.43388855 0.86266845
v -0.50000000 -0.30901700 0.80901700
v -0.38361374 -0.37503856 0.84391147
v -0.38618737 -0.23867694 0.89100653
v -0.51925850 -0.15643446 0.84017789
v -0.52573109 0.00000000 0.85065079
v -0.39960706 -0.08232358 0.91298246
v -0.26408276 -0.30125889 0.91624415
v -0.26286554 -0.16245985 0.95105654
v -0.26640469 0.00000000 0.96386129
v -0.79264921 0.21302287 -0.57125163
v -0.92430460 0.13165537 -0.35822880
v -0.91624415 0.26408276 -0.30125889
v -0.86492932 0.13120037 -0.48444164
v -0.86266845 0.25989193 -0.43388855
v -0.84391147 0.38361374 -0.37503856
v -0.80901700 0.50000000 -0.30901700
v -0.78473115 0.09439217 -0.61116523
v -0.73856920 0.18174525 -0.64438808
v -0.78922129 0.08441025 -0.60693979
v -0.70220685 0.24306262 -0.66554451
v -0.72983873 0.19646730 -0.64946765
v -0.70230985 0.29600459 -0.64741188
v -0.67707294 0.28043231 -0.67681307
v -0.78345168 0.34615302 -0.51612163
v -0.68819094 0.42532539 -0.58778524
v -0.61800462 0.35934788 -0.69733399
v -0.59860379 0.38276410 -0.70239872
v -0.60599297 0.37452427 -0.70092386
v -0.75793540 0.46842986 -0.45399049
v -0.96639258 0.13279247 -0.22011703
v -0.98768836 0.13307111 -0.08224247
v -0.95105654 0.26286554 -0.16245985
v -0.98768836 0.13307111 0.08224247
v -0.96386129 0.26640469 0.00000000
v -0.91298246 0.39960706 -0.08232358
v -0.89100653 0.38618737 -0.23867694
v -0.84017789 0.51925850 -0.15643446
v -0.91298246 0.39960706 0.08232358
v -0.85065079 0.52573109 0.00000000
v -0.64657778 0.56425422 -0.51337546
v -0.70710677 0.60150093 -0.37174803
v -0.58778524 0.68819094 -0.42532539
v -0.64741188 0.70230985 -0.29600459
v -0.75865233 0.60682517 -0.23708633
v -0.78020436 0.62023956 -0.08114185
v -0.69378048 0.70204645 -0.16062203
v -0.78020436 0.62023956 0.08114185
v -0.70290703 0.71128172 0.00000000
v -0.61564201 0.78384304 -0.08108629
v -0.61564201 0.78384304 0.08108629
v -0.56425422 0.51337546 -0.64657778
v -0.50564790 0.47705555 -0.71468425
v -0.48985487 0.49095511 -0.71535254
v -0.51337546 0.64657778 -0.56425422
v -0.43350002 0.56241149 -0.70141774
v -0.41801316 0.58116651 -0.69698906
v -0.42532539 0.58778524 -0.68819094
v -0.40166789 0.59869313 -0.69077379
v -0.45399049 0.75793540 -0.46842986
v -0.51612163 0.78345168 -0.34615302
v -0.35169110 0.64901537 -0.66955036
v -0.32813486 0.67273438 -0.65954685
v -0.37174803 0.70710677 -0.60150093
v -0.24273765 0.74798238 -0.61598384
v -0.23362553 0.75571620 -0.61113489
v -0.23708633 0.75865233 -0.60682517
v -0.22787417 0.75992548 -0.60761762
v -0.30901700 0.80901700 -0.50000000
v -0.37503856 0.84391147 -0.38361374
v -0.23867694 0.89100653 -0.38618737
v -0.57125163 0.79264921 -0.21302287
v -0.48444164 0.86492932 -0.13120037
v -0.43388855 0.86266845 -0.25989193
v -0.52573109 0.85065079 0.00000000
v -0.48444164 0.86492932 0.13120037
v -0.40335536 0.91504341 0.00000000
v -0.30125889 0.91624415 -0.26408276
v -0.35822880 0.92430460 -0.13165537
v -0.22011703 0.96639258 -0.13279247
v -0.27326652 0.96193838 0.00000000
v -0.35822880 0.92430460 0.13165537
v -0.22011703 0.96639258 0.13279247
v -0.96639258 0.13279247 0.22011703
v -0.95105654 0.26286554 0.16245985
v -0.91624415 0.26408276 0.30125889
v -0.92430460 0.13165537 0.35822880
v -0.86492932 0.13120037 0.48444164
v -0.86266845 0.25989193 0.43388855
v -0.89100653 0.38618737 0.23867694
v -0.84017789 0.51925850 0.15643446
v -0.80901700 0.50000000 0.30901700
v -0.84391147 0.38361374 0.37503856
v -0.78345168 0.34615302 0.51612163
v -0.75793540 0.46842986 0.45399049
v -0.79264921 0.21302287 0.57125163
v -0.78384304 0.08108629 0.61564201
v -0.70204645 0.16062203 0.69378048
v -0.70230985 0.29600459 0.64741188
v -0.62023956 0.08114185 0.78020436
v -0.60682517 0.23708633 0.75865233
v -0.68819094 0.42532539 0.58778524
v -0.60150093 0.37174803 0.70710677
v -0.75865233 0.60682517 0.23708633
v -0.69378048 0.70204645 0.16062203
v -0.64741188 0.70230985 0.29600459
v -0.70710677 0.60150093 0.37174803
v -0.64657778 0.56425422 0.51337546
v -0.58778524 0.68819094 0.42532539
v -0.51925850 0.15643446 0.84017789
v -0.39960706 0.08232358 0.91298246
v -0.38618737 0.23867694 0.89100653
v -0.56425422 0.51337546 0.64657778
v -0.46842986 0.45399049 0.75793540
v -0.50000000 0.30901700 0.80901700
v -0.38361374 0.37503856 0.84391147
v -0.26286554 0.16245985 0.95105654
v -0.26408276 0.30125889 0.91624415
v -0.34615302 0.51612163 0.78345168
v -0.25989193 0.43388855 0.86266845
v -0.51337546 0.64657778 0.56425422
v -0.45399049 0.75793540 0.46842986
v -0.57125163 0.79264921 0.21302287
v -0.51612163 0.78345168 0.34615302
v -0.43388855 0.86266845 0.25989193
v -0.30125889 0.91624415 0.26408276
v -0.37503856 0.84391147 0.38361374
v -0.30901700 0.80901700 0.50000000
v -0.23867694 0.89100653 0.38618737
v -0.42532539 0.58778524 0.68819094
v -0.29600459 0.64741188 0.70230985
v -0.37174803 0.70710677 0.60150093
v -0.23708633 0.75865233 0.60682517
v -0.21302287 0.57125163 0.79264921
v -0.10517852 -0.79935050 0.58800203
v -0.08114185 -0.78020436 0.62023956
v -0.07464860 -0.78584170 0.61267668
v -0.06437377 -0.78020436 0.62023956
v -0.16062203 -0.69378048 0.70204645
v 0.00000000 -0.70290703 0.71128172
v 0.02507947 -0.72679824 0.68314224
v -0.08108629 -0.61564201 0.78384304
v -0.13120037 -0.48444164 0.86492932
v 0.00000000 -0.52573109 0.85065079
v 0.00000000 -0.40335536 0.91504341
v 0.05430528 -0.70613045 0.70150608
v 0.06400619 -0.69927019 0.70760155
v 0.12177546 -0.65561634 0.74199724
v 0.08108629 -0.61564201 0.78384304
v 0.13120037 -0.48444164 0.86492932
v 0.20994611 -0.57844603 0.78732938
v 0.21543205 -0.57346278 0.79002643
v 0.21302287 -0.57125163 0.79264921
v 0.22060372 -0.56811237 0.79212546
v -0.13165537 -0.35822880 0.92430460
v -0.13279247 -0.22011703 0.96639258
v 0.00000000 -0.27326652 0.96193838
v -0.13307111 -0.08224247 0.98768836
v 0.00000000 -0.13795224 0.99043888
v 0.00000000 0.00000000 1.00000000
v 0.13165537 -0.35822880 0.92430460
v 0.13279247 -0.22011703 0.96639258
v 0.13307111 -0.08224247 0.98768836
v 0.25989193 -0.43388855 0.86266845
v 0.30407301 -0.47600657 0.82209533
v 0.26408276 -0.30125889 0.91624415
v 0.38288772 -0.37777284 0.84273970
v 0.38442123 -0.37579021 0.84309292
v 0.38361374 -0.37503856 0.84391147
v 0.38578790 -0.37380522 0.84325963
v 0.38618737 -0.23867694 0.89100653
v 0.44804227 -0.27690536 0.84644687
v 0.26286554 -0.16245985 0.95105654
v 0.26640469 0.00000000 0.96386129
v 0.39960706 -0.08232358 0.91298246
v 0.51610518 -0.15838331 0.84138232
v 0.51767927 -0.15545629 0.84113884
v 0.51945794 -0.15161450 0.84050059
v 0.52573109 0.00000000 0.85065079
v 0.56930476 -0.03741093 0.81817102
v -0.13514830 0.82322264 -0.54780710
v -0.15643446 0.84017789 -0.51925850
v -0.09879884 0.84403646 -0.52164322
v -0.08232358 0.91298246 -0.39960706
v -0.03459100 0.87684155 -0.47273588
v 0.05350415 0.91298246 -0.39960706
v 0.07216833 0.91925877 -0.38317552
v 0.11704748 0.92948037 -0.34035552
v -0.16245985 0.95105654 -0.26286554
v -0.08224247 0.98768836 -0.13307111
v 0.00000000 0.96386129 -0.26640469
v -0.13795224 0.99043888 0.00000000
v -0.08224247 0.98768836 0.13307111
v 0.00000000 1.00000000 0.00000000
v 0.08224247 0.98768836 -0.13307111
v 0.17527115 0.94096273 -0.28359467
v 0.16245985 0.95105654 -0.26286554
v 0.19490668 0.94291848 -0.26315010
v 0.22011703 0.96639258 -0.13279247
v 0.13795224 0.99043888 0.00000000
v 0.08224247 0.98768836 0.13307111
v 0.22011703 0.96639258 0.13279247
v 0.25772670 0.94314849 -0.19364619
v 0.31062004 0.93881285 -0.13204734
v 0.33719134 0.93362308 -0.09905627
v 0.27326652 0.96193838 0.00000000
v 0.39552933 0.91664952 -0.02283220
v 0.40335536 0.91504341 0.00000000
v 0.40750632 0.91247797 -0.00671641
v 0.41226307 0.91035628 0.00000000
v 0.35822880 0.92430460 0.13165537
v 0.48893002 0.86337715 0.11693824
v 0.49506217 0.85836548 0.12714368
v 0.48444164 0.86492932 0.13120037
v -0.13307111 0.08224247 0.98768836
v -0.13279247 0.22011703 0.96639258
v 0.00000000 0.13795224 0.99043888
v 0.00000000 0.27326652 0.96193838
v -0.13165537 0.35822880 0.92430460
v -0.13120037 0.48444164 0.86492932
v 0.00000000 0.40335536 0.91504341
v 0.00000000 0.52573109 0.85065079
v 0.13307111 0.08224247 0.98768836
v 0.13279247 0.22011703 0.96639258
v 0.13165537 0.35822880 0.92430460
v 0.13120037 0.48444164 0.86492932
v -0.16245985 0.95105654 0.26286554
v 0.00000000 0.96386129 0.26640469
v -0.15643446 0.84017789 0.51925850
v -0.08232358 0.91298246 0.39960706
v 0.00000000 0.85065079 0.52573109
v 0.16245985 0.95105654 0.26286554
v 0.08232358 0.91298246 0.39960706
v 0.15643446 0.84017789 0.51925850
v 0.23867694 0.89100653 0.38618737
v -0.08108629 0.61564201 0.78384304
v -0.16062203 0.69378048 0.70204645
v 0.00000000 0.70290703 0.71128172
v -0.08114185 0.78020436 0.62023956
v 0.08108629 0.61564201 0.78384304
v 0.23708633 0.75865233 0.60682517
v 0.16062203 0.69378048 0.70204645
v 0.21302287 0.57125163 0.79264921
v 0.08114185 0.78020436 0.62023956
v 0.65813118 0.52568227 0.53403449
v 0.26286554 0.16245985 0.95105654
v 0.26408276 0.30125889 0.91624415
v 0.39960706 0.08232358 0.91298246
v 0.38618737 0.23867694 0.89100653
v 0.34615302 0.51612163 0.78345168
v 0.25989193 0.43388855 0.86266845
v 0.38361374 0.37503856 0.84391147
v 0.61395377 0.08582860 0.78393751
v 0.61836326 0.10295434 0.77718979
v 0.60682517 0.23708633 0.75865233
v 0.64338726 0.20772637 0.73374355
v 0.65287435 0.26550072 0.70500463
v 0.51925850 0.15643446 0.84017789
v 0.60931146 0.07175935 0.78835011
v 0.46842986 0.45399049 0.75793540
v 0.66085452 0.32715231 0.67196000
v 0.66505820 0.41102856 0.61962557
v 0.60150093 0.37174803 0.70710677
v 0.56425422 0.51337546 0.64657778
v 0.66506588 0.44175443 0.59875518
v 0.50000000 0.30901700 0.80901700
v 0.45399049 0.75793540 0.46842986
v 0.30125889 0.91624415 0.26408276
v 0.43388855 0.86266845 0.25989193
v 0.30901700 0.80901700 0.50000000
v 0.37503856 0.84391147 0.38361374
v 0.59187508 0.73663348 0.31721777
v 0.51337546 0.64657778 0.56425422
v 0.64205301 0.60543567 0.46201134
v 0.65482372 0.55715847 0.50897807
v 0.64657778 0.56425422 0.51337546
v 0.65263700 0.56798279 0.49919787
v 0.58778524 0.68819094 0.42532539
v 0.62664527 0.65995818 0.40787658
v 0.61336416 0.69424772 0.36984879
v 0.55856621 0.79053283 0.24365619
v 0.54717004 0.80492455 0.22123966
v 0.51216084 0.84184963 0.15732703
v 0.51612163 0.78345168 0.34615302
v 0.29600459 0.64741188 0.70230985
v 0.42532539 0.58778524 0.68819094
v 0.37174803 0.70710677 0.60150093
f 3 5 2
f 3 16 17
f 3 2 16
f 3 17 7
f 35 22 4
f 3 35 4
f 3 4 5
f 3 7 1
f 3 1 35
f 17 18 7
f 7 18 44
f 1 7 6
f 7 44 6
f 17 8 9
f 17 11 18
f 11 9 10
f 17 9 11
f 18 11 46
f 13 11 12
f 13 12 14
f 13 14 15
f 13 15 74
f 11 10 12
f 13 46 11
f 17 16 8
f 19 30 24
f 19 37 30
f 35 21 22
f 19 20 21
f 19 21 35
f 33 25 24
f 30 33 24
f 19 23 20
f 19 24 23
f 33 27 26
f 27 28 26
f 27 29 28
f 27 117 29
f 30 31 33
f 30 39 31
f 31 39 109
f 33 32 25
f 33 26 32
f 33 31 27
f 27 31 111
f 19 35 34
f 35 1 34
f 1 36 34
f 19 34 37
f 34 38 37
f 34 36 38
f 1 6 36
f 6 54 36
f 38 36 41
f 36 54 41
f 30 37 39
f 37 38 40
f 37 40 39
f 39 40 128
f 38 42 40
f 40 42 129
f 38 41 42
f 41 43 42
f 42 43 131
f 18 49 44
f 44 49 45
f 44 45 56
f 44 56 6
f 56 45 57
f 45 51 57
f 57 51 65
f 18 46 49
f 49 46 47
f 49 47 50
f 13 74 46
f 74 47 46
f 77 48 47
f 47 48 50
f 49 50 45
f 50 51 45
f 50 52 51
f 51 53 65
f 52 53 51
f 50 48 52
f 52 90 53
f 90 68 53
f 6 56 54
f 56 55 54
f 54 59 41
f 54 55 59
f 55 61 59
f 56 57 55
f 55 58 61
f 55 57 58
f 57 65 58
f 58 63 61
f 58 65 66
f 58 66 63
f 41 59 43
f 59 61 60
f 59 60 43
f 43 60 181
f 61 62 60
f 60 62 184
f 61 63 62
f 63 66 70
f 63 70 64
f 63 64 62
f 62 64 185
f 70 194 64
f 65 67 66
f 65 53 67
f 66 67 71
f 53 68 67
f 67 68 69
f 67 69 71
f 66 71 70
f 70 71 72
f 70 72 194
f 71 69 73
f 71 73 72
f 73 197 72
f 73 103 197
f 74 15 75
f 74 75 76
f 74 76 78
f 74 77 47
f 74 78 77
f 77 78 79
f 77 79 84
f 84 79 80
f 84 80 83
f 77 82 48
f 48 81 52
f 48 82 81
f 77 84 82
f 82 84 87
f 82 87 93
f 81 82 93
f 84 83 85
f 84 85 86
f 84 86 87
f 87 95 93
f 87 86 88
f 87 88 95
f 95 88 89
f 81 93 91
f 52 81 90
f 81 91 90
f 90 91 92
f 90 92 68
f 91 96 92
f 96 100 92
f 91 93 94
f 93 95 94
f 94 95 236
f 94 236 97
f 91 94 96
f 94 97 96
f 96 98 100
f 96 97 98
f 97 240 98
f 98 240 252
f 68 99 69
f 68 92 99
f 69 99 102
f 92 100 99
f 100 101 99
f 102 99 101
f 69 102 73
f 102 103 73
f 102 104 103
f 102 101 104
f 104 208 103
f 100 105 101
f 100 98 105
f 105 106 101
f 98 252 105
f 105 252 253
f 105 253 106
f 101 106 104
f 104 106 107
f 104 107 208
f 106 255 107
f 106 253 255
f 255 312 107
f 27 111 117
f 108 117 111
f 108 112 122
f 31 109 111
f 109 128 110
f 109 110 112
f 109 112 111
f 108 111 112
f 122 112 113
f 122 113 127
f 110 113 112
f 110 134 113
f 113 134 114
f 113 114 127
f 108 116 115
f 108 115 117
f 108 119 116
f 108 118 119
f 120 121 118
f 108 120 118
f 108 122 120
f 122 127 123
f 122 123 120
f 123 127 138
f 120 124 121
f 120 126 124
f 120 123 126
f 123 125 126
f 123 149 125
f 123 138 149
f 127 114 139
f 39 128 109
f 40 129 128
f 128 129 130
f 128 130 110
f 129 132 130
f 129 42 131
f 129 131 132
f 131 182 132
f 110 130 134
f 130 133 134
f 130 132 133
f 134 135 114
f 134 133 135
f 133 137 135
f 133 132 136
f 132 182 136
f 133 136 137
f 136 188 137
f 127 139 138
f 114 142 139
f 142 141 139
f 138 139 140
f 139 141 140
f 141 158 140
f 114 135 142
f 135 143 142
f 135 137 143
f 143 137 145
f 137 188 145
f 142 143 144
f 142 144 141
f 143 146 144
f 141 144 169
f 144 146 147
f 144 147 169
f 143 145 146
f 145 202 146
f 147 146 148
f 146 202 148
f 147 148 172
f 149 150 125
f 149 151 150
f 149 153 151
f 149 152 155
f 138 152 149
f 138 140 152
f 149 155 153
f 152 161 155
f 155 154 153
f 155 156 154
f 155 161 156
f 152 157 161
f 161 157 166
f 152 140 157
f 140 158 157
f 158 167 157
f 157 167 166
f 158 171 167
f 161 159 156
f 161 160 159
f 161 164 160
f 161 166 164
f 164 162 160
f 164 163 162
f 164 165 163
f 164 166 279
f 164 278 165
f 164 279 278
f 167 168 166
f 167 171 175
f 167 175 168
f 279 166 168
f 175 286 168
f 141 169 158
f 158 169 171
f 169 170 171
f 169 147 170
f 171 170 176
f 170 174 176
f 147 172 170
f 148 220 173
f 148 173 172
f 170 172 174
f 172 173 174
f 173 179 174
f 171 176 175
f 175 176 177
f 176 178 177
f 175 177 286
f 176 174 178
f 174 179 178
f 178 179 180
f 177 178 289
f 178 180 289
f 43 181 131
f 131 181 182
f 181 60 184
f 181 184 183
f 181 183 182
f 62 185 184
f 184 186 183
f 184 185 186
f 185 64 194
f 185 194 193
f 185 193 186
f 186 193 191
f 182 187 136
f 182 183 187
f 187 183 190
f 136 187 188
f 187 189 188
f 187 190 189
f 183 186 190
f 186 191 190
f 190 191 192
f 190 192 189
f 192 191 199
f 192 204 189
f 192 199 205
f 194 195 193
f 194 72 195
f 193 196 191
f 193 195 196
f 72 197 195
f 195 197 198
f 195 198 196
f 191 196 199
f 196 200 199
f 198 200 196
f 199 200 210
f 199 210 205
f 145 188 201
f 188 189 201
f 145 201 202
f 201 189 204
f 201 204 203
f 201 203 202
f 202 203 220
f 202 220 148
f 203 206 221
f 192 205 204
f 204 205 206
f 204 206 203
f 197 103 207
f 197 207 198
f 103 208 207
f 198 207 212
f 207 208 209
f 207 209 212
f 198 212 200
f 200 212 211
f 200 211 210
f 210 211 227
f 211 216 227
f 212 213 211
f 209 213 212
f 211 213 216
f 208 214 209
f 208 107 214
f 209 214 215
f 107 312 214
f 214 312 313
f 214 313 215
f 215 313 316
f 209 215 213
f 213 215 217
f 213 217 216
f 217 231 216
f 215 316 217
f 217 316 317
f 217 317 231
f 203 221 220
f 206 205 218
f 206 219 221
f 206 218 219
f 218 229 219
f 219 229 225
f 220 222 173
f 220 221 222
f 221 224 222
f 173 222 179
f 221 219 224
f 219 225 224
f 229 230 225
f 222 224 223
f 179 222 223
f 179 223 180
f 224 226 223
f 223 324 180
f 223 226 324
f 224 225 226
f 225 230 326
f 226 225 326
f 205 210 218
f 210 227 218
f 218 227 229
f 227 228 229
f 227 216 228
f 228 216 231
f 229 228 230
f 228 231 334
f 228 334 230
f 95 89 233
f 233 89 232
f 233 232 234
f 233 234 235
f 95 233 236
f 233 237 236
f 236 237 239
f 233 235 238
f 233 238 237
f 238 243 237
f 237 243 244
f 239 237 246
f 236 239 97
f 97 239 240
f 239 241 240
f 240 242 252
f 239 246 241
f 240 241 242
f 237 244 246
f 246 244 245
f 246 245 248
f 241 246 247
f 246 250 247
f 241 247 242
f 242 247 258
f 246 248 250
f 250 248 249
f 250 249 251
f 250 251 262
f 247 261 258
f 250 261 247
f 252 254 253
f 252 242 254
f 253 254 256
f 253 256 255
f 255 257 312
f 255 256 257
f 242 258 254
f 254 258 259
f 254 259 256
f 258 263 259
f 258 261 263
f 259 263 270
f 256 259 260
f 256 260 257
f 260 320 257
f 259 270 260
f 260 270 271
f 260 271 320
f 250 262 261
f 261 262 266
f 266 262 264
f 261 266 263
f 263 266 268
f 263 268 270
f 266 264 265
f 266 265 267
f 266 267 269
f 266 269 268
f 268 269 273
f 270 268 272
f 270 272 271
f 268 273 272
f 272 276 345
f 272 345 271
f 272 273 274
f 272 274 276
f 276 275 277
f 276 274 275
f 276 277 356
f 279 280 278
f 279 282 280
f 279 168 281
f 279 281 282
f 168 286 281
f 286 288 281
f 281 283 282
f 281 288 283
f 288 284 283
f 288 285 284
f 288 294 285
f 294 293 285
f 286 287 288
f 286 177 287
f 177 289 287
f 287 292 288
f 287 291 292
f 287 289 291
f 289 180 290
f 289 290 291
f 290 298 291
f 288 292 294
f 294 295 293
f 294 300 295
f 294 296 300
f 294 292 296
f 292 297 296
f 292 291 297
f 291 298 297
f 296 297 303
f 298 299 297
f 297 299 303
f 296 301 300
f 296 302 301
f 296 303 302
f 303 305 302
f 299 308 303
f 303 308 305
f 305 304 302
f 305 306 304
f 305 307 306
f 308 311 305
f 305 309 307
f 311 309 305
f 311 310 309
f 311 380 310
f 312 314 313
f 313 315 316
f 312 257 314
f 313 314 315
f 316 318 317
f 316 315 318
f 317 318 319
f 257 320 314
f 314 320 321
f 314 321 315
f 321 322 315
f 320 343 321
f 320 271 343
f 321 344 322
f 321 343 344
f 315 322 318
f 318 322 323
f 318 323 319
f 322 344 348
f 322 348 323
f 323 348 340
f 180 324 290
f 290 324 325
f 324 226 327
f 324 327 325
f 290 325 298
f 327 330 325
f 226 326 327
f 326 336 328
f 327 326 328
f 327 328 330
f 298 325 329
f 325 330 329
f 298 329 299
f 299 329 365
f 330 332 329
f 329 332 365
f 328 341 331
f 330 328 331
f 330 331 332
f 331 338 367
f 332 331 367
f 334 231 333
f 334 336 230
f 334 335 336
f 334 333 335
f 333 337 335
f 336 335 341
f 317 333 231
f 317 319 333
f 333 319 337
f 230 336 326
f 336 341 328
f 335 339 341
f 335 337 339
f 339 337 340
f 339 340 382
f 339 338 341
f 339 382 338
f 323 337 319
f 323 340 337
f 341 338 331
f 271 345 343
f 343 345 346
f 343 346 344
f 345 355 346
f 357 383 347
f 346 349 344
f 344 349 348
f 348 347 340
f 348 349 347
f 346 363 349
f 349 363 357
f 349 357 347
f 352 351 353
f 352 353 354
f 352 354 360
f 345 276 355
f 276 356 355
f 346 355 363
f 355 352 363
f 355 356 350
f 355 350 351
f 355 351 352
f 357 363 360
f 357 361 383
f 357 360 361
f 360 358 359
f 360 359 362
f 352 360 363
f 360 354 358
f 360 362 361
f 361 362 342
f 338 384 367
f 364 367 384
f 364 384 370
f 299 365 308
f 332 368 365
f 365 368 366
f 366 368 381
f 308 365 366
f 308 366 311
f 332 367 368
f 368 367 364
f 368 364 381
f 364 375 381
f 364 370 375
f 375 370 373
f 373 372 374
f 373 374 371
f 361 342 373
f 373 342 372
f 375 373 371
f 375 377 369
f 375 376 377
f 375 369 381
f 375 371 376
f 311 366 379
f 311 379 380
f 366 381 379
f 381 378 379
f 381 369 378
f 340 347 382
f 338 382 384
f 384 382 383
f 384 383 370
f 382 347 383
f 383 361 370
f 361 373 370
f 22 121 4
f 32 28 25
f 32 26 28
f 25 28 29
f 24 29 117
f 24 117 115
f 116 20 115
f 23 115 20
f 23 24 115
f 24 25 29
f 21 121 22
f 21 20 118
f 5 4 124
f 2 5 125
f 2 125 16
f 16 150 8
f 116 119 20
f 118 20 119
f 21 118 121
f 4 121 124
f 8 150 9
f 10 150 12
f 9 150 10
f 75 150 151
f 14 150 15
f 12 150 14
f 15 150 75
f 75 151 76
f 78 76 153
f 78 153 79
f 80 79 153
f 80 153 83
f 83 153 85
f 86 85 153
f 86 153 88
f 88 153 89
f 89 153 232
f 232 153 234
f 153 235 234
f 5 124 126
f 5 126 125
f 16 125 150
f 153 76 151
f 153 154 238
f 154 156 238
f 156 159 238
f 160 244 159
f 153 238 235
f 238 159 243
f 244 243 159
f 160 245 244
f 160 248 245
f 160 249 248
f 160 251 249
f 160 262 251
f 160 264 262
f 160 265 264
f 160 267 265
f 160 269 267
f 284 285 283
f 285 293 283
f 295 283 293
f 160 162 342
f 162 163 342
f 165 342 163
f 165 278 342
f 278 280 372
f 280 282 374
f 282 283 371
f 295 300 283
f 300 301 283
f 301 302 283
f 377 376 283
f 302 304 283
f 307 283 306
f 304 306 283
f 307 309 283
f 309 310 283
f 310 380 283
f 379 283 380
f 379 378 283
f 369 283 378
f 377 283 369
f 160 273 269
f 160 274 273
f 160 275 274
f 160 277 275
f 160 356 277
f 160 350 356
f 160 351 350
f 160 353 351
f 160 354 353
f 160 358 354
f 160 359 358
f 160 362 359
f 160 342 362
f 278 372 342
f 280 374 372
f 282 371 374
f 376 371 283

