# https://github.com/mikedh/trimesh
v 0.10635544 -0.98887885 -0.07547366
v 0.19119313 -0.97086012 -0.13285093
v 0.21304819 -0.96451235 -0.14873959
v 0.22011703 -0.96639258 -0.13279247
v -0.51425022 -0.83951086 0.16167834
v -0.47450516 -0.86448491 0.15649539
v -0.35786402 -0.92425299 0.13250330
v -0.35513833 -0.92524636 0.13168082
v -0.35886830 -0.92378366 0.13273926
v -0.43984371 -0.85963291 0.25786000
v -0.43388855 -0.86266845 0.25989193
v -0.43624747 -0.86039609 0.26236638
v -0.42840570 -0.86092091 0.27141869
v -0.35601890 -0.86255813 0.35279983
v -0.32629135 -0.86074722 0.38453376
v -0.25472602 -0.95878369 0.09939434
v -0.23590644 -0.96506935 0.09334311
v -0.22011703 -0.96639258 0.13279247
v -0.18297271 -0.97726321 0.07276084
v -0.30125889 -0.91624415 0.26408276
v -0.23867694 -0.89100653 0.38618737
v -0.16245985 -0.95105654 0.26286554
v -0.27165881 -0.85256231 0.43955314
v -0.19179045 -0.83295739 0.51479596
v -0.17019452 -0.82626879 0.53419828
v -0.15643446 -0.84017789 0.51925850
v -0.11866383 -0.98948658 0.04607324
v -0.08224247 -0.98768836 0.13307111
v -0.02227339 -0.99845630 0.00000000
v -0.00533683 -0.99920106 -0.00863518
v 0.00000000 -1.00000000 0.00000000
v 0.01118645 -0.99832541 -0.01810005
v -0.08232358 -0.91298246 0.39960706
v 0.00000000 -0.96386129 0.26640469
v 0.13795224 -0.99043888 0.00000000
v 0.08224247 -0.98768836 0.13307111
v 0.22011703 -0.96639258 0.13279247
v 0.08232358 -0.91298246 0.39960706
v 0.16245985 -0.95105654 0.26286554
v 0.23867694 -0.89100653 0.38618737
v -0.10517852 -0.79935050 0.58800203
v -0.07464860 -0.78584170 0.61267668
v -0.06437377 -0.78020436 0.62023956
v 0.00000000 -0.85065079 0.52573109
v 0.02507947 -0.72679824 0.68314224
v 0.08114185 -0.78020436 0.62023956
v 0.15643446 -0.84017789 0.51925850
v 0.23708633 -0.75865233 0.60682517
v 0.05430528 -0.70613045 0.70150608
v 0.06400619 -0.69927019 0.70760155
v 0.12177546 -0.65561634 0.74199724
v 0.16062203 -0.69378048 0.70204645
v 0.20994611 -0.57844603 0.78732938
v 0.21543205 -0.57346278 0.79002643
v 0.22060372 -0.56811237 0.79212546
v -0.45523462 0.49494806 -0.73658508
v -0.38497928 0.49639329 -0.77534956
v -0.35172355 0.49514204 -0.79244226
v -0.34615302 0.51612163 -0.78345168
v -0.48985487 0.49095511 -0.71535254
v -0.43350002 0.56241149 -0.70141774
v -0.41801316 0.58116651 -0.69698906
v -0.40166789 0.59869313 -0.69077379
v -0.35169110 0.64901537 -0.66955036
v -0.32813486 0.67273438 -0.65954685
v -0.24450417 0.47898674 -0.83968019
v -0.32051325 0.49167913 -0.80699760
v -0.18184626 0.46454674 -0.86403954
v -0.21302287 0.57125163 -0.79264921
v -0.29600459 0.64741188 -0.70230985
v -0.16062203 0.69378048 -0.70204645
v -0.24273765 0.74798238 -0.61598384
v -0.23362553 0.75571620 -0.61113489
v -0.22787417 0.75992548 -0.60761762
v -0.13132666 0.44940853 -0.88141024
v 0.00000000 0.39625394 -0.91760337
v -0.00862614 0.40039864 -0.91565019
v 0.00000000 0.40335536 -0.91504341
v 0.13199776 0.31664106 -0.93697798
v 0.09989066 0.33772981 -0.93338454
v 0.13165537 0.35822880 -0.92430460
v 0.20214501 0.26297927 -0.93990225
v -0.13120037 0.48444164 -0.86492932
v -0.08108629 0.61564201 -0.78384304
v 0.00000000 0.52573109 -0.85065079
v -0.08114185 0.78020436 -0.62023956
v -0.13514830 0.82322264 -0.54780710
v -0.09879884 0.84403646 -0.52164322
v 0.00000000 0.70290703 -0.71128172
v 0.00000000 0.85065079 -0.52573109
v 0.13120037 0.48444164 -0.86492932
v 0.08108629 0.61564201 -0.78384304
v 0.21302287 0.57125163 -0.79264921
v 0.16062203 0.69378048 -0.70204645
v 0.08114185 0.78020436 -0.62023956
v 0.23708633 0.75865233 -0.60682517
v 0.15643446 0.84017789 -0.51925850
v -0.03459100 0.87684155 -0.47273588
v 0.05350415 0.91298246 -0.39960706
v 0.07216833 0.91925877 -0.38317552
v 0.08232358 0.91298246 -0.39960706
v 0.11704748 0.92948037 -0.34035552
v 0.23867694 0.89100653 -0.38618737
v 0.17527115 0.94096273 -0.28359467
v 0.19490668 0.94291848 -0.26315010
v 0.53657168 -0.65955013 -0.52094507
v 0.57362252 -0.51619530 -0.63397646
v 0.57326448 -0.51894414 -0.63199884
v 0.54922014 -0.62442452 -0.55056280
v 0.40353283 -0.85299331 -0.32370952
v 0.24743755 -0.94950759 -0.17699800
v 0.31443378 -0.91810822 -0.23345754
v 0.34512335 -0.89852512 -0.26269674
v 0.35822880 -0.92430460 -0.13165537
v 0.47891724 -0.76817244 -0.41937292
v 0.43912041 -0.81644982 -0.36659858
v 0.51612163 -0.78345168 -0.34615302
v 0.43388855 -0.86266845 -0.25989193
v 0.48444164 -0.86492932 -0.13120037
v 0.57125163 -0.79264921 -0.21302287
v 0.61564201 -0.78384304 -0.08108629
v 0.50055271 -0.73366344 -0.45342898
v 0.58778524 -0.68819094 -0.42532539
v 0.57024097 -0.35242832 -0.73849273
v 0.55539018 -0.27172008 -0.78290230
v 0.57451099 -0.38842875 -0.71741599
v 0.57569474 -0.46987379 -0.66516960
v 0.57498240 -0.50575370 -0.64148861
v 0.60150093 -0.37174803 -0.70710677
v 0.52041668 -0.15557092 -0.83949006
v 0.51938659 -0.15333828 -0.84038520
v 0.52140695 -0.15841325 -0.83817768
v 0.46207199 -0.04155152 -0.88211173
v 0.60682517 -0.23708633 -0.75865233
v 0.62023956 -0.08114185 -0.78020436
v 0.64657778 -0.56425422 -0.51337546
v 0.64741188 -0.70230985 -0.29600459
v 0.70710677 -0.60150093 -0.37174803
v 0.69378048 -0.70204645 -0.16062203
v 0.75865233 -0.60682517 -0.23708633
v 0.78020436 -0.62023956 -0.08114185
v 0.84017789 -0.51925850 -0.15643446
v 0.68819094 -0.42532539 -0.58778524
v 0.70230985 -0.29600459 -0.64741188
v 0.78345168 -0.34615302 -0.51612163
v 0.70204645 -0.16062203 -0.69378048
v 0.79264921 -0.21302287 -0.57125163
v 0.78384304 -0.08108629 -0.61564201
v 0.75793540 -0.46842986 -0.45399049
v 0.80901700 -0.50000000 -0.30901700
v 0.84391147 -0.38361374 -0.37503856
v 0.89100653 -0.38618737 -0.23867694
v 0.91298246 -0.39960706 -0.08232358
v 0.86266845 -0.25989193 -0.43388855
v 0.86492932 -0.13120037 -0.48444164
v 0.91624415 -0.26408276 -0.30125889
v 0.92430460 -0.13165537 -0.35822880
v 0.95105654 -0.26286554 -0.16245985
v 0.96639258 -0.13279247 -0.22011703
v 0.98768836 -0.13307111 -0.08224247
v 0.27326652 -0.96193838 0.00000000
v 0.40335536 -0.91504341 0.00000000
v 0.35822880 -0.92430460 0.13165537
v 0.30125889 -0.91624415 0.26408276
v 0.37503856 -0.84391147 0.38361374
v 0.52573109 -0.85065079 0.00000000
v 0.48444164 -0.86492932 0.13120037
v 0.61564201 -0.78384304 0.08108629
v 0.43388855 -0.86266845 0.25989193
v 0.51612163 -0.78345168 0.34615302
v 0.57125163 -0.79264921 0.21302287
v 0.30901700 -0.80901700 0.50000000
v 0.37174803 -0.70710677 0.60150093
v 0.29600459 -0.64741188 0.70230985
v 0.42532539 -0.58778524 0.68819094
v 0.34615302 -0.51612163 0.78345168
v 0.45399049 -0.75793540 0.46842986
v 0.51337546 -0.64657778 0.56425422
v 0.58778524 -0.68819094 0.42532539
v 0.30407301 -0.47600657 0.82209533
v 0.38288772 -0.37777284 0.84273970
v 0.38442123 -0.37579021 0.84309292
v 0.38578790 -0.37380522 0.84325963
v 0.46842986 -0.45399049 0.75793540
v 0.44804227 -0.27690536 0.84644687
v 0.50000000 -0.30901700 0.80901700
v 0.56425422 -0.51337546 0.64657778
v 0.60150093 -0.37174803 0.70710677
v 0.51610518 -0.15838331 0.84138232
v 0.51767927 -0.15545629 0.84113884
v 0.51925850 -0.15643446 0.84017789
v 0.51945794 -0.15161450 0.84050059
v 0.60682517 -0.23708633 0.75865233
v 0.56930476 -0.03741093 0.81817102
v 0.62023956 -0.08114185 0.78020436
v 0.70290703 -0.71128172 0.00000000
v 0.69378048 -0.70204645 0.16062203
v 0.78020436 -0.62023956 0.08114185
v 0.64741188 -0.70230985 0.29600459
v 0.70710677 -0.60150093 0.37174803
v 0.75865233 -0.60682517 0.23708633
v 0.85065079 -0.52573109 0.00000000
v 0.84017789 -0.51925850 0.15643446
v 0.64657778 -0.56425422 0.51337546
v 0.80901700 -0.50000000 0.30901700
v 0.91298246 -0.39960706 0.08232358
v 0.89100653 -0.38618737 0.23867694
v 0.84391147 -0.38361374 0.37503856
v 0.96386129 -0.26640469 0.00000000
v 0.95105654 -0.26286554 0.16245985
v 0.98768836 -0.13307111 0.08224247
v 0.91624415 -0.26408276 0.30125889
v 0.96639258 -0.13279247 0.22011703
v 0.92430460 -0.13165537 0.35822880
v 0.68819094 -0.42532539 0.58778524
v 0.75793540 -0.46842986 0.45399049
v 0.78345168 -0.34615302 0.51612163
v 0.70230985 -0.29600459 0.64741188
v 0.79264921 -0.21302287 0.57125163
v 0.78384304 -0.08108629 0.61564201
v 0.70204645 -0.16062203 0.69378048
v 0.86266845 -0.25989193 0.43388855
v 0.86492932 -0.13120037 0.48444164
v 0.26328936 0.21078925 -0.93893498
v 0.29351848 0.18140441 -0.93613046
v 0.39960706 0.05778711 -0.91298246
v 0.38755268 0.07487357 -0.91758680
v 0.39960706 0.08232358 -0.91298246
v 0.36309251 0.10372263 -0.92314953
v 0.26408276 0.30125889 -0.91624415
v 0.25989193 0.43388855 -0.86266845
v 0.38618737 0.23867694 -0.89100653
v 0.38361374 0.37503856 -0.84391147
v 0.52573109 0.00000000 -0.85065079
v 0.51925850 0.15643446 -0.84017789
v 0.62023956 0.08114185 -0.78020436
v 0.50000000 0.30901700 -0.80901700
v 0.46842986 0.45399049 -0.75793540
v 0.60682517 0.23708633 -0.75865233
v 0.60150093 0.37174803 -0.70710677
v 0.34615302 0.51612163 -0.78345168
v 0.29600459 0.64741188 -0.70230985
v 0.42532539 0.58778524 -0.68819094
v 0.30901700 0.80901700 -0.50000000
v 0.37174803 0.70710677 -0.60150093
v 0.51337546 0.64657778 -0.56425422
v 0.56425422 0.51337546 -0.64657778
v 0.37503856 0.84391147 -0.38361374
v 0.25772670 0.94314849 -0.19364619
v 0.30125889 0.91624415 -0.26408276
v 0.31062004 0.93881285 -0.13204734
v 0.33719134 0.93362308 -0.09905627
v 0.35822880 0.92430460 -0.13165537
v 0.58778524 0.68819094 -0.42532539
v 0.45399049 0.75793540 -0.46842986
v 0.51612163 0.78345168 -0.34615302
v 0.43388855 0.86266845 -0.25989193
v 0.48444164 0.86492932 -0.13120037
v 0.57125163 0.79264921 -0.21302287
v 0.61564201 0.78384304 -0.08108629
v 0.71128172 0.00000000 -0.70290703
v 0.70204645 0.16062203 -0.69378048
v 0.78384304 0.08108629 -0.61564201
v 0.79264921 0.21302287 -0.57125163
v 0.70230985 0.29600459 -0.64741188
v 0.68819094 0.42532539 -0.58778524
v 0.78345168 0.34615302 -0.51612163
v 0.85065079 0.00000000 -0.52573109
v 0.86492932 0.13120037 -0.48444164
v 0.91504341 0.00000000 -0.40335536
v 0.96193838 0.00000000 -0.27326652
v 0.92430460 0.13165537 -0.35822880
v 0.99043888 0.00000000 -0.13795224
v 0.96639258 0.13279247 -0.22011703
v 0.98768836 0.13307111 -0.08224247
v 0.86266845 0.25989193 -0.43388855
v 0.84391147 0.38361374 -0.37503856
v 0.91624415 0.26408276 -0.30125889
v 0.89100653 0.38618737 -0.23867694
v 0.95105654 0.26286554 -0.16245985
v 0.91298246 0.39960706 -0.08232358
v 0.64657778 0.56425422 -0.51337546
v 0.70710677 0.60150093 -0.37174803
v 0.75793540 0.46842986 -0.45399049
v 0.80901700 0.50000000 -0.30901700
v 0.75865233 0.60682517 -0.23708633
v 0.78020436 0.62023956 -0.08114185
v 0.64741188 0.70230985 -0.29600459
v 0.69378048 0.70204645 -0.16062203
v 0.84017789 0.51925850 -0.15643446
v 0.60931146 0.07175935 0.78835011
v 0.61395377 0.08582860 0.78393751
v 0.62023956 0.08114185 0.78020436
v 0.61836326 0.10295434 0.77718979
v 0.40750632 0.91247797 -0.00671641
v 0.39552933 0.91664952 -0.02283220
v 0.41226307 0.91035628 0.00000000
v 0.61336416 0.69424772 0.36984879
v 0.52573109 0.85065079 0.00000000
v 0.48893002 0.86337715 0.11693824
v 0.49506217 0.85836548 0.12714368
v 0.51216084 0.84184963 0.15732703
v 0.61564201 0.78384304 0.08108629
v 0.54717004 0.80492455 0.22123966
v 0.57125163 0.79264921 0.21302287
v 0.55856621 0.79053283 0.24365619
v 0.59187508 0.73663348 0.31721777
v 1.00000000 0.00000000 0.00000000
v 0.99043888 0.00000000 0.13795224
v 0.98768836 0.13307111 0.08224247
v 0.96193838 0.00000000 0.27326652
v 0.96639258 0.13279247 0.22011703
v 0.92430460 0.13165537 0.35822880
v 0.96386129 0.26640469 0.00000000
v 0.95105654 0.26286554 0.16245985
v 0.91298246 0.39960706 0.08232358
v 0.89100653 0.38618737 0.23867694
v 0.84391147 0.38361374 0.37503856
v 0.91624415 0.26408276 0.30125889
v 0.78384304 0.08108629 0.61564201
v 0.79264921 0.21302287 0.57125163
v 0.71128172 0.00000000 0.70290703
v 0.64338726 0.20772637 0.73374355
v 0.70204645 0.16062203 0.69378048
v 0.66505820 0.41102856 0.61962557
v 0.66506588 0.44175443 0.59875518
v 0.68819094 0.42532539 0.58778524
v 0.78345168 0.34615302 0.51612163
v 0.65287435 0.26550072 0.70500463
v 0.66085452 0.32715231 0.67196000
v 0.70230985 0.29600459 0.64741188
v 0.85065079 0.00000000 0.52573109
v 0.86492932 0.13120037 0.48444164
v 0.91504341 0.00000000 0.40335536
v 0.86266845 0.25989193 0.43388855
v 0.78020436 0.62023956 0.08114185
v 0.70710677 0.60150093 0.37174803
v 0.80901700 0.50000000 0.30901700
v 0.75865233 0.60682517 0.23708633
v 0.70290703 0.71128172 0.00000000
v 0.69378048 0.70204645 0.16062203
v 0.64741188 0.70230985 0.29600459
v 0.85065079 0.52573109 0.00000000
v 0.84017789 0.51925850 0.15643446
v 0.65482372 0.55715847 0.50897807
v 0.65263700 0.56798279 0.49919787
v 0.65813118 0.52568227 0.53403449
v 0.64205301 0.60543567 0.46201134
v 0.62664527 0.65995818 0.40787658
v 0.75793540 0.46842986 0.45399049
f 4 1 2
f 4 35 1
f 4 2 3
f 4 3 111
f 20 9 7
f 20 7 8
f 11 6 9
f 10 5 6
f 11 10 6
f 11 12 10
f 11 13 12
f 11 9 20
f 11 20 14
f 11 14 13
f 20 8 18
f 18 16 17
f 18 8 16
f 18 17 19
f 18 19 28
f 18 28 22
f 20 21 14
f 20 22 21
f 21 15 14
f 20 18 22
f 22 33 21
f 21 23 15
f 21 33 26
f 21 26 23
f 26 24 23
f 26 25 24
f 26 41 25
f 28 27 31
f 31 27 29
f 28 19 27
f 31 29 30
f 31 30 32
f 31 32 35
f 28 31 36
f 28 34 22
f 22 34 33
f 28 36 34
f 33 34 38
f 35 32 1
f 31 35 36
f 36 35 37
f 4 161 35
f 35 161 37
f 36 37 39
f 36 39 34
f 34 39 38
f 37 164 39
f 38 39 40
f 39 164 40
f 33 44 26
f 26 44 41
f 44 42 41
f 44 43 42
f 33 38 44
f 44 46 43
f 46 45 43
f 46 49 45
f 38 47 44
f 44 47 46
f 38 40 47
f 40 172 47
f 46 47 48
f 47 172 48
f 46 50 49
f 46 52 50
f 52 51 50
f 46 48 52
f 48 174 52
f 52 174 53
f 52 53 51
f 174 54 53
f 56 60 61
f 57 56 61
f 59 61 62
f 59 57 61
f 59 62 63
f 59 58 57
f 59 67 58
f 59 63 70
f 70 63 64
f 70 64 65
f 59 66 67
f 59 70 69
f 59 69 66
f 83 68 66
f 83 66 69
f 83 75 68
f 83 69 84
f 70 71 69
f 69 71 84
f 70 65 72
f 70 72 71
f 71 72 73
f 71 73 74
f 71 74 86
f 86 74 87
f 83 78 75
f 78 77 75
f 78 76 77
f 78 80 76
f 78 81 80
f 78 91 81
f 81 79 80
f 81 82 79
f 81 230 82
f 81 91 231
f 81 231 230
f 83 85 78
f 83 84 85
f 84 71 89
f 78 85 91
f 84 92 85
f 84 89 92
f 71 86 89
f 86 87 88
f 86 88 90
f 90 88 98
f 86 95 89
f 86 90 95
f 91 85 92
f 91 92 93
f 92 89 94
f 91 93 231
f 92 94 93
f 93 94 242
f 94 96 242
f 89 95 94
f 90 97 95
f 94 95 96
f 95 97 96
f 97 244 96
f 90 98 99
f 90 99 101
f 90 101 97
f 101 99 100
f 101 100 102
f 101 102 103
f 97 101 103
f 97 103 244
f 103 102 104
f 103 104 250
f 250 104 105
f 123 106 109
f 136 123 109
f 136 109 108
f 118 113 110
f 118 110 116
f 114 111 112
f 4 111 114
f 4 114 161
f 118 114 113
f 114 112 113
f 118 119 114
f 114 119 162
f 117 115 122
f 118 116 117
f 117 116 115
f 118 117 120
f 117 137 120
f 118 120 119
f 119 121 166
f 119 120 121
f 117 122 123
f 123 122 106
f 117 123 137
f 129 126 124
f 129 124 134
f 134 124 125
f 143 108 107
f 143 107 128
f 143 128 127
f 129 127 126
f 234 131 133
f 134 125 132
f 134 132 135
f 135 130 131
f 135 132 130
f 135 131 234
f 120 139 121
f 123 138 137
f 137 138 140
f 136 138 123
f 136 149 138
f 138 149 150
f 138 150 140
f 120 137 139
f 137 140 139
f 121 139 196
f 139 140 141
f 139 141 196
f 140 150 142
f 140 142 141
f 142 202 141
f 129 143 127
f 136 108 143
f 136 143 149
f 129 144 143
f 129 134 144
f 143 145 149
f 143 144 145
f 144 147 145
f 134 135 146
f 135 261 146
f 144 134 146
f 144 146 147
f 146 148 147
f 146 261 148
f 145 147 154
f 147 155 154
f 147 148 155
f 148 268 155
f 145 151 149
f 149 151 150
f 151 152 150
f 145 154 151
f 151 156 152
f 151 154 156
f 142 150 152
f 142 152 153
f 142 153 202
f 152 158 153
f 156 158 152
f 153 158 209
f 154 155 157
f 154 157 156
f 155 268 270
f 155 270 157
f 156 157 159
f 157 270 271
f 157 271 159
f 156 159 158
f 158 160 209
f 158 159 160
f 159 271 273
f 159 273 160
f 160 273 308
f 37 161 163
f 37 163 164
f 114 162 161
f 161 162 163
f 163 162 167
f 163 167 169
f 40 164 165
f 163 169 164
f 164 169 165
f 119 166 162
f 162 166 167
f 121 168 166
f 167 166 168
f 167 168 171
f 167 171 169
f 169 171 170
f 169 170 165
f 165 170 177
f 171 199 170
f 170 199 179
f 40 165 172
f 48 172 173
f 165 177 172
f 177 173 172
f 48 173 174
f 174 55 54
f 174 176 55
f 176 180 55
f 173 175 174
f 174 175 176
f 175 184 176
f 177 170 179
f 177 179 178
f 177 178 173
f 173 178 175
f 179 204 178
f 178 204 187
f 175 178 187
f 175 187 184
f 176 181 180
f 176 184 181
f 184 182 181
f 186 183 182
f 184 186 182
f 186 185 183
f 184 188 186
f 184 187 188
f 187 215 188
f 188 193 186
f 186 191 185
f 191 189 185
f 191 190 189
f 191 192 190
f 186 193 191
f 191 193 195
f 191 194 192
f 191 195 194
f 121 196 168
f 168 197 171
f 168 196 197
f 141 198 196
f 196 198 197
f 197 198 201
f 141 202 198
f 198 203 201
f 171 197 199
f 197 201 199
f 179 199 200
f 199 201 200
f 201 203 205
f 200 201 205
f 200 205 216
f 198 202 203
f 179 200 204
f 200 216 204
f 205 208 216
f 153 206 202
f 202 206 203
f 203 206 207
f 153 209 206
f 206 210 207
f 206 209 210
f 203 207 205
f 207 208 205
f 207 212 208
f 208 212 222
f 207 210 212
f 160 211 209
f 209 211 210
f 210 211 213
f 160 308 211
f 211 308 309
f 211 309 213
f 222 212 214
f 210 213 212
f 212 213 214
f 213 311 214
f 213 309 311
f 214 311 334
f 187 204 215
f 204 216 215
f 216 208 217
f 216 217 215
f 215 217 218
f 218 217 219
f 188 215 218
f 188 218 193
f 218 221 193
f 221 195 193
f 221 322 195
f 218 219 221
f 221 219 220
f 221 220 322
f 208 222 217
f 222 219 217
f 222 223 219
f 222 214 223
f 223 214 334
f 223 334 332
f 223 220 219
f 223 332 220
f 228 227 229
f 228 226 227
f 228 133 226
f 228 229 232
f 232 229 225
f 230 224 82
f 230 225 224
f 232 225 230
f 230 231 233
f 231 241 233
f 232 230 233
f 232 233 237
f 233 241 238
f 228 234 133
f 228 235 234
f 228 232 235
f 234 235 236
f 135 234 236
f 236 235 239
f 232 237 235
f 233 238 237
f 238 240 237
f 235 237 239
f 239 237 240
f 238 247 240
f 240 247 266
f 231 93 241
f 93 242 241
f 238 241 243
f 241 242 243
f 242 245 243
f 96 245 242
f 96 244 245
f 245 244 255
f 238 243 247
f 245 246 243
f 243 246 247
f 247 246 282
f 246 254 282
f 245 255 246
f 103 248 244
f 103 250 248
f 244 248 255
f 250 257 248
f 250 105 249
f 250 249 253
f 253 249 251
f 253 251 252
f 250 253 257
f 257 253 258
f 253 252 296
f 253 296 295
f 253 295 258
f 255 254 246
f 248 256 255
f 255 256 254
f 257 259 256
f 248 257 256
f 254 256 288
f 288 256 259
f 257 258 259
f 258 260 259
f 258 299 260
f 135 236 261
f 236 262 261
f 236 239 262
f 148 261 263
f 261 262 263
f 148 263 268
f 262 264 263
f 239 240 265
f 239 265 262
f 240 266 265
f 262 265 264
f 265 267 264
f 265 266 267
f 266 284 267
f 263 269 268
f 263 264 269
f 264 276 269
f 264 267 276
f 267 284 277
f 284 285 277
f 268 269 270
f 269 272 270
f 269 276 272
f 270 272 271
f 271 272 274
f 272 278 274
f 271 274 273
f 273 274 275
f 273 275 308
f 274 280 275
f 267 277 276
f 272 276 278
f 276 277 278
f 277 285 279
f 277 279 278
f 279 290 281
f 274 278 280
f 278 279 280
f 280 281 314
f 275 280 314
f 280 279 281
f 266 247 282
f 266 282 284
f 284 282 283
f 282 254 283
f 254 288 283
f 283 288 286
f 284 283 285
f 283 286 285
f 288 289 286
f 285 286 290
f 289 287 286
f 289 340 287
f 286 287 290
f 288 259 289
f 289 259 260
f 289 260 340
f 279 285 290
f 290 287 343
f 281 290 343
f 195 293 194
f 293 292 291
f 293 294 292
f 293 291 194
f 258 295 299
f 299 297 300
f 299 295 297
f 299 300 301
f 305 301 302
f 260 299 303
f 303 301 305
f 299 301 303
f 305 302 304
f 305 304 306
f 305 306 307
f 342 305 307
f 342 307 298
f 350 318 338
f 275 310 308
f 308 310 309
f 309 310 312
f 275 314 310
f 310 315 312
f 312 313 311
f 309 312 311
f 311 313 334
f 312 319 313
f 281 343 316
f 316 344 317
f 314 316 315
f 310 314 315
f 281 316 314
f 315 316 317
f 313 319 335
f 335 319 318
f 317 338 318
f 317 318 319
f 312 315 319
f 315 317 319
f 220 332 320
f 322 324 293
f 195 322 293
f 324 329 323
f 324 294 293
f 324 323 294
f 220 320 322
f 322 320 324
f 324 320 321
f 331 327 325
f 327 326 325
f 331 321 328
f 350 328 318
f 331 328 327
f 350 327 328
f 324 331 329
f 331 330 329
f 331 325 330
f 324 321 331
f 333 334 313
f 333 332 334
f 333 320 332
f 333 335 321
f 333 313 335
f 333 321 320
f 335 328 321
f 335 318 328
f 287 340 336
f 287 336 343
f 340 341 336
f 341 339 336
f 336 339 344
f 341 342 339
f 342 298 349
f 337 342 349
f 337 339 342
f 339 338 344
f 337 338 339
f 350 338 337
f 260 303 340
f 341 303 305
f 340 303 341
f 341 305 342
f 336 344 343
f 316 343 344
f 317 344 338
f 350 345 347
f 350 337 346
f 350 346 345
f 350 347 327
f 327 347 326
f 337 348 346
f 337 349 348
f 76 80 5
f 10 61 5
f 10 12 61
f 13 61 12
f 6 5 225
f 8 126 16
f 17 108 19
f 17 16 108
f 9 6 133
f 9 133 7
f 7 133 8
f 19 108 27
f 27 108 29
f 30 108 32
f 30 29 108
f 32 108 1
f 80 79 5
f 82 5 79
f 82 224 5
f 224 225 5
f 6 226 133
f 8 132 125
f 8 130 132
f 8 131 130
f 8 133 131
f 6 229 227
f 6 225 229
f 6 227 226
f 13 14 61
f 14 15 61
f 23 61 15
f 23 24 61
f 24 25 61
f 25 41 61
f 41 42 61
f 61 42 43
f 61 43 45
f 45 49 64
f 50 64 49
f 65 50 51
f 65 51 53
f 65 53 54
f 65 54 55
f 65 55 180
f 65 180 181
f 66 5 67
f 68 5 66
f 68 75 5
f 77 5 75
f 77 76 5
f 56 5 60
f 61 60 5
f 57 5 56
f 57 58 5
f 58 67 5
f 61 45 62
f 62 45 63
f 63 45 64
f 65 64 50
f 65 347 72
f 99 98 100
f 100 98 102
f 72 347 73
f 74 73 347
f 102 98 104
f 105 104 98
f 105 98 249
f 74 347 87
f 87 345 88
f 88 346 98
f 249 98 251
f 251 98 252
f 252 98 296
f 65 181 182
f 65 182 183
f 65 183 185
f 65 185 189
f 65 189 190
f 65 190 192
f 110 113 112
f 1 109 106
f 1 106 122
f 3 122 115
f 110 112 116
f 115 116 111
f 1 122 2
f 3 2 122
f 3 115 111
f 116 112 111
f 108 16 107
f 128 107 16
f 128 16 127
f 8 124 126
f 8 125 124
f 126 127 16
f 1 108 109
f 296 98 295
f 297 295 98
f 297 98 300
f 300 98 301
f 301 98 302
f 65 192 194
f 65 294 323
f 65 194 291
f 65 292 294
f 65 291 292
f 65 323 329
f 65 329 330
f 65 326 347
f 87 347 345
f 88 345 346
f 98 346 348
f 65 330 325
f 65 325 326
f 307 306 98
f 298 98 349
f 349 98 348
f 298 307 98
f 304 302 98
f 304 98 306

