# https://github.com/mikedh/trimesh
v -0.51337546 -0.64657778 -0.56425422
v -0.58778524 -0.68819094 -0.42532539
v -0.75793540 -0.46842986 -0.45399049
v -0.68819094 -0.42532539 -0.58778524
v -0.70230985 -0.29600459 -0.64741188
v -0.78345168 -0.34615302 -0.51612163
v -0.86266845 -0.25989193 -0.43388855
v -0.86846328 -0.26034522 -0.41954321
v -0.56425422 -0.51337546 -0.64657778
v -0.64657778 -0.56425422 -0.51337546
v -0.60150093 -0.37174803 -0.70710677
v -0.37174803 -0.70710677 -0.60150093
v -0.45399049 -0.75793540 -0.46842986
v -0.15643446 -0.84017789 -0.51925850
v -0.23708633 -0.75865233 -0.60682517
v -0.29600459 -0.64741188 -0.70230985
v -0.16062203 -0.69378048 -0.70204645
v -0.30901700 -0.80901700 -0.50000000
v -0.46842986 -0.45399049 -0.75793540
v -0.34615302 -0.51612163 -0.78345168
v -0.50000000 -0.30901700 -0.80901700
v -0.38361374 -0.37503856 -0.84391147
v -0.21302287 -0.57125163 -0.79264921
v -0.25989193 -0.43388855 -0.86266845
v -0.26408276 -0.30125889 -0.91624415
v -0.42532539 -0.58778524 -0.68819094
v -0.69378048 -0.70204645 -0.16062203
v -0.64741188 -0.70230985 -0.29600459
v -0.51612163 -0.78345168 -0.34615302
v -0.57125163 -0.79264921 -0.21302287
v -0.68949062 -0.72243756 -0.01246647
v -0.75672245 -0.64246702 -0.10273712
v -0.70134616 -0.70970225 -0.02747010
v -0.52573109 -0.85065079 0.00000000
v -0.51561010 -0.83897769 0.16057812
v -0.51425022 -0.83951086 0.16167834
v -0.61564201 -0.78384304 -0.08108629
v -0.61564201 -0.78384304 0.06899736
v -0.60942906 -0.78845954 0.07548316
v -0.59473759 -0.79676270 0.08907107
v -0.84430730 -0.45101225 -0.27874091
v -0.80901700 -0.50000000 -0.30901700
v -0.70710677 -0.60150093 -0.37174803
v -0.80719078 -0.55468994 -0.18906803
v -0.82539010 -0.51011914 -0.22884437
v -0.75865233 -0.60682517 -0.23708633
v -0.77351040 -0.61607307 -0.12957767
v -0.86314774 -0.35182551 -0.35541749
v -0.84391147 -0.38361374 -0.37503856
v -0.85900742 -0.38443869 -0.33132890
v -0.86707705 -0.28420156 -0.40282044
v -0.37503856 -0.84391147 -0.38361374
v -0.43388855 -0.86266845 -0.25989193
v -0.48444164 -0.86492932 -0.13120037
v -0.35822880 -0.92430460 -0.13165537
v -0.23867694 -0.89100653 -0.38618737
v -0.30125889 -0.91624415 -0.26408276
v -0.16245985 -0.95105654 -0.26286554
v -0.22011703 -0.96639258 -0.13279247
v -0.40335536 -0.91504341 0.00000000
v -0.48444164 -0.86492932 0.13120037
v -0.47450516 -0.86448491 0.15649539
v -0.35822880 -0.92430460 0.13165537
v -0.35886830 -0.92378366 0.13273926
v -0.35513833 -0.92524636 0.13168082
v -0.35786402 -0.92425299 0.13250330
v -0.27326652 -0.96193838 0.00000000
v -0.25472602 -0.95878369 0.09939434
v -0.18297271 -0.97726321 0.07276084
v -0.23590644 -0.96506935 0.09334311
v -0.60682517 -0.23708633 -0.75865233
v -0.62023956 -0.08114185 -0.78020436
v -0.51925850 -0.15643446 -0.84017789
v -0.62023956 0.08114185 -0.78020436
v -0.52573109 0.00000000 -0.85065079
v -0.79264921 -0.21302287 -0.57125163
v -0.78384304 -0.08108629 -0.61564201
v -0.70204645 -0.16062203 -0.69378048
v -0.86810338 -0.24858432 -0.42721704
v -0.86372560 -0.19971664 -0.45752683
v -0.85710764 -0.14005467 -0.49383566
v -0.85373908 -0.12428441 -0.50254786
v -0.79667985 0.06550595 -0.59836608
v -0.78384304 0.08108629 -0.61564201
v -0.78922129 0.08441025 -0.60693979
v -0.78473115 0.09439217 -0.61116523
v -0.71128172 0.00000000 -0.70290703
v -0.82909536 -0.02616237 -0.55474073
v -0.60682517 0.23708633 -0.75865233
v -0.51925850 0.15643446 -0.84017789
v -0.73856920 0.18174525 -0.64438808
v -0.70204645 0.16062203 -0.69378048
v -0.72983873 0.19646730 -0.64946765
v -0.70220685 0.24306262 -0.66554451
v -0.67707294 0.28043231 -0.67681307
v -0.61800462 0.35934788 -0.69733399
v -0.60599297 0.37452427 -0.70092386
v -0.60150093 0.37174803 -0.70710677
v -0.59860379 0.38276410 -0.70239872
v -0.38618737 -0.23867694 -0.89100653
v -0.39960706 -0.08232358 -0.91298246
v -0.39960706 0.08232358 -0.91298246
v -0.26286554 -0.16245985 -0.95105654
v -0.26640469 0.00000000 -0.96386129
v -0.38618737 0.23867694 -0.89100653
v -0.50000000 0.30901700 -0.80901700
v -0.46842986 0.45399049 -0.75793540
v -0.50564790 0.47705555 -0.71468425
v -0.48985487 0.49095511 -0.71535254
v -0.45523462 0.49494806 -0.73658508
v -0.38361374 0.37503856 -0.84391147
v -0.35172355 0.49514204 -0.79244226
v -0.38497928 0.49639329 -0.77534956
v -0.26286554 0.16245985 -0.95105654
v -0.26408276 0.30125889 -0.91624415
v -0.25989193 0.43388855 -0.86266845
v -0.18184626 0.46454674 -0.86403954
v -0.32051325 0.49167913 -0.80699760
v -0.24450417 0.47898674 -0.83968019
v 0.00000000 -0.70290703 -0.71128172
v 0.00000000 -0.85065079 -0.52573109
v -0.08114185 -0.78020436 -0.62023956
v 0.15643446 -0.84017789 -0.51925850
v 0.08114185 -0.78020436 -0.62023956
v 0.16062203 -0.69378048 -0.70204645
v -0.13120037 -0.48444164 -0.86492932
v -0.08108629 -0.61564201 -0.78384304
v 0.00000000 -0.52573109 -0.85065079
v -0.13165537 -0.35822880 -0.92430460
v 0.00000000 -0.40335536 -0.91504341
v 0.00000000 -0.27326652 -0.96193838
v 0.13120037 -0.48444164 -0.86492932
v 0.08108629 -0.61564201 -0.78384304
v 0.21302287 -0.57125163 -0.79264921
v 0.13165537 -0.35822880 -0.92430460
v 0.23708633 -0.75865233 -0.60682517
v 0.29600459 -0.64741188 -0.70230985
v 0.37174803 -0.70710677 -0.60150093
v 0.30901700 -0.80901700 -0.50000000
v 0.47891724 -0.76817244 -0.41937292
v 0.45399049 -0.75793540 -0.46842986
v 0.50055271 -0.73366344 -0.45342898
v 0.51337546 -0.64657778 -0.56425422
v 0.53657168 -0.65955013 -0.52094507
v 0.34615302 -0.51612163 -0.78345168
v 0.25989193 -0.43388855 -0.86266845
v 0.26408276 -0.30125889 -0.91624415
v 0.38361374 -0.37503856 -0.84391147
v 0.46842986 -0.45399049 -0.75793540
v 0.57451099 -0.38842875 -0.71741599
v 0.57024097 -0.35242832 -0.73849273
v 0.50000000 -0.30901700 -0.80901700
v 0.55539018 -0.27172008 -0.78290230
v 0.42532539 -0.58778524 -0.68819094
v 0.56425422 -0.51337546 -0.64657778
v 0.57498240 -0.50575370 -0.64148861
v 0.57569474 -0.46987379 -0.66516960
v 0.57362252 -0.51619530 -0.63397646
v 0.57326448 -0.51894414 -0.63199884
v 0.54922014 -0.62442452 -0.55056280
v -0.08232358 -0.91298246 -0.39960706
v -0.08224247 -0.98768836 -0.13307111
v 0.00000000 -0.96386129 -0.26640469
v 0.08232358 -0.91298246 -0.39960706
v 0.08224247 -0.98768836 -0.13307111
v 0.16245985 -0.95105654 -0.26286554
v 0.19119313 -0.97086012 -0.13285093
v 0.21304819 -0.96451235 -0.14873959
v -0.13795224 -0.99043888 0.00000000
v -0.02227339 -0.99845630 0.00000000
v -0.00533683 -0.99920106 -0.00863518
v 0.01118645 -0.99832541 -0.01810005
v -0.11866383 -0.98948658 0.04607324
v 0.10635544 -0.98887885 -0.07547366
v 0.23867694 -0.89100653 -0.38618737
v 0.37503856 -0.84391147 -0.38361374
v 0.30125889 -0.91624415 -0.26408276
v 0.24743755 -0.94950759 -0.17699800
v 0.31443378 -0.91810822 -0.23345754
v 0.34512335 -0.89852512 -0.26269674
v 0.43912041 -0.81644982 -0.36659858
v 0.40353283 -0.85299331 -0.32370952
v -0.13279247 -0.22011703 -0.96639258
v -0.13307111 -0.08224247 -0.98768836
v 0.00000000 -0.13795224 -0.99043888
v -0.13307111 0.08224247 -0.98768836
v 0.00000000 0.00000000 -1.00000000
v 0.13279247 -0.22011703 -0.96639258
v 0.13307111 -0.08224247 -0.98768836
v 0.13307111 0.08224247 -0.98768836
v -0.13279247 0.22011703 -0.96639258
v 0.00000000 0.13795224 -0.99043888
v 0.00000000 0.27326652 -0.96193838
v -0.13165537 0.35822880 -0.92430460
v -0.13132666 0.44940853 -0.88141024
v -0.00862614 0.40039864 -0.91565019
v 0.00000000 0.39625394 -0.91760337
v 0.13279247 0.22011703 -0.96639258
v 0.20214501 0.26297927 -0.93990225
v 0.09989066 0.33772981 -0.93338454
v 0.13199776 0.31664106 -0.93697798
v 0.26286554 -0.16245985 -0.95105654
v 0.38618737 -0.23867694 -0.89100653
v 0.26640469 0.00000000 -0.96386129
v 0.38755268 0.07487357 -0.91758680
v 0.36309251 0.10372263 -0.92314953
v 0.39960706 -0.08232358 -0.91298246
v 0.52140695 -0.15841325 -0.83817768
v 0.51925850 -0.15643446 -0.84017789
v 0.52041668 -0.15557092 -0.83949006
v 0.51938659 -0.15333828 -0.84038520
v 0.46207199 -0.04155152 -0.88211173
v 0.39960706 0.05778711 -0.91298246
v 0.26286554 0.16245985 -0.95105654
v 0.26328936 0.21078925 -0.93893498
v 0.29351848 0.18140441 -0.93613046
f 10 1 2
f 1 13 2
f 11 21 19
f 11 71 21
f 10 43 3
f 10 3 4
f 6 5 4
f 6 76 5
f 6 3 49
f 6 7 76
f 6 49 7
f 7 8 79
f 6 4 3
f 10 4 9
f 10 9 1
f 9 11 19
f 10 2 43
f 4 5 11
f 9 4 11
f 5 71 11
f 16 23 17
f 23 127 17
f 1 26 12
f 26 16 12
f 1 12 13
f 12 18 13
f 13 18 52
f 52 18 56
f 14 56 18
f 14 161 56
f 12 15 18
f 16 15 12
f 15 17 122
f 15 122 14
f 16 17 15
f 15 14 18
f 20 16 26
f 20 19 22
f 20 22 24
f 20 26 19
f 22 100 25
f 19 21 22
f 22 21 100
f 20 23 16
f 20 24 23
f 23 24 126
f 22 25 24
f 24 25 129
f 24 129 126
f 25 183 129
f 1 9 26
f 9 19 26
f 46 43 28
f 46 28 27
f 46 27 47
f 27 32 47
f 30 54 37
f 28 43 2
f 29 28 2
f 29 2 13
f 29 30 28
f 30 27 28
f 30 37 27
f 27 33 32
f 37 54 34
f 34 61 40
f 61 35 40
f 37 33 27
f 37 31 33
f 37 38 31
f 37 34 38
f 34 39 38
f 34 40 39
f 49 3 42
f 49 42 41
f 46 42 43
f 43 42 3
f 46 45 42
f 46 44 45
f 46 47 44
f 42 45 41
f 49 50 48
f 49 41 50
f 49 51 7
f 49 48 51
f 7 51 8
f 29 52 53
f 52 57 53
f 29 53 30
f 30 53 54
f 53 55 54
f 53 57 55
f 29 13 52
f 52 56 57
f 56 161 58
f 57 56 58
f 57 59 55
f 57 58 59
f 58 162 59
f 54 60 34
f 55 67 60
f 54 55 60
f 34 60 61
f 62 36 35
f 61 62 35
f 61 63 62
f 60 67 63
f 63 66 64
f 63 65 66
f 60 63 61
f 63 64 62
f 55 59 67
f 59 162 169
f 59 169 67
f 67 68 63
f 67 70 68
f 63 68 65
f 67 169 69
f 67 69 70
f 169 173 69
f 71 78 72
f 72 78 87
f 71 72 73
f 71 73 21
f 73 72 75
f 72 87 74
f 74 87 92
f 72 74 75
f 74 90 75
f 76 78 5
f 77 87 78
f 76 77 78
f 76 7 81
f 76 81 82
f 7 79 80
f 7 80 81
f 76 82 77
f 77 82 88
f 77 88 84
f 84 88 83
f 84 83 85
f 84 85 86
f 77 84 87
f 84 92 87
f 84 86 91
f 5 78 71
f 74 92 89
f 89 92 95
f 89 95 98
f 74 89 90
f 89 106 90
f 89 98 106
f 98 107 106
f 98 108 107
f 84 91 92
f 92 91 93
f 92 93 94
f 92 94 95
f 98 95 96
f 98 96 97
f 98 97 99
f 98 99 108
f 73 101 100
f 73 75 101
f 100 101 103
f 73 100 21
f 101 75 102
f 75 90 102
f 101 102 104
f 25 100 103
f 101 104 103
f 25 103 183
f 103 104 184
f 103 184 183
f 102 114 104
f 184 104 186
f 104 114 186
f 90 105 102
f 102 105 114
f 105 111 115
f 90 106 105
f 105 106 111
f 106 107 111
f 107 108 110
f 108 109 110
f 107 110 113
f 107 112 111
f 111 112 116
f 107 113 112
f 105 115 114
f 114 191 186
f 114 115 191
f 115 194 191
f 111 116 115
f 115 116 194
f 116 119 117
f 116 195 194
f 116 117 195
f 116 112 118
f 116 118 119
f 127 120 17
f 127 133 120
f 133 125 120
f 133 134 125
f 14 122 121
f 14 121 161
f 161 121 164
f 122 17 120
f 122 120 124
f 122 124 121
f 121 124 123
f 121 123 164
f 123 175 164
f 124 120 125
f 124 125 136
f 124 136 123
f 126 130 128
f 23 126 127
f 127 126 128
f 127 128 133
f 126 129 130
f 129 183 131
f 129 131 130
f 128 130 132
f 128 132 133
f 133 132 134
f 134 132 146
f 130 131 135
f 130 135 132
f 131 188 135
f 132 135 146
f 135 188 147
f 134 137 125
f 123 139 175
f 175 139 176
f 136 125 137
f 136 137 138
f 136 138 139
f 137 154 138
f 123 136 139
f 138 141 139
f 139 141 176
f 138 154 143
f 141 142 140
f 138 143 141
f 141 143 144
f 143 160 144
f 141 144 142
f 134 145 137
f 134 146 145
f 145 154 137
f 145 146 148
f 135 147 146
f 146 147 148
f 147 203 148
f 145 148 149
f 145 149 154
f 148 152 149
f 148 203 152
f 149 152 150
f 149 150 157
f 152 151 150
f 152 153 151
f 154 155 143
f 143 155 160
f 155 159 160
f 154 149 155
f 155 158 159
f 155 156 158
f 155 157 156
f 149 157 155
f 58 161 163
f 161 164 163
f 58 163 162
f 162 163 165
f 164 166 163
f 164 175 166
f 163 166 165
f 166 168 165
f 165 168 167
f 166 178 168
f 162 171 169
f 169 170 173
f 162 165 172
f 162 172 171
f 169 171 170
f 165 174 172
f 165 167 174
f 175 177 166
f 175 176 177
f 177 182 180
f 177 176 182
f 166 177 178
f 177 179 178
f 177 180 179
f 176 181 182
f 176 141 181
f 141 140 181
f 183 184 185
f 183 185 131
f 184 187 185
f 184 186 187
f 186 192 187
f 131 185 188
f 185 187 189
f 185 189 188
f 188 189 202
f 189 187 190
f 187 192 190
f 189 190 204
f 186 191 192
f 191 194 193
f 191 193 192
f 194 195 196
f 194 196 193
f 193 197 200
f 193 196 197
f 192 193 198
f 192 198 190
f 198 193 200
f 198 200 201
f 190 198 214
f 198 199 214
f 198 201 199
f 188 202 147
f 147 202 203
f 189 204 202
f 202 207 203
f 202 204 207
f 190 214 204
f 204 214 206
f 207 204 213
f 204 206 205
f 204 205 213
f 203 207 209
f 207 212 209
f 203 209 152
f 152 209 153
f 209 208 153
f 209 212 211
f 209 210 208
f 209 211 210
f 207 213 212
f 214 199 215
f 214 215 216
f 214 216 206
f 44 47 99
f 47 32 108
f 32 33 108
f 33 31 108
f 31 38 108
f 38 39 108
f 39 40 108
f 40 35 108
f 35 36 109
f 62 216 36
f 50 41 95
f 81 80 88
f 79 83 80
f 81 88 82
f 8 51 86
f 8 86 79
f 48 94 51
f 48 50 95
f 91 51 93
f 94 93 51
f 48 95 94
f 80 83 88
f 79 86 85
f 79 85 83
f 91 86 51
f 41 96 95
f 45 97 96
f 45 99 97
f 47 108 99
f 35 109 108
f 110 109 36
f 113 110 36
f 119 118 36
f 112 36 118
f 113 36 112
f 117 36 195
f 117 119 36
f 196 195 36
f 196 36 197
f 44 99 45
f 45 96 41
f 65 211 212
f 62 212 213
f 174 160 159
f 150 68 157
f 65 150 151
f 65 153 208
f 65 151 153
f 65 210 211
f 65 208 210
f 70 159 68
f 64 66 212
f 66 65 212
f 65 68 150
f 70 69 159
f 69 173 159
f 171 159 170
f 171 172 159
f 173 170 159
f 64 212 62
f 182 181 179
f 140 178 181
f 172 174 159
f 168 142 167
f 174 167 142
f 168 178 140
f 181 178 179
f 182 179 180
f 159 158 68
f 156 68 158
f 156 157 68
f 174 142 144
f 168 140 142
f 174 144 160
f 199 201 36
f 199 36 215
f 215 36 216
f 200 36 201
f 197 36 200
f 62 206 216
f 62 205 206
f 62 213 205

