# https://github.com/mikedh/trimesh
v -0.47442862 0.59472996 0.64287096
v -0.45079437 0.57414418 0.68056226
v -0.43388820 0.56120664 0.70204586
v -0.42532539 0.58778524 0.68819094
v -0.30578214 0.47763589 0.82052577
v -0.25927067 0.45097697 0.85225815
v -0.25203839 0.45690560 0.85093576
v -0.35935611 0.50941288 0.78069651
v -0.34956136 0.50328523 0.78895259
v -0.34615302 0.51612163 0.78345168
v -0.21302287 0.57125163 0.79264921
v -0.16615006 0.52152169 0.83405554
v -0.10308783 0.55804121 0.81944227
v -0.05276102 0.58423412 0.80718046
v -0.42660657 0.86860073 -0.24754959
v -0.41707271 0.86946118 -0.26042327
v -0.34760007 0.87081182 -0.33916044
v -0.30105403 0.86946344 -0.38501009
v -0.25972208 0.86647594 -0.42023915
v -0.23867694 0.89100653 -0.38618737
v -0.30125889 0.91624415 -0.26408276
v -0.50107324 0.85465044 -0.12484766
v -0.45771644 0.86373413 -0.19923396
v -0.49385601 0.85709071 -0.14007385
v -0.48444164 0.86492932 -0.13120037
v -0.54598361 0.83560228 -0.01826474
v -0.57562572 0.80857444 0.09637114
v -0.56090313 0.82451642 0.03171993
v -0.52573109 0.85065079 0.00000000
v -0.40335536 0.91504341 0.00000000
v -0.35822880 0.92430460 -0.13165537
v -0.22011703 0.96639258 -0.13279247
v -0.27326652 0.96193838 0.00000000
v 0.10138692 0.79633033 -0.59308726
v -0.18460827 0.85759026 -0.47367233
v -0.14438111 0.85201877 -0.49979845
v -0.10093639 0.84389335 -0.52155477
v -0.02550031 0.82851171 -0.55543208
v -0.16245985 0.95105654 -0.26286554
v -0.08232358 0.91298246 -0.39960706
v 0.04540840 0.81122774 -0.57861966
v 0.00000000 0.85065079 -0.52573109
v 0.15643446 0.84017789 -0.51925850
v 0.08232358 0.91298246 -0.39960706
v 0.00000000 0.96386129 -0.26640469
v 0.16245985 0.95105654 -0.26286554
v -0.08224247 0.98768836 -0.13307111
v -0.13795224 0.99043888 0.00000000
v 0.08224247 0.98768836 -0.13307111
v 0.00000000 1.00000000 0.00000000
v 0.13795224 0.99043888 0.00000000
v -0.57010192 0.69740891 0.43102241
v -0.59051353 0.77840620 0.20478530
v -0.58684283 0.78955621 0.16668291
v -0.59130430 0.76886326 0.23487161
v -0.57125163 0.79264921 0.21302287
v -0.58679622 0.73977238 0.31915772
v -0.57468969 0.70559853 0.41085771
v -0.51612163 0.78345168 0.34615302
v -0.45399049 0.75793540 0.46842986
v -0.52484393 0.63948989 0.55987364
v -0.51851285 0.63312793 0.57256669
v -0.51337546 0.64657778 0.56425422
v -0.54466754 0.66407764 0.50582945
v -0.29600459 0.64741188 0.70230985
v -0.37174803 0.70710677 0.60150093
v -0.23708633 0.75865233 0.60682517
v -0.48444164 0.86492932 0.13120037
v -0.43388855 0.86266845 0.25989193
v -0.37503856 0.84391147 0.38361374
v -0.23867694 0.89100653 0.38618737
v -0.35822880 0.92430460 0.13165537
v -0.30125889 0.91624415 0.26408276
v -0.22011703 0.96639258 0.13279247
v -0.30901700 0.80901700 0.50000000
v -0.16062203 0.69378048 0.70204645
v -0.08108629 0.61564201 0.78384304
v -0.08114185 0.78020436 0.62023956
v 0.03229944 0.61564201 0.78384304
v 0.06943461 0.62818152 0.77341634
v 0.18131480 0.64539462 0.73782492
v 0.10048569 0.63470060 0.76389217
v 0.16062203 0.69378048 0.70204645
v 0.08114185 0.78020436 0.62023956
v 0.00000000 0.70290703 0.71128172
v -0.16245985 0.95105654 0.26286554
v -0.08224247 0.98768836 0.13307111
v -0.08232358 0.91298246 0.39960706
v 0.08224247 0.98768836 0.13307111
v 0.00000000 0.96386129 0.26640469
v 0.16245985 0.95105654 0.26286554
v 0.08232358 0.91298246 0.39960706
v -0.15643446 0.84017789 0.51925850
v 0.00000000 0.85065079 0.52573109
v 0.15643446 0.84017789 0.51925850
v 0.89640194 0.38948211 -0.20028998
v 0.92684209 0.34983066 -0.11149464
v 0.94428027 0.31766841 -0.03168272
v 0.95167828 0.29830024 0.01971252
v 0.65523767 0.56958312 -0.49311283
v 0.63991028 0.57830954 -0.50338995
v 0.73919576 0.51749086 -0.42366913
v 0.78558379 0.48551750 -0.37552217
v 0.82134265 0.45888925 -0.33233759
v 0.86762422 0.41864520 -0.25873700
v 0.80901700 0.50000000 -0.30901700
v 0.88466990 0.40277690 -0.22842406
v 0.91298246 0.39960706 -0.08232358
v 0.91298246 0.39960706 0.08232358
v 0.84017789 0.51925850 -0.15643446
v 0.85065079 0.52573109 0.00000000
v 0.53650075 0.58603507 0.60167170
v 0.93243331 0.22169894 0.27506426
v 0.95385629 0.25294554 0.15632895
v 0.95416951 0.26372594 0.12296417
v 0.95105654 0.26286554 0.16245985
v 0.95264113 0.24942581 0.16841725
v 0.91624415 0.26408276 0.30125889
v 0.91953051 0.21008983 0.32448649
v 0.89344752 0.19585486 0.39610660
v 0.89266330 0.19554263 0.39790523
v 0.88996077 0.20310910 0.40038660
v 0.86847162 0.26034588 0.41952249
v 0.86009312 0.27687877 0.42580852
v 0.89100653 0.38618737 0.23867694
v 0.84391147 0.38361374 0.37503856
v 0.80689371 0.36067766 0.46141952
v 0.75793540 0.46842986 0.45399049
v 0.77028930 0.40922859 0.48407176
v 0.84017789 0.51925850 0.15643446
v 0.80901700 0.50000000 0.30901700
v 0.73053879 0.45149782 0.50654697
v 0.61400539 0.54412341 0.56607866
v 0.66270584 0.51040936 0.54221457
v 0.64657778 0.56425422 0.51337546
v 0.21462643 0.76175636 -0.60875720
v 0.23969862 0.75372016 -0.61105877
v 0.23372355 0.75579935 -0.61101288
v 0.23708633 0.75865233 -0.60682517
v 0.37290716 0.70452523 -0.60337645
v 0.36997601 0.70571017 -0.60385936
v 0.37174803 0.70710677 -0.60150093
v 0.51063198 0.64474589 -0.56811583
v 0.51482552 0.64278156 -0.56660044
v 0.51337546 0.64657778 -0.56425422
v 0.54174829 0.62904239 -0.55341679
v 0.45399049 0.75793540 -0.46842986
v 0.51612163 0.78345168 -0.34615302
v 0.30901700 0.80901700 -0.50000000
v 0.23867694 0.89100653 -0.38618737
v 0.30125889 0.91624415 -0.26408276
v 0.37503856 0.84391147 -0.38361374
v 0.43388855 0.86266845 -0.25989193
v 0.22011703 0.96639258 -0.13279247
v 0.35822880 0.92430460 -0.13165537
v 0.27326652 0.96193838 0.00000000
v 0.48444164 0.86492932 -0.13120037
v 0.52573109 0.85065079 0.00000000
v 0.40335536 0.91504341 0.00000000
v 0.58591062 0.60621810 -0.53091007
v 0.58778524 0.68819094 -0.42532539
v 0.70710677 0.60150093 -0.37174803
v 0.64741188 0.70230985 -0.29600459
v 0.75865233 0.60682517 -0.23708633
v 0.57125163 0.79264921 -0.21302287
v 0.61564201 0.78384304 -0.08108629
v 0.69378048 0.70204645 -0.16062203
v 0.61564201 0.78384304 0.08108629
v 0.70290703 0.71128172 0.00000000
v 0.78020436 0.62023956 -0.08114185
v 0.78020436 0.62023956 0.08114185
v 0.45399049 0.75793540 0.46842986
v 0.51612163 0.78345168 0.34615302
v 0.28615645 0.65078485 0.70229071
v 0.29424340 0.65073711 0.69945562
v 0.29963538 0.65027338 0.69747752
v 0.23708633 0.75865233 0.60682517
v 0.37174803 0.70710677 0.60150093
v 0.40576991 0.63133705 0.65654951
v 0.46496332 0.61425215 0.63239777
v 0.51337546 0.64657778 0.56425422
v 0.23867694 0.89100653 0.38618737
v 0.22011703 0.96639258 0.13279247
v 0.35822880 0.92430460 0.13165537
v 0.30125889 0.91624415 0.26408276
v 0.43388855 0.86266845 0.25989193
v 0.48444164 0.86492932 0.13120037
v 0.37503856 0.84391147 0.38361374
v 0.30901700 0.80901700 0.50000000
v 0.75865233 0.60682517 0.23708633
v 0.58778524 0.68819094 0.42532539
v 0.70710677 0.60150093 0.37174803
v 0.64741188 0.70230985 0.29600459
v 0.57125163 0.79264921 0.21302287
v 0.69378048 0.70204645 0.16062203
f 4 1 2
f 4 3 10
f 4 2 3
f 5 6 7
f 10 3 8
f 10 8 9
f 10 9 5
f 4 10 65
f 10 5 11
f 11 5 7
f 11 7 12
f 65 10 11
f 11 12 13
f 11 13 77
f 77 13 14
f 21 16 15
f 21 17 16
f 20 19 18
f 20 18 17
f 20 35 19
f 21 20 17
f 21 39 20
f 25 22 29
f 25 23 24
f 25 15 23
f 25 31 15
f 25 24 22
f 29 26 28
f 29 22 26
f 29 28 27
f 29 27 68
f 25 29 30
f 29 68 30
f 25 30 31
f 68 72 30
f 21 15 31
f 21 31 32
f 21 32 39
f 31 33 32
f 31 30 33
f 30 72 33
f 32 33 48
f 33 72 74
f 33 74 48
f 40 36 35
f 40 37 36
f 42 38 37
f 40 42 37
f 20 40 35
f 20 39 40
f 39 45 40
f 42 41 38
f 42 43 41
f 40 44 42
f 42 44 43
f 43 34 41
f 43 136 34
f 43 44 150
f 40 45 44
f 44 45 46
f 44 46 150
f 39 32 47
f 32 48 47
f 39 47 45
f 48 74 87
f 47 48 50
f 48 87 50
f 47 49 45
f 45 49 46
f 47 50 49
f 46 49 154
f 49 51 154
f 49 50 51
f 87 89 50
f 50 89 51
f 89 183 51
f 56 27 54
f 56 54 53
f 56 55 57
f 56 57 59
f 56 53 55
f 59 57 58
f 59 58 52
f 60 52 64
f 59 52 60
f 59 60 70
f 63 61 62
f 63 62 1
f 63 64 61
f 63 60 64
f 63 1 4
f 63 4 66
f 63 66 60
f 4 65 66
f 65 11 76
f 66 65 67
f 60 66 75
f 66 67 75
f 65 76 67
f 56 68 27
f 56 69 68
f 56 59 69
f 68 69 72
f 59 70 69
f 69 70 73
f 60 75 70
f 70 75 71
f 70 71 73
f 71 75 93
f 72 69 73
f 72 73 74
f 73 86 74
f 73 71 86
f 75 67 93
f 76 11 77
f 77 79 85
f 77 14 79
f 76 77 85
f 76 78 67
f 67 78 93
f 76 85 78
f 85 79 80
f 85 80 82
f 85 82 83
f 83 82 81
f 78 85 84
f 83 177 84
f 84 177 95
f 85 83 84
f 71 93 88
f 88 93 94
f 74 86 87
f 87 86 90
f 86 71 88
f 86 88 90
f 88 94 92
f 92 94 95
f 92 95 182
f 87 90 89
f 89 90 91
f 89 91 183
f 88 92 90
f 90 92 91
f 92 182 91
f 93 78 94
f 94 84 95
f 78 84 94
f 116 115 99
f 108 98 97
f 108 97 96
f 109 99 98
f 116 99 109
f 108 109 98
f 162 102 100
f 162 100 101
f 162 106 102
f 162 164 106
f 106 104 103
f 106 105 104
f 106 103 102
f 106 110 105
f 110 107 105
f 110 96 107
f 108 96 110
f 108 110 111
f 108 111 109
f 109 111 130
f 106 164 110
f 164 170 110
f 110 170 111
f 170 171 111
f 171 130 111
f 116 113 117
f 118 119 113
f 116 117 114
f 116 114 115
f 116 118 113
f 119 122 120
f 118 123 119
f 119 123 122
f 120 122 121
f 116 125 118
f 116 109 125
f 126 124 123
f 126 127 124
f 126 123 118
f 125 126 118
f 128 132 129
f 128 131 192
f 128 192 135
f 192 131 190
f 125 130 131
f 109 130 125
f 125 131 126
f 128 127 126
f 128 129 127
f 128 126 131
f 190 131 130
f 171 190 130
f 128 134 132
f 135 133 134
f 135 112 133
f 128 135 134
f 139 138 136
f 43 139 136
f 139 137 138
f 139 142 137
f 142 141 137
f 142 140 141
f 139 149 142
f 142 143 140
f 142 145 143
f 145 144 143
f 145 146 144
f 147 161 145
f 145 161 146
f 142 147 145
f 142 149 147
f 152 148 147
f 147 148 161
f 43 149 139
f 43 150 149
f 150 152 149
f 150 151 152
f 151 153 152
f 150 46 151
f 149 152 147
f 152 153 148
f 153 165 148
f 46 154 151
f 154 155 151
f 151 155 153
f 154 156 155
f 154 51 156
f 51 183 156
f 155 156 159
f 156 184 159
f 183 184 156
f 153 155 157
f 153 157 165
f 157 166 165
f 157 158 166
f 157 159 158
f 187 158 159
f 187 168 158
f 155 159 157
f 184 187 159
f 161 160 146
f 161 101 160
f 161 162 101
f 161 163 162
f 162 163 164
f 161 148 163
f 163 148 165
f 167 170 164
f 163 167 164
f 167 169 170
f 170 169 171
f 169 195 171
f 163 165 167
f 167 165 166
f 167 166 169
f 166 168 169
f 169 168 195
f 166 158 168
f 172 181 191
f 188 172 173
f 172 191 173
f 178 175 176
f 178 176 179
f 83 81 174
f 83 174 175
f 177 175 178
f 177 178 189
f 83 175 177
f 178 179 180
f 178 180 181
f 181 112 135
f 181 180 112
f 172 178 181
f 172 189 178
f 185 188 186
f 182 95 189
f 182 189 188
f 182 188 185
f 183 91 185
f 183 185 184
f 184 185 186
f 91 182 185
f 184 186 187
f 187 186 194
f 187 194 168
f 186 173 194
f 186 188 173
f 188 189 172
f 95 177 189
f 195 190 171
f 192 190 193
f 195 193 190
f 191 135 192
f 191 192 193
f 195 194 193
f 195 168 194
f 193 194 173
f 191 193 173
f 191 181 135
f 7 6 122
f 5 120 6
f 2 103 3
f 2 1 103
f 9 8 119
f 3 113 8
f 9 119 5
f 12 7 132
f 12 132 13
f 58 57 143
f 58 143 52
f 27 143 54
f 53 54 143
f 28 143 27
f 55 143 57
f 55 53 143
f 18 143 17
f 18 19 143
f 23 15 143
f 16 143 15
f 22 24 143
f 24 23 143
f 16 17 143
f 37 38 140
f 19 35 143
f 35 36 143
f 41 141 38
f 137 41 34
f 37 143 36
f 26 143 28
f 22 143 26
f 62 61 143
f 62 143 1
f 64 143 61
f 52 143 64
f 101 1 160
f 101 100 1
f 100 102 1
f 103 1 102
f 3 104 105
f 3 105 107
f 3 107 96
f 3 103 104
f 3 98 99
f 3 99 115
f 3 117 113
f 8 113 119
f 3 114 117
f 3 115 114
f 5 119 120
f 120 121 6
f 122 6 121
f 7 122 123
f 7 123 124
f 7 124 127
f 3 96 97
f 3 97 98
f 13 132 14
f 14 134 79
f 80 79 133
f 7 129 132
f 7 127 129
f 14 132 134
f 82 133 112
f 79 134 133
f 38 141 140
f 37 140 143
f 136 138 34
f 138 137 34
f 137 141 41
f 144 146 1
f 143 144 1
f 146 160 1
f 80 133 82
f 81 82 112
f 81 180 174
f 174 179 175
f 175 179 176
f 81 112 180
f 174 180 179

