# https://github.com/mikedh/trimesh
v -0.64657778 -0.56425422 -0.51337546
v -0.51337546 -0.64657778 -0.56425422
v -0.75865233 -0.60682517 -0.23708633
v -0.78020436 -0.62023956 -0.08114185
v -0.51612163 -0.78345168 -0.34615302
v -0.57125163 -0.79264921 -0.21302287
v -0.61564201 -0.78384304 -0.08108629
v -0.64741188 -0.70230985 -0.29600459
v -0.70710677 -0.60150093 -0.37174803
v -0.58778524 -0.68819094 -0.42532539
v -0.69378048 -0.70204645 -0.16062203
v -0.78345168 -0.34615302 -0.51612163
v -0.79264921 -0.21302287 -0.57125163
v -0.78384304 -0.08108629 -0.61564201
v -0.68819094 -0.42532539 -0.58778524
v -0.56425422 -0.51337546 -0.64657778
v -0.60150093 -0.37174803 -0.70710677
v -0.60682517 -0.23708633 -0.75865233
v -0.62023956 -0.08114185 -0.78020436
v -0.51925850 -0.15643446 -0.84017789
v -0.70230985 -0.29600459 -0.64741188
v -0.70204645 -0.16062203 -0.69378048
v -0.75793540 -0.46842986 -0.45399049
v -0.80901700 -0.50000000 -0.30901700
v -0.84391147 -0.38361374 -0.37503856
v -0.89100653 -0.38618737 -0.23867694
v -0.91298246 -0.39960706 -0.08232358
v -0.84017789 -0.51925850 -0.15643446
v -0.91624415 -0.26408276 -0.30125889
v -0.92430460 -0.13165537 -0.35822880
v -0.86266845 -0.25989193 -0.43388855
v -0.86492932 -0.13120037 -0.48444164
v -0.95105654 -0.26286554 -0.16245985
v -0.96639258 -0.13279247 -0.22011703
v -0.98768836 -0.13307111 -0.08224247
v -0.42532539 -0.58778524 -0.68819094
v -0.37174803 -0.70710677 -0.60150093
v -0.29600459 -0.64741188 -0.70230985
v -0.15643446 -0.84017789 -0.51925850
v -0.08114185 -0.78020436 -0.62023956
v -0.21302287 -0.57125163 -0.79264921
v -0.08108629 -0.61564201 -0.78384304
v -0.16062203 -0.69378048 -0.70204645
v -0.23708633 -0.75865233 -0.60682517
v -0.37503856 -0.84391147 -0.38361374
v -0.43388855 -0.86266845 -0.25989193
v -0.30125889 -0.91624415 -0.26408276
v -0.30901700 -0.80901700 -0.50000000
v -0.48444164 -0.86492932 -0.13120037
v -0.35822880 -0.92430460 -0.13165537
v -0.45399049 -0.75793540 -0.46842986
v -0.23867694 -0.89100653 -0.38618737
v -0.16245985 -0.95105654 -0.26286554
v -0.08232358 -0.91298246 -0.39960706
v -0.22011703 -0.96639258 -0.13279247
v -0.08224247 -0.98768836 -0.13307111
v -0.46842986 -0.45399049 -0.75793540
v -0.50000000 -0.30901700 -0.80901700
v -0.38361374 -0.37503856 -0.84391147
v -0.34615302 -0.51612163 -0.78345168
v -0.25989193 -0.43388855 -0.86266845
v -0.26408276 -0.30125889 -0.91624415
v -0.38618737 -0.23867694 -0.89100653
v -0.39960706 -0.08232358 -0.91298246
v -0.26286554 -0.16245985 -0.95105654
v -0.13120037 -0.48444164 -0.86492932
v -0.13165537 -0.35822880 -0.92430460
v -0.13279247 -0.22011703 -0.96639258
v -0.13307111 -0.08224247 -0.98768836
v -0.78020436 -0.62023956 0.08114185
v -0.75865233 -0.60682517 0.23708633
v -0.61564201 -0.78384304 0.08108629
v -0.52573109 -0.85065079 0.00000000
v -0.57125163 -0.79264921 0.21302287
v -0.51612163 -0.78345168 0.34615302
v -0.70290703 -0.71128172 0.00000000
v -0.69378048 -0.70204645 0.16062203
v -0.64741188 -0.70230985 0.29600459
v -0.70710677 -0.60150093 0.37174803
v -0.58778524 -0.68819094 0.42532539
v -0.64657778 -0.56425422 0.51337546
v -0.51337546 -0.64657778 0.56425422
v -0.91298246 -0.39960706 0.08232358
v -0.89100653 -0.38618737 0.23867694
v -0.85065079 -0.52573109 0.00000000
v -0.84017789 -0.51925850 0.15643446
v -0.80901700 -0.50000000 0.30901700
v -0.75793540 -0.46842986 0.45399049
v -0.84391147 -0.38361374 0.37503856
v -0.96386129 -0.26640469 0.00000000
v -0.95105654 -0.26286554 0.16245985
v -0.98768836 -0.13307111 0.08224247
v -0.96639258 -0.13279247 0.22011703
v -0.91624415 -0.26408276 0.30125889
v -0.92430460 -0.13165537 0.35822880
v -0.86266845 -0.25989193 0.43388855
v -0.86492932 -0.13120037 0.48444164
v -0.78345168 -0.34615302 0.51612163
v -0.79264921 -0.21302287 0.57125163
v -0.78384304 -0.08108629 0.61564201
v -0.68819094 -0.42532539 0.58778524
v -0.56425422 -0.51337546 0.64657778
v -0.60150093 -0.37174803 0.70710677
v -0.70230985 -0.29600459 0.64741188
v -0.70204645 -0.16062203 0.69378048
v -0.60682517 -0.23708633 0.75865233
v -0.62023956 -0.08114185 0.78020436
v -0.51925850 -0.15643446 0.84017789
v -0.40335536 -0.91504341 0.00000000
v -0.48444164 -0.86492932 0.13120037
v -0.27326652 -0.96193838 0.00000000
v -0.35822880 -0.92430460 0.13165537
v -0.43388855 -0.86266845 0.25989193
v -0.37503856 -0.84391147 0.38361374
v -0.30125889 -0.91624415 0.26408276
v -0.45399049 -0.75793540 0.46842986
v -0.13795224 -0.99043888 0.00000000
v -0.22011703 -0.96639258 0.13279247
v -0.08224247 -0.98768836 0.13307111
v -0.16245985 -0.95105654 0.26286554
v -0.23867694 -0.89100653 0.38618737
v -0.08232358 -0.91298246 0.39960706
v -0.30901700 -0.80901700 0.50000000
v -0.42532539 -0.58778524 0.68819094
v -0.37174803 -0.70710677 0.60150093
v -0.29600459 -0.64741188 0.70230985
v -0.15643446 -0.84017789 0.51925850
v -0.08114185 -0.78020436 0.62023956
v -0.23708633 -0.75865233 0.60682517
v -0.16062203 -0.69378048 0.70204645
v -0.21302287 -0.57125163 0.79264921
v -0.08108629 -0.61564201 0.78384304
v -0.46842986 -0.45399049 0.75793540
v -0.50000000 -0.30901700 0.80901700
v -0.38361374 -0.37503856 0.84391147
v -0.34615302 -0.51612163 0.78345168
v -0.25989193 -0.43388855 0.86266845
v -0.26408276 -0.30125889 0.91624415
v -0.38618737 -0.23867694 0.89100653
v -0.39960706 -0.08232358 0.91298246
v -0.26286554 -0.16245985 0.95105654
v -0.13120037 -0.48444164 0.86492932
v -0.13165537 -0.35822880 0.92430460
v -0.13279247 -0.22011703 0.96639258
v -0.13307111 -0.08224247 0.98768836
v -0.85065079 0.00000000 -0.52573109
v -0.78384304 0.08108629 -0.61564201
v -0.79264921 0.21302287 -0.57125163
v -0.78345168 0.34615302 -0.51612163
v -0.52573109 0.00000000 -0.85065079
v -0.62023956 0.08114185 -0.78020436
v -0.51925850 0.15643446 -0.84017789
v -0.71128172 0.00000000 -0.70290703
v -0.70204645 0.16062203 -0.69378048
v -0.60682517 0.23708633 -0.75865233
v -0.70230985 0.29600459 -0.64741188
v -0.60150093 0.37174803 -0.70710677
v -0.91504341 0.00000000 -0.40335536
v -0.96193838 0.00000000 -0.27326652
v -0.92430460 0.13165537 -0.35822880
v -0.86492932 0.13120037 -0.48444164
v -0.99043888 0.00000000 -0.13795224
v -0.96639258 0.13279247 -0.22011703
v -0.98768836 0.13307111 -0.08224247
v -0.91624415 0.26408276 -0.30125889
v -0.86266845 0.25989193 -0.43388855
v -0.84391147 0.38361374 -0.37503856
v -0.95105654 0.26286554 -0.16245985
v -0.89100653 0.38618737 -0.23867694
v -0.91298246 0.39960706 -0.08232358
v -0.68819094 0.42532539 -0.58778524
v -0.64657778 0.56425422 -0.51337546
v -0.56425422 0.51337546 -0.64657778
v -0.51337546 0.64657778 -0.56425422
v -0.75793540 0.46842986 -0.45399049
v -0.80901700 0.50000000 -0.30901700
v -0.84017789 0.51925850 -0.15643446
v -0.75865233 0.60682517 -0.23708633
v -0.78020436 0.62023956 -0.08114185
v -0.70710677 0.60150093 -0.37174803
v -0.64741188 0.70230985 -0.29600459
v -0.58778524 0.68819094 -0.42532539
v -0.51612163 0.78345168 -0.34615302
v -0.69378048 0.70204645 -0.16062203
v -0.57125163 0.79264921 -0.21302287
v -0.61564201 0.78384304 -0.08108629
v -0.50107324 0.85465044 -0.12484766
v -0.54598361 0.83560228 -0.01826474
v -0.39960706 0.08232358 -0.91298246
v -0.26640469 0.00000000 -0.96386129
v -0.26286554 0.16245985 -0.95105654
v -0.38618737 0.23867694 -0.89100653
v -0.50000000 0.30901700 -0.80901700
v -0.38361374 0.37503856 -0.84391147
v -0.26408276 0.30125889 -0.91624415
v -0.13307111 0.08224247 -0.98768836
v -0.13279247 0.22011703 -0.96639258
v -0.13165537 0.35822880 -0.92430460
v -0.46842986 0.45399049 -0.75793540
v -0.34615302 0.51612163 -0.78345168
v -0.25989193 0.43388855 -0.86266845
v -0.42532539 0.58778524 -0.68819094
v -0.29600459 0.64741188 -0.70230985
v -0.37174803 0.70710677 -0.60150093
v -0.13120037 0.48444164 -0.86492932
v -0.21302287 0.57125163 -0.79264921
v -0.08108629 0.61564201 -0.78384304
v -0.16062203 0.69378048 -0.70204645
v -0.23708633 0.75865233 -0.60682517
v -0.15643446 0.84017789 -0.51925850
v -0.08114185 0.78020436 -0.62023956
v -0.10093639 0.84389335 -0.52155477
v -0.02550031 0.82851171 -0.55543208
v -0.45399049 0.75793540 -0.46842986
v -0.37503856 0.84391147 -0.38361374
v -0.43388855 0.86266845 -0.25989193
v -0.41707271 0.86946118 -0.26042327
v -0.30901700 0.80901700 -0.50000000
v -0.30105403 0.86946344 -0.38501009
v -0.25972208 0.86647594 -0.42023915
v -0.34760007 0.87081182 -0.33916044
v -0.45771644 0.86373413 -0.19923396
v -0.49385601 0.85709071 -0.14007385
v -0.42660657 0.86860073 -0.24754959
v -0.18460827 0.85759026 -0.47367233
v -0.14438111 0.85201877 -0.49979845
v -1.00000000 0.00000000 0.00000000
v -0.99043888 0.00000000 0.13795224
v -0.98768836 0.13307111 0.08224247
v -0.96639258 0.13279247 0.22011703
v -0.96193838 0.00000000 0.27326652
v -0.91504341 0.00000000 0.40335536
v -0.92430460 0.13165537 0.35822880
v -0.86492932 0.13120037 0.48444164
v -0.96386129 0.26640469 0.00000000
v -0.95105654 0.26286554 0.16245985
v -0.91298246 0.39960706 0.08232358
v -0.89100653 0.38618737 0.23867694
v -0.91624415 0.26408276 0.30125889
v -0.86266845 0.25989193 0.43388855
v -0.84391147 0.38361374 0.37503856
v -0.85065079 0.00000000 0.52573109
v -0.78384304 0.08108629 0.61564201
v -0.79264921 0.21302287 0.57125163
v -0.78345168 0.34615302 0.51612163
v -0.71128172 0.00000000 0.70290703
v -0.70204645 0.16062203 0.69378048
v -0.52573109 0.00000000 0.85065079
v -0.62023956 0.08114185 0.78020436
v -0.51925850 0.15643446 0.84017789
v -0.70230985 0.29600459 0.64741188
v -0.60150093 0.37174803 0.70710677
v -0.60682517 0.23708633 0.75865233
v -0.84017789 0.51925850 0.15643446
v -0.85065079 0.52573109 0.00000000
v -0.78020436 0.62023956 0.08114185
v -0.75865233 0.60682517 0.23708633
v -0.80901700 0.50000000 0.30901700
v -0.75793540 0.46842986 0.45399049
v -0.70710677 0.60150093 0.37174803
v -0.70290703 0.71128172 0.00000000
v -0.69378048 0.70204645 0.16062203
v -0.61564201 0.78384304 0.08108629
v -0.57562572 0.80857444 0.09637114
v -0.56090313 0.82451642 0.03171993
v -0.58684283 0.78955621 0.16668291
v -0.59051353 0.77840620 0.20478530
v -0.59130430 0.76886326 0.23487161
v -0.64741188 0.70230985 0.29600459
v -0.58679622 0.73977238 0.31915772
v -0.58778524 0.68819094 0.42532539
v -0.57468969 0.70559853 0.41085771
v -0.57010192 0.69740891 0.43102241
v -0.68819094 0.42532539 0.58778524
v -0.64657778 0.56425422 0.51337546
v -0.56425422 0.51337546 0.64657778
v -0.51851285 0.63312793 0.57256669
v -0.54466754 0.66407764 0.50582945
v -0.52484393 0.63948989 0.55987364
v -0.39960706 0.08232358 0.91298246
v -0.26640469 0.00000000 0.96386129
v -0.26286554 0.16245985 0.95105654
v -0.38618737 0.23867694 0.89100653
v -0.50000000 0.30901700 0.80901700
v -0.38361374 0.37503856 0.84391147
v -0.26408276 0.30125889 0.91624415
v -0.13307111 0.08224247 0.98768836
v -0.13292421 0.15492937 0.97646129
v -0.08968632 0.10040537 0.98858511
v -0.19507602 0.25861037 0.94260240
v -0.16703524 0.20493832 0.96235526
v -0.22331432 0.31879738 0.91872561
v -0.45079437 0.57414418 0.68056226
v -0.47442862 0.59472996 0.64287096
v -0.43388820 0.56120664 0.70204586
v -0.46842986 0.45399049 0.75793540
v -0.35935611 0.50941288 0.78069651
v -0.34956136 0.50328523 0.78895259
v -0.25989193 0.43388855 0.86266845
v -0.25863430 0.43438259 0.86269057
v -0.25828803 0.43294224 0.86343938
v -0.25881541 0.43704364 0.86106020
v -0.25927067 0.45097697 0.85225815
v -0.30578214 0.47763589 0.82052577
v 0.00000000 -0.85065079 -0.52573109
v 0.08114185 -0.78020436 -0.62023956
v 0.15643446 -0.84017789 -0.51925850
v 0.08108629 -0.61564201 -0.78384304
v 0.21302287 -0.57125163 -0.79264921
v 0.00000000 -0.70290703 -0.71128172
v 0.16062203 -0.69378048 -0.70204645
v 0.23708633 -0.75865233 -0.60682517
v 0.37174803 -0.70710677 -0.60150093
v 0.29600459 -0.64741188 -0.70230985
v 0.42532539 -0.58778524 -0.68819094
v 0.08232358 -0.91298246 -0.39960706
v 0.00000000 -0.96386129 -0.26640469
v 0.23867694 -0.89100653 -0.38618737
v 0.16245985 -0.95105654 -0.26286554
v 0.08224247 -0.98768836 -0.13307111
v 0.22011703 -0.96639258 -0.13279247
v 0.30125889 -0.91624415 -0.26408276
v 0.30901700 -0.80901700 -0.50000000
v 0.37503856 -0.84391147 -0.38361374
v 0.43388855 -0.86266845 -0.25989193
v 0.35822880 -0.92430460 -0.13165537
v 0.48444164 -0.86492932 -0.13120037
v 0.45399049 -0.75793540 -0.46842986
v 0.00000000 -0.52573109 -0.85065079
v 0.00000000 -0.40335536 -0.91504341
v 0.13120037 -0.48444164 -0.86492932
v 0.13165537 -0.35822880 -0.92430460
v 0.00000000 -0.27326652 -0.96193838
v 0.00000000 -0.13795224 -0.99043888
v 0.13279247 -0.22011703 -0.96639258
v 0.13307111 -0.08224247 -0.98768836
v 0.25989193 -0.43388855 -0.86266845
v 0.34615302 -0.51612163 -0.78345168
v 0.26408276 -0.30125889 -0.91624415
v 0.46842986 -0.45399049 -0.75793540
v 0.38361374 -0.37503856 -0.84391147
v 0.26286554 -0.16245985 -0.95105654
v 0.38618737 -0.23867694 -0.89100653
v 0.39960706 -0.08232358 -0.91298246
v 0.51337546 -0.64657778 -0.56425422
v 0.64657778 -0.56425422 -0.51337546
v 0.51612163 -0.78345168 -0.34615302
v 0.57125163 -0.79264921 -0.21302287
v 0.61564201 -0.78384304 -0.08108629
v 0.58778524 -0.68819094 -0.42532539
v 0.64741188 -0.70230985 -0.29600459
v 0.70710677 -0.60150093 -0.37174803
v 0.69378048 -0.70204645 -0.16062203
v 0.75865233 -0.60682517 -0.23708633
v 0.78020436 -0.62023956 -0.08114185
v 0.50000000 -0.30901700 -0.80901700
v 0.56425422 -0.51337546 -0.64657778
v 0.60150093 -0.37174803 -0.70710677
v 0.68819094 -0.42532539 -0.58778524
v 0.60682517 -0.23708633 -0.75865233
v 0.51925850 -0.15643446 -0.84017789
v 0.62023956 -0.08114185 -0.78020436
v 0.70230985 -0.29600459 -0.64741188
v 0.70204645 -0.16062203 -0.69378048
v 0.78345168 -0.34615302 -0.51612163
v 0.79264921 -0.21302287 -0.57125163
v 0.78384304 -0.08108629 -0.61564201
v 0.75793540 -0.46842986 -0.45399049
v 0.80901700 -0.50000000 -0.30901700
v 0.84391147 -0.38361374 -0.37503856
v 0.84017789 -0.51925850 -0.15643446
v 0.89100653 -0.38618737 -0.23867694
v 0.91298246 -0.39960706 -0.08232358
v 0.86266845 -0.25989193 -0.43388855
v 0.86492932 -0.13120037 -0.48444164
v 0.91624415 -0.26408276 -0.30125889
v 0.92430460 -0.13165537 -0.35822880
v 0.95105654 -0.26286554 -0.16245985
v 0.96639258 -0.13279247 -0.22011703
v 0.98768836 -0.13307111 -0.08224247
v 0.00000000 -1.00000000 0.00000000
v 0.08224247 -0.98768836 0.13307111
v 0.13795224 -0.99043888 0.00000000
v 0.22011703 -0.96639258 0.13279247
v 0.00000000 -0.96386129 0.26640469
v 0.08232358 -0.91298246 0.39960706
v 0.16245985 -0.95105654 0.26286554
v 0.23867694 -0.89100653 0.38618737
v 0.27326652 -0.96193838 0.00000000
v 0.35822880 -0.92430460 0.13165537
v 0.40335536 -0.91504341 0.00000000
v 0.48444164 -0.86492932 0.13120037
v 0.30125889 -0.91624415 0.26408276
v 0.43388855 -0.86266845 0.25989193
v 0.37503856 -0.84391147 0.38361374
v 0.45399049 -0.75793540 0.46842986
v 0.00000000 -0.85065079 0.52573109
v 0.08114185 -0.78020436 0.62023956
v 0.15643446 -0.84017789 0.51925850
v 0.00000000 -0.70290703 0.71128172
v 0.23708633 -0.75865233 0.60682517
v 0.16062203 -0.69378048 0.70204645
v 0.08108629 -0.61564201 0.78384304
v 0.21302287 -0.57125163 0.79264921
v 0.30901700 -0.80901700 0.50000000
v 0.37174803 -0.70710677 0.60150093
v 0.29600459 -0.64741188 0.70230985
v 0.42532539 -0.58778524 0.68819094
v 0.00000000 -0.52573109 0.85065079
v 0.00000000 -0.40335536 0.91504341
v 0.13120037 -0.48444164 0.86492932
v 0.13165537 -0.35822880 0.92430460
v 0.00000000 -0.27326652 0.96193838
v 0.00000000 -0.13795224 0.99043888
v 0.12317726 -0.07612773 0.98860371
v 0.13279247 -0.22011703 0.96639258
v 0.13251239 -0.08247637 0.98769993
v 0.13611098 -0.08412120 0.98683041
v 0.13307001 -0.08279058 0.98760372
v 0.25989193 -0.43388855 0.86266845
v 0.34615302 -0.51612163 0.78345168
v 0.26408276 -0.30125889 0.91624415
v 0.46842986 -0.45399049 0.75793540
v 0.38361374 -0.37503856 0.84391147
v 0.26286554 -0.16245985 0.95105654
v 0.26340717 -0.13759741 0.95301616
v 0.29158518 -0.14562894 0.94305992
v 0.38618737 -0.23867694 0.89100653
v 0.49651855 -0.17048852 0.84886378
v 0.39250448 -0.16507596 0.90135139
v 0.52573109 -0.85065079 0.00000000
v 0.61564201 -0.78384304 0.08108629
v 0.57125163 -0.79264921 0.21302287
v 0.51612163 -0.78345168 0.34615302
v 0.70290703 -0.71128172 0.00000000
v 0.69378048 -0.70204645 0.16062203
v 0.58778524 -0.68819094 0.42532539
v 0.64741188 -0.70230985 0.29600459
v 0.70710677 -0.60150093 0.37174803
v 0.78020436 -0.62023956 0.08114185
v 0.75865233 -0.60682517 0.23708633
v 0.51337546 -0.64657778 0.56425422
v 0.64657778 -0.56425422 0.51337546
v 0.85065079 -0.52573109 0.00000000
v 0.84017789 -0.51925850 0.15643446
v 0.91298246 -0.39960706 0.08232358
v 0.89100653 -0.38618737 0.23867694
v 0.80901700 -0.50000000 0.30901700
v 0.75793540 -0.46842986 0.45399049
v 0.84391147 -0.38361374 0.37503856
v 0.96386129 -0.26640469 0.00000000
v 0.95105654 -0.26286554 0.16245985
v 0.98768836 -0.13307111 0.08224247
v 0.96639258 -0.13279247 0.22011703
v 0.86266845 -0.25989193 0.43388855
v 0.86492932 -0.13120037 0.48444164
v 0.91624415 -0.26408276 0.30125889
v 0.92430460 -0.13165537 0.35822880
v 0.56425422 -0.51337546 0.64657778
v 0.60150093 -0.37174803 0.70710677
v 0.68819094 -0.42532539 0.58778524
v 0.50000000 -0.30901700 0.80901700
v 0.70230985 -0.29600459 0.64741188
v 0.66895437 -0.12847115 0.72874022
v 0.70204645 -0.16062203 0.69378048
v 0.70501208 -0.10904280 0.69671124
v 0.60682517 -0.23708633 0.75865233
v 0.51752132 -0.17019798 0.83736706
v 0.53206128 -0.16822627 0.82825834
v 0.61446583 -0.14826235 0.77092808
v 0.78345168 -0.34615302 0.51612163
v 0.79264921 -0.21302287 0.57125163
v 0.78384304 -0.08108629 0.61564201
v 0.76911229 -0.06462491 0.63335776
v 0.00000000 0.00000000 -1.00000000
v 0.00000000 0.13795224 -0.99043888
v 0.13307111 0.08224247 -0.98768836
v 0.00000000 0.27326652 -0.96193838
v 0.13279247 0.22011703 -0.96639258
v 0.13165537 0.35822880 -0.92430460
v 0.26640469 0.00000000 -0.96386129
v 0.26286554 0.16245985 -0.95105654
v 0.39960706 0.08232358 -0.91298246
v 0.26408276 0.30125889 -0.91624415
v 0.38618737 0.23867694 -0.89100653
v 0.38361374 0.37503856 -0.84391147
v 0.00000000 0.40335536 -0.91504341
v 0.00000000 0.52573109 -0.85065079
v 0.08108629 0.61564201 -0.78384304
v 0.13120037 0.48444164 -0.86492932
v 0.21302287 0.57125163 -0.79264921
v 0.00000000 0.70290703 -0.71128172
v 0.04540840 0.81122774 -0.57861966
v 0.08114185 0.78020436 -0.62023956
v 0.10138692 0.79633033 -0.59308726
v 0.16062203 0.69378048 -0.70204645
v 0.23969862 0.75372016 -0.61105877
v 0.21462643 0.76175636 -0.60875720
v 0.23372355 0.75579935 -0.61101288
v 0.25989193 0.43388855 -0.86266845
v 0.34615302 0.51612163 -0.78345168
v 0.46842986 0.45399049 -0.75793540
v 0.42532539 0.58778524 -0.68819094
v 0.29600459 0.64741188 -0.70230985
v 0.36997601 0.70571017 -0.60385936
v 0.37290716 0.70452523 -0.60337645
v 0.52573109 0.00000000 -0.85065079
v 0.51925850 0.15643446 -0.84017789
v 0.62023956 0.08114185 -0.78020436
v 0.71128172 0.00000000 -0.70290703
v 0.70204645 0.16062203 -0.69378048
v 0.60682517 0.23708633 -0.75865233
v 0.50000000 0.30901700 -0.80901700
v 0.60150093 0.37174803 -0.70710677
v 0.70230985 0.29600459 -0.64741188
v 0.85065079 0.00000000 -0.52573109
v 0.78384304 0.08108629 -0.61564201
v 0.79264921 0.21302287 -0.57125163
v 0.78345168 0.34615302 -0.51612163
v 0.86492932 0.13120037 -0.48444164
v 0.91504341 0.00000000 -0.40335536
v 0.96193838 0.00000000 -0.27326652
v 0.92430460 0.13165537 -0.35822880
v 0.99043888 0.00000000 -0.13795224
v 0.96639258 0.13279247 -0.22011703
v 0.98768836 0.13307111 -0.08224247
v 0.86266845 0.25989193 -0.43388855
v 0.84391147 0.38361374 -0.37503856
v 0.91624415 0.26408276 -0.30125889
v 0.95105654 0.26286554 -0.16245985
v 0.88466990 0.40277690 -0.22842406
v 0.89100653 0.38618737 -0.23867694
v 0.89640194 0.38948211 -0.20028998
v 0.92684209 0.34983066 -0.11149464
v 0.94428027 0.31766841 -0.03168272
v 0.56425422 0.51337546 -0.64657778
v 0.54174829 0.62904239 -0.55341679
v 0.58591062 0.60621810 -0.53091007
v 0.68819094 0.42532539 -0.58778524
v 0.63991028 0.57830954 -0.50338995
v 0.64657778 0.56425422 -0.51337546
v 0.51482552 0.64278156 -0.56660044
v 0.51063198 0.64474589 -0.56811583
v 0.73919576 0.51749086 -0.42366913
v 0.65523767 0.56958312 -0.49311283
v 0.75793540 0.46842986 -0.45399049
v 0.78558379 0.48551750 -0.37552217
v 0.82134265 0.45888925 -0.33233759
v 0.86762422 0.41864520 -0.25873700
v 0.00000000 0.00000000 1.00000000
v 0.00648294 0.00400668 0.99940020
v 0.00000000 0.00946928 0.99934369
v 1.00000000 0.00000000 0.00000000
v 0.99043888 0.00000000 0.13795224
v 0.98768836 0.13307111 0.08224247
v 0.96639258 0.13279247 0.22011703
v 0.96193838 0.00000000 0.27326652
v 0.91504341 0.00000000 0.40335536
v 0.92430460 0.13165537 0.35822880
v 0.87565964 0.10310806 0.46707964
v 0.88377887 0.13134481 0.44437352
v 0.96386129 0.26640469 0.00000000
v 0.95416951 0.26372594 0.12296417
v 0.95264113 0.24942581 0.16841725
v 0.95385629 0.25294554 0.15632895
v 0.95167828 0.29830024 0.01971252
v 0.93243331 0.22169894 0.27506426
v 0.91953051 0.21008983 0.32448649
v 0.89344752 0.19585486 0.39610660
v 0.89266330 0.19554263 0.39790523
v 0.78384304 -0.04955590 0.61564201
v 0.83701026 0.01655587 0.54408872
v 0.85065079 0.00000000 0.52573109
v 0.85667437 0.05534852 0.50831264
f 2 16 36
f 1 2 10
f 1 16 2
f 3 24 9
f 28 24 3
f 28 3 4
f 28 4 85
f 5 46 6
f 6 49 7
f 7 49 73
f 8 9 10
f 1 9 23
f 1 10 9
f 3 9 8
f 5 10 51
f 2 51 10
f 5 8 10
f 5 6 8
f 3 8 11
f 6 11 8
f 6 7 11
f 4 11 76
f 7 76 11
f 3 11 4
f 12 31 13
f 12 13 21
f 13 14 22
f 13 32 14
f 14 32 146
f 17 18 58
f 17 58 57
f 1 23 15
f 1 15 16
f 15 21 17
f 21 18 17
f 12 15 23
f 12 21 15
f 16 15 17
f 16 17 57
f 18 20 58
f 18 19 20
f 20 19 150
f 13 22 21
f 21 22 18
f 14 153 22
f 18 22 19
f 19 22 153
f 29 25 26
f 9 24 23
f 25 23 24
f 25 24 26
f 12 25 31
f 12 23 25
f 29 31 25
f 28 27 26
f 29 26 33
f 26 27 33
f 27 90 33
f 28 26 24
f 28 85 27
f 29 30 31
f 31 30 32
f 30 158 32
f 30 34 159
f 29 34 30
f 13 31 32
f 29 33 34
f 33 90 35
f 33 35 34
f 34 35 162
f 60 41 38
f 2 37 51
f 37 48 51
f 2 36 37
f 38 44 37
f 37 44 48
f 36 38 37
f 60 38 36
f 44 39 48
f 44 40 39
f 39 40 305
f 41 42 43
f 41 66 42
f 42 66 329
f 38 43 44
f 44 43 40
f 38 41 43
f 40 43 310
f 42 310 43
f 5 51 45
f 51 48 45
f 5 45 46
f 45 52 47
f 45 48 52
f 45 47 46
f 46 50 49
f 49 50 109
f 6 46 49
f 49 109 73
f 46 47 50
f 47 55 50
f 50 111 109
f 50 55 111
f 47 52 53
f 52 54 53
f 39 52 48
f 39 54 52
f 53 54 317
f 39 305 54
f 47 53 55
f 53 56 55
f 55 117 111
f 55 56 117
f 53 317 56
f 56 381 117
f 60 57 59
f 57 58 59
f 59 58 63
f 60 59 61
f 60 61 41
f 59 63 62
f 59 62 61
f 16 57 36
f 60 36 57
f 20 63 58
f 20 64 63
f 20 150 64
f 62 63 65
f 63 64 65
f 64 190 65
f 61 67 66
f 41 61 66
f 61 62 67
f 66 330 329
f 66 67 330
f 67 333 330
f 62 65 68
f 62 68 67
f 65 190 69
f 65 69 68
f 67 68 333
f 68 334 333
f 68 69 334
f 69 475 334
f 4 76 70
f 85 70 86
f 4 70 85
f 70 71 86
f 86 71 87
f 71 79 87
f 7 73 72
f 72 73 110
f 72 110 74
f 74 113 75
f 70 76 77
f 7 72 76
f 72 77 76
f 71 77 78
f 72 74 77
f 74 78 77
f 70 77 71
f 78 80 79
f 71 78 79
f 79 81 88
f 79 80 81
f 74 75 78
f 75 80 78
f 75 116 80
f 80 116 82
f 80 82 81
f 81 82 102
f 82 124 102
f 27 85 83
f 86 84 83
f 83 91 90
f 27 83 90
f 83 84 91
f 84 94 91
f 85 86 83
f 86 87 84
f 84 89 94
f 84 87 89
f 79 88 87
f 87 88 89
f 94 89 96
f 89 98 96
f 89 88 98
f 90 91 92
f 91 94 93
f 35 90 92
f 35 92 227
f 91 93 92
f 92 93 228
f 94 96 95
f 93 95 231
f 94 95 93
f 96 97 95
f 95 97 232
f 96 99 97
f 96 98 99
f 98 104 99
f 97 99 100
f 97 100 242
f 99 105 100
f 81 101 88
f 81 102 101
f 88 101 98
f 98 101 104
f 101 103 104
f 104 103 106
f 102 103 101
f 102 133 103
f 103 134 106
f 103 133 134
f 99 104 105
f 104 106 105
f 100 105 246
f 105 106 107
f 105 107 246
f 106 134 108
f 106 108 107
f 108 248 107
f 109 112 110
f 110 112 113
f 73 109 110
f 74 110 113
f 109 111 112
f 111 118 112
f 112 115 113
f 112 118 115
f 75 113 114
f 75 114 116
f 116 114 123
f 114 115 121
f 113 115 114
f 114 121 123
f 111 117 118
f 117 119 118
f 115 118 120
f 118 119 120
f 117 381 119
f 119 385 120
f 115 120 121
f 120 122 121
f 121 127 123
f 121 122 127
f 120 385 122
f 122 397 127
f 82 116 125
f 116 123 125
f 82 125 124
f 123 129 125
f 125 129 126
f 124 125 126
f 124 126 136
f 126 131 136
f 123 127 129
f 129 127 128
f 127 397 128
f 126 129 130
f 129 128 130
f 126 130 131
f 128 400 130
f 130 400 132
f 130 132 131
f 131 132 142
f 132 409 142
f 102 124 133
f 124 136 133
f 136 135 133
f 133 135 134
f 135 139 134
f 136 137 135
f 136 131 137
f 135 137 138
f 135 138 139
f 108 134 139
f 108 140 248
f 108 139 140
f 138 141 139
f 139 141 140
f 140 141 281
f 131 142 137
f 137 142 143
f 137 143 138
f 142 409 410
f 142 410 143
f 143 410 413
f 138 144 141
f 138 143 144
f 141 145 281
f 141 144 145
f 143 413 144
f 144 413 414
f 144 414 145
f 145 414 550
f 14 147 153
f 14 146 147
f 147 148 154
f 146 161 147
f 147 161 148
f 148 166 149
f 148 149 156
f 19 153 151
f 19 151 150
f 151 155 152
f 151 152 150
f 147 154 153
f 151 153 154
f 151 154 155
f 155 193 152
f 155 157 193
f 157 199 193
f 148 156 154
f 155 154 156
f 155 156 157
f 156 171 157
f 149 171 156
f 32 158 146
f 146 158 161
f 30 159 158
f 158 159 160
f 158 160 161
f 159 163 160
f 34 162 159
f 159 162 163
f 35 227 162
f 162 227 164
f 162 164 163
f 160 166 161
f 160 165 166
f 160 163 165
f 165 169 167
f 148 161 166
f 149 166 167
f 149 167 175
f 165 167 166
f 163 168 165
f 163 164 168
f 164 235 168
f 165 168 169
f 168 170 169
f 168 235 170
f 149 175 171
f 171 175 172
f 171 172 173
f 171 173 157
f 157 173 199
f 173 174 202
f 172 174 173
f 172 182 174
f 167 176 175
f 167 169 176
f 175 176 180
f 176 178 180
f 169 170 177
f 169 177 176
f 170 255 177
f 176 177 178
f 177 179 178
f 177 255 179
f 175 180 172
f 172 180 182
f 178 181 180
f 180 181 182
f 174 182 214
f 182 183 214
f 181 183 182
f 181 185 183
f 183 185 216
f 178 184 181
f 178 179 184
f 181 184 185
f 179 261 184
f 184 261 186
f 184 186 185
f 185 186 187
f 185 187 223
f 186 265 188
f 186 188 187
f 64 150 189
f 152 192 189
f 150 152 189
f 64 189 190
f 189 192 191
f 189 191 190
f 152 193 192
f 193 199 194
f 192 193 194
f 192 195 191
f 192 194 195
f 194 201 195
f 69 190 196
f 190 191 196
f 191 197 196
f 69 196 475
f 196 197 476
f 196 476 475
f 191 195 197
f 195 201 198
f 195 198 197
f 197 198 478
f 197 478 476
f 198 487 478
f 199 200 194
f 194 200 201
f 201 200 206
f 200 203 206
f 173 202 199
f 199 202 200
f 200 202 203
f 174 214 204
f 174 204 202
f 204 214 218
f 202 204 203
f 203 204 209
f 204 218 209
f 201 205 198
f 201 206 205
f 205 206 207
f 206 208 207
f 198 205 487
f 205 488 487
f 205 207 488
f 203 208 206
f 203 209 208
f 208 209 211
f 209 218 210
f 209 210 211
f 210 226 212
f 207 208 492
f 208 211 492
f 211 212 213
f 210 212 211
f 211 213 494
f 183 215 214
f 214 215 218
f 183 216 215
f 215 216 221
f 216 224 217
f 216 217 221
f 215 220 218
f 218 220 225
f 215 219 220
f 215 221 219
f 185 223 216
f 216 222 224
f 216 223 222
f 210 218 225
f 210 225 226
f 92 228 227
f 227 228 229
f 93 231 228
f 228 231 230
f 164 227 229
f 228 230 229
f 95 232 231
f 231 232 233
f 97 242 232
f 232 242 234
f 230 231 233
f 232 234 233
f 164 229 235
f 229 236 235
f 229 230 236
f 230 239 236
f 235 236 237
f 170 235 237
f 236 239 238
f 236 238 237
f 230 233 239
f 233 240 239
f 233 234 240
f 238 239 241
f 234 244 240
f 239 240 241
f 240 245 241
f 241 245 259
f 100 243 242
f 100 246 243
f 234 242 243
f 234 243 244
f 243 247 244
f 240 244 245
f 244 251 245
f 243 246 247
f 246 249 247
f 247 249 253
f 107 249 246
f 107 248 249
f 249 250 253
f 249 248 250
f 244 247 251
f 247 253 251
f 245 251 274
f 253 252 251
f 251 252 274
f 253 250 284
f 253 284 252
f 252 284 296
f 170 237 255
f 237 238 254
f 237 254 255
f 238 258 254
f 255 254 256
f 179 255 256
f 254 258 257
f 256 254 257
f 238 241 258
f 241 259 258
f 257 258 260
f 259 260 258
f 179 256 261
f 257 260 269
f 259 275 260
f 260 275 271
f 256 262 261
f 261 262 263
f 256 257 262
f 257 269 262
f 262 269 267
f 186 261 263
f 262 267 263
f 269 268 267
f 186 263 265
f 263 264 265
f 263 266 264
f 263 267 266
f 260 271 269
f 269 270 268
f 269 271 270
f 271 275 278
f 271 278 273
f 271 272 270
f 271 273 272
f 259 245 274
f 259 274 275
f 274 276 275
f 274 252 276
f 252 296 276
f 275 276 277
f 275 279 278
f 275 277 279
f 276 294 277
f 140 280 248
f 248 280 250
f 250 280 283
f 140 281 280
f 280 282 283
f 280 281 282
f 250 283 284
f 284 285 296
f 283 285 284
f 283 282 286
f 285 286 299
f 283 286 285
f 145 287 281
f 281 287 282
f 282 287 291
f 287 288 291
f 145 550 287
f 550 552 289
f 287 550 289
f 287 289 288
f 282 291 290
f 282 290 286
f 286 290 292
f 286 292 299
f 299 292 301
f 276 296 293
f 296 297 295
f 276 293 294
f 296 295 293
f 296 285 298
f 296 298 297
f 285 304 298
f 285 299 304
f 299 303 304
f 299 302 303
f 299 301 300
f 299 300 302
f 40 306 305
f 305 306 307
f 306 312 307
f 307 312 323
f 42 308 310
f 42 329 308
f 329 331 308
f 308 309 311
f 308 331 309
f 40 310 306
f 306 310 311
f 308 311 310
f 306 311 312
f 312 311 314
f 309 314 311
f 309 338 314
f 312 314 313
f 312 313 323
f 314 315 313
f 338 315 314
f 313 328 323
f 313 345 328
f 313 315 345
f 54 305 316
f 54 316 317
f 316 319 317
f 305 307 316
f 316 318 319
f 318 322 319
f 307 318 316
f 307 323 318
f 56 317 320
f 317 319 320
f 56 320 381
f 320 383 381
f 319 321 320
f 319 322 321
f 320 321 383
f 321 389 383
f 318 324 322
f 318 323 324
f 322 324 325
f 323 328 324
f 324 328 347
f 324 347 325
f 321 322 326
f 322 325 326
f 321 326 389
f 326 391 389
f 325 327 326
f 326 327 391
f 325 348 327
f 327 431 391
f 329 330 331
f 330 333 332
f 330 332 331
f 331 332 337
f 309 331 337
f 332 339 337
f 333 334 335
f 333 335 332
f 334 475 336
f 334 336 335
f 332 335 339
f 335 342 339
f 335 336 342
f 336 481 342
f 309 337 338
f 338 337 341
f 339 343 341
f 337 339 341
f 338 341 340
f 341 343 356
f 341 356 340
f 338 340 315
f 315 340 357
f 339 342 343
f 342 481 344
f 342 344 343
f 343 361 356
f 343 344 361
f 344 507 361
f 315 357 345
f 345 346 350
f 345 357 346
f 325 347 348
f 327 348 349
f 327 349 431
f 328 350 347
f 328 345 350
f 347 350 351
f 347 351 348
f 350 352 351
f 346 352 350
f 346 368 352
f 351 352 354
f 348 351 353
f 348 353 349
f 351 354 353
f 349 353 435
f 353 355 435
f 353 354 355
f 352 369 354
f 354 369 371
f 354 371 355
f 371 444 355
f 340 356 358
f 356 360 358
f 340 358 357
f 357 358 359
f 357 359 346
f 346 359 368
f 358 363 359
f 358 360 363
f 359 365 368
f 359 363 365
f 356 361 360
f 361 507 362
f 361 362 360
f 363 360 364
f 363 364 366
f 360 362 364
f 362 510 364
f 364 510 367
f 363 366 365
f 365 366 374
f 364 367 366
f 366 367 375
f 367 516 375
f 352 368 369
f 368 370 369
f 370 372 369
f 365 370 368
f 365 374 370
f 370 374 376
f 370 376 372
f 371 369 372
f 371 373 444
f 371 372 373
f 376 378 372
f 372 378 373
f 373 378 451
f 366 375 374
f 374 377 376
f 374 375 377
f 375 521 377
f 376 377 379
f 377 522 379
f 376 379 378
f 378 380 451
f 378 379 380
f 379 524 380
f 119 381 382
f 381 383 382
f 119 382 385
f 382 387 385
f 382 383 384
f 383 389 384
f 382 384 387
f 384 393 387
f 122 385 386
f 385 387 386
f 122 386 397
f 386 399 397
f 386 387 388
f 387 393 388
f 386 388 399
f 388 405 399
f 384 389 390
f 389 391 390
f 384 390 393
f 390 394 393
f 390 391 392
f 390 392 394
f 391 431 392
f 392 433 394
f 388 393 395
f 393 394 395
f 388 395 405
f 394 434 395
f 395 396 405
f 395 434 396
f 128 397 398
f 397 399 398
f 398 399 401
f 399 405 401
f 128 398 400
f 398 402 400
f 400 402 403
f 398 401 402
f 401 407 402
f 402 407 404
f 132 400 403
f 132 403 409
f 409 403 411
f 402 404 403
f 403 404 411
f 401 405 406
f 401 406 407
f 406 408 407
f 407 408 421
f 396 406 405
f 396 442 406
f 406 442 408
f 404 407 421
f 409 411 410
f 410 412 413
f 410 411 412
f 404 420 411
f 411 420 412
f 412 420 422
f 413 416 414
f 413 412 416
f 414 415 550
f 414 416 417
f 414 417 415
f 412 422 416
f 416 422 425
f 416 419 417
f 416 418 419
f 416 425 418
f 425 426 418
f 408 423 421
f 408 459 423
f 404 421 420
f 421 424 420
f 420 424 422
f 422 424 428
f 421 423 424
f 424 462 428
f 424 423 462
f 422 428 425
f 425 428 430
f 425 427 426
f 425 430 427
f 428 462 429
f 428 429 430
f 392 431 432
f 349 432 431
f 392 432 433
f 394 433 434
f 349 435 432
f 432 435 436
f 435 440 436
f 432 436 433
f 433 436 438
f 436 441 438
f 436 440 441
f 433 438 434
f 434 438 437
f 396 434 437
f 396 437 442
f 437 438 439
f 438 441 439
f 437 439 443
f 439 449 443
f 355 440 435
f 355 444 440
f 440 444 445
f 440 445 441
f 441 445 448
f 439 441 448
f 437 443 442
f 442 443 459
f 408 442 459
f 444 446 445
f 445 447 448
f 373 446 444
f 445 446 447
f 373 451 446
f 446 451 452
f 446 452 447
f 447 452 457
f 447 450 448
f 439 448 449
f 448 450 449
f 450 457 455
f 449 450 471
f 450 455 471
f 447 457 450
f 451 453 452
f 452 454 457
f 380 453 451
f 380 553 453
f 452 453 454
f 453 554 454
f 455 456 472
f 455 457 458
f 457 454 458
f 454 557 458
f 455 458 456
f 456 458 558
f 423 459 460
f 459 461 460
f 459 443 461
f 443 449 461
f 449 471 461
f 461 471 463
f 460 461 463
f 460 463 467
f 423 460 462
f 460 467 462
f 465 470 467
f 463 465 467
f 463 472 465
f 465 464 470
f 465 466 464
f 465 473 466
f 462 467 468
f 467 469 468
f 462 468 429
f 467 470 469
f 463 471 472
f 455 472 471
f 473 571 474
f 456 473 472
f 456 573 473
f 465 472 473
f 473 474 466
f 336 475 477
f 475 476 477
f 476 479 477
f 336 477 481
f 477 479 482
f 477 482 481
f 476 478 479
f 479 478 480
f 478 487 480
f 479 484 482
f 479 480 484
f 480 500 484
f 344 481 483
f 481 482 483
f 482 485 483
f 344 483 507
f 483 485 508
f 483 508 507
f 482 484 485
f 485 484 486
f 484 500 486
f 485 513 508
f 485 486 513
f 486 502 513
f 487 488 490
f 487 490 480
f 207 489 488
f 490 488 489
f 480 490 500
f 490 491 500
f 490 489 491
f 489 496 491
f 207 492 489
f 489 492 496
f 492 494 496
f 211 494 492
f 494 213 493
f 494 493 495
f 496 494 498
f 491 496 504
f 496 498 499
f 496 499 497
f 496 497 504
f 494 495 498
f 500 491 501
f 500 501 486
f 491 504 501
f 486 501 502
f 501 504 503
f 502 501 503
f 502 503 536
f 503 543 542
f 504 497 505
f 504 506 503
f 504 505 506
f 503 506 543
f 362 507 509
f 507 508 509
f 509 508 512
f 362 509 510
f 509 511 510
f 509 512 511
f 510 511 517
f 508 513 512
f 502 514 513
f 512 513 514
f 512 515 511
f 511 515 518
f 512 514 515
f 514 539 515
f 515 539 519
f 367 510 517
f 367 517 516
f 511 518 517
f 517 520 516
f 517 518 520
f 515 519 518
f 518 519 527
f 375 516 521
f 516 520 521
f 377 521 522
f 521 523 522
f 520 523 521
f 522 523 525
f 379 522 524
f 522 525 524
f 380 524 553
f 524 526 553
f 524 525 526
f 518 527 520
f 519 546 528
f 519 528 527
f 527 528 529
f 528 549 532
f 520 527 523
f 523 527 529
f 523 529 525
f 528 532 529
f 525 529 530
f 525 530 526
f 526 530 562
f 530 535 562
f 529 532 530
f 530 532 534
f 532 549 531
f 532 531 533
f 532 533 534
f 530 534 535
f 562 535 566
f 502 536 514
f 514 536 539
f 503 542 536
f 536 542 537
f 536 537 541
f 541 537 538
f 541 538 540
f 539 536 541
f 539 546 519
f 539 541 546
f 541 540 545
f 546 541 544
f 541 545 544
f 546 547 528
f 546 544 547
f 528 547 548
f 528 548 549
f 550 415 551
f 550 551 552
f 453 553 554
f 553 555 554
f 454 554 557
f 554 556 557
f 526 555 553
f 554 555 556
f 458 557 558
f 557 559 558
f 456 558 573
f 558 560 573
f 556 559 557
f 556 567 559
f 558 559 560
f 559 561 560
f 559 569 561
f 526 562 555
f 555 562 563
f 555 563 565
f 562 566 563
f 556 565 564
f 555 565 556
f 556 564 567
f 559 567 568
f 559 568 569
f 561 569 570
f 473 573 571
f 573 572 571
f 573 574 572
f 573 560 574
f 187 543 223
f 223 543 222
f 217 543 221
f 219 543 220
f 219 221 543
f 217 224 543
f 222 543 224
f 267 543 266
f 264 266 543
f 268 270 543
f 268 543 267
f 188 265 543
f 265 264 543
f 187 188 543
f 277 294 543
f 293 295 547
f 293 547 294
f 272 273 543
f 273 278 543
f 272 543 270
f 278 279 543
f 277 543 279
f 225 543 226
f 212 226 543
f 212 506 213
f 213 506 505
f 493 213 505
f 497 495 493
f 498 495 499
f 499 495 497
f 497 493 505
f 212 543 506
f 543 294 542
f 542 294 537
f 537 294 538
f 220 543 225
f 540 538 294
f 545 294 544
f 540 294 545
f 547 544 294
f 295 548 547
f 295 566 535
f 295 563 566
f 295 564 565
f 295 565 563
f 295 567 564
f 297 568 567
f 288 289 570
f 298 304 568
f 302 570 303
f 304 303 569
f 292 570 301
f 300 301 570
f 300 570 302
f 291 570 290
f 292 290 570
f 291 288 570
f 415 570 551
f 552 570 289
f 552 551 570
f 426 570 418
f 417 570 415
f 419 570 417
f 419 418 570
f 426 427 570
f 295 549 548
f 295 531 549
f 295 533 531
f 295 534 533
f 295 535 534
f 295 297 567
f 298 568 297
f 430 570 427
f 430 429 570
f 470 570 469
f 468 570 429
f 468 469 570
f 464 570 470
f 569 303 570
f 304 569 568
f 464 466 561
f 466 474 574
f 474 571 572
f 466 574 560
f 474 572 574
f 466 560 561
f 464 561 570

