# https://github.com/mikedh/trimesh
v 0.00648294 0.00400668 0.99940020
v 0.00000000 0.00946928 0.99934369
v -0.13292421 0.15492937 0.97646129
v -0.16703524 0.20493832 0.96235526
v -0.13279247 0.22011703 0.96639258
v -0.08968632 0.10040537 0.98858511
v 0.00000000 0.13795224 0.99043888
v 0.13611098 -0.08412120 0.98683041
v 0.13307001 -0.08279058 0.98760372
v 0.13251239 -0.08247637 0.98769993
v 0.13307111 -0.08224247 0.98768836
v 0.12317726 -0.07612773 0.98860371
v 0.26340717 -0.13759741 0.95301616
v 0.29158518 -0.14562894 0.94305992
v 0.26640469 0.00000000 0.96386129
v 0.13307111 0.08224247 0.98768836
v 0.13279247 0.22011703 0.96639258
v 0.26286554 0.16245985 0.95105654
v 0.29963538 0.65027338 0.69747758
v -0.22331432 0.31879738 0.91872561
v -0.19507602 0.25861037 0.94260240
v -0.25863430 0.43438259 0.86269057
v -0.25881541 0.43704364 0.86106020
v -0.25828803 0.43294224 0.86343938
v -0.13165537 0.35822880 0.92430460
v 0.00000000 0.27326652 0.96193838
v 0.00000000 0.40335536 0.91504341
v -0.16615006 0.52152169 0.83405554
v -0.05276102 0.58423412 0.80718052
v -0.10308783 0.55804121 0.81944227
v -0.25927067 0.45097697 0.85225815
v -0.25203839 0.45690560 0.85093576
v -0.13120037 0.48444164 0.86492932
v 0.00000000 0.52573109 0.85065079
v 0.13165537 0.35822880 0.92430460
v 0.26408276 0.30125889 0.91624415
v 0.25989193 0.43388855 0.86266845
v 0.06943462 0.62818152 0.77341634
v 0.10048568 0.63470060 0.76389223
v 0.03229947 0.61564201 0.78384304
v 0.08108629 0.61564201 0.78384304
v 0.21478325 0.64711535 0.72648138
v 0.18131480 0.64539462 0.73782492
v 0.28615648 0.65078485 0.70229071
v 0.29600459 0.64741188 0.70230985
v 0.29424340 0.65073711 0.69945562
v 0.21302287 0.57125163 0.79264921
v 0.13120037 0.48444164 0.86492932
v 0.83701026 0.01655587 0.54408872
v 0.70501208 -0.10904280 0.69671124
v 0.78384304 -0.04955590 0.61564201
v 0.76911229 -0.06462491 0.63335776
v 0.87565964 0.10310806 0.46707964
v 0.88377887 0.13134481 0.44437352
v 0.85667437 0.05534852 0.50831264
v 0.86492932 0.13120037 0.48444164
v 0.89266330 0.19554263 0.39790523
v 0.88996077 0.20310910 0.40038660
v 0.70204645 0.16062203 0.69378048
v 0.78384304 0.08108629 0.61564201
v 0.79264921 0.21302287 0.57125163
v 0.49651855 -0.17048852 0.84886378
v 0.53206128 -0.16822627 0.82825834
v 0.51752132 -0.17019798 0.83736706
v 0.51925850 -0.15643446 0.84017789
v 0.39250448 -0.16507596 0.90135139
v 0.39960706 -0.08232358 0.91298246
v 0.52573109 0.00000000 0.85065079
v 0.51925850 0.15643446 0.84017789
v 0.39960706 0.08232358 0.91298246
v 0.38618737 0.23867694 0.89100653
v 0.66895437 -0.12847115 0.72874022
v 0.61446583 -0.14826235 0.77092808
v 0.62023956 -0.08114185 0.78020436
v 0.71128172 0.00000000 0.70290703
v 0.62023956 0.08114185 0.78020436
v 0.60682517 0.23708633 0.75865233
v 0.42532539 0.58778524 0.68819094
v 0.40576991 0.63133705 0.65654951
v 0.56425422 0.51337546 0.64657778
v 0.53650075 0.58603501 0.60167170
v 0.46496332 0.61425215 0.63239777
v 0.85265946 0.28858817 0.43078452
v 0.86847162 0.26034588 0.41952249
v 0.86266845 0.25989193 0.43388855
v 0.86009312 0.27687877 0.42580852
v 0.80689371 0.36067766 0.46141955
v 0.78345168 0.34615302 0.51612163
v 0.77028930 0.40922856 0.48407176
v 0.70230985 0.29600459 0.64741188
v 0.68819094 0.42532539 0.58778524
v 0.66270584 0.51040936 0.54221457
v 0.73053879 0.45149779 0.50654697
v 0.61400539 0.54412341 0.56607866
v 0.38361374 0.37503856 0.84391147
v 0.50000000 0.30901700 0.80901700
v 0.60150093 0.37174803 0.70710677
v 0.34615302 0.51612163 0.78345168
v 0.46842986 0.45399049 0.75793540
f 5 3 6
f 5 21 4
f 5 4 3
f 7 6 2
f 7 2 1
f 5 6 7
f 5 7 26
f 11 9 8
f 11 10 9
f 11 12 10
f 11 1 12
f 11 16 1
f 11 8 13
f 11 13 15
f 15 13 14
f 11 15 16
f 7 1 16
f 7 16 17
f 7 17 26
f 16 15 18
f 15 70 18
f 18 71 36
f 16 18 17
f 17 18 36
f 5 25 21
f 25 20 21
f 25 24 20
f 25 33 24
f 5 26 25
f 25 27 33
f 25 26 27
f 33 30 28
f 33 34 30
f 34 29 30
f 34 40 29
f 32 31 23
f 33 22 24
f 33 23 22
f 33 32 23
f 33 28 32
f 33 27 34
f 17 35 26
f 27 35 48
f 26 35 27
f 17 36 35
f 35 36 37
f 35 37 48
f 36 95 37
f 48 41 34
f 41 39 38
f 41 43 39
f 41 47 43
f 34 41 40
f 41 38 40
f 48 47 41
f 48 37 47
f 37 98 47
f 47 42 43
f 47 44 42
f 47 98 45
f 47 45 44
f 45 46 44
f 45 19 46
f 27 48 34
f 75 50 52
f 60 51 49
f 75 52 51
f 75 51 60
f 56 53 54
f 56 49 55
f 56 60 49
f 56 55 53
f 54 57 58
f 56 54 58
f 56 58 85
f 56 85 61
f 75 60 59
f 59 61 90
f 56 61 60
f 59 60 61
f 65 62 64
f 65 64 63
f 65 73 74
f 65 63 73
f 65 74 68
f 74 76 68
f 67 14 66
f 67 66 65
f 67 15 14
f 67 68 70
f 67 70 15
f 65 66 62
f 67 65 68
f 68 76 69
f 71 69 96
f 76 77 69
f 69 77 96
f 18 70 71
f 70 69 71
f 70 68 69
f 74 73 72
f 74 72 50
f 74 75 76
f 74 50 75
f 75 59 76
f 59 77 76
f 59 90 77
f 45 79 19
f 45 78 79
f 78 82 79
f 80 94 81
f 99 80 78
f 78 81 82
f 78 80 81
f 91 88 93
f 88 83 87
f 85 58 84
f 85 84 86
f 85 86 88
f 88 86 83
f 85 88 61
f 88 87 89
f 88 89 93
f 90 88 91
f 97 90 91
f 97 91 80
f 90 61 88
f 91 93 92
f 91 92 94
f 91 94 80
f 71 96 95
f 37 95 98
f 95 96 99
f 77 97 96
f 99 96 97
f 71 95 36
f 99 78 98
f 95 99 98
f 45 98 78
f 99 97 80
f 77 90 97
f 2 57 1
f 2 6 57
f 4 21 57
f 4 57 3
f 3 57 6
f 28 57 32
f 28 30 57
f 30 29 57
f 29 40 57
f 20 57 21
f 20 24 57
f 22 57 24
f 22 23 57
f 23 31 57
f 32 57 31
f 64 62 57
f 64 57 63
f 72 73 57
f 73 63 57
f 72 54 50
f 50 55 52
f 52 49 51
f 50 53 55
f 52 55 49
f 72 57 54
f 50 54 53
f 10 12 57
f 9 10 57
f 9 57 8
f 13 8 57
f 13 57 14
f 66 14 57
f 66 57 62
f 12 1 57
f 38 57 40
f 38 39 57
f 43 57 39
f 43 42 84
f 44 87 42
f 19 93 89
f 94 92 81
f 44 46 87
f 46 19 87
f 19 79 93
f 79 82 93
f 82 81 92
f 43 58 57
f 43 84 58
f 87 83 42
f 84 42 86
f 86 42 83
f 19 89 87
f 82 92 93

