# https://github.com/mikedh/trimesh
v -0.58778524 -0.68819094 -0.42532539
v -0.64741188 -0.70230985 -0.29600459
v -0.69378048 -0.70204645 -0.16062203
v -0.57125163 -0.79264921 -0.21302287
v -0.68819094 -0.42532539 -0.58778524
v -0.56425422 -0.51337546 -0.64657778
v -0.60150093 -0.37174803 -0.70710677
v -0.84017789 -0.51925850 -0.15643446
v -0.84391147 -0.38361374 -0.37503856
v -0.89100653 -0.38618737 -0.23867694
v -0.80901700 -0.50000000 -0.30901700
v -0.70710677 -0.60150093 -0.37174803
v -0.64657778 -0.56425422 -0.51337546
v -0.75865233 -0.60682517 -0.23708633
v -0.75793540 -0.46842986 -0.45399049
v -0.37174803 -0.70710677 -0.60150093
v -0.23708633 -0.75865233 -0.60682517
v -0.08114185 -0.78020436 -0.62023956
v -0.16062203 -0.69378048 -0.70204645
v -0.37503856 -0.84391147 -0.38361374
v -0.43388855 -0.86266845 -0.25989193
v -0.48444164 -0.86492932 -0.13120037
v -0.35822880 -0.92430460 -0.13165537
v -0.30125889 -0.91624415 -0.26408276
v -0.51612163 -0.78345168 -0.34615302
v -0.45399049 -0.75793540 -0.46842986
v -0.30901700 -0.80901700 -0.50000000
v -0.23867694 -0.89100653 -0.38618737
v -0.15643446 -0.84017789 -0.51925850
v -0.08232358 -0.91298246 -0.39960706
v -0.22011703 -0.96639258 -0.13279247
v -0.16245985 -0.95105654 -0.26286554
v -0.08224247 -0.98768836 -0.13307111
v -0.51337546 -0.64657778 -0.56425422
v -0.42532539 -0.58778524 -0.68819094
v -0.29600459 -0.64741188 -0.70230985
v -0.34615302 -0.51612163 -0.78345168
v -0.38361374 -0.37503856 -0.84391147
v -0.46842986 -0.45399049 -0.75793540
v -0.21302287 -0.57125163 -0.79264921
v -0.08108629 -0.61564201 -0.78384304
v -0.25989193 -0.43388855 -0.86266845
v -0.13120037 -0.48444164 -0.86492932
v -0.70290703 -0.71128172 0.00000000
v -0.61564201 -0.78384304 -0.08108629
v -0.61564201 -0.78384304 0.08108629
v -0.69378048 -0.70204645 0.16062203
v -0.64741188 -0.70230985 0.29600459
v -0.57125163 -0.79264921 0.21302287
v -0.58778524 -0.68819094 0.42532539
v -0.78020436 -0.62023956 -0.08114185
v -0.78020436 -0.62023956 0.08114185
v -0.85065079 -0.52573109 0.00000000
v -0.84017789 -0.51925850 0.15643446
v -0.91298246 -0.39960706 -0.08232358
v -0.91298246 -0.39960706 0.08232358
v -0.89100653 -0.38618737 0.23867694
v -0.80901700 -0.50000000 0.30901700
v -0.75865233 -0.60682517 0.23708633
v -0.84391147 -0.38361374 0.37503856
v -0.70710677 -0.60150093 0.37174803
v -0.64657778 -0.56425422 0.51337546
v -0.75793540 -0.46842986 0.45399049
v -0.68819094 -0.42532539 0.58778524
v -0.56425422 -0.51337546 0.64657778
v -0.60150093 -0.37174803 0.70710677
v -0.52573109 -0.85065079 0.00000000
v -0.40335536 -0.91504341 0.00000000
v -0.48444164 -0.86492932 0.13120037
v -0.43388855 -0.86266845 0.25989193
v -0.35822880 -0.92430460 0.13165537
v -0.30125889 -0.91624415 0.26408276
v -0.51612163 -0.78345168 0.34615302
v -0.27326652 -0.96193838 0.00000000
v -0.13795224 -0.99043888 0.00000000
v -0.22011703 -0.96639258 0.13279247
v -0.08224247 -0.98768836 0.13307111
v -0.16245985 -0.95105654 0.26286554
v -0.37503856 -0.84391147 0.38361374
v -0.45399049 -0.75793540 0.46842986
v -0.30901700 -0.80901700 0.50000000
v -0.37174803 -0.70710677 0.60150093
v -0.23867694 -0.89100653 0.38618737
v -0.08232358 -0.91298246 0.39960706
v -0.15643446 -0.84017789 0.51925850
v -0.23708633 -0.75865233 0.60682517
v -0.08114185 -0.78020436 0.62023956
v -0.16062203 -0.69378048 0.70204645
v -0.51337546 -0.64657778 0.56425422
v -0.42532539 -0.58778524 0.68819094
v -0.29600459 -0.64741188 0.70230985
v -0.46842986 -0.45399049 0.75793540
v -0.48712972 -0.36811879 0.78819239
v -0.43321234 -0.42120790 0.79363459
v -0.46944520 -0.38553163 0.78997737
v -0.35323590 -0.48944640 0.79488307
v -0.34615302 -0.51612163 0.78345168
v -0.33413869 -0.50466830 0.79448485
v -0.27250263 -0.54662073 0.78853995
v -0.22208279 -0.57956678 0.78278595
v -0.20558806 -0.58863646 0.77979416
v -0.10537322 -0.63950229 0.75886577
v -0.79264921 -0.21302287 -0.57125163
v -0.78384304 -0.08108629 -0.61564201
v -0.70230985 -0.29600459 -0.64741188
v -0.60682517 -0.23708633 -0.75865233
v -0.62023956 -0.08114185 -0.78020436
v -0.70204645 -0.16062203 -0.69378048
v -0.78345168 -0.34615302 -0.51612163
v -0.86266845 -0.25989193 -0.43388855
v -0.91624415 -0.26408276 -0.30125889
v -0.95105654 -0.26286554 -0.16245985
v -0.92430460 -0.13165537 -0.35822880
v -0.86492932 -0.13120037 -0.48444164
v -0.96639258 -0.13279247 -0.22011703
v -0.78384304 0.08108629 -0.61564201
v -0.79264921 0.21302287 -0.57125163
v -0.62023956 0.08114185 -0.78020436
v -0.71128172 0.00000000 -0.70290703
v -0.55276698 0.27348638 -0.78413904
v -0.70204645 0.16062203 -0.69378048
v -0.67953163 0.28194943 -0.67394871
v -0.71713406 0.28238773 -0.63491440
v -0.70228404 0.28274456 -0.65195346
v -0.60682517 0.23708633 -0.75865233
v -0.60519242 0.27838239 -0.74284512
v -0.91504341 0.00000000 -0.40335536
v -0.85065079 0.00000000 -0.52573109
v -0.96193838 0.00000000 -0.27326652
v -0.99043888 0.00000000 -0.13795224
v -0.92430460 0.13165537 -0.35822880
v -0.86492932 0.13120037 -0.48444164
v -0.85550058 0.26769719 -0.44132933
v -0.78817689 0.27775788 -0.54444444
v -0.86266845 0.25989193 -0.43388855
v -0.87739307 0.26104373 -0.39743689
v -0.86167872 0.26642027 -0.43078324
v -0.96639258 0.13279247 -0.22011703
v -0.92477340 0.24175295 -0.28745830
v -0.91733468 0.24616608 -0.30896661
v -0.95629555 0.21843062 -0.18215641
v -0.96763438 0.20412667 -0.12615722
v -0.50000000 -0.30901700 -0.80901700
v -0.38618737 -0.23867694 -0.89100653
v -0.51925850 -0.15643446 -0.84017789
v -0.39960706 -0.08232358 -0.91298246
v -0.26408276 -0.30125889 -0.91624415
v -0.13165537 -0.35822880 -0.92430460
v -0.13279247 -0.22011703 -0.96639258
v -0.26286554 -0.16245985 -0.95105654
v -0.13307111 -0.08224247 -0.98768836
v -0.52573109 0.00000000 -0.85065079
v -0.39960706 0.08232358 -0.91298246
v -0.51925850 0.15643446 -0.84017789
v -0.50521553 0.26769492 -0.81745595
v -0.38618737 0.23867694 -0.89100653
v -0.37197414 0.24596161 -0.89394426
v -0.40868127 0.25257891 -0.87480217
v -0.38599673 0.24877869 -0.88751769
v -0.26640469 0.00000000 -0.96386129
v -0.13307111 0.08224247 -0.98768836
v -0.26286554 0.16245985 -0.95105654
v -0.17825678 0.19996418 -0.96103221
v -0.26338503 0.22169498 -0.93619967
v -0.13285848 0.18744937 -0.97143835
v -0.96386129 -0.26640469 0.00000000
v -0.95105654 -0.26286554 0.16245985
v -0.91624415 -0.26408276 0.30125889
v -0.98768836 -0.13307111 -0.08224247
v -0.98768836 -0.13307111 0.08224247
v -0.96639258 -0.13279247 0.22011703
v -0.78345168 -0.34615302 0.51612163
v -0.86266845 -0.25989193 0.43388855
v -0.79264921 -0.21302287 0.57125163
v -0.92430460 -0.13165537 0.35822880
v -0.86492932 -0.13120037 0.48444164
v -0.85538697 -0.04351911 0.51203537
v -0.79809147 -0.08989232 0.59258753
v -0.78509909 -0.09990435 0.60931063
v -0.70230985 -0.29600459 0.64741188
v -0.59127778 -0.24755515 0.76598245
v -0.62040025 -0.20482855 0.75391901
v -0.60682517 -0.23708633 0.75865233
v -0.60785842 -0.22507438 0.76031244
v -0.60251874 -0.23311998 0.76266164
v -0.71507001 -0.14795846 0.68133938
v -0.70204645 -0.16062203 0.69378048
v -0.69962376 -0.15826826 0.69633991
v -0.70227903 -0.15657726 0.69401032
v -0.76398027 -0.11439612 0.63103247
v -1.00000000 0.00000000 0.00000000
v -0.99043888 0.00000000 0.13795224
v -0.96193838 0.00000000 0.27326652
v -0.97242057 0.09950378 0.19951978
v -0.94628990 0.05474357 0.30859464
v -0.96474504 0.08367392 0.23977648
v -0.98768836 0.13307111 -0.08224247
v -0.97867513 0.18350817 -0.05113200
v -0.98768836 0.13307111 0.08224247
v -0.98550481 0.14080797 0.08702411
v -0.98358202 0.13301738 0.10882784
v -0.98560053 0.14475442 0.07503600
v -0.91504341 0.00000000 0.40335536
v -0.90179396 0.00000000 0.42853546
v -0.91609126 0.01489628 0.39824948
v -0.91136491 0.00963049 0.40930733
v -0.52689195 -0.32563713 0.78201663
v 0.00000000 -0.70290703 -0.71128172
v 0.08114185 -0.78020436 -0.62023956
v 0.16062203 -0.69378048 -0.70204645
v 0.23708633 -0.75865233 -0.60682517
v 0.37174803 -0.70710677 -0.60150093
v 0.00000000 -0.85065079 -0.52573109
v 0.15643446 -0.84017789 -0.51925850
v 0.08232358 -0.91298246 -0.39960706
v 0.00000000 -0.96386129 -0.26640469
v 0.16245985 -0.95105654 -0.26286554
v 0.08224247 -0.98768836 -0.13307111
v 0.23867694 -0.89100653 -0.38618737
v 0.37503856 -0.84391147 -0.38361374
v 0.22011703 -0.96639258 -0.13279247
v 0.35822880 -0.92430460 -0.13165537
v 0.30125889 -0.91624415 -0.26408276
v 0.30901700 -0.80901700 -0.50000000
v 0.00000000 -0.52573109 -0.85065079
v 0.08108629 -0.61564201 -0.78384304
v 0.00000000 -0.40335536 -0.91504341
v 0.13120037 -0.48444164 -0.86492932
v 0.21302287 -0.57125163 -0.79264921
v 0.29600459 -0.64741188 -0.70230985
v 0.25989193 -0.43388855 -0.86266845
v 0.34615302 -0.51612163 -0.78345168
v 0.38361374 -0.37503856 -0.84391147
v 0.43388855 -0.86266845 -0.25989193
v 0.48444164 -0.86492932 -0.13120037
v 0.51612163 -0.78345168 -0.34615302
v 0.45399049 -0.75793540 -0.46842986
v 0.58778524 -0.68819094 -0.42532539
v 0.57125163 -0.79264921 -0.21302287
v 0.64741188 -0.70230985 -0.29600459
v 0.69378048 -0.70204645 -0.16062203
v 0.51337546 -0.64657778 -0.56425422
v 0.42532539 -0.58778524 -0.68819094
v 0.46842986 -0.45399049 -0.75793540
v 0.56425422 -0.51337546 -0.64657778
v 0.60150093 -0.37174803 -0.70710677
v 0.68819094 -0.42532539 -0.58778524
v 0.64657778 -0.56425422 -0.51337546
v 0.70710677 -0.60150093 -0.37174803
v 0.75865233 -0.60682517 -0.23708633
v 0.84017789 -0.51925850 -0.15643446
v 0.75793540 -0.46842986 -0.45399049
v 0.84391147 -0.38361374 -0.37503856
v 0.85849118 -0.35952049 -0.36016718
v 0.80901700 -0.50000000 -0.30901700
v 0.88301969 -0.44884968 -0.11282396
v 0.87892741 -0.40295482 -0.24903978
v 0.88101494 -0.41234568 -0.22251022
v 0.87135690 -0.38511357 -0.29557163
v 0.00000000 -1.00000000 0.00000000
v 0.13795224 -0.99043888 0.00000000
v 0.00000000 -0.96386129 0.26640469
v 0.08224247 -0.98768836 0.13307111
v 0.16245985 -0.95105654 0.26286554
v 0.27326652 -0.96193838 0.00000000
v 0.40335536 -0.91504341 0.00000000
v 0.22011703 -0.96639258 0.13279247
v 0.35822880 -0.92430460 0.13165537
v 0.30125889 -0.91624415 0.26408276
v 0.00000000 -0.85065079 0.52573109
v 0.08232358 -0.91298246 0.39960706
v 0.15643446 -0.84017789 0.51925850
v 0.00000000 -0.70290703 0.71128172
v 0.01501830 -0.68674433 0.72472107
v 0.08114185 -0.78020436 0.62023956
v 0.13812551 -0.71824241 0.67889136
v 0.06183797 -0.69939339 0.70772624
v 0.23867694 -0.89100653 0.38618737
v 0.37503856 -0.84391147 0.38361374
v 0.30901700 -0.80901700 0.50000000
v 0.40930864 -0.73032051 0.54072660
v 0.20128992 -0.72828287 0.65140259
v 0.23708633 -0.75865233 0.60682517
v 0.25038737 -0.73353934 0.62838119
v 0.29732558 -0.73559403 0.60444343
v 0.29949448 -0.73558086 0.60326713
v 0.35442653 -0.73524654 0.57347417
v -0.03034350 -0.67025137 0.73843509
v 0.52573109 -0.85065079 0.00000000
v 0.48444164 -0.86492932 0.13120037
v 0.43388855 -0.86266845 0.25989193
v 0.61564201 -0.78384304 -0.08108629
v 0.61564201 -0.78384304 0.08108629
v 0.51612163 -0.78345168 0.34615302
v 0.57125163 -0.79264921 0.21302287
v 0.64741188 -0.70230985 0.29600459
v 0.70290703 -0.71128172 0.00000000
v 0.69378048 -0.70204645 0.16062203
v 0.45399049 -0.75793540 0.46842986
v 0.47362792 -0.72111166 0.50011706
v 0.57327753 -0.69575351 0.42999932
v 0.58457428 -0.69245917 0.42177799
v 0.59229577 -0.68925899 0.41554272
v 0.78020436 -0.62023956 -0.08114185
v 0.78020436 -0.62023956 0.08114185
v 0.85065079 -0.52573109 0.00000000
v 0.68127716 -0.64512032 0.33897433
v 0.75865233 -0.60682517 0.23708633
v 0.74213648 -0.60511923 0.28023371
v 0.84065646 -0.51955426 0.14928602
v 0.83794379 -0.52165812 0.15864462
v 0.83917081 -0.52095413 0.15517016
v 0.82813406 -0.52603221 0.18257919
v 0.76922786 -0.58439410 0.25219026
v 0.87710732 -0.47219801 -0.03494207
v 0.86897540 -0.48865241 0.02420197
v 0.00000000 -0.27326652 -0.96193838
v 0.13165537 -0.35822880 -0.92430460
v 0.13279247 -0.22011703 -0.96639258
v 0.00000000 -0.13795224 -0.99043888
v 0.13307111 -0.08224247 -0.98768836
v 0.26408276 -0.30125889 -0.91624415
v 0.38618737 -0.23867694 -0.89100653
v 0.26286554 -0.16245985 -0.95105654
v 0.39960706 -0.08232358 -0.91298246
v 0.00000000 0.00000000 -1.00000000
v 0.13307111 0.08224247 -0.98768836
v 0.13303779 0.09872977 -0.98514175
v 0.14938851 0.09232717 -0.98308313
v 0.00000000 0.13795224 -0.99043888
v -0.02790175 0.15521634 -0.98538637
v 0.00000000 0.14649878 -0.98863876
v 0.00888243 0.14344820 -0.98883045
v 0.26640469 0.00000000 -0.96386129
v 0.26544091 0.04424057 -0.96037436
v 0.30760601 0.02546382 -0.94812375
v 0.39960706 -0.01825112 -0.91298246
v 0.50000000 -0.30901700 -0.80901700
v 0.60682517 -0.23708633 -0.75865233
v 0.51925850 -0.15643446 -0.84017789
v 0.45462793 -0.04641040 -0.88579065
v 0.52227980 -0.08341359 -0.84506643
v 0.57545012 -0.11453734 -0.80680519
v 0.61519420 -0.13979526 -0.77209824
v 0.70230985 -0.29600459 -0.64741188
v 0.70212358 -0.20025615 -0.68020576
v 0.75734085 -0.24545558 -0.60101825
v 0.67647982 -0.18115249 -0.71119839
v 0.67859054 -0.18272489 -0.70864743
v 0.78345168 -0.34615302 -0.51612163
v 0.81935018 -0.30706230 -0.47885627
v 0.84966201 -0.34568304 -0.39308083
v 0.78841227 -0.27435064 -0.54585540
f 25 2 1
f 4 45 3
f 4 22 45
f 4 3 2
f 25 4 2
f 13 6 34
f 5 105 7
f 6 7 39
f 13 5 6
f 6 5 7
f 8 11 14
f 8 14 51
f 9 15 11
f 109 15 9
f 8 10 11
f 9 11 10
f 8 55 10
f 2 12 1
f 13 1 12
f 13 12 15
f 12 11 15
f 13 34 1
f 14 2 3
f 14 12 2
f 14 3 51
f 14 11 12
f 13 15 5
f 109 5 15
f 16 17 27
f 36 17 16
f 36 19 17
f 17 18 29
f 29 18 213
f 18 19 208
f 17 19 18
f 20 28 24
f 20 27 28
f 4 21 22
f 21 23 22
f 21 24 23
f 20 24 21
f 25 20 21
f 25 26 20
f 34 26 1
f 34 16 26
f 25 1 26
f 26 27 20
f 16 27 26
f 25 21 4
f 29 28 27
f 29 213 30
f 29 30 28
f 28 30 32
f 24 32 31
f 24 31 23
f 24 28 32
f 32 216 33
f 32 30 216
f 32 33 31
f 17 29 27
f 34 35 16
f 37 35 39
f 34 6 35
f 35 36 16
f 37 36 35
f 39 143 38
f 37 39 38
f 37 38 42
f 38 147 42
f 6 39 35
f 7 143 39
f 40 43 41
f 41 43 225
f 36 40 19
f 37 40 36
f 40 41 19
f 41 208 19
f 37 42 40
f 40 42 43
f 42 147 148
f 43 148 227
f 42 148 43
f 45 44 3
f 46 47 44
f 45 46 44
f 45 22 67
f 45 67 46
f 46 67 69
f 46 49 47
f 46 69 49
f 49 48 47
f 49 73 48
f 73 50 48
f 8 51 53
f 51 52 53
f 53 52 54
f 52 59 54
f 54 59 58
f 55 53 56
f 8 53 55
f 53 54 56
f 54 58 57
f 54 57 56
f 57 58 60
f 51 3 44
f 51 44 52
f 52 44 47
f 52 47 59
f 59 47 48
f 59 48 61
f 59 61 58
f 58 63 60
f 60 63 172
f 48 50 61
f 61 50 62
f 61 63 58
f 61 62 63
f 50 89 62
f 62 89 65
f 62 64 63
f 63 64 172
f 64 66 180
f 62 65 64
f 65 92 66
f 65 66 64
f 22 68 67
f 22 23 68
f 67 68 69
f 68 71 69
f 23 74 68
f 68 74 71
f 49 69 70
f 69 71 70
f 71 72 70
f 70 72 79
f 79 72 83
f 49 70 73
f 73 70 79
f 23 31 74
f 31 75 74
f 74 76 71
f 74 75 76
f 31 33 75
f 33 260 75
f 75 77 76
f 75 260 77
f 71 76 72
f 72 76 78
f 72 78 83
f 76 77 78
f 77 262 78
f 78 262 84
f 79 83 81
f 73 79 80
f 73 80 50
f 50 80 89
f 89 80 82
f 80 79 81
f 80 81 82
f 81 86 82
f 82 86 91
f 83 85 81
f 78 84 83
f 83 84 85
f 84 270 85
f 81 85 86
f 85 270 87
f 91 86 88
f 86 85 87
f 86 87 88
f 87 273 88
f 89 82 90
f 89 90 65
f 90 97 92
f 90 82 91
f 90 91 97
f 91 99 97
f 97 99 98
f 65 90 92
f 92 96 94
f 92 95 93
f 66 92 93
f 92 94 95
f 97 96 92
f 97 98 96
f 91 101 100
f 91 88 101
f 91 100 99
f 88 102 101
f 88 273 102
f 103 114 104
f 106 145 143
f 109 105 5
f 109 103 105
f 105 108 106
f 103 108 105
f 105 106 7
f 7 106 143
f 106 107 145
f 145 107 152
f 103 104 108
f 104 119 108
f 107 108 119
f 106 108 107
f 111 113 110
f 109 9 110
f 111 110 9
f 103 110 114
f 109 110 103
f 111 9 10
f 111 10 112
f 10 55 112
f 111 112 115
f 110 113 114
f 113 127 114
f 113 129 127
f 104 114 128
f 114 127 128
f 111 115 113
f 112 169 115
f 113 115 129
f 115 169 130
f 115 130 129
f 104 128 116
f 116 132 117
f 117 134 123
f 107 118 152
f 118 154 152
f 107 119 118
f 104 116 119
f 116 121 119
f 118 119 121
f 118 125 154
f 125 155 154
f 125 120 155
f 116 117 121
f 121 124 122
f 125 121 122
f 117 123 121
f 121 123 124
f 118 121 125
f 125 122 126
f 125 126 120
f 127 129 131
f 127 131 132
f 128 132 116
f 128 127 132
f 129 138 131
f 129 130 138
f 130 197 138
f 131 135 132
f 131 140 135
f 135 140 136
f 117 132 135
f 135 133 134
f 117 135 134
f 135 136 137
f 135 137 133
f 138 141 139
f 131 138 139
f 138 197 142
f 138 142 141
f 131 139 140
f 38 143 144
f 145 144 143
f 38 144 147
f 147 144 150
f 145 146 144
f 145 152 146
f 144 146 150
f 146 160 150
f 147 150 149
f 147 149 148
f 148 149 317
f 150 151 149
f 150 160 151
f 149 151 320
f 146 152 153
f 152 154 153
f 146 153 160
f 153 162 160
f 154 156 153
f 154 155 156
f 156 155 158
f 153 156 162
f 156 159 157
f 156 157 164
f 156 164 162
f 156 158 159
f 151 160 161
f 160 162 161
f 151 161 326
f 162 163 161
f 162 164 163
f 161 163 165
f 161 165 331
f 55 166 112
f 55 56 166
f 56 167 166
f 112 166 169
f 166 167 170
f 56 57 167
f 57 60 168
f 57 168 167
f 167 168 171
f 169 166 170
f 169 170 191
f 169 191 130
f 170 192 191
f 167 171 170
f 168 175 171
f 170 171 192
f 171 193 192
f 171 175 193
f 175 203 193
f 168 173 175
f 60 172 173
f 168 60 173
f 173 174 176
f 173 172 174
f 173 176 175
f 175 176 203
f 176 174 178
f 176 178 177
f 176 177 203
f 174 190 179
f 174 179 178
f 172 64 180
f 172 180 174
f 174 180 187
f 180 183 187
f 180 66 183
f 66 93 207
f 66 207 183
f 183 181 185
f 187 183 184
f 183 185 184
f 183 207 181
f 174 186 190
f 174 187 186
f 187 189 186
f 187 188 189
f 187 182 188
f 187 184 182
f 130 191 197
f 197 191 199
f 191 192 199
f 192 193 194
f 193 203 195
f 192 194 199
f 199 194 201
f 193 196 194
f 193 195 196
f 197 199 198
f 197 198 142
f 199 202 198
f 199 201 200
f 199 200 202
f 203 177 204
f 203 205 195
f 203 206 205
f 203 204 206
f 18 209 213
f 18 208 209
f 213 209 214
f 209 211 214
f 209 208 210
f 209 210 211
f 211 210 230
f 211 212 224
f 211 230 212
f 30 215 216
f 30 213 215
f 213 214 215
f 214 219 215
f 215 219 217
f 33 216 218
f 216 217 218
f 215 217 216
f 217 221 218
f 214 224 219
f 219 220 223
f 219 224 220
f 217 223 221
f 221 223 222
f 219 223 217
f 223 234 222
f 223 220 234
f 214 211 224
f 224 237 220
f 212 237 224
f 41 225 226
f 225 228 226
f 226 228 229
f 41 226 208
f 226 210 208
f 226 229 210
f 43 227 225
f 225 227 228
f 227 318 228
f 228 318 231
f 229 230 210
f 229 232 230
f 230 243 212
f 232 243 230
f 229 228 231
f 229 231 232
f 318 322 231
f 232 231 233
f 232 233 244
f 231 322 233
f 234 235 222
f 234 239 235
f 220 236 234
f 220 237 236
f 212 242 237
f 237 242 238
f 237 238 236
f 236 238 240
f 234 236 239
f 235 239 292
f 239 241 292
f 236 240 239
f 239 240 241
f 212 243 242
f 232 244 243
f 243 245 242
f 242 245 248
f 233 338 244
f 243 244 245
f 244 338 246
f 244 246 245
f 245 247 248
f 245 246 247
f 246 345 247
f 242 248 238
f 238 249 240
f 248 249 238
f 248 252 249
f 249 252 255
f 240 250 241
f 240 249 250
f 241 250 304
f 249 255 250
f 250 255 251
f 250 251 304
f 248 247 252
f 247 350 252
f 252 253 255
f 350 253 252
f 253 352 254
f 253 254 259
f 251 255 258
f 251 258 256
f 253 259 255
f 255 259 257
f 255 257 258
f 33 218 260
f 77 260 263
f 218 261 260
f 218 221 261
f 260 261 263
f 263 261 267
f 77 263 262
f 263 264 262
f 263 267 264
f 262 264 271
f 221 265 261
f 221 222 265
f 261 265 267
f 267 265 268
f 222 266 265
f 265 266 268
f 267 269 264
f 267 268 269
f 264 269 278
f 268 291 269
f 278 269 279
f 269 291 279
f 84 262 271
f 84 271 270
f 271 264 278
f 271 278 272
f 271 272 270
f 270 272 275
f 87 270 275
f 87 275 273
f 275 277 273
f 273 274 288
f 273 277 274
f 275 272 283
f 275 276 277
f 275 283 276
f 278 280 272
f 278 279 280
f 272 280 283
f 283 280 285
f 279 299 280
f 280 286 285
f 280 287 286
f 299 281 280
f 280 281 287
f 283 282 276
f 283 284 282
f 283 285 284
f 273 288 102
f 222 235 266
f 235 289 266
f 268 266 290
f 266 289 290
f 268 290 291
f 290 295 291
f 235 292 289
f 292 293 289
f 292 297 293
f 290 289 293
f 291 294 279
f 291 295 294
f 290 293 295
f 293 298 295
f 295 298 296
f 295 296 294
f 292 241 297
f 293 297 298
f 279 294 299
f 299 294 301
f 299 300 281
f 299 301 300
f 294 302 301
f 294 296 303
f 294 303 302
f 241 304 297
f 304 305 297
f 297 305 298
f 304 306 305
f 251 306 304
f 305 306 310
f 298 308 296
f 298 305 308
f 296 308 307
f 308 309 307
f 308 314 309
f 305 311 308
f 308 313 314
f 305 312 311
f 305 310 312
f 308 311 313
f 251 315 306
f 251 256 315
f 306 315 316
f 306 316 310
f 296 307 303
f 148 317 227
f 227 317 318
f 149 320 317
f 317 320 319
f 317 319 318
f 318 319 322
f 151 326 320
f 320 326 321
f 320 321 319
f 319 321 324
f 319 324 322
f 322 323 233
f 322 324 323
f 321 334 324
f 324 325 323
f 324 334 325
f 161 330 326
f 326 330 327
f 330 333 327
f 321 326 327
f 327 333 328
f 327 328 329
f 161 331 330
f 330 331 332
f 330 332 333
f 321 327 334
f 327 335 334
f 334 335 336
f 327 329 335
f 334 336 337
f 325 334 337
f 233 323 338
f 323 340 338
f 338 340 339
f 338 339 246
f 246 339 345
f 323 325 340
f 325 337 341
f 325 341 340
f 340 341 342
f 340 344 339
f 340 342 343
f 340 343 344
f 339 344 348
f 247 345 350
f 345 347 350
f 345 339 346
f 339 348 349
f 339 349 346
f 345 346 347
f 350 347 353
f 350 351 253
f 350 353 351
f 253 351 352
f 100 101 102
f 96 98 277
f 99 274 98
f 94 96 276
f 100 102 288
f 99 288 274
f 98 274 277
f 100 288 99
f 93 95 286
f 94 282 95
f 93 287 207
f 185 181 300
f 184 300 182
f 184 185 300
f 207 300 181
f 194 335 201
f 202 200 335
f 200 201 335
f 194 196 335
f 196 195 335
f 139 141 335
f 142 335 141
f 142 198 335
f 198 202 335
f 126 122 335
f 120 126 335
f 120 328 155
f 134 335 123
f 133 137 335
f 140 335 136
f 136 335 137
f 134 133 335
f 123 335 124
f 124 335 122
f 158 331 159
f 157 159 331
f 155 328 158
f 157 331 164
f 164 331 163
f 158 333 332
f 158 332 331
f 120 329 328
f 163 331 165
f 158 328 333
f 139 335 140
f 178 336 335
f 195 205 335
f 179 348 178
f 186 189 346
f 179 190 348
f 186 346 190
f 189 188 346
f 188 182 310
f 177 335 204
f 205 206 335
f 204 335 206
f 177 178 335
f 188 316 315
f 188 315 256
f 188 310 316
f 300 301 182
f 284 285 95
f 285 286 95
f 93 286 287
f 94 276 282
f 96 277 276
f 282 284 95
f 207 287 281
f 207 281 300
f 302 182 301
f 302 303 182
f 307 309 182
f 307 182 303
f 314 182 309
f 314 313 182
f 310 182 312
f 312 182 311
f 311 182 313
f 178 341 337
f 178 343 342
f 178 342 341
f 178 344 343
f 178 348 344
f 188 347 346
f 188 353 347
f 188 351 353
f 348 190 349
f 346 349 190
f 120 335 329
f 178 337 336
f 188 254 352
f 188 259 254
f 188 257 259
f 188 256 258
f 188 258 257
f 188 352 351

