# https://github.com/mikedh/trimesh
v -0.95629555 0.21843062 -0.18215641
v -0.96763438 0.20412667 -0.12615722
v -0.26338503 0.22169498 -0.93619967
v -0.13285848 0.18744937 -0.97143835
v -0.17825678 0.19996418 -0.96103221
v -0.13279247 0.22011703 -0.96639258
v -0.02790175 0.15521634 -0.98538637
v 0.00000000 0.14649878 -0.98863876
v -0.71507001 -0.14795846 0.68133938
v -0.70227903 -0.15657726 0.69401032
v -0.69962376 -0.15826826 0.69633991
v -0.62040025 -0.20482855 0.75391901
v -0.98550481 0.14080797 0.08702411
v -0.98358202 0.13301738 0.10882784
v -0.97867513 0.18350817 -0.05113200
v -0.98560053 0.14475442 0.07503600
v -0.96474504 0.08367392 0.23977648
v -0.97242057 0.09950378 0.19951978
v -0.96639258 0.13279247 0.22011703
v -0.94628990 0.05474357 0.30859464
v -0.92430460 0.13165537 0.35822880
v -0.91136491 0.00963049 0.40930733
v -0.91609126 0.01489628 0.39824948
v -0.90179396 0.00000000 0.42853546
v -0.85538697 -0.04351911 0.51203537
v -0.85065079 0.00000000 0.52573109
v -0.78509909 -0.09990435 0.60931063
v -0.79809147 -0.08989232 0.59258753
v -0.78384304 -0.08108629 0.61564201
v -0.86492932 0.13120037 0.48444164
v -0.79264921 0.21302287 0.57125163
v -0.78384304 0.08108629 0.61564201
v -0.62124383 -0.08211758 0.77914339
v -0.62111932 -0.08035775 0.77945739
v -0.62023956 -0.07516806 0.78020436
v -0.71128172 0.00000000 0.70290703
v -0.62023956 0.08114185 0.78020436
v -0.70204645 0.16062203 0.69378048
v -0.59521943 0.05966042 0.79885429
v -0.58013463 0.11104456 0.80402303
v -0.55210495 0.18668717 0.80959749
v -0.78817689 0.27775788 -0.54444444
v -0.55276698 0.27348638 -0.78413904
v -0.53373533 0.27116844 -0.79747355
v -0.50521553 0.26769492 -0.81745595
v -0.50000000 0.30901700 -0.80901700
v -0.70228404 0.28274456 -0.65195346
v -0.67953163 0.28194940 -0.67394871
v -0.71713406 0.28238773 -0.63491440
v -0.70230985 0.29600459 -0.64741188
v -0.68819094 0.42532539 -0.58778524
v -0.60519242 0.27838239 -0.74284512
v -0.60150093 0.37174803 -0.70710677
v -0.56425422 0.51337546 -0.64657778
v -0.86167872 0.26642027 -0.43078324
v -0.87739307 0.26104373 -0.39743689
v -0.85550058 0.26769719 -0.44132933
v -0.78345168 0.34615302 -0.51612163
v -0.84391147 0.38361374 -0.37503856
v -0.92477340 0.24175295 -0.28745830
v -0.91733468 0.24616608 -0.30896661
v -0.91624415 0.26408276 -0.30125889
v -0.95105654 0.26286554 -0.16245985
v -0.89100653 0.38618737 -0.23867694
v -0.75793540 0.46842986 -0.45399049
v -0.80901700 0.50000000 -0.30901700
v -0.84017789 0.51925850 -0.15643446
v -0.75865233 0.60682517 -0.23708633
v -0.64657778 0.56425422 -0.51337546
v -0.70710677 0.60150093 -0.37174803
v -0.51337546 0.64657778 -0.56425422
v -0.58778524 0.68819094 -0.42532539
v -0.51612163 0.78345168 -0.34615302
v -0.64741188 0.70230985 -0.29600459
v -0.69378048 0.70204645 -0.16062203
v -0.57125163 0.79264921 -0.21302287
v -0.38599673 0.24877869 -0.88751769
v -0.37197414 0.24596161 -0.89394426
v -0.40868127 0.25257891 -0.87480217
v -0.38361374 0.37503856 -0.84391147
v -0.26408276 0.30125889 -0.91624415
v -0.34615302 0.51612163 -0.78345168
v -0.25989193 0.43388855 -0.86266845
v -0.46842986 0.45399049 -0.75793540
v -0.42532539 0.58778524 -0.68819094
v -0.13165537 0.35822880 -0.92430460
v 0.00000000 0.27326652 -0.96193838
v 0.00000000 0.40335536 -0.91504341
v -0.13120037 0.48444164 -0.86492932
v -0.21302287 0.57125163 -0.79264921
v -0.08108629 0.61564201 -0.78384304
v 0.00000000 0.52573109 -0.85065079
v -0.37174803 0.70710677 -0.60150093
v -0.29600459 0.64741188 -0.70230985
v -0.16062203 0.69378048 -0.70204645
v -0.23708633 0.75865233 -0.60682517
v 0.00000000 0.70290703 -0.71128172
v -0.08114185 0.78020436 -0.62023956
v -0.45399049 0.75793540 -0.46842986
v -0.30901700 0.80901700 -0.50000000
v -0.37503856 0.84391147 -0.38361374
v -0.43388855 0.86266845 -0.25989193
v -0.48444164 0.86492932 -0.13120037
v -0.30125889 0.91624415 -0.26408276
v -0.35822880 0.92430460 -0.13165537
v -0.15643446 0.84017789 -0.51925850
v -0.23867694 0.89100653 -0.38618737
v 0.00000000 0.85065079 -0.52573109
v -0.08232358 0.91298246 -0.39960706
v -0.16245985 0.95105654 -0.26286554
v -0.22011703 0.96639258 -0.13279247
v 0.00000000 0.96386129 -0.26640469
v -0.08224247 0.98768836 -0.13307111
v -0.96386129 0.26640469 0.00000000
v -0.91298246 0.39960706 -0.08232358
v -0.91298246 0.39960706 0.08232358
v -0.95105654 0.26286554 0.16245985
v -0.91624415 0.26408276 0.30125889
v -0.89100653 0.38618737 0.23867694
v -0.85065079 0.52573109 0.00000000
v -0.84017789 0.51925850 0.15643446
v -0.80901700 0.50000000 0.30901700
v -0.75865233 0.60682517 0.23708633
v -0.86266845 0.25989193 0.43388855
v -0.84391147 0.38361374 0.37503856
v -0.78345168 0.34615302 0.51612163
v -0.75793540 0.46842986 0.45399049
v -0.68819094 0.42532539 0.58778524
v -0.70230985 0.29600459 0.64741188
v -0.60682517 0.23708633 0.75865233
v -0.50251138 0.28911969 0.81308049
v -0.49395281 0.30527964 0.81337333
v -0.50000000 0.30901700 0.80901700
v -0.60150093 0.37174803 0.70710677
v -0.70710677 0.60150093 0.37174803
v -0.64657778 0.56425422 0.51337546
v -0.56425422 0.51337546 0.64657778
v -0.78020436 0.62023956 -0.08114185
v -0.78020436 0.62023956 0.08114185
v -0.70290703 0.71128172 0.00000000
v -0.61564201 0.78384304 -0.08108629
v -0.61564201 0.78384304 0.08108629
v -0.69378048 0.70204645 0.16062203
v -0.64741188 0.70230985 0.29600459
v -0.57125163 0.79264921 0.21302287
v -0.51612163 0.78345168 0.34615302
v -0.52573109 0.85065079 0.00000000
v -0.58778524 0.68819094 0.42532539
v -0.51337546 0.64657778 0.56425422
v -0.48646247 0.31669635 0.81307578
v -0.41899407 0.40797269 0.80804729
v -0.46842986 0.45399049 0.75793540
v -0.42532539 0.58778524 0.68819094
v -0.35655746 0.47693685 0.80024391
v -0.34615302 0.51612163 0.78345168
v -0.33170244 0.50234586 0.79672217
v -0.28298935 0.54227811 0.78781545
v -0.24231385 0.57316124 0.77987850
v -0.22742255 0.58446759 0.77697277
v -0.20041043 0.60074329 0.77084190
v -0.48444164 0.86492932 0.13120037
v -0.40335536 0.91504341 0.00000000
v -0.27326652 0.96193838 0.00000000
v -0.35822880 0.92430460 0.13165537
v -0.43388855 0.86266845 0.25989193
v -0.30125889 0.91624415 0.26408276
v -0.13795224 0.99043888 0.00000000
v -0.22011703 0.96639258 0.13279247
v 0.00000000 1.00000000 0.00000000
v -0.08224247 0.98768836 0.13307111
v -0.16245985 0.95105654 0.26286554
v 0.00000000 0.96386129 0.26640469
v -0.45399049 0.75793540 0.46842986
v -0.30901700 0.80901700 0.50000000
v -0.37174803 0.70710677 0.60150093
v -0.29600459 0.64741188 0.70230985
v -0.37503856 0.84391147 0.38361374
v -0.16062203 0.69378048 0.70204645
v -0.23708633 0.75865233 0.60682517
v -0.11383881 0.64781916 0.75015950
v -0.01347502 0.68840522 0.72334003
v 0.00703858 0.69533211 0.71758032
v 0.00000000 0.70290703 0.71128172
v -0.08114185 0.78020436 0.62023956
v -0.23867694 0.89100653 0.38618737
v -0.15643446 0.84017789 0.51925850
v 0.00000000 0.85065079 0.52573109
v -0.08232358 0.91298246 0.39960706
v 0.00888243 0.14344820 -0.98883045
v 0.14938851 0.09232717 -0.98308313
v 0.13303779 0.09872977 -0.98514175
v 0.13279247 0.22011703 -0.96639258
v 0.26544091 0.04424057 -0.96037436
v 0.30760601 0.02546382 -0.94812375
v 0.39960706 -0.01825112 -0.91298246
v 0.45462793 -0.04641040 -0.88579065
v 0.26286554 0.16245985 -0.95105654
v 0.39960706 0.08232358 -0.91298246
v 0.67647982 -0.18115249 -0.71119839
v 0.70212358 -0.20025615 -0.68020576
v 0.70204645 -0.16062203 -0.69378048
v 0.75734085 -0.24545558 -0.60101825
v 0.78841227 -0.27435064 -0.54585540
v 0.79264921 -0.21302287 -0.57125163
v 0.84966201 -0.34568304 -0.39308083
v 0.85849118 -0.35952049 -0.36016718
v 0.87135690 -0.38511357 -0.29557163
v 0.88301969 -0.44884968 -0.11282396
v 0.88101494 -0.41234568 -0.22251022
v 0.87892741 -0.40295482 -0.24903978
v 0.89100653 -0.38618737 -0.23867694
v 0.81935018 -0.30706230 -0.47885627
v 0.86266845 -0.25989193 -0.43388855
v 0.91624415 -0.26408276 -0.30125889
v 0.95105654 -0.26286554 -0.16245985
v 0.52227980 -0.08341359 -0.84506643
v 0.57545012 -0.11453734 -0.80680519
v 0.61519420 -0.13979526 -0.77209824
v 0.62023956 -0.08114185 -0.78020436
v 0.52573109 0.00000000 -0.85065079
v 0.71128172 0.00000000 -0.70290703
v 0.62023956 0.08114185 -0.78020436
v 0.51925850 0.15643446 -0.84017789
v 0.70204645 0.16062203 -0.69378048
v 0.78384304 -0.08108629 -0.61564201
v 0.78384304 0.08108629 -0.61564201
v 0.79264921 0.21302287 -0.57125163
v 0.86492932 -0.13120037 -0.48444164
v 0.85065079 0.00000000 -0.52573109
v 0.92430460 -0.13165537 -0.35822880
v 0.91504341 0.00000000 -0.40335536
v 0.96639258 -0.13279247 -0.22011703
v 0.96193838 0.00000000 -0.27326652
v 0.99043888 0.00000000 -0.13795224
v 0.86492932 0.13120037 -0.48444164
v 0.92430460 0.13165537 -0.35822880
v 0.96639258 0.13279247 -0.22011703
v 0.86897540 -0.48865241 0.02420197
v 0.87774861 -0.46966556 -0.04338947
v 0.87710732 -0.47219801 -0.03494207
v 0.91298246 -0.39960706 -0.08232358
v 0.91298246 -0.39960706 0.08232358
v 0.84065646 -0.51955426 0.14928602
v 0.83794379 -0.52165812 0.15864462
v 0.83917081 -0.52095413 0.15517016
v 0.84017789 -0.51925850 0.15643446
v 0.82813406 -0.52603221 0.18257919
v 0.83490545 -0.51599997 0.18225156
v 0.85641783 -0.47674185 0.18271120
v 0.89109111 -0.40586326 0.18499663
v 0.89848298 -0.39075288 0.18548386
v 0.96386129 -0.26640469 0.00000000
v 0.92814273 -0.30992255 0.19154269
v 0.95105654 -0.26286554 0.16245985
v 0.94265079 -0.26315945 0.19597417
v 0.96389759 -0.15395372 0.21073693
v 0.98768836 -0.13307111 -0.08224247
v 0.98768836 -0.13307111 0.08224247
v 1.00000000 0.00000000 0.00000000
v 0.96736491 -0.13280520 0.21382202
v 0.96781343 -0.12494587 0.21526198
v 0.99043888 0.00000000 0.13795224
v 0.96888822 0.00000000 0.24027014
v 0.98768836 0.13307111 -0.08224247
v 0.98768836 0.13307111 0.08224247
v 0.96639258 0.13279247 0.22011703
v 0.96367133 0.05166326 0.25258857
v 0.95005184 0.13235098 0.27373919
v 0.13165537 0.35822880 -0.92430460
v 0.13120037 0.48444164 -0.86492932
v 0.08108629 0.61564201 -0.78384304
v 0.21302287 0.57125163 -0.79264921
v 0.26408276 0.30125889 -0.91624415
v 0.38618737 0.23867694 -0.89100653
v 0.50000000 0.30901700 -0.80901700
v 0.38361374 0.37503856 -0.84391147
v 0.25989193 0.43388855 -0.86266845
v 0.34615302 0.51612163 -0.78345168
v 0.46842986 0.45399049 -0.75793540
v 0.42532539 0.58778524 -0.68819094
v 0.08114185 0.78020436 -0.62023956
v 0.16062203 0.69378048 -0.70204645
v 0.23708633 0.75865233 -0.60682517
v 0.29600459 0.64741188 -0.70230985
v 0.37174803 0.70710677 -0.60150093
v 0.08232358 0.91298246 -0.39960706
v 0.15643446 0.84017789 -0.51925850
v 0.23867694 0.89100653 -0.38618737
v 0.08224247 0.98768836 -0.13307111
v 0.16245985 0.95105654 -0.26286554
v 0.22011703 0.96639258 -0.13279247
v 0.30901700 0.80901700 -0.50000000
v 0.45399049 0.75793540 -0.46842986
v 0.37503856 0.84391147 -0.38361374
v 0.30125889 0.91624415 -0.26408276
v 0.35822880 0.92430460 -0.13165537
v 0.43388855 0.86266845 -0.25989193
v 0.48444164 0.86492932 -0.13120037
v 0.60682517 0.23708633 -0.75865233
v 0.60150093 0.37174803 -0.70710677
v 0.70230985 0.29600459 -0.64741188
v 0.68819094 0.42532539 -0.58778524
v 0.56425422 0.51337546 -0.64657778
v 0.64657778 0.56425422 -0.51337546
v 0.70710677 0.60150093 -0.37174803
v 0.86266845 0.25989193 -0.43388855
v 0.78345168 0.34615302 -0.51612163
v 0.84391147 0.38361374 -0.37503856
v 0.91624415 0.26408276 -0.30125889
v 0.95105654 0.26286554 -0.16245985
v 0.89100653 0.38618737 -0.23867694
v 0.75793540 0.46842986 -0.45399049
v 0.80901700 0.50000000 -0.30901700
v 0.84017789 0.51925850 -0.15643446
v 0.75865233 0.60682517 -0.23708633
v 0.51337546 0.64657778 -0.56425422
v 0.58778524 0.68819094 -0.42532539
v 0.51612163 0.78345168 -0.34615302
v 0.57125163 0.79264921 -0.21302287
v 0.64741188 0.70230985 -0.29600459
v 0.69378048 0.70204645 -0.16062203
v 0.08224247 0.98768836 0.13307111
v 0.13795224 0.99043888 0.00000000
v 0.22011703 0.96639258 0.13279247
v 0.16245985 0.95105654 0.26286554
v 0.27326652 0.96193838 0.00000000
v 0.35822880 0.92430460 0.13165537
v 0.48444164 0.86492932 0.13120037
v 0.40335536 0.91504341 0.00000000
v 0.30125889 0.91624415 0.26408276
v 0.43388855 0.86266845 0.25989193
v 0.03393474 0.70097888 0.70933056
v 0.08114185 0.78020436 0.62023956
v 0.13659042 0.71991158 0.67731136
v 0.23708633 0.75865233 0.60682517
v 0.19660492 0.72430813 0.65723681
v 0.08232358 0.91298246 0.39960706
v 0.23867694 0.89100653 0.38618737
v 0.15643446 0.84017789 0.51925850
v 0.30901700 0.80901700 0.50000000
v 0.49909130 0.67336321 0.54120511
v 0.45399049 0.75793540 0.46842986
v 0.36785254 0.71343523 0.59519786
v 0.37816721 0.71107405 0.59111446
v 0.25546074 0.72396058 0.63660330
v 0.34865814 0.71594507 0.60241383
v 0.37503856 0.84391147 0.38361374
v 0.96386129 0.26640469 0.00000000
v 0.91298246 0.39960706 -0.08232358
v 0.91298246 0.39960706 0.08232358
v 0.84906185 0.38389519 0.36012581
v 0.95105654 0.26286554 0.16245985
v 0.91624415 0.26408276 0.30125889
v 0.91727197 0.24719632 0.30852339
v 0.91108364 0.26367909 0.31403404
v 0.88323736 0.31862709 0.33492601
v 0.89100653 0.38618737 0.23867694
v 0.85065079 0.52573109 0.00000000
v 0.84017789 0.51925850 0.15643446
v 0.80901700 0.50000000 0.30901700
v 0.75865233 0.60682517 0.23708633
v 0.62641978 0.60674798 0.48318607
v 0.73998892 0.51541430 0.42495248
v 0.66825861 0.57759559 0.46264601
v 0.70710677 0.60150093 0.37174803
v 0.83939952 0.39866284 0.36650178
v 0.77509260 0.47903359 0.40529704
v 0.61564201 0.78384304 -0.08108629
v 0.61564201 0.78384304 0.08108629
v 0.70290703 0.71128172 0.00000000
v 0.57125163 0.79264921 0.21302287
v 0.51612163 0.78345168 0.34615302
v 0.69378048 0.70204645 0.16062203
v 0.64741188 0.70230985 0.29600459
v 0.52573109 0.85065079 0.00000000
v 0.78020436 0.62023956 -0.08114185
v 0.78020436 0.62023956 0.08114185
v 0.58778524 0.68819094 0.42532539
v 0.53389961 0.65805578 0.52593404
f 63 1 2
f 63 2 15
f 6 5 3
f 6 4 5
f 6 7 4
f 87 189 8
f 6 87 7
f 87 8 7
f 11 12 33
f 114 15 16
f 117 16 13
f 114 16 117
f 19 13 14
f 19 14 18
f 19 18 17
f 19 17 20
f 21 20 23
f 19 20 21
f 19 117 13
f 19 118 117
f 19 21 118
f 26 22 24
f 26 24 25
f 29 26 28
f 26 25 28
f 29 32 26
f 29 27 9
f 29 28 27
f 29 36 32
f 21 23 22
f 21 22 30
f 30 22 26
f 21 30 124
f 21 124 118
f 30 26 32
f 30 32 31
f 30 31 124
f 32 38 31
f 29 9 10
f 29 10 36
f 36 10 34
f 10 11 33
f 10 33 34
f 36 34 35
f 36 35 37
f 37 35 39
f 32 36 38
f 36 37 38
f 31 38 129
f 38 130 129
f 38 37 130
f 37 39 40
f 37 40 41
f 37 41 130
f 58 50 42
f 46 43 52
f 46 44 43
f 46 45 44
f 50 48 47
f 53 52 48
f 50 53 48
f 50 47 49
f 50 49 42
f 58 51 50
f 50 51 53
f 53 46 52
f 53 84 46
f 51 54 53
f 51 69 54
f 53 54 84
f 69 71 54
f 54 71 85
f 62 56 61
f 62 59 56
f 58 42 57
f 59 57 55
f 59 55 56
f 58 57 59
f 58 65 51
f 58 59 65
f 62 60 63
f 63 60 1
f 62 61 60
f 62 63 64
f 62 64 59
f 63 115 64
f 59 64 66
f 59 66 65
f 65 66 70
f 64 115 67
f 64 67 66
f 66 67 68
f 66 68 70
f 67 138 68
f 51 65 69
f 65 70 69
f 69 70 72
f 68 138 75
f 70 74 72
f 69 72 71
f 71 72 99
f 74 73 72
f 72 73 99
f 68 74 70
f 68 75 74
f 74 75 76
f 75 141 76
f 74 76 73
f 73 76 102
f 76 103 102
f 76 141 103
f 46 79 45
f 46 80 79
f 80 77 79
f 46 84 80
f 81 78 77
f 80 81 77
f 81 3 78
f 80 83 81
f 84 82 80
f 80 82 83
f 83 82 90
f 54 85 84
f 84 85 82
f 82 85 94
f 82 94 90
f 81 6 3
f 81 86 6
f 81 83 86
f 83 89 86
f 6 86 87
f 86 89 88
f 86 88 87
f 83 90 89
f 89 90 91
f 89 92 88
f 89 91 92
f 91 271 92
f 71 93 85
f 71 99 93
f 85 93 94
f 94 93 96
f 93 100 96
f 94 95 90
f 94 96 95
f 90 95 91
f 96 100 106
f 95 96 98
f 96 106 98
f 91 95 97
f 91 97 271
f 95 98 97
f 98 281 97
f 98 108 281
f 106 108 98
f 93 99 100
f 99 101 100
f 73 101 99
f 73 102 101
f 101 107 100
f 101 104 107
f 101 102 104
f 102 103 105
f 102 105 104
f 104 105 111
f 105 163 111
f 106 100 107
f 106 107 109
f 107 110 109
f 106 109 108
f 109 286 108
f 109 112 286
f 104 110 107
f 104 111 110
f 110 111 113
f 111 167 113
f 110 112 109
f 110 113 112
f 113 289 112
f 113 169 289
f 63 15 114
f 63 114 115
f 114 117 116
f 115 114 116
f 117 118 119
f 117 119 116
f 119 118 125
f 119 125 122
f 115 116 120
f 115 120 67
f 116 121 120
f 67 120 138
f 138 120 139
f 120 121 139
f 116 119 121
f 119 122 121
f 121 122 123
f 139 121 123
f 123 122 135
f 118 124 125
f 124 126 125
f 124 31 126
f 31 129 126
f 125 126 127
f 127 126 128
f 125 127 122
f 127 135 122
f 126 129 128
f 130 134 129
f 129 134 128
f 130 41 131
f 130 133 134
f 130 131 133
f 133 131 132
f 133 132 150
f 134 133 152
f 127 128 136
f 128 137 136
f 127 136 135
f 135 136 148
f 136 137 149
f 128 134 137
f 134 152 137
f 137 153 149
f 138 139 140
f 139 123 143
f 138 140 75
f 139 143 140
f 75 140 141
f 141 140 142
f 140 143 142
f 141 142 147
f 123 144 143
f 123 135 144
f 143 145 142
f 143 144 145
f 144 146 145
f 144 148 146
f 141 147 103
f 142 161 147
f 142 145 161
f 145 165 161
f 145 146 165
f 135 148 144
f 148 136 149
f 148 149 173
f 148 173 146
f 133 150 151
f 133 151 152
f 137 152 153
f 152 151 154
f 152 155 153
f 152 154 155
f 155 154 156
f 155 156 157
f 176 155 157
f 153 155 176
f 176 157 158
f 176 158 159
f 176 159 160
f 103 147 162
f 103 162 105
f 147 161 162
f 161 164 162
f 105 162 163
f 162 164 163
f 163 164 168
f 161 165 164
f 146 177 165
f 165 177 166
f 164 165 166
f 177 185 166
f 164 166 168
f 111 163 167
f 163 168 167
f 167 168 170
f 113 167 169
f 167 170 169
f 170 322 169
f 166 171 168
f 168 171 170
f 166 185 171
f 171 185 188
f 170 171 172
f 170 172 322
f 171 188 172
f 188 337 172
f 149 175 173
f 146 173 177
f 173 174 177
f 173 175 174
f 175 179 174
f 149 153 175
f 153 176 175
f 175 176 179
f 177 174 185
f 174 179 186
f 179 184 186
f 176 178 179
f 176 160 178
f 178 160 180
f 178 184 179
f 178 180 183
f 183 180 181
f 183 181 182
f 178 183 184
f 184 183 333
f 184 333 187
f 185 174 186
f 185 186 188
f 188 187 337
f 186 184 187
f 188 186 187
f 192 189 87
f 192 191 189
f 192 190 191
f 197 193 190
f 192 197 190
f 192 273 197
f 198 195 194
f 220 196 195
f 198 220 195
f 220 216 196
f 197 194 193
f 197 198 194
f 197 273 274
f 197 274 198
f 198 223 220
f 198 274 223
f 274 275 223
f 201 199 218
f 201 202 200
f 201 200 199
f 201 204 202
f 204 203 202
f 201 225 204
f 211 207 206
f 211 210 207
f 211 209 210
f 214 211 206
f 211 208 209
f 211 241 208
f 211 215 241
f 204 212 203
f 213 205 212
f 204 213 212
f 213 206 205
f 204 228 213
f 213 214 206
f 213 230 214
f 213 228 230
f 214 215 211
f 214 230 232
f 214 232 215
f 215 232 257
f 219 216 220
f 219 218 217
f 219 217 216
f 219 220 222
f 219 201 218
f 219 221 201
f 201 221 225
f 219 222 221
f 220 223 222
f 223 275 299
f 222 223 299
f 222 224 221
f 221 224 226
f 222 299 224
f 299 301 224
f 224 301 227
f 204 225 228
f 225 229 228
f 225 221 226
f 225 226 229
f 226 235 229
f 224 227 226
f 226 227 235
f 228 231 230
f 228 229 231
f 229 235 231
f 230 231 233
f 231 236 233
f 230 233 232
f 232 234 257
f 232 233 234
f 233 237 234
f 227 306 235
f 235 236 231
f 235 306 236
f 236 306 309
f 233 236 237
f 234 237 264
f 236 309 237
f 237 309 310
f 237 310 264
f 246 243 238
f 246 238 242
f 241 239 208
f 241 240 239
f 242 238 240
f 241 242 240
f 241 252 242
f 246 244 245
f 246 245 243
f 244 248 247
f 246 248 244
f 246 249 248
f 246 242 249
f 242 250 249
f 242 251 250
f 242 254 251
f 241 215 252
f 242 252 254
f 215 257 252
f 257 258 252
f 252 258 254
f 254 253 251
f 254 255 253
f 254 256 255
f 254 258 256
f 257 259 258
f 257 234 259
f 234 264 259
f 258 259 262
f 259 265 262
f 258 260 256
f 258 261 260
f 258 262 261
f 262 263 261
f 262 267 263
f 264 265 259
f 264 348 265
f 264 310 348
f 265 348 352
f 262 265 266
f 262 266 267
f 266 268 267
f 265 352 266
f 266 352 353
f 353 354 268
f 266 353 268
f 192 87 269
f 87 88 269
f 88 270 269
f 192 269 273
f 269 270 277
f 269 277 273
f 88 92 270
f 270 92 271
f 270 272 277
f 270 271 272
f 274 273 276
f 273 277 276
f 274 276 275
f 276 279 275
f 277 272 278
f 277 278 276
f 276 278 279
f 272 284 278
f 278 284 280
f 279 278 280
f 279 280 303
f 280 316 303
f 271 97 282
f 97 281 282
f 271 282 272
f 272 282 284
f 282 283 284
f 282 281 283
f 281 287 283
f 287 292 283
f 108 287 281
f 284 285 280
f 283 285 284
f 283 292 285
f 285 316 280
f 285 293 316
f 108 286 287
f 287 286 288
f 287 288 292
f 286 290 288
f 286 112 290
f 112 289 290
f 288 290 295
f 290 291 295
f 290 289 291
f 289 323 291
f 285 292 293
f 292 294 293
f 294 318 293
f 288 294 292
f 288 295 294
f 294 297 318
f 295 297 294
f 295 296 297
f 291 296 295
f 291 326 296
f 297 298 319
f 297 296 298
f 299 275 300
f 279 300 275
f 299 300 301
f 300 302 301
f 301 302 307
f 279 303 300
f 300 303 302
f 303 316 304
f 302 303 304
f 301 307 227
f 302 312 307
f 302 304 312
f 304 317 305
f 312 304 305
f 227 307 306
f 307 308 306
f 306 308 309
f 307 312 308
f 308 313 311
f 309 311 310
f 308 311 309
f 310 311 349
f 312 313 308
f 312 305 313
f 311 313 314
f 305 315 313
f 313 315 314
f 315 376 314
f 311 314 349
f 293 317 316
f 316 317 304
f 293 318 317
f 317 318 320
f 317 320 305
f 320 318 319
f 321 319 368
f 305 320 315
f 320 321 315
f 321 376 315
f 320 319 321
f 297 319 318
f 298 368 319
f 289 169 323
f 169 322 323
f 291 323 326
f 322 324 323
f 323 324 326
f 322 172 325
f 172 337 325
f 322 325 324
f 324 325 330
f 337 338 325
f 325 338 330
f 296 326 329
f 324 327 326
f 326 327 329
f 296 329 298
f 298 329 375
f 327 328 329
f 328 375 329
f 327 330 331
f 338 347 330
f 330 347 331
f 324 330 327
f 327 331 328
f 328 331 371
f 331 347 372
f 333 335 339
f 339 335 340
f 183 182 332
f 183 332 333
f 333 332 334
f 333 334 335
f 335 334 336
f 335 336 345
f 187 333 339
f 337 187 339
f 337 339 338
f 338 339 340
f 347 340 342
f 335 343 340
f 340 343 344
f 342 341 379
f 347 342 372
f 342 340 344
f 342 344 341
f 335 345 346
f 335 346 343
f 338 340 347
f 310 349 348
f 348 350 352
f 349 350 348
f 357 351 356
f 357 360 351
f 360 366 351
f 352 357 353
f 353 356 355
f 353 355 354
f 357 356 353
f 352 350 357
f 349 314 358
f 350 358 359
f 376 377 358
f 314 376 358
f 377 359 358
f 349 358 350
f 357 359 360
f 360 367 366
f 361 360 359
f 377 361 359
f 365 360 361
f 350 359 357
f 365 362 364
f 365 364 363
f 360 363 367
f 365 363 360
f 368 375 369
f 321 370 376
f 370 373 377
f 321 368 370
f 368 369 370
f 370 369 373
f 373 369 371
f 374 371 372
f 378 374 372
f 373 361 377
f 373 374 361
f 365 361 374
f 373 371 374
f 298 375 368
f 328 369 375
f 328 371 369
f 331 372 371
f 376 370 377
f 342 379 378
f 378 379 362
f 342 378 372
f 378 365 374
f 378 362 365
f 45 79 208
f 45 239 44
f 56 55 247
f 42 247 57
f 57 247 55
f 61 56 247
f 60 61 247
f 60 247 1
f 47 48 247
f 42 49 247
f 49 47 247
f 52 247 48
f 43 44 247
f 43 247 52
f 33 12 34
f 20 247 23
f 24 22 247
f 23 247 22
f 25 24 247
f 25 247 28
f 27 28 247
f 27 247 9
f 9 247 10
f 10 247 11
f 11 247 12
f 34 12 247
f 34 247 35
f 35 247 39
f 15 247 16
f 16 247 13
f 13 247 14
f 2 1 247
f 2 247 15
f 18 14 247
f 18 247 17
f 17 247 20
f 39 247 40
f 40 247 41
f 41 247 131
f 131 247 132
f 132 247 150
f 150 250 151
f 45 208 239
f 244 247 44
f 243 44 238
f 243 245 44
f 245 244 44
f 240 44 239
f 240 238 44
f 79 77 208
f 78 208 77
f 78 3 208
f 3 5 208
f 5 4 208
f 7 208 4
f 202 189 191
f 202 191 190
f 202 193 194
f 202 194 195
f 202 190 193
f 208 8 189
f 7 8 208
f 203 212 189
f 217 202 216
f 212 205 189
f 207 189 206
f 205 206 189
f 217 218 200
f 199 200 218
f 217 200 202
f 210 209 189
f 207 210 189
f 208 189 209
f 196 202 195
f 196 216 202
f 202 203 189
f 150 247 248
f 150 248 249
f 150 249 250
f 157 250 158
f 151 250 154
f 154 250 156
f 156 250 157
f 261 263 344
f 251 158 250
f 160 251 253
f 160 253 255
f 180 255 256
f 180 256 260
f 180 260 261
f 159 158 251
f 159 251 160
f 180 160 255
f 180 261 181
f 181 261 182
f 261 332 182
f 261 334 332
f 261 336 334
f 261 345 336
f 263 267 344
f 344 268 354
f 344 354 355
f 261 343 346
f 261 344 343
f 261 346 345
f 344 351 341
f 351 379 341
f 344 355 356
f 344 356 351
f 366 379 351
f 366 367 379
f 362 379 367
f 362 367 364
f 363 364 367
f 344 267 268

