# https://github.com/mikedh/trimesh
v -0.43321231 -0.42120790 0.79363459
v -0.44060883 -0.41392502 0.79288799
v -0.35323590 -0.48944637 0.79488307
v -0.33413869 -0.50466830 0.79448491
v -0.27250257 -0.54662073 0.78853995
v -0.38361374 -0.37503856 0.84391147
v -0.25989193 -0.43388855 0.86266845
v -0.52689195 -0.32563713 0.78201663
v -0.59127778 -0.24755515 0.76598245
v -0.60785842 -0.22507438 0.76031244
v -0.60251874 -0.23311998 0.76266164
v -0.62040025 -0.20482855 0.75391901
v -0.48712972 -0.36811876 0.78819239
v -0.62124383 -0.08211758 0.77914339
v -0.62111932 -0.08035775 0.77945739
v -0.62023956 -0.08114185 0.78020436
v -0.62023956 -0.07516806 0.78020436
v -0.50000000 -0.30901700 0.80901700
v -0.51925850 -0.15643446 0.84017789
v -0.38618737 -0.23867694 0.89100653
v -0.26408276 -0.30125889 0.91624415
v -0.39960706 -0.08232358 0.91298246
v -0.26286554 -0.16245985 0.95105654
v -0.20558806 -0.58863646 0.77979416
v -0.22208279 -0.57956678 0.78278601
v -0.21302287 -0.57125163 0.79264921
v -0.03034351 -0.67025137 0.73843509
v -0.10537321 -0.63950229 0.75886577
v -0.08108629 -0.61564201 0.78384304
v 0.13812551 -0.71824241 0.67889136
v 0.01501831 -0.68674433 0.72472107
v 0.06183799 -0.69939339 0.70772624
v 0.16062203 -0.69378048 0.70204645
v 0.08108629 -0.61564201 0.78384304
v -0.13120037 -0.48444164 0.86492932
v 0.00000000 -0.52573109 0.85065079
v 0.13120037 -0.48444164 0.86492932
v 0.00000000 -0.40335536 0.91504341
v -0.13165537 -0.35822880 0.92430460
v -0.13279247 -0.22011703 0.96639258
v -0.13307111 -0.08224247 0.98768836
v 0.00000000 -0.27326652 0.96193838
v 0.13165537 -0.35822880 0.92430460
v 0.13279247 -0.22011703 0.96639258
v 0.00000000 -0.13795224 0.99043888
v 0.13307111 -0.08224247 0.98768836
v -0.59521943 0.05966042 0.79885429
v -0.52573109 0.00000000 0.85065079
v -0.58013463 0.11104456 0.80402303
v -0.51925850 0.15643446 0.84017789
v -0.55210495 0.18668717 0.80959749
v -0.50251138 0.28911969 0.81308049
v -0.49395281 0.30527964 0.81337333
v -0.48646247 0.31669635 0.81307578
v -0.39960706 0.08232358 0.91298246
v -0.26640469 0.00000000 0.96386129
v -0.26286554 0.16245985 0.95105654
v -0.38618737 0.23867694 0.89100653
v -0.26408276 0.30125889 0.91624415
v -0.28298935 0.54227811 0.78781545
v -0.24231385 0.57316124 0.77987850
v -0.22742255 0.58446759 0.77697277
v -0.38361374 0.37503856 0.84391147
v -0.41899407 0.40797269 0.80804729
v -0.35655746 0.47693685 0.80024391
v -0.33170244 0.50234586 0.79672217
v -0.25989193 0.43388855 0.86266845
v -0.13307111 0.08224247 0.98768836
v -0.13279247 0.22011703 0.96639258
v -0.13165537 0.35822880 0.92430460
v 0.00000000 0.00000000 1.00000000
v 0.00000000 0.13795224 0.99043888
v 0.13307111 0.08224247 0.98768836
v 0.00000000 0.27326652 0.96193838
v 0.13279247 0.22011703 0.96639258
v 0.13165537 0.35822880 0.92430460
v -0.21302287 0.57125163 0.79264921
v -0.20041043 0.60074329 0.77084190
v -0.08108629 0.61564201 0.78384304
v -0.11383881 0.64781916 0.75015950
v 0.13659042 0.71991158 0.67731136
v 0.00703858 0.69533211 0.71758032
v -0.01347502 0.68840522 0.72334003
v 0.03393474 0.70097888 0.70933056
v 0.08108629 0.61564201 0.78384304
v 0.16062203 0.69378048 0.70204645
v -0.13120037 0.48444164 0.86492932
v 0.00000000 0.52573109 0.85065079
v 0.13120037 0.48444164 0.86492932
v 0.00000000 0.40335536 0.91504341
v 0.35442653 -0.73524654 0.57347417
v 0.40930864 -0.73032051 0.54072660
v 0.47362792 -0.72111166 0.50011706
v 0.51337546 -0.64657778 0.56425422
v 0.74213648 -0.60511923 0.28023371
v 0.76922786 -0.58439410 0.25219026
v 0.68127716 -0.64512032 0.33897433
v 0.70710677 -0.60150093 0.37174803
v 0.80105114 -0.55286491 0.21458384
v 0.82813406 -0.52603221 0.18257919
v 0.83490545 -0.51599997 0.18225156
v 0.85641783 -0.47674185 0.18271120
v 0.89109111 -0.40586326 0.18499663
v 0.89848298 -0.39075288 0.18548386
v 0.89100653 -0.38618737 0.23867694
v 0.80901700 -0.50000000 0.30901700
v 0.84391147 -0.38361374 0.37503856
v 0.58457428 -0.69245917 0.42177799
v 0.57327753 -0.69575351 0.42999932
v 0.59229577 -0.68925899 0.41554272
v 0.58778524 -0.68819094 0.42532539
v 0.64657778 -0.56425422 0.51337546
v 0.75793540 -0.46842986 0.45399049
v 0.68819094 -0.42532539 0.58778524
v 0.92814273 -0.30992255 0.19154269
v 0.94265079 -0.26315945 0.19597417
v 0.91624415 -0.26408276 0.30125889
v 0.96389759 -0.15395372 0.21073693
v 0.96736491 -0.13280520 0.21382202
v 0.96639258 -0.13279247 0.22011703
v 0.96781343 -0.12494587 0.21526198
v 0.92430460 -0.13165537 0.35822880
v 0.86266845 -0.25989193 0.43388855
v 0.78345168 -0.34615302 0.51612163
v 0.79264921 -0.21302287 0.57125163
v 0.86492932 -0.13120037 0.48444164
v 0.25038737 -0.73353934 0.62838125
v 0.20128991 -0.72828287 0.65140259
v 0.29732558 -0.73559403 0.60444343
v 0.37174803 -0.70710677 0.60150093
v 0.21302287 -0.57125163 0.79264921
v 0.29600459 -0.64741188 0.70230985
v 0.34615302 -0.51612163 0.78345168
v 0.42532539 -0.58778524 0.68819094
v 0.56425422 -0.51337546 0.64657778
v 0.46842986 -0.45399049 0.75793540
v 0.25989193 -0.43388855 0.86266845
v 0.38361374 -0.37503856 0.84391147
v 0.26408276 -0.30125889 0.91624415
v 0.26286554 -0.16245985 0.95105654
v 0.38618737 -0.23867694 0.89100653
v 0.50000000 -0.30901700 0.80901700
v 0.51925850 -0.15643446 0.84017789
v 0.39960706 -0.08232358 0.91298246
v 0.60150093 -0.37174803 0.70710677
v 0.70230985 -0.29600459 0.64741188
v 0.60682517 -0.23708633 0.75865233
v 0.62023956 -0.08114185 0.78020436
v 0.70204645 -0.16062203 0.69378048
v 0.78384304 -0.08108629 0.61564201
v 0.37816721 0.71107405 0.59111446
v 0.53389961 0.65805578 0.52593404
v 0.51337546 0.64657778 0.56425422
v 0.49909130 0.67336321 0.54120511
v 0.96888822 0.00000000 0.24027014
v 0.96193838 0.00000000 0.27326652
v 0.96367133 0.05166326 0.25258857
v 0.95005184 0.13235098 0.27373919
v 0.92430460 0.13165537 0.35822880
v 0.91727197 0.24719632 0.30852339
v 0.91108364 0.26367909 0.31403404
v 0.88323736 0.31862709 0.33492601
v 0.86492932 0.13120037 0.48444164
v 0.91504341 0.00000000 0.40335536
v 0.85065079 0.00000000 0.52573109
v 0.86266845 0.25989193 0.43388855
v 0.79264921 0.21302287 0.57125163
v 0.78345168 0.34615302 0.51612163
v 0.84906185 0.38389519 0.36012581
v 0.83939952 0.39866284 0.36650178
v 0.84391147 0.38361374 0.37503856
v 0.73998892 0.51541430 0.42495248
v 0.75793540 0.46842986 0.45399049
v 0.68819094 0.42532539 0.58778524
v 0.66825861 0.57759559 0.46264601
v 0.62641978 0.60674798 0.48318607
v 0.64657778 0.56425422 0.51337546
v 0.77509260 0.47903359 0.40529704
v 0.26640469 0.00000000 0.96386129
v 0.26286554 0.16245985 0.95105654
v 0.26408276 0.30125889 0.91624415
v 0.52573109 0.00000000 0.85065079
v 0.51925850 0.15643446 0.84017789
v 0.39960706 0.08232358 0.91298246
v 0.38618737 0.23867694 0.89100653
v 0.50000000 0.30901700 0.80901700
v 0.34615302 0.51612163 0.78345168
v 0.25546074 0.72396058 0.63660330
v 0.19660492 0.72430813 0.65723681
v 0.34865814 0.71594507 0.60241383
v 0.37174803 0.70710677 0.60150093
v 0.36785254 0.71343523 0.59519786
v 0.21302287 0.57125163 0.79264921
v 0.29600459 0.64741188 0.70230985
v 0.56425422 0.51337546 0.64657778
v 0.46842986 0.45399049 0.75793540
v 0.42532539 0.58778524 0.68819094
v 0.25989193 0.43388855 0.86266845
v 0.38361374 0.37503856 0.84391147
v 0.62023956 0.08114185 0.78020436
v 0.71128172 0.00000000 0.70290703
v 0.70204645 0.16062203 0.69378048
v 0.70230985 0.29600459 0.64741188
v 0.60682517 0.23708633 0.75865233
v 0.78384304 0.08108629 0.61564201
v 0.60150093 0.37174803 0.70710677
f 26 5 25
f 6 13 2
f 6 1 3
f 6 2 1
f 6 3 7
f 7 3 4
f 7 4 5
f 26 7 5
f 18 9 8
f 19 10 11
f 18 11 9
f 18 8 13
f 16 12 10
f 19 16 10
f 16 14 12
f 16 15 14
f 16 17 15
f 19 11 18
f 6 18 13
f 6 20 18
f 19 18 20
f 16 48 17
f 19 48 16
f 19 20 22
f 19 22 48
f 6 21 20
f 6 7 21
f 21 23 20
f 20 23 22
f 22 23 56
f 26 25 24
f 29 24 28
f 26 24 29
f 29 28 27
f 33 30 128
f 34 31 32
f 34 27 31
f 29 27 34
f 33 32 30
f 33 34 32
f 33 131 34
f 26 29 35
f 26 35 7
f 7 35 39
f 29 36 35
f 35 36 38
f 35 38 39
f 29 34 36
f 34 131 37
f 36 34 37
f 36 37 38
f 38 37 43
f 7 39 21
f 21 39 40
f 21 40 23
f 39 38 42
f 39 42 40
f 40 42 45
f 23 40 41
f 23 41 56
f 40 45 41
f 41 45 71
f 38 43 42
f 42 44 45
f 42 43 44
f 45 46 71
f 45 44 46
f 48 47 17
f 48 50 47
f 50 49 47
f 50 51 49
f 48 55 50
f 22 55 48
f 50 55 58
f 50 52 51
f 50 58 52
f 58 53 52
f 63 54 53
f 22 56 55
f 55 57 58
f 55 56 57
f 58 63 53
f 58 59 63
f 58 57 59
f 77 61 60
f 77 62 61
f 63 64 54
f 63 65 64
f 63 67 65
f 63 59 67
f 67 66 65
f 67 60 66
f 67 77 60
f 41 68 56
f 56 68 57
f 57 68 69
f 41 71 68
f 68 71 72
f 68 72 69
f 57 69 59
f 59 69 70
f 69 72 74
f 70 74 90
f 69 74 70
f 71 73 72
f 46 73 71
f 72 73 75
f 72 75 74
f 74 76 90
f 75 76 74
f 77 78 62
f 79 80 78
f 77 79 78
f 79 83 80
f 86 189 81
f 85 82 83
f 85 84 82
f 79 85 83
f 86 85 193
f 86 84 85
f 86 81 84
f 67 70 87
f 67 87 77
f 87 90 88
f 59 70 67
f 70 90 87
f 87 79 77
f 87 88 79
f 90 89 88
f 90 76 89
f 79 88 85
f 89 85 88
f 89 193 85
f 111 93 109
f 94 92 93
f 130 91 92
f 130 92 94
f 111 94 93
f 111 97 98
f 98 97 95
f 98 95 106
f 98 106 113
f 106 95 96
f 106 100 101
f 106 101 102
f 106 96 99
f 106 99 100
f 105 106 102
f 105 102 103
f 105 103 104
f 105 107 106
f 106 107 113
f 111 109 108
f 111 110 97
f 111 108 110
f 111 98 112
f 111 112 94
f 94 112 135
f 98 113 112
f 135 112 114
f 112 113 114
f 113 124 114
f 113 107 124
f 105 104 115
f 105 115 117
f 117 115 116
f 117 116 120
f 105 117 107
f 107 117 123
f 123 117 122
f 120 116 118
f 120 118 119
f 120 119 121
f 120 121 155
f 120 156 122
f 120 155 156
f 117 120 122
f 122 156 164
f 114 124 146
f 146 124 125
f 107 123 124
f 123 125 124
f 123 126 125
f 123 122 126
f 126 122 164
f 126 164 165
f 126 150 125
f 126 165 150
f 33 128 127
f 33 127 132
f 130 127 129
f 130 129 91
f 130 132 127
f 130 134 132
f 33 132 131
f 132 134 133
f 131 132 133
f 130 94 134
f 134 94 135
f 134 136 133
f 133 136 138
f 134 135 136
f 136 135 145
f 136 145 142
f 131 137 37
f 131 133 137
f 37 137 43
f 133 138 137
f 138 136 142
f 145 147 142
f 137 138 139
f 139 138 141
f 43 137 139
f 43 139 44
f 44 139 140
f 139 141 140
f 44 140 46
f 46 140 179
f 140 141 144
f 140 144 179
f 138 142 141
f 141 142 143
f 142 147 143
f 141 143 144
f 143 148 182
f 144 143 182
f 135 114 145
f 145 114 146
f 146 125 149
f 145 146 147
f 146 149 147
f 149 125 150
f 149 150 201
f 149 148 147
f 143 147 148
f 149 201 148
f 191 154 151
f 191 153 154
f 153 176 152
f 153 152 154
f 156 155 157
f 156 157 158
f 156 159 164
f 156 158 159
f 159 158 160
f 166 162 171
f 159 160 166
f 166 160 161
f 166 161 162
f 203 167 168
f 203 168 174
f 163 165 164
f 163 164 159
f 163 159 166
f 150 165 205
f 163 205 165
f 163 167 205
f 166 171 168
f 163 166 167
f 166 168 167
f 171 170 178
f 171 162 169
f 171 169 170
f 173 178 172
f 173 172 177
f 174 177 195
f 173 174 168
f 173 177 174
f 177 175 176
f 177 172 175
f 153 177 176
f 195 177 153
f 173 171 178
f 173 168 171
f 204 206 186
f 46 179 73
f 73 179 180
f 73 180 75
f 179 184 180
f 144 184 179
f 180 184 185
f 185 199 181
f 75 180 181
f 75 181 76
f 180 185 181
f 144 182 184
f 184 183 185
f 182 200 183
f 184 182 183
f 185 183 186
f 185 186 199
f 183 204 186
f 86 188 189
f 86 194 188
f 191 190 188
f 191 192 190
f 191 188 194
f 191 194 197
f 86 193 194
f 194 187 197
f 193 187 194
f 199 196 187
f 196 197 187
f 196 206 195
f 196 186 206
f 196 195 197
f 191 151 192
f 191 197 153
f 197 195 153
f 76 198 89
f 89 198 193
f 198 187 193
f 198 199 187
f 181 199 198
f 76 181 198
f 199 186 196
f 150 205 201
f 201 205 202
f 202 205 167
f 148 201 200
f 202 204 200
f 200 204 183
f 201 202 200
f 202 167 203
f 202 203 204
f 204 203 206
f 148 200 182
f 206 174 195
f 206 203 174
f 13 100 2
f 13 8 100
f 10 100 11
f 10 12 100
f 15 100 12
f 15 17 100
f 11 100 9
f 8 9 100
f 17 47 100
f 14 15 12
f 25 5 99
f 24 95 28
f 25 99 24
f 1 2 99
f 1 99 3
f 3 99 4
f 5 4 99
f 47 49 100
f 49 51 100
f 51 52 100
f 66 60 103
f 60 61 103
f 62 104 61
f 62 78 104
f 52 53 100
f 53 54 100
f 54 64 103
f 64 65 103
f 65 66 103
f 27 95 31
f 32 31 95
f 30 95 128
f 30 32 95
f 24 96 95
f 24 99 96
f 92 97 110
f 92 110 93
f 91 97 92
f 93 108 109
f 93 110 108
f 128 95 127
f 127 95 129
f 91 129 97
f 100 99 2
f 104 103 61
f 78 115 104
f 54 101 100
f 54 102 101
f 54 103 102
f 129 95 97
f 28 95 27
f 78 116 115
f 80 116 78
f 80 83 121
f 83 82 121
f 121 82 84
f 121 188 190
f 121 192 151
f 121 190 192
f 121 84 81
f 121 81 189
f 121 189 188
f 80 118 116
f 151 158 157
f 121 151 155
f 155 151 157
f 80 119 118
f 80 121 119
f 151 160 158
f 151 161 160
f 151 162 161
f 151 169 162
f 170 152 178
f 170 169 152
f 172 178 175
f 169 154 152
f 176 178 152
f 176 175 178
f 151 154 169

