# https://github.com/mikedh/trimesh
v -0.64657778 -0.56425422 -0.51337546
v -0.51337546 -0.64657778 -0.56425422
v -0.56425422 -0.51337546 -0.64657778
v -0.84017789 -0.51925850 -0.15643446
v -0.75865233 -0.60682517 -0.23708633
v -0.78020436 -0.62023956 -0.08114185
v -0.51612163 -0.78345168 -0.34615302
v -0.57125163 -0.79264921 -0.21302287
v -0.61564201 -0.78384304 -0.08108629
v -0.64741188 -0.70230985 -0.29600459
v -0.70710677 -0.60150093 -0.37174803
v -0.58778524 -0.68819094 -0.42532539
v -0.69378048 -0.70204645 -0.16062203
v -0.78345168 -0.34615302 -0.51612163
v -0.79264921 -0.21302287 -0.57125163
v -0.78384304 -0.08108629 -0.61564201
v -0.68819094 -0.42532539 -0.58778524
v -0.70230985 -0.29600459 -0.64741188
v -0.60150093 -0.37174803 -0.70710677
v -0.60682517 -0.23708633 -0.75865233
v -0.51925850 -0.15643446 -0.84017789
v -0.62023956 -0.08114185 -0.78020436
v -0.70204645 -0.16062203 -0.69378048
v -0.91624415 -0.26408276 -0.30125889
v -0.75793540 -0.46842986 -0.45399049
v -0.80901700 -0.50000000 -0.30901700
v -0.84391147 -0.38361374 -0.37503856
v -0.89100653 -0.38618737 -0.23867694
v -0.91298246 -0.39960706 -0.08232358
v -0.95105654 -0.26286554 -0.16245985
v -0.92430460 -0.13165537 -0.35822880
v -0.86266845 -0.25989193 -0.43388855
v -0.86492932 -0.13120037 -0.48444164
v -0.96639258 -0.13279247 -0.22011703
v -0.98768836 -0.13307111 -0.08224247
v -0.34615302 -0.51612163 -0.78345168
v -0.42532539 -0.58778524 -0.68819094
v -0.29600459 -0.64741188 -0.70230985
v -0.37174803 -0.70710677 -0.60150093
v -0.23708633 -0.75865233 -0.60682517
v -0.15643446 -0.84017789 -0.51925850
v -0.08114185 -0.78020436 -0.62023956
v -0.21302287 -0.57125163 -0.79264921
v -0.08108629 -0.61564201 -0.78384304
v -0.16062203 -0.69378048 -0.70204645
v -0.45399049 -0.75793540 -0.46842986
v -0.37503856 -0.84391147 -0.38361374
v -0.43388855 -0.86266845 -0.25989193
v -0.30125889 -0.91624415 -0.26408276
v -0.30901700 -0.80901700 -0.50000000
v -0.48444164 -0.86492932 -0.13120037
v -0.35822880 -0.92430460 -0.13165537
v -0.23867694 -0.89100653 -0.38618737
v -0.16245985 -0.95105654 -0.26286554
v -0.08232358 -0.91298246 -0.39960706
v -0.22011703 -0.96639258 -0.13279247
v -0.08224247 -0.98768836 -0.13307111
v -0.46842986 -0.45399049 -0.75793540
v -0.50000000 -0.30901700 -0.80901700
v -0.38361374 -0.37503856 -0.84391147
v -0.25989193 -0.43388855 -0.86266845
v -0.26408276 -0.30125889 -0.91624415
v -0.38618737 -0.23867694 -0.89100653
v -0.39960706 -0.08232358 -0.91298246
v -0.26286554 -0.16245985 -0.95105654
v -0.13120037 -0.48444164 -0.86492932
v -0.13165537 -0.35822880 -0.92430460
v -0.13279247 -0.22011703 -0.96639258
v -0.13307111 -0.08224247 -0.98768836
v -0.85065079 -0.52573109 0.00000000
v -0.78020436 -0.62023956 0.08114185
v -0.84017789 -0.51925850 0.15643446
v -0.75865233 -0.60682517 0.23708633
v -0.61564201 -0.78384304 0.08108629
v -0.52573109 -0.85065079 0.00000000
v -0.57125163 -0.79264921 0.21302287
v -0.51612163 -0.78345168 0.34615302
v -0.70290703 -0.71128172 0.00000000
v -0.69378048 -0.70204645 0.16062203
v -0.64741188 -0.70230985 0.29600459
v -0.70710677 -0.60150093 0.37174803
v -0.58778524 -0.68819094 0.42532539
v -0.64657778 -0.56425422 0.51337546
v -0.51337546 -0.64657778 0.56425422
v -0.56425422 -0.51337546 0.64657778
v -0.91298246 -0.39960706 0.08232358
v -0.89100653 -0.38618737 0.23867694
v -0.96386129 -0.26640469 0.00000000
v -0.95105654 -0.26286554 0.16245985
v -0.91624415 -0.26408276 0.30125889
v -0.80901700 -0.50000000 0.30901700
v -0.75793540 -0.46842986 0.45399049
v -0.84391147 -0.38361374 0.37503856
v -0.98768836 -0.13307111 0.08224247
v -0.96639258 -0.13279247 0.22011703
v -0.92430460 -0.13165537 0.35822880
v -0.86266845 -0.25989193 0.43388855
v -0.86492932 -0.13120037 0.48444164
v -0.78345168 -0.34615302 0.51612163
v -0.79264921 -0.21302287 0.57125163
v -0.78384304 -0.08108629 0.61564201
v -0.68819094 -0.42532539 0.58778524
v -0.70230985 -0.29600459 0.64741188
v -0.60150093 -0.37174803 0.70710677
v -0.70204645 -0.16062203 0.69378048
v -0.60682517 -0.23708633 0.75865233
v -0.51925850 -0.15643446 0.84017789
v -0.62023956 -0.08114185 0.78020436
v -0.40335536 -0.91504341 0.00000000
v -0.48444164 -0.86492932 0.13120037
v -0.27326652 -0.96193838 0.00000000
v -0.35822880 -0.92430460 0.13165537
v -0.43388855 -0.86266845 0.25989193
v -0.45399049 -0.75793540 0.46842986
v -0.37503856 -0.84391147 0.38361374
v -0.30125889 -0.91624415 0.26408276
v -0.13795224 -0.99043888 0.00000000
v -0.22011703 -0.96639258 0.13279247
v -0.08224247 -0.98768836 0.13307111
v -0.16245985 -0.95105654 0.26286554
v -0.23867694 -0.89100653 0.38618737
v -0.08232358 -0.91298246 0.39960706
v -0.30901700 -0.80901700 0.50000000
v -0.42532539 -0.58778524 0.68819094
v -0.37174803 -0.70710677 0.60150093
v -0.29600459 -0.64741188 0.70230985
v -0.34615302 -0.51612163 0.78345168
v -0.23708633 -0.75865233 0.60682517
v -0.15643446 -0.84017789 0.51925850
v -0.08114185 -0.78020436 0.62023956
v -0.16062203 -0.69378048 0.70204645
v -0.21302287 -0.57125163 0.79264921
v -0.08108629 -0.61564201 0.78384304
v -0.46842986 -0.45399049 0.75793540
v -0.50000000 -0.30901700 0.80901700
v -0.38361374 -0.37503856 0.84391147
v -0.25989193 -0.43388855 0.86266845
v -0.26408276 -0.30125889 0.91624415
v -0.38618737 -0.23867694 0.89100653
v -0.39960706 -0.08232358 0.91298246
v -0.26286554 -0.16245985 0.95105654
v -0.13120037 -0.48444164 0.86492932
v -0.13165537 -0.35822880 0.92430460
v -0.13279247 -0.22011703 0.96639258
v -0.13307111 -0.08224247 0.98768836
v -0.85065079 0.00000000 -0.52573109
v -0.78384304 0.08108629 -0.61564201
v -0.79264921 0.21302287 -0.57125163
v -0.78345168 0.34615302 -0.51612163
v -0.62023956 0.08114185 -0.78020436
v -0.52573109 0.00000000 -0.85065079
v -0.51925850 0.15643446 -0.84017789
v -0.71128172 0.00000000 -0.70290703
v -0.70204645 0.16062203 -0.69378048
v -0.60682517 0.23708633 -0.75865233
v -0.70230985 0.29600459 -0.64741188
v -0.68819094 0.42532539 -0.58778524
v -0.60150093 0.37174803 -0.70710677
v -0.91504341 0.00000000 -0.40335536
v -0.96193838 0.00000000 -0.27326652
v -0.92430460 0.13165537 -0.35822880
v -0.86492932 0.13120037 -0.48444164
v -0.99043888 0.00000000 -0.13795224
v -0.96639258 0.13279247 -0.22011703
v -0.98768836 0.13307111 -0.08224247
v -0.91624415 0.26408276 -0.30125889
v -0.86266845 0.25989193 -0.43388855
v -0.84391147 0.38361374 -0.37503856
v -0.75793540 0.46842986 -0.45399049
v -0.95105654 0.26286554 -0.16245985
v -0.89100653 0.38618737 -0.23867694
v -0.91298246 0.39960706 -0.08232358
v -0.64657778 0.56425422 -0.51337546
v -0.56425422 0.51337546 -0.64657778
v -0.51337546 0.64657778 -0.56425422
v -0.80901700 0.50000000 -0.30901700
v -0.84017789 0.51925850 -0.15643446
v -0.75865233 0.60682517 -0.23708633
v -0.78020436 0.62023956 -0.08114185
v -0.70710677 0.60150093 -0.37174803
v -0.64741188 0.70230985 -0.29600459
v -0.58778524 0.68819094 -0.42532539
v -0.69378048 0.70204645 -0.16062203
v -0.51612163 0.78345168 -0.34615302
v -0.57125163 0.79264921 -0.21302287
v -0.61564201 0.78384304 -0.08108629
v -0.39960706 0.08232358 -0.91298246
v -0.26640469 0.00000000 -0.96386129
v -0.26286554 0.16245985 -0.95105654
v -0.38618737 0.23867694 -0.89100653
v -0.50000000 0.30901700 -0.80901700
v -0.46842986 0.45399049 -0.75793540
v -0.38361374 0.37503856 -0.84391147
v -0.26408276 0.30125889 -0.91624415
v -0.25989193 0.43388855 -0.86266845
v -0.13307111 0.08224247 -0.98768836
v -0.13279247 0.22011703 -0.96639258
v -0.13165537 0.35822880 -0.92430460
v -0.34615302 0.51612163 -0.78345168
v -0.42532539 0.58778524 -0.68819094
v -0.29600459 0.64741188 -0.70230985
v -0.37174803 0.70710677 -0.60150093
v -0.21302287 0.57125163 -0.79264921
v -0.13120037 0.48444164 -0.86492932
v -0.08108629 0.61564201 -0.78384304
v -0.16062203 0.69378048 -0.70204645
v -0.23708633 0.75865233 -0.60682517
v -0.15643446 0.84017789 -0.51925850
v -0.08114185 0.78020436 -0.62023956
v -0.45399049 0.75793540 -0.46842986
v -0.37503856 0.84391147 -0.38361374
v -0.43388855 0.86266845 -0.25989193
v -0.30901700 0.80901700 -0.50000000
v -0.30125889 0.91624415 -0.26408276
v -0.48444164 0.86492932 -0.13120037
v -0.35822880 0.92430460 -0.13165537
v -0.26028770 0.96302605 -0.03242720
v -0.27707469 0.96025157 -0.00590106
v -0.23867694 0.89100653 -0.38618737
v -0.16245985 0.95105654 -0.26286554
v -0.08232358 0.91298246 -0.39960706
v -0.03716809 0.96093178 -0.26559499
v -0.01048484 0.95738131 -0.28336951
v -0.22011703 0.96639258 -0.13279247
v -0.18975037 0.97108293 -0.13285384
v -0.19367644 0.97088712 -0.12803815
v -0.20703606 0.97022086 -0.11165136
v -0.12284440 0.96914721 -0.19876640
v -1.00000000 0.00000000 0.00000000
v -0.99043888 0.00000000 0.13795224
v -0.98768836 0.13307111 0.08224247
v -0.96639258 0.13279247 0.22011703
v -0.96193838 0.00000000 0.27326652
v -0.91504341 0.00000000 0.40335536
v -0.92430460 0.13165537 0.35822880
v -0.86492932 0.13120037 0.48444164
v -0.96386129 0.26640469 0.00000000
v -0.95105654 0.26286554 0.16245985
v -0.91298246 0.39960706 0.08232358
v -0.89100653 0.38618737 0.23867694
v -0.91624415 0.26408276 0.30125889
v -0.86266845 0.25989193 0.43388855
v -0.84391147 0.38361374 0.37503856
v -0.75793540 0.46842986 0.45399049
v -0.85065079 0.00000000 0.52573109
v -0.78384304 0.08108629 0.61564201
v -0.79264921 0.21302287 0.57125163
v -0.78345168 0.34615302 0.51612163
v -0.71128172 0.00000000 0.70290703
v -0.70204645 0.16062203 0.69378048
v -0.62023956 0.08114185 0.78020436
v -0.52573109 0.00000000 0.85065079
v -0.51925850 0.15643446 0.84017789
v -0.70230985 0.29600459 0.64741188
v -0.68819094 0.42532539 0.58778524
v -0.60150093 0.37174803 0.70710677
v -0.60682517 0.23708633 0.75865233
v -0.85065079 0.52573109 0.00000000
v -0.84017789 0.51925850 0.15643446
v -0.78020436 0.62023956 0.08114185
v -0.75865233 0.60682517 0.23708633
v -0.80901700 0.50000000 0.30901700
v -0.70290703 0.71128172 0.00000000
v -0.69378048 0.70204645 0.16062203
v -0.70710677 0.60150093 0.37174803
v -0.64741188 0.70230985 0.29600459
v -0.58778524 0.68819094 0.42532539
v -0.61564201 0.78384304 0.08108629
v -0.57125163 0.79264921 0.21302287
v -0.52573109 0.85065079 0.00000000
v -0.51612163 0.78345168 0.34615302
v -0.64657778 0.56425422 0.51337546
v -0.56425422 0.51337546 0.64657778
v -0.51337546 0.64657778 0.56425422
v -0.39960706 0.08232358 0.91298246
v -0.26640469 0.00000000 0.96386129
v -0.26286554 0.16245985 0.95105654
v -0.50000000 0.30901700 0.80901700
v -0.38618737 0.23867694 0.89100653
v -0.46842986 0.45399049 0.75793540
v -0.38361374 0.37503856 0.84391147
v -0.26408276 0.30125889 0.91624415
v -0.25989193 0.43388855 0.86266845
v -0.13307111 0.08224247 0.98768836
v -0.13279247 0.22011703 0.96639258
v -0.13165537 0.35822880 0.92430460
v -0.03169006 0.39249319 0.91727263
v -0.04216355 0.42941386 0.89893836
v -0.40335536 0.91504341 0.00000000
v -0.48444164 0.86492932 0.13120037
v -0.29046652 0.95431972 0.02665266
v -0.28022552 0.95942980 0.00000000
v -0.31213790 0.94239348 0.08646215
v -0.35822880 0.92430460 0.13165537
v -0.32860163 0.93333316 0.13189930
v -0.33808652 0.92145473 0.17847642
v -0.45399049 0.75793540 0.46842986
v -0.37503856 0.84391147 0.38361374
v -0.43388855 0.86266845 0.25989193
v -0.31744093 0.81533909 0.48141852
v -0.31580043 0.81260228 0.48804185
v -0.31249976 0.80778986 0.49924159
v -0.34786075 0.89741933 0.26261023
v -0.34569213 0.87268233 0.33606938
v -0.34150937 0.85549140 0.38424656
v -0.42532539 0.58778524 0.68819094
v -0.37174803 0.70710677 0.60150093
v -0.29600459 0.64741188 0.70230985
v -0.34615302 0.51612163 0.78345168
v -0.25371632 0.75228673 0.60616767
v -0.31087983 0.80599076 0.50301409
v -0.16844533 0.69110101 0.70206165
v -0.16317163 0.68781877 0.70645481
v -0.14233997 0.67581958 0.72084820
v -0.21302287 0.57125163 0.79264921
v -0.13120037 0.48444164 0.86492932
v -0.05829449 0.50738549 0.85699499
v -0.05753113 0.58952332 0.80325037
v -0.08108629 0.61564201 0.78384304
v -0.06509145 0.63285565 0.76952982
v -0.04966991 0.62543732 0.77569818
v -0.05298444 0.61564201 0.78384304
v -0.24434477 0.74494803 0.61858845
v 0.00000000 -0.85065079 -0.52573109
v 0.08114185 -0.78020436 -0.62023956
v 0.15643446 -0.84017789 -0.51925850
v 0.23708633 -0.75865233 -0.60682517
v 0.00000000 -0.52573109 -0.85065079
v 0.08108629 -0.61564201 -0.78384304
v 0.21302287 -0.57125163 -0.79264921
v 0.00000000 -0.70290703 -0.71128172
v 0.16062203 -0.69378048 -0.70204645
v 0.34615302 -0.51612163 -0.78345168
v 0.29600459 -0.64741188 -0.70230985
v 0.37174803 -0.70710677 -0.60150093
v 0.42532539 -0.58778524 -0.68819094
v 0.08232358 -0.91298246 -0.39960706
v 0.00000000 -0.96386129 -0.26640469
v 0.23867694 -0.89100653 -0.38618737
v 0.16245985 -0.95105654 -0.26286554
v 0.08224247 -0.98768836 -0.13307111
v 0.22011703 -0.96639258 -0.13279247
v 0.30125889 -0.91624415 -0.26408276
v 0.30901700 -0.80901700 -0.50000000
v 0.37503856 -0.84391147 -0.38361374
v 0.45399049 -0.75793540 -0.46842986
v 0.43388855 -0.86266845 -0.25989193
v 0.35822880 -0.92430460 -0.13165537
v 0.48444164 -0.86492932 -0.13120037
v 0.00000000 -0.40335536 -0.91504341
v 0.00000000 -0.27326652 -0.96193838
v 0.13120037 -0.48444164 -0.86492932
v 0.13165537 -0.35822880 -0.92430460
v 0.00000000 -0.13795224 -0.99043888
v 0.13279247 -0.22011703 -0.96639258
v 0.13307111 -0.08224247 -0.98768836
v 0.25989193 -0.43388855 -0.86266845
v 0.26408276 -0.30125889 -0.91624415
v 0.46842986 -0.45399049 -0.75793540
v 0.38361374 -0.37503856 -0.84391147
v 0.26286554 -0.16245985 -0.95105654
v 0.38618737 -0.23867694 -0.89100653
v 0.39960706 -0.08232358 -0.91298246
v 0.51337546 -0.64657778 -0.56425422
v 0.56425422 -0.51337546 -0.64657778
v 0.64657778 -0.56425422 -0.51337546
v 0.51612163 -0.78345168 -0.34615302
v 0.57125163 -0.79264921 -0.21302287
v 0.61564201 -0.78384304 -0.08108629
v 0.58778524 -0.68819094 -0.42532539
v 0.64741188 -0.70230985 -0.29600459
v 0.70710677 -0.60150093 -0.37174803
v 0.69378048 -0.70204645 -0.16062203
v 0.75865233 -0.60682517 -0.23708633
v 0.84017789 -0.51925850 -0.15643446
v 0.78020436 -0.62023956 -0.08114185
v 0.50000000 -0.30901700 -0.80901700
v 0.60150093 -0.37174803 -0.70710677
v 0.68819094 -0.42532539 -0.58778524
v 0.70230985 -0.29600459 -0.64741188
v 0.51925850 -0.15643446 -0.84017789
v 0.60682517 -0.23708633 -0.75865233
v 0.62023956 -0.08114185 -0.78020436
v 0.70204645 -0.16062203 -0.69378048
v 0.78345168 -0.34615302 -0.51612163
v 0.79264921 -0.21302287 -0.57125163
v 0.78384304 -0.08108629 -0.61564201
v 0.75793540 -0.46842986 -0.45399049
v 0.80901700 -0.50000000 -0.30901700
v 0.84391147 -0.38361374 -0.37503856
v 0.91624415 -0.26408276 -0.30125889
v 0.89100653 -0.38618737 -0.23867694
v 0.91298246 -0.39960706 -0.08232358
v 0.95105654 -0.26286554 -0.16245985
v 0.86266845 -0.25989193 -0.43388855
v 0.86492932 -0.13120037 -0.48444164
v 0.92430460 -0.13165537 -0.35822880
v 0.96639258 -0.13279247 -0.22011703
v 0.98768836 -0.13307111 -0.08224247
v 0.00000000 -1.00000000 0.00000000
v 0.08224247 -0.98768836 0.13307111
v 0.13795224 -0.99043888 0.00000000
v 0.22011703 -0.96639258 0.13279247
v 0.00000000 -0.96386129 0.26640469
v 0.08232358 -0.91298246 0.39960706
v 0.16245985 -0.95105654 0.26286554
v 0.23867694 -0.89100653 0.38618737
v 0.27326652 -0.96193838 0.00000000
v 0.35822880 -0.92430460 0.13165537
v 0.40335536 -0.91504341 0.00000000
v 0.48444164 -0.86492932 0.13120037
v 0.30125889 -0.91624415 0.26408276
v 0.43388855 -0.86266845 0.25989193
v 0.37503856 -0.84391147 0.38361374
v 0.45399049 -0.75793540 0.46842986
v 0.00000000 -0.85065079 0.52573109
v 0.08114185 -0.78020436 0.62023956
v 0.15643446 -0.84017789 0.51925850
v 0.23708633 -0.75865233 0.60682517
v 0.00000000 -0.70290703 0.71128172
v 0.16062203 -0.69378048 0.70204645
v 0.00000000 -0.52573109 0.85065079
v 0.08108629 -0.61564201 0.78384304
v 0.21302287 -0.57125163 0.79264921
v 0.30901700 -0.80901700 0.50000000
v 0.37174803 -0.70710677 0.60150093
v 0.29600459 -0.64741188 0.70230985
v 0.42532539 -0.58778524 0.68819094
v 0.34615302 -0.51612163 0.78345168
v 0.00000000 -0.40335536 0.91504341
v 0.00000000 -0.27326652 0.96193838
v 0.13120037 -0.48444164 0.86492932
v 0.13165537 -0.35822880 0.92430460
v 0.00000000 -0.13795224 0.99043888
v 0.13279247 -0.22011703 0.96639258
v 0.13307111 -0.08224247 0.98768836
v 0.25989193 -0.43388855 0.86266845
v 0.26408276 -0.30125889 0.91624415
v 0.46842986 -0.45399049 0.75793540
v 0.38361374 -0.37503856 0.84391147
v 0.26286554 -0.16245985 0.95105654
v 0.38618737 -0.23867694 0.89100653
v 0.39960706 -0.08232358 0.91298246
v 0.52573109 -0.85065079 0.00000000
v 0.61564201 -0.78384304 0.08108629
v 0.57125163 -0.79264921 0.21302287
v 0.51612163 -0.78345168 0.34615302
v 0.70290703 -0.71128172 0.00000000
v 0.69378048 -0.70204645 0.16062203
v 0.58778524 -0.68819094 0.42532539
v 0.64741188 -0.70230985 0.29600459
v 0.70710677 -0.60150093 0.37174803
v 0.78020436 -0.62023956 0.08114185
v 0.85065079 -0.52573109 0.00000000
v 0.75865233 -0.60682517 0.23708633
v 0.84017789 -0.51925850 0.15643446
v 0.51337546 -0.64657778 0.56425422
v 0.56425422 -0.51337546 0.64657778
v 0.64657778 -0.56425422 0.51337546
v 0.91298246 -0.39960706 0.08232358
v 0.89100653 -0.38618737 0.23867694
v 0.96386129 -0.26640469 0.00000000
v 0.95105654 -0.26286554 0.16245985
v 0.80901700 -0.50000000 0.30901700
v 0.75793540 -0.46842986 0.45399049
v 0.84391147 -0.38361374 0.37503856
v 0.91624415 -0.26408276 0.30125889
v 0.98768836 -0.13307111 0.08224247
v 0.96639258 -0.13279247 0.22011703
v 0.86266845 -0.25989193 0.43388855
v 0.86492932 -0.13120037 0.48444164
v 0.92430460 -0.13165537 0.35822880
v 0.60150093 -0.37174803 0.70710677
v 0.68819094 -0.42532539 0.58778524
v 0.70230985 -0.29600459 0.64741188
v 0.50000000 -0.30901700 0.80901700
v 0.70204645 -0.16062203 0.69378048
v 0.51925850 -0.15643446 0.84017789
v 0.60682517 -0.23708633 0.75865233
v 0.62023956 -0.08114185 0.78020436
v 0.78345168 -0.34615302 0.51612163
v 0.79264921 -0.21302287 0.57125163
v 0.78384304 -0.08108629 0.61564201
v 0.00000000 0.00000000 -1.00000000
v 0.00000000 0.13795224 -0.99043888
v 0.13307111 0.08224247 -0.98768836
v 0.13279247 0.22011703 -0.96639258
v 0.00000000 0.27326652 -0.96193838
v 0.00000000 0.40335536 -0.91504341
v 0.13165537 0.35822880 -0.92430460
v 0.26640469 0.00000000 -0.96386129
v 0.26286554 0.16245985 -0.95105654
v 0.39960706 0.08232358 -0.91298246
v 0.26408276 0.30125889 -0.91624415
v 0.25989193 0.43388855 -0.86266845
v 0.38618737 0.23867694 -0.89100653
v 0.38361374 0.37503856 -0.84391147
v 0.46842986 0.45399049 -0.75793540
v 0.00000000 0.52573109 -0.85065079
v 0.08108629 0.61564201 -0.78384304
v 0.13120037 0.48444164 -0.86492932
v 0.21302287 0.57125163 -0.79264921
v 0.00000000 0.70290703 -0.71128172
v 0.16062203 0.69378048 -0.70204645
v 0.08114185 0.78020436 -0.62023956
v 0.00000000 0.85065079 -0.52573109
v 0.15643446 0.84017789 -0.51925850
v 0.23708633 0.75865233 -0.60682517
v 0.34615302 0.51612163 -0.78345168
v 0.29600459 0.64741188 -0.70230985
v 0.37174803 0.70710677 -0.60150093
v 0.42532539 0.58778524 -0.68819094
v 0.08232358 0.91298246 -0.39960706
v 0.01972170 0.95167261 -0.29831508
v 0.11835161 0.93009996 -0.33813021
v 0.23867694 0.89100653 -0.38618737
v 0.22561960 0.90129417 -0.36506015
v 0.24774292 0.89466262 -0.36849859
v 0.30901700 0.80901700 -0.50000000
v 0.36548513 0.85327756 -0.36813614
v 0.37503856 0.84391147 -0.38361374
v 0.45399049 0.75793540 -0.46842986
v 0.38320556 0.84651452 -0.36644402
v 0.43151730 0.82558018 -0.35418344
v 0.52573109 0.00000000 -0.85065079
v 0.62023956 0.08114185 -0.78020436
v 0.51925850 0.15643446 -0.84017789
v 0.71128172 0.00000000 -0.70290703
v 0.70204645 0.16062203 -0.69378048
v 0.50000000 0.30901700 -0.80901700
v 0.60682517 0.23708633 -0.75865233
v 0.60150093 0.37174803 -0.70710677
v 0.70230985 0.29600459 -0.64741188
v 0.68819094 0.42532539 -0.58778524
v 0.78384304 0.08108629 -0.61564201
v 0.85065079 0.00000000 -0.52573109
v 0.79264921 0.21302287 -0.57125163
v 0.78345168 0.34615302 -0.51612163
v 0.86492932 0.13120037 -0.48444164
v 0.91504341 0.00000000 -0.40335536
v 0.96193838 0.00000000 -0.27326652
v 0.92430460 0.13165537 -0.35822880
v 0.99043888 0.00000000 -0.13795224
v 0.96639258 0.13279247 -0.22011703
v 0.98768836 0.13307111 -0.08224247
v 0.86266845 0.25989193 -0.43388855
v 0.75793540 0.46842986 -0.45399049
v 0.84391147 0.38361374 -0.37503856
v 0.91624415 0.26408276 -0.30125889
v 0.95105654 0.26286554 -0.16245985
v 0.89100653 0.38618737 -0.23867694
v 0.91298246 0.39960706 -0.08232358
v 0.56425422 0.51337546 -0.64657778
v 0.51337546 0.64657778 -0.56425422
v 0.64657778 0.56425422 -0.51337546
v 0.58778524 0.68819094 -0.42532539
v 0.70710677 0.60150093 -0.37174803
v 0.64741188 0.70230985 -0.29600459
v 0.66945958 0.70218462 -0.23163176
v 0.71479362 0.67120260 -0.18539017
v 0.51612163 0.78345168 -0.34615302
v 0.52367032 0.78471106 -0.32792413
v 0.50580472 0.79339015 -0.33533075
v 0.62339377 0.73079950 -0.26983526
v 0.80901700 0.50000000 -0.30901700
v 0.84017789 0.51925850 -0.15643446
v 0.75865233 0.60682517 -0.23708633
v 0.77840841 0.61912173 -0.09413684
v 0.78364021 0.61445445 -0.08545531
v 0.78994024 0.60717821 -0.06992782
v 0.00000000 0.00000000 1.00000000
v 0.00000000 0.13795224 0.99043888
v 0.09886800 0.19912641 0.97253567
v 0.13307111 0.08224247 0.98768836
v 0.13289787 0.16796403 0.97444803
v 0.19744869 0.12203000 0.96951914
v 0.00000000 0.27326652 0.96193838
v 0.02335974 0.28834146 0.95526099
v 0.05027201 0.25314543 0.96362466
v 0.00000000 0.32758182 0.94235855
v 0.26640469 0.00000000 0.96386129
v 0.26454237 0.08548693 0.95712340
v 0.35204923 0.05293123 0.93114793
v 0.39960706 0.04147298 0.91298246
v 0.46947905 0.03671679 0.87845105
v 1.00000000 0.00000000 0.00000000
v 0.99043888 0.00000000 0.13795224
v 0.98768836 0.13307111 0.08224247
v 0.96639258 0.13279247 0.22011703
v 0.86492932 0.13120037 0.48444164
v 0.96193838 0.00000000 0.27326652
v 0.91504341 0.00000000 0.40335536
v 0.92430460 0.13165537 0.35822880
v 0.96386129 0.26640469 0.00000000
v 0.95105654 0.26286554 0.16245985
v 0.91298246 0.39960706 0.08232358
v 0.89100653 0.38618737 0.23867694
v 0.86266845 0.25989193 0.43388855
v 0.82661980 0.47556493 0.29391530
v 0.81881481 0.46732056 0.32755482
v 0.78042036 0.44624829 0.43334255
v 0.77153045 0.44334111 0.45179528
v 0.84391147 0.38361374 0.37503856
v 0.91624415 0.26408276 0.30125889
v 0.71128172 0.00000000 0.70290703
v 0.72207969 0.14114249 0.67464316
v 0.70419663 0.12322557 0.69590533
v 0.74994421 0.18832408 0.62900478
v 0.52573109 0.00000000 0.85065079
v 0.52415359 0.03812680 0.84809828
v 0.58665824 0.05231002 0.80523580
v 0.62023956 0.06301507 0.78020436
v 0.63347435 0.06934629 0.76896769
v 0.78384304 0.08108629 0.61564201
v 0.85065079 0.00000000 0.52573109
v 0.79264921 0.21302287 0.57125163
v 0.77187061 0.23210917 0.58876896
v 0.78611684 0.30757624 0.53209651
v 0.78978187 0.33925992 0.50955039
v 0.78893626 0.34955126 0.50332338
v 0.85065079 0.52573109 0.00000000
v 0.82333273 0.56238008 0.03146561
v 0.84237576 0.51564646 0.15419719
v 0.84109217 0.51982355 0.14277789
v 0.84223145 0.51388222 0.15975717
f 1 2 12
f 2 3 37
f 1 3 2
f 11 26 25
f 5 26 11
f 4 5 6
f 4 26 5
f 4 6 70
f 7 8 10
f 7 48 8
f 8 9 13
f 8 51 9
f 9 51 75
f 5 11 10
f 10 11 12
f 1 11 25
f 1 12 11
f 2 46 12
f 7 12 46
f 7 10 12
f 5 10 13
f 5 13 6
f 8 13 10
f 6 13 78
f 9 78 13
f 14 32 15
f 14 15 18
f 15 16 23
f 15 33 16
f 16 33 146
f 19 20 59
f 19 59 58
f 1 25 17
f 14 17 25
f 1 17 3
f 17 18 19
f 18 20 19
f 14 18 17
f 3 17 19
f 3 19 58
f 20 22 21
f 20 21 59
f 21 22 151
f 15 23 18
f 18 23 20
f 20 23 22
f 16 153 23
f 22 23 153
f 24 27 28
f 27 25 26
f 14 25 27
f 27 26 28
f 14 27 32
f 24 32 27
f 4 29 28
f 28 29 30
f 24 28 30
f 29 88 30
f 4 28 26
f 4 70 29
f 32 31 33
f 24 31 32
f 24 34 31
f 31 159 33
f 33 159 146
f 31 34 160
f 31 160 159
f 15 32 33
f 24 30 34
f 30 35 34
f 30 88 35
f 34 35 163
f 34 163 160
f 35 229 163
f 39 50 46
f 39 40 50
f 36 43 38
f 2 39 46
f 2 37 39
f 3 58 37
f 36 37 58
f 37 38 39
f 38 40 39
f 36 38 37
f 40 41 50
f 40 42 41
f 41 42 324
f 43 44 45
f 43 66 44
f 44 66 328
f 38 45 40
f 38 43 45
f 40 45 42
f 42 45 331
f 44 331 45
f 7 46 47
f 46 50 47
f 7 47 48
f 47 53 49
f 47 50 53
f 47 49 48
f 48 52 51
f 51 109 75
f 51 52 109
f 8 48 51
f 48 49 52
f 49 56 52
f 52 111 109
f 52 56 111
f 41 55 53
f 49 53 54
f 53 55 54
f 41 53 50
f 54 55 338
f 41 324 55
f 49 54 56
f 54 57 56
f 56 117 111
f 56 57 117
f 54 338 57
f 57 400 117
f 36 58 60
f 58 59 60
f 60 59 63
f 36 60 61
f 36 61 43
f 60 63 62
f 60 62 61
f 21 64 63
f 21 63 59
f 21 151 64
f 63 64 65
f 62 63 65
f 64 188 65
f 61 67 66
f 43 61 66
f 61 62 67
f 62 68 67
f 66 67 350
f 66 350 328
f 67 68 351
f 67 351 350
f 62 65 68
f 65 69 68
f 65 188 69
f 68 69 354
f 68 354 351
f 69 484 354
f 6 78 71
f 70 71 72
f 6 71 70
f 71 73 72
f 72 73 91
f 73 81 91
f 81 92 91
f 9 74 78
f 74 76 79
f 9 75 74
f 74 75 110
f 74 110 76
f 76 77 80
f 76 113 77
f 71 78 79
f 74 79 78
f 71 79 73
f 73 79 80
f 76 80 79
f 73 80 81
f 80 82 81
f 81 83 92
f 81 82 83
f 77 82 80
f 77 114 82
f 82 114 84
f 82 84 83
f 83 84 85
f 84 124 85
f 29 70 86
f 72 87 86
f 86 89 88
f 29 86 88
f 86 87 89
f 87 90 89
f 70 72 86
f 72 91 87
f 87 93 90
f 87 91 93
f 91 92 93
f 93 92 99
f 90 93 97
f 93 99 97
f 88 89 94
f 35 88 94
f 89 90 95
f 89 95 94
f 35 94 229
f 94 230 229
f 94 95 230
f 95 233 230
f 90 97 96
f 90 96 95
f 97 98 96
f 95 96 233
f 96 234 233
f 96 98 234
f 98 245 234
f 97 100 98
f 97 99 100
f 99 103 100
f 98 100 101
f 100 105 101
f 98 101 245
f 83 102 92
f 92 102 99
f 83 85 102
f 99 102 103
f 102 104 103
f 103 104 106
f 85 104 102
f 85 134 104
f 104 135 106
f 104 134 135
f 100 103 105
f 103 106 105
f 105 106 108
f 101 105 249
f 105 108 249
f 106 107 108
f 106 135 107
f 107 252 108
f 75 109 110
f 109 112 110
f 110 112 113
f 76 110 113
f 109 111 112
f 111 118 112
f 112 116 113
f 112 118 116
f 77 113 115
f 77 115 114
f 114 115 123
f 115 116 121
f 113 116 115
f 115 121 123
f 111 117 118
f 117 119 118
f 116 118 120
f 118 119 120
f 117 400 119
f 119 404 120
f 116 120 121
f 120 122 121
f 121 122 129
f 121 129 123
f 120 404 122
f 122 416 129
f 114 123 125
f 123 128 125
f 84 114 125
f 84 125 124
f 85 124 134
f 124 127 134
f 124 125 126
f 125 128 126
f 124 126 127
f 126 132 127
f 123 129 128
f 128 129 130
f 129 416 130
f 126 128 131
f 126 131 132
f 128 130 131
f 130 420 131
f 131 420 133
f 131 133 132
f 132 133 142
f 133 422 142
f 127 136 134
f 134 136 135
f 136 139 135
f 127 137 136
f 127 132 137
f 136 137 138
f 136 138 139
f 107 135 139
f 107 139 140
f 107 140 252
f 139 141 140
f 138 141 139
f 140 141 276
f 132 142 137
f 137 142 143
f 137 143 138
f 138 143 144
f 142 430 143
f 142 422 430
f 143 431 144
f 143 430 431
f 138 144 141
f 141 144 145
f 141 145 276
f 144 434 145
f 144 431 434
f 145 434 571
f 16 147 153
f 146 162 147
f 16 146 147
f 147 148 154
f 147 162 148
f 148 167 149
f 148 149 156
f 22 153 150
f 22 150 151
f 150 152 151
f 150 155 152
f 147 154 153
f 150 153 154
f 148 156 154
f 150 154 155
f 155 154 156
f 155 158 191
f 155 191 152
f 158 192 191
f 155 156 158
f 156 157 158
f 149 157 156
f 149 169 157
f 157 174 158
f 158 174 192
f 146 159 162
f 159 161 162
f 160 164 161
f 159 160 161
f 161 167 162
f 161 166 167
f 161 164 166
f 148 162 167
f 160 163 164
f 163 165 164
f 163 229 165
f 164 170 166
f 164 165 170
f 165 237 170
f 166 171 168
f 149 167 168
f 166 168 167
f 149 168 169
f 168 176 169
f 168 171 176
f 166 170 171
f 170 172 171
f 170 237 172
f 171 172 177
f 171 177 176
f 157 169 173
f 157 173 174
f 174 175 200
f 173 175 174
f 173 182 175
f 169 176 180
f 176 178 180
f 176 177 178
f 177 179 178
f 172 258 177
f 177 258 179
f 169 180 173
f 173 180 182
f 178 181 180
f 180 181 182
f 175 182 210
f 181 184 182
f 178 179 183
f 178 183 181
f 179 263 183
f 182 184 210
f 181 185 184
f 184 185 212
f 181 183 185
f 183 186 185
f 183 263 186
f 185 186 215
f 186 270 215
f 64 151 187
f 151 152 187
f 152 190 187
f 64 187 188
f 187 189 188
f 187 190 189
f 152 191 190
f 190 191 193
f 191 192 193
f 192 199 193
f 190 193 194
f 190 194 189
f 193 199 195
f 193 195 194
f 188 189 196
f 69 188 196
f 189 194 197
f 189 197 196
f 69 196 484
f 196 485 484
f 196 197 485
f 197 488 485
f 194 198 197
f 194 195 198
f 195 204 198
f 197 198 488
f 198 489 488
f 198 204 489
f 204 499 489
f 195 199 203
f 199 201 203
f 174 200 192
f 192 200 199
f 175 210 202
f 175 202 200
f 199 200 201
f 200 202 201
f 201 202 207
f 202 210 213
f 202 213 207
f 195 203 204
f 204 203 205
f 203 206 205
f 204 205 499
f 201 206 203
f 201 207 206
f 205 206 503
f 206 207 209
f 207 213 208
f 207 208 209
f 206 209 503
f 208 506 209
f 184 211 210
f 210 211 213
f 184 212 211
f 211 219 213
f 211 212 214
f 211 214 219
f 185 215 212
f 212 215 216
f 215 270 289
f 215 289 216
f 212 216 214
f 214 216 224
f 216 289 218
f 289 292 218
f 216 218 224
f 224 218 217
f 208 213 219
f 208 219 221
f 214 220 219
f 219 220 221
f 208 221 506
f 220 222 221
f 221 222 223
f 221 223 514
f 214 224 220
f 224 226 225
f 220 224 228
f 224 225 228
f 224 217 227
f 224 227 226
f 220 228 222
f 229 230 231
f 165 229 231
f 230 233 232
f 230 232 231
f 165 231 237
f 231 238 237
f 231 232 238
f 232 241 238
f 232 233 235
f 233 234 235
f 234 245 236
f 234 236 235
f 232 235 241
f 235 242 241
f 235 236 242
f 236 247 242
f 237 238 239
f 238 240 239
f 238 241 240
f 172 237 239
f 172 239 258
f 239 240 259
f 240 262 259
f 240 241 243
f 241 242 243
f 242 248 243
f 240 243 262
f 243 248 244
f 243 244 262
f 236 245 246
f 101 246 245
f 101 249 246
f 236 246 247
f 246 250 247
f 242 247 248
f 247 254 248
f 246 249 250
f 249 251 250
f 247 250 254
f 250 251 257
f 250 257 254
f 108 251 249
f 108 252 251
f 251 252 253
f 251 253 257
f 257 256 254
f 244 248 255
f 248 254 255
f 254 256 255
f 255 256 273
f 256 280 273
f 257 278 256
f 257 253 278
f 256 278 280
f 239 259 258
f 258 259 260
f 179 258 260
f 260 259 261
f 259 262 261
f 179 260 263
f 261 262 265
f 244 265 262
f 260 264 263
f 260 261 264
f 261 266 264
f 244 272 265
f 261 265 266
f 265 267 266
f 265 272 267
f 266 267 271
f 267 274 297
f 186 263 268
f 263 264 268
f 264 269 268
f 264 266 269
f 186 268 270
f 268 290 270
f 268 269 290
f 266 271 269
f 269 271 299
f 267 297 271
f 244 255 272
f 255 273 272
f 272 273 274
f 273 306 274
f 267 272 274
f 252 275 253
f 140 275 252
f 253 275 279
f 140 276 275
f 275 276 277
f 275 277 279
f 253 279 278
f 279 281 278
f 278 281 280
f 280 281 309
f 279 282 281
f 279 277 282
f 281 283 309
f 281 282 283
f 276 284 277
f 145 284 276
f 277 285 282
f 277 284 285
f 145 571 284
f 284 571 572
f 284 572 285
f 285 572 577
f 282 285 286
f 282 286 283
f 283 286 316
f 285 577 286
f 286 577 287
f 577 580 287
f 316 288 317
f 286 287 288
f 286 288 316
f 269 299 290
f 270 290 289
f 290 294 289
f 290 299 294
f 294 299 303
f 289 294 291
f 289 291 292
f 294 295 293
f 294 293 291
f 294 296 295
f 294 303 296
f 271 298 299
f 271 297 298
f 297 302 298
f 299 304 303
f 299 298 304
f 298 300 305
f 297 311 302
f 298 301 300
f 298 302 301
f 298 305 304
f 273 280 306
f 280 309 306
f 274 307 297
f 274 306 307
f 306 309 308
f 306 308 307
f 307 308 323
f 283 315 309
f 308 309 315
f 297 307 311
f 307 310 311
f 307 323 310
f 308 315 313
f 308 312 323
f 308 313 312
f 319 314 313
f 283 316 315
f 316 319 315
f 315 319 313
f 316 317 319
f 319 317 318
f 319 320 314
f 319 322 320
f 319 318 322
f 320 322 321
f 42 331 325
f 42 325 324
f 324 325 326
f 325 327 326
f 326 327 344
f 44 329 331
f 44 328 329
f 328 352 329
f 329 330 332
f 329 352 330
f 325 331 332
f 329 332 331
f 325 332 327
f 327 332 334
f 330 334 332
f 327 335 344
f 335 346 344
f 330 333 334
f 327 334 335
f 334 336 335
f 333 336 334
f 335 336 364
f 335 364 346
f 333 359 336
f 336 359 365
f 55 324 337
f 55 337 338
f 337 340 338
f 324 326 337
f 326 339 337
f 337 339 340
f 339 343 340
f 326 344 339
f 57 338 341
f 338 340 341
f 57 341 400
f 341 402 400
f 340 342 341
f 340 343 342
f 341 342 402
f 342 408 402
f 339 345 343
f 339 344 345
f 343 345 347
f 344 346 345
f 345 346 367
f 345 367 347
f 342 343 348
f 343 347 348
f 342 348 408
f 348 410 408
f 347 349 348
f 348 349 410
f 349 444 410
f 347 368 349
f 328 350 352
f 350 353 352
f 350 351 353
f 351 355 353
f 352 353 357
f 330 352 357
f 353 355 358
f 353 358 357
f 351 354 355
f 354 356 355
f 354 484 356
f 355 356 361
f 355 361 358
f 356 491 361
f 330 357 333
f 333 357 360
f 358 362 360
f 357 358 360
f 333 360 359
f 360 362 377
f 360 377 359
f 358 361 362
f 361 363 362
f 361 491 363
f 362 363 381
f 362 381 377
f 363 525 381
f 364 366 370
f 336 365 364
f 364 365 366
f 347 367 368
f 367 371 368
f 349 368 369
f 349 369 444
f 368 373 369
f 346 364 370
f 346 370 367
f 367 370 371
f 370 372 371
f 371 372 374
f 366 372 370
f 366 388 372
f 368 371 373
f 371 374 373
f 373 374 376
f 369 373 448
f 373 376 448
f 372 388 389
f 372 389 374
f 374 375 376
f 374 389 375
f 375 454 376
f 359 377 378
f 377 382 378
f 359 378 365
f 365 378 379
f 365 379 366
f 366 379 388
f 379 385 388
f 378 380 379
f 378 382 380
f 379 380 385
f 377 381 382
f 381 383 382
f 381 525 383
f 380 382 384
f 382 383 384
f 380 384 386
f 383 528 384
f 384 528 387
f 380 386 385
f 385 386 395
f 384 387 386
f 386 387 396
f 387 536 396
f 388 390 389
f 385 390 388
f 390 392 389
f 385 395 390
f 390 395 391
f 390 391 392
f 375 389 392
f 375 393 454
f 375 392 393
f 392 394 393
f 391 394 392
f 393 394 462
f 386 396 395
f 395 396 397
f 395 397 391
f 391 397 398
f 396 540 397
f 396 536 540
f 397 540 541
f 397 541 398
f 391 398 394
f 394 398 399
f 394 399 462
f 398 543 399
f 398 541 543
f 399 543 586
f 119 400 401
f 400 402 401
f 119 401 404
f 401 406 404
f 401 402 403
f 402 408 403
f 401 403 406
f 403 412 406
f 122 404 405
f 404 406 405
f 122 405 416
f 405 418 416
f 405 406 407
f 406 412 407
f 405 407 418
f 407 425 418
f 403 408 409
f 408 410 409
f 403 409 412
f 409 413 412
f 409 410 411
f 410 444 411
f 409 411 413
f 411 446 413
f 407 412 414
f 412 413 414
f 407 414 425
f 413 447 414
f 414 415 425
f 414 447 415
f 130 416 417
f 416 418 417
f 130 417 420
f 417 418 419
f 418 425 419
f 417 421 420
f 420 421 423
f 417 419 421
f 419 427 421
f 421 427 424
f 133 420 423
f 133 423 422
f 422 423 432
f 421 424 423
f 423 424 432
f 419 425 426
f 415 426 425
f 419 426 427
f 426 428 427
f 427 428 429
f 426 457 428
f 415 457 426
f 428 439 429
f 428 458 439
f 424 427 429
f 422 432 430
f 430 432 433
f 430 433 431
f 431 433 435
f 424 437 432
f 432 437 433
f 433 438 435
f 433 437 438
f 431 435 434
f 434 435 436
f 434 436 571
f 435 441 436
f 435 438 441
f 436 441 581
f 424 429 437
f 429 440 437
f 437 440 438
f 438 440 442
f 429 439 440
f 440 476 442
f 440 439 476
f 438 442 441
f 441 442 443
f 441 443 581
f 442 476 478
f 442 478 443
f 443 478 609
f 443 609 585
f 411 444 445
f 369 445 444
f 411 445 446
f 369 448 445
f 445 449 446
f 413 446 447
f 446 451 447
f 445 448 449
f 448 453 449
f 446 449 451
f 449 453 455
f 449 455 451
f 447 451 450
f 415 447 450
f 415 450 457
f 450 451 452
f 451 455 452
f 450 452 459
f 452 465 459
f 376 453 448
f 376 454 453
f 453 454 456
f 453 456 455
f 455 456 464
f 452 455 464
f 452 464 465
f 450 459 457
f 457 459 458
f 428 457 458
f 454 460 456
f 456 461 464
f 393 460 454
f 456 460 461
f 393 462 460
f 460 462 463
f 460 463 461
f 461 463 467
f 461 466 464
f 464 466 465
f 465 466 481
f 466 467 470
f 466 470 481
f 461 467 466
f 462 468 463
f 399 468 462
f 463 469 467
f 463 468 469
f 399 586 468
f 468 586 587
f 468 587 469
f 469 587 591
f 470 471 482
f 470 467 472
f 467 469 472
f 470 472 471
f 472 591 592
f 469 591 472
f 471 472 592
f 471 592 615
f 439 458 473
f 458 474 473
f 458 459 474
f 459 465 474
f 465 481 474
f 474 481 475
f 473 474 475
f 473 475 479
f 439 473 476
f 473 479 476
f 475 477 479
f 477 480 479
f 475 482 477
f 477 605 480
f 477 483 605
f 476 479 478
f 478 479 480
f 478 480 609
f 475 481 482
f 470 482 481
f 471 483 482
f 477 482 483
f 471 615 483
f 484 485 486
f 356 484 486
f 485 488 487
f 485 487 486
f 356 486 491
f 486 492 491
f 486 487 492
f 487 494 492
f 488 489 490
f 487 488 490
f 489 499 501
f 489 501 490
f 487 490 494
f 490 501 495
f 490 495 494
f 491 492 493
f 363 491 493
f 492 496 493
f 363 493 525
f 493 527 525
f 493 496 527
f 492 494 496
f 496 494 497
f 494 495 497
f 495 509 497
f 496 497 530
f 496 530 527
f 497 509 498
f 497 498 530
f 205 500 499
f 501 499 500
f 205 503 500
f 501 500 502
f 501 502 495
f 500 504 502
f 500 503 504
f 502 504 510
f 504 508 510
f 209 505 503
f 503 505 504
f 209 506 505
f 506 507 505
f 504 505 508
f 505 507 508
f 507 519 508
f 495 502 509
f 502 510 509
f 509 510 512
f 508 511 510
f 510 511 512
f 498 509 512
f 498 512 553
f 511 554 512
f 511 522 554
f 508 519 511
f 511 519 522
f 221 513 506
f 506 513 507
f 221 514 513
f 513 514 515
f 507 516 519
f 507 513 516
f 513 515 516
f 516 515 517
f 516 517 518
f 516 521 519
f 516 520 521
f 516 518 520
f 521 520 523
f 519 521 522
f 521 561 522
f 521 523 524
f 521 524 561
f 561 524 563
f 525 527 526
f 383 525 526
f 526 527 531
f 383 526 528
f 526 529 528
f 528 529 535
f 526 531 529
f 531 533 529
f 529 533 537
f 527 530 531
f 531 530 532
f 498 532 530
f 498 553 532
f 532 553 534
f 531 532 533
f 532 534 533
f 533 534 538
f 534 547 538
f 387 528 535
f 387 535 536
f 535 539 536
f 529 537 535
f 535 537 539
f 533 538 537
f 537 538 546
f 537 546 539
f 536 539 540
f 539 542 540
f 540 542 541
f 541 542 544
f 539 546 542
f 542 546 549
f 542 549 544
f 541 544 543
f 543 544 545
f 543 545 586
f 544 549 550
f 544 550 545
f 545 550 594
f 538 548 546
f 546 548 549
f 538 547 548
f 547 565 548
f 548 565 551
f 548 551 549
f 551 565 566
f 549 551 550
f 550 551 552
f 550 552 594
f 551 566 552
f 512 554 553
f 553 554 555
f 554 556 555
f 534 553 555
f 534 555 547
f 522 556 554
f 556 561 558
f 547 555 557
f 555 556 557
f 556 558 557
f 558 564 559
f 557 558 567
f 558 559 567
f 567 559 560
f 522 561 556
f 561 562 564
f 561 563 562
f 558 561 564
f 547 557 565
f 557 567 565
f 565 567 566
f 567 568 566
f 566 568 569
f 566 569 570
f 552 566 621
f 566 570 621
f 621 570 622
f 567 560 568
f 571 574 572
f 436 574 571
f 572 573 577
f 572 574 573
f 574 575 573
f 436 581 574
f 574 582 576
f 574 581 582
f 574 576 575
f 577 579 578
f 577 573 579
f 577 578 580
f 581 583 582
f 443 583 581
f 443 584 583
f 443 585 584
f 586 588 587
f 545 588 586
f 587 589 591
f 587 588 589
f 545 594 588
f 588 594 595
f 588 595 589
f 589 595 604
f 590 598 616
f 591 593 592
f 589 593 591
f 590 615 592
f 590 592 593
f 589 604 593
f 593 604 598
f 590 593 598
f 596 623 625
f 597 625 599
f 594 596 595
f 595 596 597
f 595 597 604
f 552 596 594
f 552 621 596
f 596 625 597
f 598 604 603
f 598 603 620
f 598 619 618
f 598 620 619
f 597 599 603
f 603 599 600
f 603 601 620
f 620 601 602
f 603 600 601
f 597 603 604
f 605 607 613
f 605 614 607
f 614 606 607
f 609 610 585
f 609 611 610
f 480 612 609
f 609 612 611
f 480 605 612
f 605 613 612
f 483 615 614
f 590 614 615
f 483 614 605
f 614 616 608
f 616 617 608
f 590 616 614
f 614 608 606
f 616 618 617
f 598 618 616
f 621 622 624
f 596 621 624
f 596 624 623
f 292 291 226
f 292 226 218
f 291 293 226
f 217 226 227
f 225 295 228
f 218 226 217
f 225 226 293
f 222 228 303
f 222 304 223
f 304 514 223
f 305 515 514
f 225 293 295
f 228 295 296
f 228 296 303
f 222 303 304
f 304 305 514
f 305 300 515
f 515 300 517
f 517 300 518
f 520 518 300
f 520 300 523
f 523 300 524
f 563 524 300
f 563 300 562
f 564 562 300
f 564 300 559
f 288 602 317
f 580 602 287
f 287 602 288
f 582 602 576
f 582 583 602
f 580 578 602
f 573 602 579
f 579 602 578
f 573 575 602
f 575 576 602
f 311 310 599
f 301 622 300
f 302 622 301
f 302 311 622
f 560 300 568
f 568 300 569
f 569 300 570
f 570 300 622
f 311 624 622
f 311 599 625
f 314 601 600
f 312 600 599
f 311 625 623
f 311 623 624
f 559 300 560
f 323 599 310
f 317 602 318
f 314 320 601
f 318 602 322
f 322 602 321
f 320 321 602
f 323 312 599
f 312 313 600
f 314 600 313
f 320 602 601
f 584 585 602
f 610 602 585
f 611 612 602
f 612 613 602
f 610 611 602
f 607 602 613
f 583 584 602
f 608 602 606
f 607 606 602
f 620 608 619
f 617 618 619
f 608 617 619
f 620 602 608

