# https://github.com/mikedh/trimesh
v -0.06509145 0.63285565 0.76952982
v -0.14233997 0.67581958 0.72084820
v -0.16844533 0.69110101 0.70206165
v -0.16062203 0.69378048 0.70204645
v -0.16317163 0.68781877 0.70645481
v -0.04966991 0.62543732 0.77569818
v 0.00000000 0.70290703 0.71128172
v 0.04293002 0.65670574 0.74969834
v 0.14461434 0.67805403 0.71850920
v 0.16613023 0.68090063 0.71157032
v 0.16062203 0.69378048 0.70204645
v 0.19403803 0.68233550 0.70211148
v -0.20703606 0.97022086 -0.11165136
v -0.19367644 0.97088712 -0.12803815
v -0.18975037 0.97108293 -0.13285384
v -0.12284440 0.96914721 -0.19876640
v -0.08224247 0.98768836 -0.13307111
v -0.33808652 0.92145473 0.17847642
v -0.27707469 0.96025157 -0.00590106
v -0.28022552 0.95942980 0.00000000
v -0.29046652 0.95431972 0.02665266
v -0.26028770 0.96302605 -0.03242720
v -0.27326652 0.96193838 0.00000000
v -0.31213790 0.94239348 0.08646215
v -0.32860163 0.93333316 0.13189930
v -0.22011703 0.96639258 0.13279247
v -0.13795224 0.99043888 0.00000000
v -0.08224247 0.98768836 0.13307111
v 0.01972170 0.95167261 -0.29831508
v -0.03716809 0.96093178 -0.26559499
v -0.01048484 0.95738131 -0.28336951
v 0.00000000 0.96386129 -0.26640469
v 0.08224247 0.98768836 -0.13307111
v 0.11835161 0.93009996 -0.33813021
v 0.22561960 0.90129417 -0.36506015
v 0.16245985 0.95105654 -0.26286554
v 0.22011703 0.96639258 -0.13279247
v 0.00000000 1.00000000 0.00000000
v 0.08224247 0.98768836 0.13307111
v 0.13795224 0.99043888 0.00000000
v 0.22011703 0.96639258 0.13279247
v -0.31580043 0.81260228 0.48804185
v -0.31744093 0.81533909 0.48141852
v -0.34150937 0.85549140 0.38424656
v -0.24434477 0.74494803 0.61858845
v -0.25371632 0.75228673 0.60616767
v -0.23708633 0.75865233 0.60682517
v -0.31087983 0.80599076 0.50301409
v -0.31249976 0.80778986 0.49924159
v -0.30901700 0.80901700 0.50000000
v -0.08114185 0.78020436 0.62023956
v -0.15643446 0.84017789 0.51925850
v -0.34569213 0.87268233 0.33606938
v -0.34786075 0.89741933 0.26261023
v -0.30125889 0.91624415 0.26408276
v -0.23867694 0.89100653 0.38618737
v -0.08232358 0.91298246 0.39960706
v -0.16245985 0.95105654 0.26286554
v 0.08114185 0.78020436 0.62023956
v 0.00000000 0.85065079 0.52573109
v 0.23708633 0.75865233 0.60682517
v 0.15643446 0.84017789 0.51925850
v 0.08232358 0.91298246 0.39960706
v 0.00000000 0.96386129 0.26640469
v 0.23867694 0.89100653 0.38618737
v 0.16245985 0.95105654 0.26286554
v 0.82333273 0.56238008 0.03146561
v 0.84109217 0.51982355 0.14277789
v 0.84237576 0.51564646 0.15419719
v 0.84223145 0.51388222 0.15975717
v 0.84017789 0.51925850 0.15643446
v 0.66945958 0.70218462 -0.23163176
v 0.78364021 0.61445445 -0.08545531
v 0.77840841 0.61912173 -0.09413684
v 0.71479362 0.67120260 -0.18539017
v 0.69378048 0.70204645 -0.16062203
v 0.78994024 0.60717821 -0.06992782
v 0.78020436 0.62023956 -0.08114185
v 0.78020436 0.62023956 0.08114185
v 0.70290703 0.71128172 0.00000000
v 0.69378048 0.70204645 0.16062203
v 0.38974708 0.66702133 0.63062400
v 0.37174803 0.70710677 0.60150093
v 0.27776930 0.68184096 0.67275721
v 0.33359733 0.67703944 0.65227669
v 0.49744076 0.63593793 0.58668345
v 0.52098709 0.62665033 0.57657003
v 0.51337546 0.64657778 0.56425422
v 0.82661980 0.47556493 0.29391530
v 0.81881481 0.46732056 0.32755482
v 0.80901700 0.50000000 0.30901700
v 0.75997156 0.45867249 0.45894840
v 0.75342000 0.46563917 0.46265268
v 0.75793540 0.46842986 0.45399049
v 0.78042036 0.44624829 0.43334255
v 0.77153045 0.44334111 0.45179528
v 0.64893585 0.55638152 0.51759201
v 0.64657778 0.56425422 0.51337546
v 0.64181536 0.56131089 0.52108121
v 0.64741188 0.70230985 0.29600459
v 0.58778524 0.68819094 0.42532539
v 0.75865233 0.60682517 0.23708633
v 0.70710677 0.60150093 0.37174803
v 0.36548513 0.85327756 -0.36813614
v 0.38320556 0.84651452 -0.36644402
v 0.52367032 0.78471106 -0.32792413
v 0.43151730 0.82558018 -0.35418344
v 0.50580472 0.79339015 -0.33533075
v 0.52573109 0.85065079 0.00000000
v 0.24774292 0.89466262 -0.36849859
v 0.30125889 0.91624415 -0.26408276
v 0.35822880 0.92430460 -0.13165537
v 0.43388855 0.86266845 -0.25989193
v 0.48444164 0.86492932 -0.13120037
v 0.35822880 0.92430460 0.13165537
v 0.27326652 0.96193838 0.00000000
v 0.40335536 0.91504341 0.00000000
v 0.48444164 0.86492932 0.13120037
v 0.62339377 0.73079950 -0.26983526
v 0.57125163 0.79264921 -0.21302287
v 0.61564201 0.78384304 -0.08108629
v 0.61564201 0.78384304 0.08108629
v 0.37503856 0.84391147 0.38361374
v 0.51612163 0.78345168 0.34615302
v 0.45399049 0.75793540 0.46842986
v 0.30901700 0.80901700 0.50000000
v 0.30125889 0.91624415 0.26408276
v 0.43388855 0.86266845 0.25989193
v 0.57125163 0.79264921 0.21302287
f 4 5 2
f 4 3 5
f 4 45 3
f 4 2 1
f 4 1 7
f 7 1 6
f 7 6 8
f 7 8 11
f 11 8 9
f 11 9 10
f 11 12 84
f 11 10 12
f 11 84 61
f 32 30 16
f 17 16 15
f 27 15 14
f 17 15 27
f 17 32 16
f 23 19 20
f 23 20 21
f 23 22 19
f 23 21 26
f 27 13 22
f 23 27 22
f 23 26 27
f 26 24 25
f 26 21 24
f 26 25 18
f 55 26 18
f 27 14 13
f 17 27 38
f 27 28 38
f 27 26 28
f 26 58 28
f 32 31 30
f 32 29 31
f 32 34 29
f 32 36 34
f 17 33 32
f 17 38 33
f 32 33 36
f 36 35 34
f 36 111 35
f 36 33 37
f 33 40 37
f 36 37 111
f 33 38 40
f 38 39 40
f 28 39 38
f 28 64 39
f 37 40 116
f 40 41 116
f 39 41 40
f 39 66 41
f 56 44 43
f 56 43 42
f 56 42 50
f 56 50 52
f 50 48 46
f 47 46 45
f 50 46 47
f 4 47 45
f 50 49 48
f 50 42 49
f 50 47 52
f 4 51 47
f 4 7 51
f 47 51 52
f 52 51 60
f 55 54 53
f 55 53 56
f 55 18 54
f 55 56 58
f 56 53 44
f 55 58 26
f 56 52 57
f 58 56 57
f 57 52 60
f 58 57 64
f 28 58 64
f 65 62 126
f 51 7 59
f 7 11 59
f 51 59 60
f 60 59 62
f 11 61 59
f 59 61 62
f 62 61 126
f 57 60 63
f 57 63 64
f 63 60 62
f 64 63 66
f 39 64 66
f 66 65 127
f 63 62 65
f 63 65 66
f 41 66 127
f 71 89 70
f 71 70 69
f 71 69 68
f 79 71 68
f 79 68 67
f 79 102 71
f 76 75 72
f 76 72 119
f 78 74 75
f 78 73 74
f 76 78 75
f 78 80 79
f 78 67 77
f 78 77 73
f 78 79 67
f 81 102 79
f 76 80 78
f 80 81 79
f 125 88 101
f 61 84 83
f 83 85 82
f 83 84 85
f 88 82 86
f 88 86 87
f 83 82 88
f 125 83 88
f 71 91 89
f 91 90 89
f 94 92 96
f 94 93 92
f 94 97 93
f 91 95 90
f 94 95 91
f 94 96 95
f 103 91 102
f 102 91 71
f 94 91 103
f 94 103 98
f 94 98 97
f 98 99 97
f 101 98 103
f 101 103 100
f 103 102 100
f 81 100 102
f 88 87 98
f 98 87 99
f 101 88 98
f 113 105 104
f 113 107 105
f 113 108 107
f 113 106 108
f 113 120 106
f 113 114 120
f 114 109 121
f 118 122 109
f 118 128 129
f 111 104 110
f 111 110 35
f 111 113 104
f 111 112 113
f 37 112 111
f 37 116 112
f 113 112 114
f 112 117 114
f 112 116 117
f 116 115 117
f 41 115 116
f 41 127 115
f 114 117 109
f 118 109 117
f 115 128 118
f 115 118 117
f 120 119 106
f 76 119 120
f 76 120 121
f 114 121 120
f 76 121 80
f 121 122 80
f 80 122 81
f 81 122 129
f 121 109 122
f 118 129 122
f 65 126 123
f 123 126 125
f 125 101 124
f 128 123 124
f 128 124 129
f 123 125 124
f 61 83 126
f 125 126 83
f 65 123 127
f 127 123 128
f 115 127 128
f 100 129 124
f 81 129 100
f 101 100 124
f 1 96 6
f 48 89 46
f 3 90 5
f 2 5 90
f 45 89 3
f 2 95 1
f 45 46 89
f 22 13 14
f 44 29 34
f 53 29 44
f 30 53 54
f 16 54 18
f 15 25 24
f 19 22 14
f 20 19 14
f 20 14 21
f 15 24 14
f 15 16 25
f 16 18 25
f 21 14 24
f 30 31 53
f 53 31 29
f 44 34 43
f 30 54 16
f 104 43 110
f 104 105 43
f 105 107 43
f 108 43 107
f 108 106 43
f 35 110 43
f 34 35 43
f 49 67 48
f 42 43 67
f 49 42 67
f 75 74 43
f 73 77 43
f 74 73 43
f 77 67 43
f 3 89 90
f 1 95 96
f 92 6 96
f 2 90 95
f 92 93 6
f 12 93 97
f 48 69 70
f 48 68 69
f 48 70 89
f 48 67 68
f 10 9 93
f 10 93 12
f 12 99 84
f 8 6 93
f 8 93 9
f 84 87 85
f 82 87 86
f 12 97 99
f 84 99 87
f 85 87 82
f 119 43 106
f 72 75 43
f 119 72 43

