# https://github.com/mikedh/trimesh
v 0.13289787 0.16796403 0.97444803
v 0.02335974 0.28834146 0.95526099
v 0.00000000 0.32758182 0.94235855
v 0.09886800 0.19912641 0.97253567
v 0.05027201 0.25314543 0.96362466
v 0.13279247 0.22011703 0.96639258
v 0.13165537 0.35822880 0.92430460
v 0.19744869 0.12203000 0.96951914
v 0.26454237 0.08548693 0.95712340
v 0.35204923 0.05293123 0.93114793
v 0.26286554 0.16245985 0.95105654
v 0.26408276 0.30125889 0.91624415
v 0.16613023 0.68090063 0.71157032
v 0.19403803 0.68233550 0.70211148
v 0.35008758 0.67409730 0.64591765
v 0.27776930 0.68184096 0.67275721
v 0.29600459 0.64741188 0.70230985
v 0.33359733 0.67703944 0.65227669
v -0.04216355 0.42941386 0.89893836
v -0.03169006 0.39249319 0.91727263
v 0.00000000 0.40335536 0.91504341
v -0.05829449 0.50738549 0.85699499
v 0.13120037 0.48444164 0.86492932
v -0.05753113 0.58952332 0.80325037
v -0.04966991 0.62543732 0.77569818
v 0.04293002 0.65670574 0.74969834
v -0.05298444 0.61564201 0.78384304
v 0.14461434 0.67805403 0.71850920
v 0.08108629 0.61564201 0.78384304
v 0.00000000 0.52573109 0.85065079
v 0.34615302 0.51612163 0.78345168
v 0.25989193 0.43388855 0.86266845
v 0.21302287 0.57125163 0.79264921
v 0.74994421 0.18832408 0.62900478
v 0.72207969 0.14114249 0.67464316
v 0.70419663 0.12322557 0.69590533
v 0.70204645 0.16062203 0.69378048
v 0.78978187 0.33925992 0.50955039
v 0.78345168 0.34615302 0.51612163
v 0.78893626 0.34955126 0.50332338
v 0.78611684 0.30757624 0.53209651
v 0.77187061 0.23210917 0.58876896
v 0.70230985 0.29600459 0.64741188
v 0.51925850 0.15643446 0.84017789
v 0.46947905 0.03671679 0.87845105
v 0.39960706 0.04147298 0.91298246
v 0.39960706 0.08232358 0.91298246
v 0.52415359 0.03812680 0.84809828
v 0.50000000 0.30901700 0.80901700
v 0.38618737 0.23867694 0.89100653
v 0.63347435 0.06934629 0.76896769
v 0.58665824 0.05231002 0.80523580
v 0.62023956 0.06301507 0.78020436
v 0.62023956 0.08114185 0.78020436
v 0.60682517 0.23708633 0.75865233
v 0.56425422 0.51337546 0.64657778
v 0.52098709 0.62665033 0.57657003
v 0.42532539 0.58778524 0.68819094
v 0.38974708 0.66702133 0.63062400
v 0.49744076 0.63593793 0.58668345
v 0.75997156 0.45867249 0.45894840
v 0.75342000 0.46563917 0.46265268
v 0.77153045 0.44334111 0.45179528
v 0.60150093 0.37174803 0.70710677
v 0.68819094 0.42532539 0.58778524
v 0.65598679 0.55025798 0.51388454
v 0.64893585 0.55638152 0.51759201
v 0.64181536 0.56131089 0.52108121
v 0.46842986 0.45399049 0.75793540
v 0.38361374 0.37503856 0.84391147
f 6 4 1
f 21 3 2
f 6 5 4
f 6 2 5
f 6 7 2
f 21 2 7
f 6 1 8
f 6 8 11
f 11 8 9
f 11 9 47
f 47 9 10
f 11 47 50
f 6 11 12
f 6 12 7
f 11 50 12
f 50 70 12
f 17 14 13
f 17 16 14
f 17 18 16
f 17 58 15
f 17 15 18
f 21 20 3
f 21 19 20
f 21 30 19
f 30 22 19
f 21 23 30
f 21 7 23
f 30 24 22
f 30 27 24
f 30 29 27
f 26 25 27
f 29 26 27
f 23 29 30
f 23 33 29
f 29 28 26
f 29 33 13
f 29 13 28
f 23 32 33
f 32 31 33
f 32 70 31
f 7 32 23
f 7 12 32
f 12 70 32
f 33 17 13
f 33 31 17
f 17 31 58
f 37 36 35
f 37 35 34
f 39 38 40
f 39 42 41
f 39 41 38
f 37 43 55
f 55 43 64
f 43 34 42
f 37 34 43
f 43 39 65
f 43 42 39
f 54 48 52
f 54 44 48
f 47 46 45
f 47 45 44
f 47 10 46
f 47 44 50
f 44 45 48
f 44 55 49
f 55 64 49
f 50 44 49
f 50 49 70
f 54 53 51
f 54 51 36
f 54 52 53
f 37 54 36
f 37 55 54
f 54 55 44
f 69 56 58
f 69 64 56
f 56 68 57
f 58 60 59
f 58 59 15
f 58 56 60
f 56 57 60
f 65 66 67
f 65 67 68
f 39 40 63
f 39 63 61
f 39 61 62
f 65 39 62
f 65 62 66
f 64 65 56
f 64 43 65
f 65 68 56
f 70 49 69
f 69 58 31
f 70 69 31
f 69 49 64
f 4 63 1
f 4 5 63
f 5 2 63
f 3 63 2
f 22 24 63
f 24 27 63
f 27 25 63
f 26 63 25
f 26 28 63
f 13 63 28
f 3 20 63
f 20 19 63
f 19 22 63
f 48 63 52
f 52 63 53
f 53 63 51
f 34 38 42
f 40 38 34
f 42 38 41
f 40 34 63
f 36 63 35
f 36 51 63
f 34 35 63
f 9 63 10
f 10 63 46
f 46 63 45
f 9 8 63
f 1 63 8
f 48 45 63
f 14 61 63
f 14 62 61
f 16 66 62
f 68 67 15
f 67 66 15
f 68 15 57
f 14 16 62
f 13 14 63
f 16 18 66
f 18 15 66
f 59 60 57
f 59 57 15

