# https://github.com/mikedh/trimesh
v -0.51337546 -0.64657778 -0.56425422
v -0.75865233 -0.60682517 -0.23708633
v -0.78020436 -0.62023956 -0.08114185
v -0.51612163 -0.78345168 -0.34615302
v -0.57125163 -0.79264921 -0.21302287
v -0.61564201 -0.78384304 -0.08108629
v -0.64741188 -0.70230985 -0.29600459
v -0.64657778 -0.56425422 -0.51337546
v -0.70710677 -0.60150093 -0.37174803
v -0.58778524 -0.68819094 -0.42532539
v -0.69378048 -0.70204645 -0.16062203
v -0.79264921 -0.21302287 -0.57125163
v -0.78384304 -0.08108629 -0.61564201
v -0.68819094 -0.42532539 -0.58778524
v -0.70230985 -0.29600459 -0.64741188
v -0.56425422 -0.51337546 -0.64657778
v -0.60150093 -0.37174803 -0.70710677
v -0.62023956 -0.08114185 -0.78020436
v -0.51925850 -0.15643446 -0.84017789
v -0.70204645 -0.16062203 -0.69378048
v -0.60682517 -0.23708633 -0.75865233
v -0.75793540 -0.46842986 -0.45399049
v -0.80901700 -0.50000000 -0.30901700
v -0.78345168 -0.34615302 -0.51612163
v -0.84391147 -0.38361374 -0.37503856
v -0.89100653 -0.38618737 -0.23867694
v -0.91298246 -0.39960706 -0.08232358
v -0.84017789 -0.51925850 -0.15643446
v -0.91624415 -0.26408276 -0.30125889
v -0.92430460 -0.13165537 -0.35822880
v -0.86266845 -0.25989193 -0.43388855
v -0.86492932 -0.13120037 -0.48444164
v -0.95105654 -0.26286554 -0.16245985
v -0.96639258 -0.13279247 -0.22011703
v -0.98768836 -0.13307111 -0.08224247
v -0.42532539 -0.58778524 -0.68819094
v -0.29600459 -0.64741188 -0.70230985
v -0.37174803 -0.70710677 -0.60150093
v -0.15643446 -0.84017789 -0.51925850
v -0.08114185 -0.78020436 -0.62023956
v -0.21302287 -0.57125163 -0.79264921
v -0.08108629 -0.61564201 -0.78384304
v -0.16062203 -0.69378048 -0.70204645
v -0.23708633 -0.75865233 -0.60682517
v -0.37503856 -0.84391147 -0.38361374
v -0.30901700 -0.80901700 -0.50000000
v -0.43388855 -0.86266845 -0.25989193
v -0.48444164 -0.86492932 -0.13120037
v -0.30125889 -0.91624415 -0.26408276
v -0.35822880 -0.92430460 -0.13165537
v -0.45399049 -0.75793540 -0.46842986
v -0.23867694 -0.89100653 -0.38618737
v -0.08232358 -0.91298246 -0.39960706
v -0.16245985 -0.95105654 -0.26286554
v -0.22011703 -0.96639258 -0.13279247
v -0.08224247 -0.98768836 -0.13307111
v -0.50000000 -0.30901700 -0.80901700
v -0.38361374 -0.37503856 -0.84391147
v -0.34615302 -0.51612163 -0.78345168
v -0.25989193 -0.43388855 -0.86266845
v -0.26408276 -0.30125889 -0.91624415
v -0.46842986 -0.45399049 -0.75793540
v -0.38618737 -0.23867694 -0.89100653
v -0.39960706 -0.08232358 -0.91298246
v -0.26286554 -0.16245985 -0.95105654
v -0.13120037 -0.48444164 -0.86492932
v -0.13165537 -0.35822880 -0.92430460
v -0.13279247 -0.22011703 -0.96639258
v -0.13307111 -0.08224247 -0.98768836
v -0.85065079 -0.52573109 0.00000000
v -0.78020436 -0.62023956 0.08114185
v -0.75865233 -0.60682517 0.23708633
v -0.61564201 -0.78384304 0.08108629
v -0.52573109 -0.85065079 0.00000000
v -0.57125163 -0.79264921 0.21302287
v -0.51612163 -0.78345168 0.34615302
v -0.70290703 -0.71128172 0.00000000
v -0.69378048 -0.70204645 0.16062203
v -0.64741188 -0.70230985 0.29600459
v -0.70710677 -0.60150093 0.37174803
v -0.58778524 -0.68819094 0.42532539
v -0.64657778 -0.56425422 0.51337546
v -0.51337546 -0.64657778 0.56425422
v -0.91298246 -0.39960706 0.08232358
v -0.84017789 -0.51925850 0.15643446
v -0.89100653 -0.38618737 0.23867694
v -0.80901700 -0.50000000 0.30901700
v -0.84391147 -0.38361374 0.37503856
v -0.96386129 -0.26640469 0.00000000
v -0.95105654 -0.26286554 0.16245985
v -0.98768836 -0.13307111 0.08224247
v -0.91624415 -0.26408276 0.30125889
v -0.96639258 -0.13279247 0.22011703
v -0.92430460 -0.13165537 0.35822880
v -0.86266845 -0.25989193 0.43388855
v -0.75793540 -0.46842986 0.45399049
v -0.78345168 -0.34615302 0.51612163
v -0.79264921 -0.21302287 0.57125163
v -0.86492932 -0.13120037 0.48444164
v -0.78384304 -0.08108629 0.61564201
v -0.68819094 -0.42532539 0.58778524
v -0.70230985 -0.29600459 0.64741188
v -0.56425422 -0.51337546 0.64657778
v -0.60150093 -0.37174803 0.70710677
v -0.70204645 -0.16062203 0.69378048
v -0.60682517 -0.23708633 0.75865233
v -0.62023956 -0.08114185 0.78020436
v -0.51925850 -0.15643446 0.84017789
v -0.40335536 -0.91504341 0.00000000
v -0.48444164 -0.86492932 0.13120037
v -0.27326652 -0.96193838 0.00000000
v -0.35822880 -0.92430460 0.13165537
v -0.43388855 -0.86266845 0.25989193
v -0.37503856 -0.84391147 0.38361374
v -0.30125889 -0.91624415 0.26408276
v -0.13795224 -0.99043888 0.00000000
v -0.22011703 -0.96639258 0.13279247
v -0.08224247 -0.98768836 0.13307111
v -0.16245985 -0.95105654 0.26286554
v -0.23867694 -0.89100653 0.38618737
v -0.08232358 -0.91298246 0.39960706
v -0.30901700 -0.80901700 0.50000000
v -0.45399049 -0.75793540 0.46842986
v -0.37174803 -0.70710677 0.60150093
v -0.42532539 -0.58778524 0.68819094
v -0.29600459 -0.64741188 0.70230985
v -0.15643446 -0.84017789 0.51925850
v -0.08114185 -0.78020436 0.62023956
v -0.23708633 -0.75865233 0.60682517
v -0.16062203 -0.69378048 0.70204645
v -0.21302287 -0.57125163 0.79264921
v -0.08108629 -0.61564201 0.78384304
v -0.46842986 -0.45399049 0.75793540
v -0.50000000 -0.30901700 0.80901700
v -0.38361374 -0.37503856 0.84391147
v -0.34615302 -0.51612163 0.78345168
v -0.25989193 -0.43388855 0.86266845
v -0.26408276 -0.30125889 0.91624415
v -0.38618737 -0.23867694 0.89100653
v -0.44840628 -0.05047139 0.88886541
v -0.39617825 -0.12227291 0.90736747
v -0.41878560 -0.09420256 0.90131289
v -0.32551008 -0.20117632 0.92055255
v -0.26373172 -0.26122925 0.92628402
v -0.13120037 -0.48444164 0.86492932
v -0.23667748 -0.28432149 0.92671204
v -0.15087144 -0.34996209 0.92313498
v -0.13604006 -0.36081576 0.92219710
v -0.13163553 -0.36372882 0.92171717
v -0.12862565 -0.36542022 0.92119491
v -0.02910675 -0.42134431 0.90392560
v -0.85065079 0.00000000 -0.52573109
v -0.78384304 0.08108629 -0.61564201
v -0.79264921 0.21302287 -0.57125163
v -0.52573109 0.00000000 -0.85065079
v -0.62023956 0.08114185 -0.78020436
v -0.51925850 0.15643446 -0.84017789
v -0.71128172 0.00000000 -0.70290703
v -0.70204645 0.16062203 -0.69378048
v -0.70230985 0.29600459 -0.64741188
v -0.68819094 0.42532539 -0.58778524
v -0.60682517 0.23708633 -0.75865233
v -0.60150093 0.37174803 -0.70710677
v -0.91504341 0.00000000 -0.40335536
v -0.92430460 0.13165537 -0.35822880
v -0.86492932 0.13120037 -0.48444164
v -0.96193838 0.00000000 -0.27326652
v -0.99043888 0.00000000 -0.13795224
v -0.96639258 0.13279247 -0.22011703
v -0.98768836 0.13307111 -0.08224247
v -0.91624415 0.26408276 -0.30125889
v -0.86266845 0.25989193 -0.43388855
v -0.78345168 0.34615302 -0.51612163
v -0.84391147 0.38361374 -0.37503856
v -0.95105654 0.26286554 -0.16245985
v -0.89100653 0.38618737 -0.23867694
v -0.91298246 0.39960706 -0.08232358
v -0.56425422 0.51337546 -0.64657778
v -0.51337546 0.64657778 -0.56425422
v -0.75793540 0.46842986 -0.45399049
v -0.80901700 0.50000000 -0.30901700
v -0.84017789 0.51925850 -0.15643446
v -0.75865233 0.60682517 -0.23708633
v -0.78020436 0.62023956 -0.08114185
v -0.64657778 0.56425422 -0.51337546
v -0.70710677 0.60150093 -0.37174803
v -0.64741188 0.70230985 -0.29600459
v -0.58778524 0.68819094 -0.42532539
v -0.51612163 0.78345168 -0.34615302
v -0.69378048 0.70204645 -0.16062203
v -0.57125163 0.79264921 -0.21302287
v -0.61564201 0.78384304 -0.08108629
v -0.39960706 0.08232358 -0.91298246
v -0.26640469 0.00000000 -0.96386129
v -0.26286554 0.16245985 -0.95105654
v -0.38618737 0.23867694 -0.89100653
v -0.50000000 0.30901700 -0.80901700
v -0.38361374 0.37503856 -0.84391147
v -0.26408276 0.30125889 -0.91624415
v -0.25989193 0.43388855 -0.86266845
v -0.13307111 0.08224247 -0.98768836
v -0.13279247 0.22011703 -0.96639258
v -0.13165537 0.35822880 -0.92430460
v -0.34615302 0.51612163 -0.78345168
v -0.46842986 0.45399049 -0.75793540
v -0.42532539 0.58778524 -0.68819094
v -0.29600459 0.64741188 -0.70230985
v -0.37174803 0.70710677 -0.60150093
v -0.13120037 0.48444164 -0.86492932
v -0.21302287 0.57125163 -0.79264921
v -0.08108629 0.61564201 -0.78384304
v -0.16062203 0.69378048 -0.70204645
v -0.23708633 0.75865233 -0.60682517
v -0.15643446 0.84017789 -0.51925850
v -0.08114185 0.78020436 -0.62023956
v -0.45399049 0.75793540 -0.46842986
v -0.37503856 0.84391147 -0.38361374
v -0.30901700 0.80901700 -0.50000000
v -0.43388855 0.86266845 -0.25989193
v -0.48444164 0.86492932 -0.13120037
v -0.38257697 0.91285032 -0.13156760
v -0.42864802 0.89941168 -0.04092439
v -0.32192066 0.91916752 -0.21605419
v -0.30125889 0.91624415 -0.26408276
v -0.28245887 0.92095941 -0.26391789
v -0.29366979 0.92093450 -0.25180331
v -0.36984420 0.91484213 -0.15134242
v -0.23867694 0.89100653 -0.38618737
v -0.20596351 0.91678083 -0.33325595
v -0.06260595 0.89805317 -0.42981550
v -0.09193662 0.90353888 -0.41512722
v -0.12093631 0.90755534 -0.39629295
v -1.00000000 0.00000000 0.00000000
v -0.99043888 0.00000000 0.13795224
v -0.98768836 0.13307111 0.08224247
v -0.96193838 0.00000000 0.27326652
v -0.91504341 0.00000000 0.40335536
v -0.96639258 0.13279247 0.22011703
v -0.92430460 0.13165537 0.35822880
v -0.96386129 0.26640469 0.00000000
v -0.95105654 0.26286554 0.16245985
v -0.91298246 0.39960706 0.08232358
v -0.91624415 0.26408276 0.30125889
v -0.89100653 0.38618737 0.23867694
v -0.86266845 0.25989193 0.43388855
v -0.84391147 0.38361374 0.37503856
v -0.85065079 0.00000000 0.52573109
v -0.86492932 0.13120037 0.48444164
v -0.78384304 0.08108629 0.61564201
v -0.79264921 0.21302287 0.57125163
v -0.78345168 0.34615302 0.51612163
v -0.71128172 0.00000000 0.70290703
v -0.70204645 0.16062203 0.69378048
v -0.52573109 0.00000000 0.85065079
v -0.52250975 0.07785517 0.84543860
v -0.62023956 0.08114185 0.78020436
v -0.54865170 0.13451856 0.82272100
v -0.70230985 0.29600459 0.64741188
v -0.68819094 0.42532539 0.58778524
v -0.60682517 0.23708633 0.75865233
v -0.57378471 0.20665495 0.78941333
v -0.58294845 0.23720859 0.77450812
v -0.58692968 0.25048295 0.76803243
v -0.60287029 0.33711359 0.72036409
v -0.60808736 0.37581867 0.69804108
v -0.60766041 0.36712006 0.70345938
v -0.85065079 0.52573109 0.00000000
v -0.84017789 0.51925850 0.15643446
v -0.78020436 0.62023956 0.08114185
v -0.80901700 0.50000000 0.30901700
v -0.75865233 0.60682517 0.23708633
v -0.70710677 0.60150093 0.37174803
v -0.70290703 0.71128172 0.00000000
v -0.69378048 0.70204645 0.16062203
v -0.61564201 0.78384304 0.08108629
v -0.52573109 0.85065079 0.00000000
v -0.64741188 0.70230985 0.29600459
v -0.57125163 0.79264921 0.21302287
v -0.58778524 0.68819094 0.42532539
v -0.53861672 0.71382147 0.44116595
v -0.51612163 0.78345168 0.34615302
v -0.75793540 0.46842986 0.45399049
v -0.64657778 0.56425422 0.51337546
v -0.60594440 0.48375693 0.62680095
v -0.59926850 0.53501546 0.58992350
v -0.58375263 0.60308230 0.53737253
v -0.55891877 0.67204756 0.47922137
v -0.49340916 0.02109715 0.86662459
v -0.44653463 0.89232302 0.00000000
v -0.43191233 0.89811802 -0.03345564
v -0.48567852 0.86450160 0.12727009
v -0.48640293 0.86371714 0.13045122
v -0.48689070 0.86289018 0.13350874
v -0.49269900 0.79348922 0.35237226
v -0.49929449 0.77654105 0.37926960
v -0.49002576 0.78778487 0.36697841
v -0.49523735 0.83139664 0.23895937
v -0.49524829 0.80355936 0.32425722
v 0.00000000 -0.85065079 -0.52573109
v 0.08114185 -0.78020436 -0.62023956
v 0.15643446 -0.84017789 -0.51925850
v 0.00000000 -0.52573109 -0.85065079
v 0.08108629 -0.61564201 -0.78384304
v 0.21302287 -0.57125163 -0.79264921
v 0.00000000 -0.70290703 -0.71128172
v 0.16062203 -0.69378048 -0.70204645
v 0.23708633 -0.75865233 -0.60682517
v 0.29600459 -0.64741188 -0.70230985
v 0.37174803 -0.70710677 -0.60150093
v 0.42532539 -0.58778524 -0.68819094
v 0.08232358 -0.91298246 -0.39960706
v 0.23867694 -0.89100653 -0.38618737
v 0.00000000 -0.96386129 -0.26640469
v 0.08224247 -0.98768836 -0.13307111
v 0.16245985 -0.95105654 -0.26286554
v 0.22011703 -0.96639258 -0.13279247
v 0.30901700 -0.80901700 -0.50000000
v 0.37503856 -0.84391147 -0.38361374
v 0.30125889 -0.91624415 -0.26408276
v 0.35822880 -0.92430460 -0.13165537
v 0.43388855 -0.86266845 -0.25989193
v 0.48444164 -0.86492932 -0.13120037
v 0.45399049 -0.75793540 -0.46842986
v 0.00000000 -0.40335536 -0.91504341
v 0.13120037 -0.48444164 -0.86492932
v 0.13165537 -0.35822880 -0.92430460
v 0.00000000 -0.27326652 -0.96193838
v 0.00000000 -0.13795224 -0.99043888
v 0.13279247 -0.22011703 -0.96639258
v 0.13307111 -0.08224247 -0.98768836
v 0.25989193 -0.43388855 -0.86266845
v 0.34615302 -0.51612163 -0.78345168
v 0.26408276 -0.30125889 -0.91624415
v 0.38361374 -0.37503856 -0.84391147
v 0.46842986 -0.45399049 -0.75793540
v 0.26286554 -0.16245985 -0.95105654
v 0.38618737 -0.23867694 -0.89100653
v 0.39960706 -0.08232358 -0.91298246
v 0.51337546 -0.64657778 -0.56425422
v 0.51612163 -0.78345168 -0.34615302
v 0.57125163 -0.79264921 -0.21302287
v 0.61564201 -0.78384304 -0.08108629
v 0.58778524 -0.68819094 -0.42532539
v 0.64741188 -0.70230985 -0.29600459
v 0.64657778 -0.56425422 -0.51337546
v 0.70710677 -0.60150093 -0.37174803
v 0.69378048 -0.70204645 -0.16062203
v 0.75865233 -0.60682517 -0.23708633
v 0.78020436 -0.62023956 -0.08114185
v 0.50000000 -0.30901700 -0.80901700
v 0.56425422 -0.51337546 -0.64657778
v 0.60150093 -0.37174803 -0.70710677
v 0.68819094 -0.42532539 -0.58778524
v 0.70230985 -0.29600459 -0.64741188
v 0.51925850 -0.15643446 -0.84017789
v 0.62023956 -0.08114185 -0.78020436
v 0.60682517 -0.23708633 -0.75865233
v 0.70204645 -0.16062203 -0.69378048
v 0.79264921 -0.21302287 -0.57125163
v 0.78384304 -0.08108629 -0.61564201
v 0.75793540 -0.46842986 -0.45399049
v 0.80901700 -0.50000000 -0.30901700
v 0.78345168 -0.34615302 -0.51612163
v 0.84391147 -0.38361374 -0.37503856
v 0.84017789 -0.51925850 -0.15643446
v 0.89100653 -0.38618737 -0.23867694
v 0.91298246 -0.39960706 -0.08232358
v 0.86266845 -0.25989193 -0.43388855
v 0.86492932 -0.13120037 -0.48444164
v 0.91624415 -0.26408276 -0.30125889
v 0.92430460 -0.13165537 -0.35822880
v 0.95105654 -0.26286554 -0.16245985
v 0.96639258 -0.13279247 -0.22011703
v 0.98768836 -0.13307111 -0.08224247
v 0.00000000 -1.00000000 0.00000000
v 0.08224247 -0.98768836 0.13307111
v 0.13795224 -0.99043888 0.00000000
v 0.22011703 -0.96639258 0.13279247
v 0.00000000 -0.96386129 0.26640469
v 0.08232358 -0.91298246 0.39960706
v 0.16245985 -0.95105654 0.26286554
v 0.23867694 -0.89100653 0.38618737
v 0.27326652 -0.96193838 0.00000000
v 0.35822880 -0.92430460 0.13165537
v 0.40335536 -0.91504341 0.00000000
v 0.48444164 -0.86492932 0.13120037
v 0.30125889 -0.91624415 0.26408276
v 0.43388855 -0.86266845 0.25989193
v 0.37503856 -0.84391147 0.38361374
v 0.00000000 -0.85065079 0.52573109
v 0.08114185 -0.78020436 0.62023956
v 0.15643446 -0.84017789 0.51925850
v 0.23708633 -0.75865233 0.60682517
v 0.00000000 -0.70290703 0.71128172
v 0.08108629 -0.61564201 0.78384304
v 0.00000000 -0.52573109 0.85065079
v 0.16062203 -0.69378048 0.70204645
v 0.21302287 -0.57125163 0.79264921
v 0.30901700 -0.80901700 0.50000000
v 0.37174803 -0.70710677 0.60150093
v 0.45399049 -0.75793540 0.46842986
v 0.29600459 -0.64741188 0.70230985
v 0.34095943 -0.52971864 0.77504826
v 0.31902182 -0.52735680 0.78532606
v 0.36214337 -0.53059542 0.76421195
v 0.42532539 -0.58778524 0.68819094
v 0.44429460 -0.52890551 0.71888375
v 0.00000000 -0.43608141 0.89782333
v 0.12375052 -0.48678616 0.86411858
v 0.13733673 -0.49095204 0.85950857
v 0.12955527 -0.48874858 0.86226749
v 0.23290655 -0.51297683 0.82235408
v 0.52573109 -0.85065079 0.00000000
v 0.61564201 -0.78384304 0.08108629
v 0.57125163 -0.79264921 0.21302287
v 0.51612163 -0.78345168 0.34615302
v 0.70290703 -0.71128172 0.00000000
v 0.69378048 -0.70204645 0.16062203
v 0.58778524 -0.68819094 0.42532539
v 0.64741188 -0.70230985 0.29600459
v 0.70710677 -0.60150093 0.37174803
v 0.78020436 -0.62023956 0.08114185
v 0.85065079 -0.52573109 0.00000000
v 0.75865233 -0.60682517 0.23708633
v 0.51337546 -0.64657778 0.56425422
v 0.64657778 -0.56425422 0.51337546
v 0.84017789 -0.51925850 0.15643446
v 0.91298246 -0.39960706 0.08232358
v 0.80901700 -0.50000000 0.30901700
v 0.84391147 -0.38361374 0.37503856
v 0.82828063 -0.37392890 0.41151318
v 0.84822708 -0.35514769 0.38857883
v 0.89100653 -0.38618737 0.23867694
v 0.90198821 -0.28764096 0.31580001
v 0.96386129 -0.26640469 0.00000000
v 0.95105654 -0.26286554 0.16245985
v 0.98768836 -0.13307111 0.08224247
v 0.97304410 -0.13287950 0.17705345
v 0.98935580 -0.05240083 0.11601481
v 0.91870511 -0.26399672 0.29144683
v 0.91487539 -0.27070516 0.29786474
v 0.96236014 -0.16699368 0.20495674
v 0.56022239 -0.51553488 0.64778543
v 0.56585139 -0.51436257 0.64399350
v 0.56364089 -0.51498121 0.64558536
v 0.67317784 -0.47544774 0.56093991
v 0.70727658 -0.45822781 0.53139967
v 0.72607100 -0.44873658 0.51511770
v 0.75793540 -0.46842986 0.45399049
v 0.76726305 -0.42373082 0.47670290
v 0.00000000 0.00000000 -1.00000000
v 0.00000000 0.13795224 -0.99043888
v 0.13307111 0.08224247 -0.98768836
v 0.00000000 0.27326652 -0.96193838
v 0.00000000 0.40335536 -0.91504341
v 0.13279247 0.22011703 -0.96639258
v 0.13165537 0.35822880 -0.92430460
v 0.26640469 0.00000000 -0.96386129
v 0.26286554 0.16245985 -0.95105654
v 0.39960706 0.08232358 -0.91298246
v 0.26408276 0.30125889 -0.91624415
v 0.25989193 0.43388855 -0.86266845
v 0.38618737 0.23867694 -0.89100653
v 0.38361374 0.37503856 -0.84391147
v 0.00000000 0.52573109 -0.85065079
v 0.08108629 0.61564201 -0.78384304
v 0.13120037 0.48444164 -0.86492932
v 0.21302287 0.57125163 -0.79264921
v 0.00000000 0.70290703 -0.71128172
v 0.08114185 0.78020436 -0.62023956
v 0.00000000 0.85065079 -0.52573109
v 0.16062203 0.69378048 -0.70204645
v 0.23708633 0.75865233 -0.60682517
v 0.15643446 0.84017789 -0.51925850
v 0.34615302 0.51612163 -0.78345168
v 0.29600459 0.64741188 -0.70230985
v 0.46842986 0.45399049 -0.75793540
v 0.42532539 0.58778524 -0.68819094
v 0.37174803 0.70710677 -0.60150093
v 0.03530930 0.87738538 -0.47163540
v 0.14754711 0.84890860 -0.50490993
v 0.16331598 0.84443092 -0.50812393
v 0.21137577 0.82895762 -0.51232398
v 0.29709598 0.80067009 -0.51770407
v 0.31917328 0.79251754 -0.51643318
v 0.43505657 0.74623358 -0.49906561
v 0.46780428 0.73203206 -0.49071997
v 0.52573109 0.00000000 -0.85065079
v 0.51925850 0.15643446 -0.84017789
v 0.62023956 0.08114185 -0.78020436
v 0.71128172 0.00000000 -0.70290703
v 0.70204645 0.16062203 -0.69378048
v 0.50000000 0.30901700 -0.80901700
v 0.60682517 0.23708633 -0.75865233
v 0.60150093 0.37174803 -0.70710677
v 0.70230985 0.29600459 -0.64741188
v 0.68819094 0.42532539 -0.58778524
v 0.85065079 0.00000000 -0.52573109
v 0.78384304 0.08108629 -0.61564201
v 0.79264921 0.21302287 -0.57125163
v 0.86492932 0.13120037 -0.48444164
v 0.91504341 0.00000000 -0.40335536
v 0.92430460 0.13165537 -0.35822880
v 0.96193838 0.00000000 -0.27326652
v 0.99043888 0.00000000 -0.13795224
v 0.96639258 0.13279247 -0.22011703
v 0.98768836 0.13307111 -0.08224247
v 0.97566336 0.20036170 -0.04073646
v 0.86266845 0.25989193 -0.43388855
v 0.78345168 0.34615302 -0.51612163
v 0.84391147 0.38361374 -0.37503856
v 0.91624415 0.26408276 -0.30125889
v 0.95105654 0.26286554 -0.16245985
v 0.95809752 0.26481164 -0.07312740
v 0.89100653 0.38618737 -0.23867694
v 0.92684442 0.34982234 -0.11149951
v 0.90626931 0.39550766 -0.13008599
v 0.56425422 0.51337546 -0.64657778
v 0.51337546 0.64657778 -0.56425422
v 0.59649032 0.66984028 -0.43836251
v 0.64657778 0.56425422 -0.51337546
v 0.67299861 0.62628132 -0.38706318
v 0.70710677 0.60150093 -0.37174803
v 0.70264018 0.60904378 -0.36608064
v 0.71309781 0.60211974 -0.35609651
v 0.57491285 0.68099213 -0.44935918
v 0.75793540 0.46842986 -0.45399049
v 0.80901700 0.50000000 -0.30901700
v 0.78526115 0.55038697 -0.27508897
v 0.84978116 0.49411684 -0.17197287
v 0.85353994 0.48985735 -0.16295905
v 0.82219958 0.51915175 -0.21905658
v 0.82971817 0.51279402 -0.20765154
v 1.00000000 0.00000000 0.00000000
v 0.99450982 0.00000000 0.07921501
v 0.99420518 0.06263374 0.03870978
v 0.98768836 0.13307111 -0.00351781
f 8 16 1
f 1 16 36
f 9 23 22
f 2 23 9
f 28 2 3
f 28 23 2
f 28 3 70
f 4 47 5
f 6 48 74
f 5 48 6
f 7 9 10
f 8 9 22
f 8 10 9
f 2 9 7
f 4 10 51
f 1 51 10
f 4 7 10
f 4 5 7
f 8 1 10
f 2 7 11
f 2 11 3
f 5 11 7
f 3 11 77
f 5 6 11
f 6 77 11
f 24 12 15
f 12 32 13
f 13 32 152
f 12 13 20
f 8 22 14
f 24 14 22
f 8 14 16
f 14 15 17
f 15 21 17
f 24 15 14
f 16 14 17
f 16 17 62
f 17 21 57
f 17 57 62
f 21 19 57
f 21 18 19
f 19 18 155
f 15 20 21
f 21 20 18
f 12 20 15
f 13 158 20
f 18 20 158
f 29 25 26
f 25 23 26
f 25 22 23
f 24 25 31
f 24 22 25
f 29 31 25
f 28 27 26
f 26 27 33
f 29 26 33
f 27 89 33
f 28 26 23
f 28 70 27
f 31 30 32
f 29 30 31
f 29 34 30
f 32 164 152
f 30 164 32
f 30 34 167
f 30 167 164
f 24 31 12
f 12 31 32
f 29 33 34
f 33 89 35
f 33 35 34
f 34 168 167
f 34 35 168
f 35 233 168
f 59 41 37
f 1 38 51
f 38 46 51
f 1 36 38
f 36 37 38
f 37 44 38
f 38 44 46
f 59 37 36
f 44 39 46
f 44 40 39
f 39 40 299
f 41 42 43
f 41 66 42
f 42 66 302
f 37 43 44
f 44 43 40
f 37 41 43
f 40 43 305
f 42 305 43
f 4 51 45
f 51 46 45
f 4 45 47
f 45 52 49
f 45 46 52
f 45 49 47
f 47 50 48
f 48 50 109
f 5 47 48
f 48 109 74
f 47 49 50
f 49 55 50
f 50 111 109
f 50 55 111
f 39 53 52
f 49 52 54
f 52 53 54
f 39 52 46
f 54 53 313
f 39 299 53
f 49 54 55
f 54 56 55
f 55 116 111
f 55 56 116
f 54 313 56
f 56 375 116
f 59 62 58
f 62 57 58
f 58 57 63
f 59 58 60
f 59 60 41
f 58 63 61
f 58 61 60
f 16 62 36
f 59 36 62
f 19 63 57
f 19 64 63
f 19 155 64
f 63 64 65
f 61 63 65
f 64 194 65
f 60 67 66
f 41 60 66
f 60 61 67
f 61 68 67
f 66 67 324
f 66 324 302
f 67 68 327
f 67 327 324
f 61 65 68
f 65 194 69
f 65 69 68
f 68 328 327
f 68 69 328
f 69 451 328
f 3 77 71
f 70 71 85
f 3 71 70
f 71 72 85
f 85 72 87
f 72 80 87
f 80 96 87
f 6 74 73
f 73 74 110
f 73 110 75
f 75 113 76
f 71 77 78
f 6 73 77
f 73 78 77
f 71 78 72
f 73 75 78
f 72 78 79
f 75 79 78
f 79 81 80
f 72 79 80
f 80 81 82
f 75 76 79
f 76 81 79
f 76 123 81
f 80 82 96
f 81 123 83
f 81 83 82
f 82 83 103
f 83 125 103
f 27 70 84
f 85 86 84
f 84 90 89
f 27 84 89
f 84 86 90
f 70 85 84
f 86 88 92
f 86 92 90
f 85 87 86
f 86 87 88
f 87 96 88
f 92 88 95
f 88 97 95
f 89 90 91
f 35 89 91
f 90 93 91
f 35 91 233
f 91 234 233
f 91 93 234
f 90 92 93
f 92 94 93
f 92 95 94
f 95 99 94
f 93 236 234
f 93 94 236
f 94 237 236
f 94 99 237
f 88 96 97
f 97 102 98
f 99 247 237
f 95 97 98
f 95 98 99
f 99 98 100
f 99 100 247
f 98 105 100
f 82 101 96
f 96 101 97
f 82 103 101
f 97 101 102
f 101 104 102
f 103 104 101
f 102 104 106
f 103 133 104
f 104 134 106
f 104 133 134
f 98 102 105
f 100 105 252
f 102 106 105
f 105 106 107
f 105 107 252
f 106 134 108
f 106 108 107
f 108 254 107
f 109 112 110
f 110 112 113
f 74 109 110
f 75 110 113
f 109 111 112
f 111 117 112
f 112 117 115
f 76 113 114
f 76 114 123
f 112 115 113
f 114 115 120
f 113 115 114
f 114 120 122
f 111 116 117
f 116 118 117
f 117 118 119
f 116 375 118
f 115 117 119
f 115 119 120
f 119 121 120
f 120 121 127
f 118 379 119
f 119 379 121
f 123 114 122
f 83 123 124
f 123 122 124
f 83 124 125
f 125 124 126
f 122 129 124
f 124 129 126
f 125 126 136
f 126 131 136
f 120 127 122
f 122 127 129
f 129 127 128
f 121 390 127
f 127 390 128
f 126 129 130
f 129 128 130
f 128 394 130
f 126 130 131
f 130 132 131
f 131 132 145
f 130 394 132
f 132 396 145
f 103 125 133
f 125 136 133
f 136 135 133
f 133 135 134
f 135 139 134
f 136 137 135
f 136 131 137
f 135 138 139
f 135 137 138
f 138 146 144
f 108 134 139
f 108 139 141
f 108 142 140
f 108 141 142
f 108 140 254
f 138 143 139
f 139 143 141
f 138 144 143
f 131 145 137
f 137 145 148
f 145 149 148
f 145 150 149
f 137 148 138
f 138 147 146
f 138 148 147
f 145 151 150
f 145 396 151
f 396 408 151
f 13 153 158
f 152 166 153
f 13 152 153
f 153 166 154
f 153 154 159
f 154 173 160
f 18 156 155
f 156 157 155
f 156 162 157
f 18 158 156
f 153 159 158
f 156 158 159
f 156 159 162
f 162 197 157
f 162 159 160
f 162 160 163
f 154 160 159
f 160 161 163
f 173 161 160
f 173 180 161
f 162 163 197
f 161 178 163
f 163 205 197
f 152 164 166
f 164 167 165
f 164 165 166
f 165 172 166
f 167 169 165
f 165 169 171
f 167 168 169
f 168 233 170
f 168 170 169
f 169 170 175
f 165 171 172
f 171 176 174
f 154 166 172
f 154 172 173
f 171 174 172
f 173 172 174
f 173 174 180
f 174 176 181
f 169 175 171
f 171 175 176
f 170 240 175
f 175 240 177
f 175 177 176
f 176 177 182
f 161 180 185
f 161 185 178
f 163 178 205
f 185 179 178
f 178 179 206
f 174 181 180
f 180 181 186
f 181 183 186
f 176 182 181
f 181 182 183
f 177 267 182
f 182 267 184
f 182 184 183
f 180 186 185
f 185 186 188
f 183 187 186
f 186 187 188
f 185 188 179
f 183 190 187
f 183 184 190
f 184 273 190
f 179 188 216
f 188 189 216
f 187 189 188
f 187 191 189
f 187 190 191
f 190 273 192
f 190 192 191
f 189 191 219
f 191 192 220
f 192 276 220
f 64 155 193
f 155 157 193
f 157 196 193
f 64 193 194
f 193 196 195
f 193 195 194
f 157 197 196
f 196 197 198
f 197 205 198
f 196 198 199
f 196 199 195
f 198 200 199
f 69 194 201
f 194 195 201
f 195 202 201
f 69 201 451
f 201 452 451
f 201 202 452
f 195 199 202
f 199 203 202
f 199 200 203
f 200 209 203
f 202 203 454
f 202 454 452
f 203 209 455
f 203 455 454
f 205 204 198
f 198 204 200
f 200 204 210
f 204 207 210
f 178 206 205
f 205 206 204
f 179 208 206
f 204 206 207
f 206 208 207
f 179 216 208
f 208 216 218
f 207 208 213
f 208 218 213
f 200 210 209
f 209 210 211
f 210 212 211
f 209 211 465
f 209 465 455
f 207 212 210
f 211 212 469
f 207 213 212
f 212 213 215
f 213 214 215
f 213 218 214
f 212 215 469
f 214 471 215
f 189 217 216
f 216 217 218
f 189 219 217
f 217 228 218
f 217 219 224
f 217 224 228
f 224 225 229
f 191 220 219
f 219 220 227
f 220 276 290
f 220 290 222
f 220 221 227
f 220 222 221
f 219 227 224
f 224 227 223
f 224 226 225
f 224 223 226
f 214 218 228
f 214 228 232
f 228 229 232
f 224 229 228
f 214 230 471
f 214 232 231
f 214 231 230
f 471 230 480
f 233 234 235
f 170 233 235
f 170 235 240
f 234 238 235
f 235 238 241
f 234 236 238
f 236 237 239
f 238 236 239
f 238 239 243
f 237 248 239
f 239 248 245
f 235 241 240
f 240 241 242
f 177 240 242
f 241 244 242
f 242 244 268
f 238 243 241
f 241 243 244
f 239 245 243
f 244 243 246
f 243 245 246
f 244 246 270
f 245 251 246
f 237 247 248
f 248 247 249
f 100 249 247
f 100 252 249
f 248 249 250
f 249 253 250
f 248 250 245
f 245 250 251
f 250 258 251
f 246 251 282
f 249 252 253
f 107 256 252
f 252 256 253
f 253 256 260
f 107 254 256
f 256 254 255
f 254 288 255
f 256 261 260
f 256 257 261
f 256 255 257
f 250 253 258
f 282 251 259
f 251 258 259
f 258 265 259
f 258 266 265
f 259 265 284
f 253 260 258
f 260 264 258
f 258 264 266
f 260 261 262
f 260 262 263
f 260 263 264
f 177 242 267
f 242 268 267
f 267 268 269
f 184 267 269
f 184 269 273
f 269 268 271
f 244 270 268
f 268 270 271
f 246 282 270
f 282 272 270
f 271 270 272
f 269 274 273
f 269 271 274
f 271 277 274
f 271 272 277
f 272 283 279
f 272 279 277
f 273 274 275
f 192 273 275
f 274 278 275
f 192 275 276
f 275 292 276
f 275 278 292
f 278 297 293
f 278 293 292
f 274 277 278
f 277 281 278
f 277 279 281
f 279 280 281
f 281 294 298
f 281 295 294
f 281 280 295
f 278 281 297
f 281 298 297
f 282 259 283
f 282 283 272
f 259 285 283
f 259 284 285
f 279 283 286
f 283 285 286
f 279 286 287
f 279 287 280
f 254 140 288
f 276 289 290
f 276 291 289
f 276 292 291
f 294 295 296
f 40 300 299
f 299 300 301
f 300 307 301
f 301 307 317
f 42 303 305
f 42 302 303
f 302 325 303
f 303 304 306
f 303 325 304
f 40 305 300
f 300 305 306
f 303 306 305
f 300 306 307
f 307 306 308
f 304 308 306
f 304 332 308
f 308 310 309
f 307 308 309
f 307 309 317
f 332 310 308
f 309 323 317
f 309 310 339
f 309 339 323
f 53 299 311
f 53 311 313
f 311 315 313
f 299 301 311
f 301 312 311
f 311 312 315
f 312 319 315
f 301 317 312
f 56 313 314
f 313 315 314
f 56 314 375
f 314 377 375
f 315 316 314
f 315 319 316
f 314 316 377
f 316 383 377
f 312 318 319
f 312 317 318
f 319 318 321
f 317 323 318
f 318 323 340
f 318 340 321
f 316 319 320
f 319 321 320
f 316 320 383
f 320 385 383
f 321 322 320
f 320 322 385
f 321 341 322
f 322 413 385
f 324 326 325
f 302 324 325
f 324 327 326
f 327 329 326
f 325 326 331
f 304 325 331
f 326 329 333
f 326 333 331
f 327 328 329
f 328 451 330
f 328 330 329
f 329 336 333
f 329 330 336
f 330 458 336
f 304 331 332
f 332 331 334
f 333 337 334
f 331 333 334
f 332 334 335
f 334 337 350
f 334 350 335
f 332 335 310
f 310 335 351
f 333 336 337
f 336 338 337
f 336 458 338
f 337 355 350
f 337 338 355
f 338 488 355
f 310 351 339
f 339 351 345
f 321 340 341
f 322 342 413
f 322 341 342
f 323 343 340
f 323 339 343
f 340 343 344
f 340 344 341
f 339 345 343
f 343 346 344
f 345 346 343
f 345 361 346
f 344 346 348
f 341 344 347
f 344 348 347
f 347 348 349
f 341 347 342
f 342 347 417
f 347 349 417
f 346 361 362
f 346 362 348
f 348 365 349
f 348 362 365
f 365 423 349
f 335 352 351
f 351 352 353
f 335 350 352
f 350 357 352
f 351 353 345
f 345 353 361
f 353 363 361
f 352 354 353
f 352 357 354
f 353 354 363
f 350 355 357
f 355 488 356
f 355 356 357
f 354 357 358
f 357 356 358
f 354 358 359
f 356 491 358
f 358 491 360
f 354 359 363
f 358 360 359
f 359 360 369
f 360 498 369
f 361 364 362
f 364 366 362
f 363 364 361
f 363 368 364
f 364 368 370
f 364 370 366
f 365 362 366
f 365 367 423
f 365 366 367
f 366 372 367
f 370 372 366
f 367 372 435
f 363 359 368
f 359 369 368
f 368 369 371
f 368 371 370
f 370 371 373
f 369 498 502
f 369 502 371
f 371 502 504
f 371 504 373
f 370 373 372
f 372 374 435
f 372 373 374
f 373 504 505
f 373 505 374
f 374 505 534
f 375 377 376
f 118 375 376
f 118 376 379
f 377 383 378
f 376 377 378
f 376 378 381
f 376 381 379
f 379 381 380
f 121 379 380
f 121 380 390
f 378 387 381
f 381 387 382
f 380 381 382
f 380 382 392
f 383 385 384
f 378 383 384
f 378 384 387
f 384 385 386
f 384 386 388
f 385 413 386
f 386 415 388
f 384 388 387
f 382 387 389
f 387 388 389
f 382 389 399
f 388 416 389
f 389 416 401
f 380 392 390
f 390 392 391
f 128 390 391
f 382 399 392
f 392 399 393
f 391 392 393
f 128 391 394
f 391 397 394
f 391 393 397
f 393 402 397
f 132 394 395
f 394 397 395
f 132 395 396
f 396 395 411
f 397 398 395
f 397 402 398
f 395 398 411
f 398 412 410
f 389 401 399
f 393 399 400
f 393 400 402
f 400 406 402
f 401 400 399
f 401 425 400
f 400 425 406
f 406 443 407
f 398 402 403
f 398 404 412
f 398 403 404
f 402 406 403
f 406 405 403
f 406 407 405
f 396 409 408
f 396 411 409
f 398 410 411
f 386 413 414
f 342 414 413
f 386 414 415
f 388 415 416
f 342 417 414
f 414 417 418
f 417 422 418
f 414 418 415
f 418 422 424
f 415 420 416
f 401 416 419
f 416 420 419
f 415 418 420
f 418 424 420
f 419 420 421
f 420 424 421
f 419 421 426
f 349 422 417
f 349 423 422
f 422 423 427
f 422 427 424
f 424 427 429
f 421 424 429
f 421 429 449
f 401 419 425
f 419 426 425
f 406 425 445
f 425 444 445
f 406 445 443
f 425 426 444
f 421 449 426
f 423 428 427
f 367 428 423
f 427 428 433
f 367 435 428
f 428 435 436
f 428 436 433
f 427 433 429
f 433 430 429
f 429 430 449
f 449 430 431
f 430 434 432
f 430 432 431
f 433 434 430
f 433 436 440
f 433 441 434
f 433 440 441
f 435 437 436
f 374 437 435
f 436 437 442
f 374 534 437
f 437 534 439
f 437 439 438
f 437 438 442
f 436 442 440
f 426 447 446
f 426 449 448
f 426 448 447
f 426 446 444
f 449 450 448
f 449 431 450
f 451 452 453
f 330 451 453
f 452 456 453
f 330 453 458
f 453 456 459
f 453 459 458
f 452 454 456
f 456 454 457
f 454 455 457
f 455 467 457
f 456 457 461
f 456 461 459
f 457 467 462
f 457 462 461
f 338 458 460
f 458 459 460
f 459 463 460
f 338 460 488
f 460 489 488
f 460 463 489
f 459 461 463
f 463 461 464
f 461 462 464
f 463 464 493
f 463 493 489
f 464 477 493
f 455 465 467
f 467 465 466
f 211 466 465
f 211 469 466
f 467 466 468
f 467 468 462
f 466 472 468
f 466 469 472
f 468 472 476
f 215 470 469
f 469 470 472
f 215 471 470
f 471 474 470
f 472 470 473
f 472 473 476
f 470 474 473
f 473 483 484
f 474 483 473
f 462 468 475
f 462 475 464
f 468 476 475
f 464 475 477
f 475 476 478
f 476 479 478
f 477 475 478
f 477 478 518
f 479 519 478
f 473 479 476
f 473 485 479
f 473 484 485
f 479 485 486
f 479 486 519
f 471 480 474
f 474 480 481
f 474 481 482
f 474 482 483
f 519 486 487
f 488 489 490
f 356 488 490
f 490 489 494
f 356 490 491
f 490 492 491
f 490 494 492
f 491 492 499
f 489 493 494
f 494 493 495
f 477 495 493
f 495 518 497
f 494 496 492
f 494 495 496
f 492 496 500
f 495 497 496
f 496 497 510
f 497 527 510
f 360 491 499
f 360 499 498
f 499 501 498
f 492 500 499
f 499 500 501
f 496 510 500
f 498 501 502
f 502 503 504
f 501 503 502
f 501 509 503
f 503 512 506
f 504 503 506
f 504 506 505
f 505 507 534
f 505 506 507
f 506 513 507
f 507 508 537
f 507 514 508
f 500 509 501
f 500 510 509
f 509 511 512
f 510 527 511
f 510 511 509
f 511 528 515
f 503 509 512
f 511 515 512
f 512 515 513
f 506 512 513
f 507 513 514
f 513 516 514
f 513 515 516
f 515 517 516
f 515 530 517
f 477 518 495
f 478 519 518
f 518 519 521
f 497 518 521
f 497 521 527
f 519 526 521
f 521 526 520
f 527 521 523
f 521 520 522
f 521 522 523
f 523 522 524
f 523 524 525
f 523 525 529
f 519 487 526
f 527 528 511
f 527 523 528
f 523 529 528
f 528 529 532
f 515 528 530
f 528 532 533
f 528 533 530
f 517 530 531
f 534 535 439
f 534 537 536
f 534 536 535
f 507 537 534
f 141 143 142
f 142 144 140
f 140 146 288
f 147 257 255
f 147 255 288
f 140 144 146
f 142 143 144
f 147 288 146
f 149 262 148
f 149 150 262
f 148 262 147
f 222 290 532
f 289 533 290
f 264 263 531
f 264 531 266
f 266 531 265
f 147 261 257
f 147 262 261
f 263 262 531
f 285 531 286
f 265 531 284
f 284 531 285
f 287 286 531
f 280 287 531
f 280 531 295
f 292 293 531
f 292 531 291
f 293 297 531
f 289 291 531
f 298 531 297
f 298 294 531
f 294 296 531
f 295 531 296
f 151 531 150
f 411 410 531
f 411 531 409
f 151 408 531
f 408 409 531
f 410 412 531
f 404 531 412
f 407 443 516
f 444 446 514
f 443 445 514
f 445 444 514
f 431 439 535
f 535 536 450
f 448 536 537
f 537 508 447
f 431 535 450
f 448 537 447
f 446 447 508
f 448 450 536
f 431 432 439
f 434 438 432
f 434 441 442
f 440 442 441
f 432 438 439
f 434 442 438
f 405 531 403
f 403 531 404
f 405 407 517
f 232 229 532
f 232 532 231
f 230 231 532
f 221 532 227
f 227 532 223
f 223 532 226
f 225 226 532
f 225 532 229
f 221 222 532
f 533 532 290
f 289 530 533
f 289 531 530
f 480 520 481
f 482 481 520
f 483 482 526
f 483 487 484
f 486 485 484
f 230 529 480
f 480 522 520
f 487 486 484
f 483 526 487
f 482 520 526
f 480 524 522
f 480 525 524
f 480 529 525
f 230 532 529
f 531 262 150
f 405 517 531
f 407 516 517
f 446 508 514
f 443 514 516

