# https://github.com/mikedh/trimesh
v -0.32551008 -0.20117630 0.92055255
v -0.26373172 -0.26122925 0.92628402
v -0.23667747 -0.28432149 0.92671204
v -0.26286554 -0.16245985 0.95105654
v -0.41878557 -0.09420256 0.90131289
v -0.49340913 0.02109716 0.86662459
v -0.44840625 -0.05047141 0.88886547
v -0.52250975 0.07785520 0.84543860
v -0.57378471 0.20665492 0.78941339
v -0.54865170 0.13451858 0.82272100
v -0.51925850 0.15643446 0.84017789
v -0.39617825 -0.12227289 0.90736747
v -0.39960706 -0.08232358 0.91298246
v -0.26640469 0.00000000 0.96386129
v -0.39960706 0.08232358 0.91298246
v -0.26286554 0.16245985 0.95105654
v -0.15087141 -0.34996212 0.92313498
v -0.13604005 -0.36081576 0.92219710
v -0.13163553 -0.36372882 0.92171717
v -0.13165537 -0.35822880 0.92430460
v -0.02910675 -0.42134431 0.90392560
v -0.13279247 -0.22011703 0.96639258
v 0.00000000 -0.43608141 0.89782339
v 0.00000000 -0.40335536 0.91504341
v 0.12955527 -0.48874858 0.86226749
v 0.12375052 -0.48678616 0.86411858
v 0.13733673 -0.49095204 0.85950863
v 0.13120037 -0.48444164 0.86492932
v 0.13165537 -0.35822880 0.92430460
v 0.00000000 -0.27326652 0.96193838
v 0.13279247 -0.22011703 0.96639258
v -0.13307111 -0.08224247 0.98768836
v -0.13307111 0.08224247 0.98768836
v -0.13279247 0.22011703 0.96639258
v 0.00000000 -0.13795224 0.99043888
v 0.00000000 0.00000000 1.00000000
v 0.13307111 -0.08224247 0.98768836
v 0.00000000 0.13795224 0.99043888
v 0.13307111 0.08224247 0.98768836
v 0.13279247 0.22011703 0.96639258
v -0.49929449 0.77654105 0.37926960
v -0.49002576 0.78778487 0.36697841
v -0.46106243 0.80704677 0.36077246
v -0.39308250 0.84966254 0.34567952
v -0.34414759 0.87419659 0.33356705
v -0.37503856 0.84391147 0.38361374
v -0.27479747 0.90557295 0.31571203
v -0.23867694 0.89100653 0.38618737
v -0.09815289 0.95612508 0.26426646
v -0.01717646 0.96883762 0.23855777
v -0.17844519 0.93846196 0.28873038
v -0.15184842 0.94601488 0.28097248
v -0.08232358 0.91298246 0.39960706
v 0.02619583 0.97145069 0.22393534
v 0.00000000 0.96386129 0.26640469
v 0.11844390 0.97115672 0.19164625
v 0.16245985 0.95105654 0.26286554
v 0.08232358 0.91298246 0.39960706
v -0.60766041 0.36712006 0.70345938
v -0.60150093 0.37174803 0.70710677
v -0.60808736 0.37581867 0.69804108
v -0.60594440 0.48375693 0.62680095
v -0.59926850 0.53501546 0.58992350
v -0.56425422 0.51337546 0.64657778
v -0.42532539 0.58778524 0.68819094
v -0.58692968 0.25048295 0.76803243
v -0.58035570 0.22856395 0.77872533
v -0.60287029 0.33711368 0.72036403
v -0.50000000 0.30901700 0.80901700
v -0.46842986 0.45399049 0.75793540
v -0.38361374 0.37503856 0.84391147
v -0.38618737 0.23867694 0.89100653
v -0.26408276 0.30125889 0.91624415
v -0.34615302 0.51612163 0.78345168
v -0.21302287 0.57125163 0.79264921
v -0.25989193 0.43388855 0.86266845
v -0.55891877 0.67204756 0.47922137
v -0.58375263 0.60308230 0.53737253
v -0.53861666 0.71382153 0.44116595
v -0.45399049 0.75793540 0.46842986
v -0.51337546 0.64657778 0.56425422
v -0.37174803 0.70710677 0.60150093
v -0.29600459 0.64741188 0.70230985
v -0.23708633 0.75865233 0.60682517
v -0.30901700 0.80901700 0.50000000
v -0.13165537 0.35822880 0.92430460
v -0.13120037 0.48444164 0.86492932
v 0.00000000 0.27326652 0.96193838
v 0.00000000 0.40335536 0.91504341
v 0.13165537 0.35822880 0.92430460
v 0.00000000 0.52573109 0.85065079
v 0.13120037 0.48444164 0.86492932
v -0.16062203 0.69378048 0.70204645
v -0.08114185 0.78020436 0.62023956
v -0.15643446 0.84017789 0.51925850
v 0.08114185 0.78020436 0.62023956
v 0.16062203 0.69378048 0.70204645
v 0.00000000 0.85065079 0.52573109
v 0.15643446 0.84017789 0.51925850
v -0.08108629 0.61564201 0.78384304
v 0.08108629 0.61564201 0.78384304
v 0.00000000 0.70290703 0.71128172
v 0.82828063 -0.37392890 0.41151318
v 0.84822708 -0.35514769 0.38857883
v 0.96236014 -0.16699368 0.20495674
v 0.91487539 -0.27070516 0.29786474
v 0.91870511 -0.26399672 0.29144683
v 0.91624415 -0.26408276 0.30125889
v 0.90198821 -0.28764096 0.31580004
v 0.98935580 -0.05240083 0.11601481
v 0.99450982 0.00000000 0.07921500
v 0.97566336 0.20036170 -0.04073646
v 0.99420518 0.06263374 0.03870977
v 0.98768836 0.13307111 -0.00351781
v 0.98768836 0.13307111 0.08224247
v 0.97304410 -0.13287950 0.17705345
v 0.96639258 -0.13279247 0.22011703
v 0.99043888 0.00000000 0.13795224
v 0.92430460 -0.13165537 0.35822880
v 0.96193838 0.00000000 0.27326652
v 0.91504341 0.00000000 0.40335536
v 0.96639258 0.13279247 0.22011703
v 0.92430460 0.13165537 0.35822880
v 0.56364089 -0.51498121 0.64558536
v 0.56585139 -0.51436257 0.64399350
v 0.56022239 -0.51553488 0.64778543
v 0.56425422 -0.51337546 0.64657778
v 0.23290655 -0.51297683 0.82235408
v 0.34095943 -0.52971864 0.77504826
v 0.36214337 -0.53059542 0.76421195
v 0.31902182 -0.52735680 0.78532606
v 0.34615302 -0.51612163 0.78345168
v 0.38361374 -0.37503856 0.84391147
v 0.25989193 -0.43388855 0.86266845
v 0.26408276 -0.30125889 0.91624415
v 0.26286554 -0.16245985 0.95105654
v 0.38618737 -0.23867694 0.89100653
v 0.44429460 -0.52890551 0.71888375
v 0.46842986 -0.45399049 0.75793540
v 0.50000000 -0.30901700 0.80901700
v 0.51925850 -0.15643446 0.84017789
v 0.26640469 0.00000000 0.96386129
v 0.26286554 0.16245985 0.95105654
v 0.52573109 0.00000000 0.85065079
v 0.39960706 -0.08232358 0.91298246
v 0.51925850 0.15643446 0.84017789
v 0.39960706 0.08232358 0.91298246
v 0.67317784 -0.47544774 0.56093991
v 0.72607106 -0.44873658 0.51511770
v 0.76726305 -0.42373085 0.47670290
v 0.78345168 -0.34615302 0.51612163
v 0.68819094 -0.42532539 0.58778524
v 0.60150093 -0.37174803 0.70710677
v 0.70230985 -0.29600459 0.64741188
v 0.79264921 -0.21302287 0.57125163
v 0.70204645 -0.16062203 0.69378048
v 0.86266845 -0.25989193 0.43388855
v 0.60682517 -0.23708633 0.75865233
v 0.78384304 -0.08108629 0.61564201
v 0.71128172 0.00000000 0.70290703
v 0.78384304 0.08108629 0.61564201
v 0.79264921 0.21302287 0.57125163
v 0.70204645 0.16062203 0.69378048
v 0.86492932 -0.13120037 0.48444164
v 0.85065079 0.00000000 0.52573109
v 0.86492932 0.13120037 0.48444164
v 0.62023956 -0.08114185 0.78020436
v 0.62023956 0.08114185 0.78020436
v 0.34148479 0.93172133 0.10570925
v 0.37141076 0.92159933 0.09319743
v 0.44191533 0.89121205 0.06239134
v 0.54346609 0.83747292 0.01599432
v 0.51671433 0.85376894 0.02865143
v 0.20871072 0.96335864 0.15852484
v 0.23080215 0.95978880 0.15008135
v 0.27560246 0.94948405 0.13233565
v 0.35822880 0.92430460 0.13165537
v 0.30125889 0.91624415 0.26408276
v 0.23867694 0.89100653 0.38618737
v 0.37503856 0.84391147 0.38361374
v 0.51612163 0.78345168 0.34615302
v 0.48444164 0.86492932 0.13120037
v 0.43388855 0.86266845 0.25989193
v 0.57125163 0.79264921 0.21302287
v 0.95809752 0.26481164 -0.07312741
v 0.92684442 0.34982237 -0.11149951
v 0.90626931 0.39550766 -0.13008599
v 0.91298246 0.39960706 -0.08232358
v 0.96386129 0.26640469 0.00000000
v 0.91298246 0.39960706 0.08232358
v 0.85353994 0.48985735 -0.16295905
v 0.84259784 0.51528138 -0.15397106
v 0.84044945 0.51942635 -0.15237838
v 0.83287829 0.53154927 -0.14727034
v 0.89796799 0.41036135 -0.13526128
v 0.85065079 0.52573109 0.00000000
v 0.89100653 0.38618737 0.23867694
v 0.95105654 0.26286554 0.16245985
v 0.84391147 0.38361374 0.37503856
v 0.91624415 0.26408276 0.30125889
v 0.84017789 0.51925850 0.15643446
v 0.80901700 0.50000000 0.30901700
v 0.65776199 0.74882001 -0.04194856
v 0.75987548 0.63948244 -0.09983741
v 0.77622139 0.61776048 -0.10996127
v 0.78020436 0.62023956 -0.08114185
v 0.69922405 0.70755488 -0.06481777
v 0.78020436 0.62023956 0.08114185
v 0.70290703 0.71128172 0.00000000
v 0.61564201 0.78384304 -0.02011761
v 0.61564201 0.78384304 0.08108629
v 0.69378048 0.70204645 0.16062203
v 0.75865233 0.60682517 0.23708633
v 0.64741188 0.70230985 0.29600459
v 0.70710677 0.60150093 0.37174803
v 0.42532539 0.58778524 0.68819094
v 0.56425422 0.51337546 0.64657778
v 0.38361374 0.37503856 0.84391147
v 0.26408276 0.30125889 0.91624415
v 0.38618737 0.23867694 0.89100653
v 0.21302287 0.57125163 0.79264921
v 0.34615302 0.51612163 0.78345168
v 0.25989193 0.43388855 0.86266845
v 0.50000000 0.30901700 0.80901700
v 0.46842986 0.45399049 0.75793540
v 0.23708633 0.75865233 0.60682517
v 0.29600459 0.64741188 0.70230985
v 0.37174803 0.70710677 0.60150093
v 0.30901700 0.80901700 0.50000000
v 0.45399049 0.75793540 0.46842986
v 0.58778524 0.68819094 0.42532539
v 0.51337546 0.64657778 0.56425422
v 0.78345168 0.34615302 0.51612163
v 0.60150093 0.37174803 0.70710677
v 0.70230985 0.29600459 0.64741188
v 0.64657778 0.56425422 0.51337546
v 0.75793540 0.46842986 0.45399049
v 0.68819094 0.42532539 0.58778524
v 0.86266845 0.25989193 0.43388855
v 0.60682517 0.23708633 0.75865233
f 4 1 2
f 4 2 3
f 4 3 22
f 13 7 5
f 13 15 7
f 15 6 7
f 11 8 6
f 11 10 8
f 11 9 10
f 11 6 15
f 11 15 72
f 13 12 1
f 13 5 12
f 13 1 4
f 13 4 14
f 13 14 15
f 4 32 14
f 15 14 16
f 15 16 72
f 14 33 16
f 20 17 18
f 20 18 19
f 20 19 21
f 20 21 24
f 24 21 23
f 20 24 30
f 20 3 17
f 20 22 3
f 20 30 22
f 22 30 35
f 28 27 128
f 28 23 26
f 24 23 28
f 24 28 29
f 24 29 30
f 28 26 25
f 28 25 27
f 28 134 29
f 30 29 31
f 30 31 35
f 29 135 31
f 4 22 32
f 32 33 14
f 22 35 32
f 32 35 36
f 32 36 33
f 16 33 34
f 33 36 38
f 33 38 34
f 34 38 88
f 35 31 37
f 35 37 36
f 37 39 36
f 31 136 37
f 37 142 39
f 36 39 38
f 38 39 40
f 38 40 88
f 39 143 40
f 80 42 41
f 80 43 42
f 80 46 43
f 46 44 43
f 46 45 44
f 46 48 45
f 48 47 45
f 48 51 47
f 55 50 49
f 48 52 51
f 53 49 52
f 48 53 52
f 53 55 49
f 55 54 50
f 55 56 54
f 55 57 56
f 57 174 56
f 55 58 57
f 53 58 55
f 58 179 57
f 60 61 59
f 60 62 61
f 60 64 62
f 60 70 64
f 64 63 62
f 64 78 63
f 64 81 78
f 64 65 81
f 64 70 65
f 60 66 69
f 69 67 9
f 69 66 67
f 11 69 9
f 60 68 66
f 60 59 68
f 60 69 70
f 11 72 69
f 72 71 69
f 69 71 70
f 70 74 65
f 72 73 71
f 72 16 73
f 16 34 73
f 71 73 76
f 73 86 76
f 70 71 74
f 71 76 74
f 65 74 83
f 83 74 75
f 76 75 74
f 81 77 78
f 80 79 77
f 81 80 77
f 80 41 79
f 81 82 80
f 81 65 82
f 80 82 85
f 65 83 82
f 82 84 85
f 82 83 84
f 83 93 84
f 80 85 46
f 46 85 48
f 48 85 95
f 85 84 95
f 83 75 93
f 73 34 86
f 34 88 86
f 86 88 89
f 76 87 75
f 87 100 75
f 87 91 100
f 76 86 87
f 86 89 87
f 87 89 91
f 40 90 88
f 88 90 89
f 40 219 90
f 100 91 101
f 92 101 91
f 92 221 101
f 89 90 92
f 89 92 91
f 90 223 92
f 93 94 84
f 93 102 94
f 48 95 53
f 53 95 98
f 95 94 98
f 84 94 95
f 94 102 96
f 102 97 96
f 97 226 96
f 58 98 99
f 98 96 99
f 53 98 58
f 58 99 179
f 94 96 98
f 96 226 99
f 93 75 100
f 93 100 102
f 100 101 102
f 102 101 97
f 97 101 221
f 108 107 105
f 108 105 117
f 157 104 109
f 157 103 104
f 157 109 108
f 108 109 106
f 108 106 107
f 108 117 119
f 157 108 119
f 118 110 111
f 118 111 113
f 115 113 114
f 118 113 115
f 189 114 112
f 115 114 189
f 117 110 118
f 117 116 110
f 117 105 116
f 117 118 120
f 117 120 119
f 164 119 121
f 119 120 121
f 118 115 122
f 118 122 120
f 115 198 122
f 122 198 200
f 120 123 121
f 122 123 120
f 166 121 123
f 122 200 123
f 123 200 239
f 139 138 127
f 127 138 126
f 127 124 125
f 127 126 124
f 139 127 153
f 28 128 134
f 132 134 128
f 132 131 129
f 132 129 130
f 132 130 138
f 132 128 131
f 132 133 134
f 29 134 135
f 134 133 135
f 31 135 136
f 135 133 137
f 135 137 136
f 136 137 145
f 132 138 139
f 132 139 133
f 133 139 140
f 139 153 140
f 133 140 137
f 137 140 141
f 153 158 140
f 140 158 141
f 141 158 167
f 137 141 145
f 37 136 142
f 136 145 142
f 145 147 142
f 39 142 143
f 142 147 143
f 143 147 220
f 141 167 144
f 167 168 144
f 145 141 144
f 145 144 147
f 144 168 146
f 168 240 146
f 147 144 146
f 147 146 220
f 152 148 149
f 151 150 103
f 152 149 151
f 151 149 150
f 127 125 148
f 127 148 152
f 127 152 153
f 153 152 154
f 152 151 154
f 153 154 158
f 154 156 158
f 154 151 155
f 154 155 156
f 157 151 103
f 157 155 151
f 157 119 164
f 157 164 155
f 156 167 158
f 156 155 159
f 156 159 160
f 159 161 160
f 160 161 163
f 163 161 162
f 164 159 155
f 164 165 159
f 164 121 165
f 159 165 161
f 166 165 121
f 166 161 165
f 166 123 239
f 166 162 161
f 166 239 162
f 156 160 167
f 167 160 168
f 160 163 168
f 163 240 168
f 177 169 176
f 177 171 170
f 177 170 169
f 182 173 171
f 177 182 171
f 211 172 173
f 211 210 172
f 182 211 173
f 57 175 174
f 177 176 175
f 57 178 175
f 177 175 178
f 177 178 183
f 57 179 178
f 178 180 183
f 179 180 178
f 214 184 181
f 230 231 181
f 231 214 181
f 177 183 182
f 182 184 211
f 183 181 184
f 182 183 184
f 183 180 181
f 180 230 181
f 189 112 185
f 188 189 185
f 188 186 187
f 188 187 195
f 188 185 186
f 189 190 198
f 115 189 198
f 188 190 189
f 188 195 191
f 188 191 192
f 188 192 196
f 206 193 194
f 206 194 205
f 196 192 193
f 206 196 193
f 188 196 190
f 190 196 201
f 206 208 196
f 208 201 196
f 208 213 201
f 215 202 213
f 237 202 215
f 198 197 200
f 198 190 197
f 239 200 199
f 197 199 200
f 190 201 197
f 197 201 202
f 213 202 201
f 197 202 199
f 237 199 202
f 209 207 203
f 209 203 210
f 206 205 204
f 206 207 209
f 206 204 207
f 209 210 211
f 209 211 212
f 206 209 208
f 209 212 208
f 212 211 184
f 212 184 214
f 212 213 208
f 212 214 213
f 231 215 214
f 215 213 214
f 225 217 216
f 225 234 217
f 216 217 232
f 217 236 232
f 40 143 219
f 90 219 223
f 143 220 219
f 220 218 219
f 219 218 223
f 92 223 221
f 221 222 227
f 223 222 221
f 223 218 222
f 227 222 216
f 220 224 218
f 220 146 224
f 218 224 225
f 240 234 224
f 146 240 224
f 225 224 234
f 218 225 222
f 225 216 222
f 230 229 228
f 97 227 226
f 228 227 216
f 226 228 229
f 226 227 228
f 179 99 229
f 99 226 229
f 179 229 180
f 180 229 230
f 230 228 232
f 231 232 236
f 230 232 231
f 228 216 232
f 97 221 227
f 240 235 234
f 163 235 240
f 234 235 238
f 235 162 233
f 163 162 235
f 235 233 238
f 237 238 233
f 237 236 238
f 237 215 236
f 238 236 217
f 234 238 217
f 239 233 162
f 239 199 233
f 237 233 199
f 231 236 215
f 8 10 195
f 8 195 6
f 7 6 195
f 12 195 1
f 17 3 187
f 1 187 2
f 2 187 3
f 12 5 195
f 5 7 195
f 59 61 191
f 61 62 191
f 63 78 191
f 62 63 191
f 77 191 78
f 41 42 191
f 79 191 77
f 79 41 191
f 43 191 42
f 43 44 194
f 44 45 194
f 45 47 194
f 47 51 194
f 51 52 194
f 68 191 66
f 68 59 191
f 9 67 195
f 10 9 195
f 66 191 67
f 1 195 187
f 138 116 105
f 105 150 149
f 107 106 103
f 109 104 106
f 103 150 105
f 103 106 104
f 138 110 116
f 138 111 110
f 138 113 111
f 107 103 105
f 128 185 112
f 128 112 114
f 23 187 186
f 128 186 185
f 138 114 113
f 25 26 186
f 23 186 26
f 27 186 128
f 25 186 27
f 131 128 114
f 129 131 114
f 130 129 114
f 21 187 23
f 19 18 187
f 18 17 187
f 19 187 21
f 138 105 126
f 125 105 148
f 148 105 149
f 126 105 124
f 124 105 125
f 130 114 138
f 191 195 67
f 49 50 194
f 194 50 54
f 194 54 56
f 194 56 174
f 43 192 191
f 43 193 192
f 43 194 193
f 194 174 175
f 194 175 176
f 205 176 169
f 204 169 170
f 203 171 173
f 207 170 171
f 173 172 210
f 49 194 52
f 205 194 176
f 204 205 169
f 204 170 207
f 203 207 171
f 203 173 210

