# https://github.com/mikedh/trimesh
v -0.20596351 0.91678083 -0.33325595
v -0.36984420 0.91484213 -0.15134242
v -0.38257697 0.91285032 -0.13156760
v -0.35822880 0.92430460 -0.13165537
v -0.29366979 0.92093450 -0.25180331
v -0.28245887 0.92095941 -0.26391789
v -0.32192066 0.91916752 -0.21605419
v -0.16245985 0.95105654 -0.26286554
v -0.22011703 0.96639258 -0.13279247
v 0.14754711 0.84890860 -0.50490993
v 0.16331598 0.84443092 -0.50812393
v -0.09193662 0.90353888 -0.41512722
v -0.06260595 0.89805317 -0.42981550
v -0.12093631 0.90755534 -0.39629295
v -0.08232358 0.91298246 -0.39960706
v 0.03530930 0.87738538 -0.47163540
v 0.08232358 0.91298246 -0.39960706
v 0.00000000 0.96386129 -0.26640469
v -0.08224247 0.98768836 -0.13307111
v 0.16245985 0.95105654 -0.26286554
v 0.08224247 0.98768836 -0.13307111
v -0.48640293 0.86371714 0.13045122
v -0.48689070 0.86289018 0.13350874
v -0.48567852 0.86450160 0.12727009
v -0.48444164 0.86492932 0.13120037
v -0.49002576 0.78778487 0.36697841
v -0.49524829 0.80355936 0.32425722
v -0.49269900 0.79348922 0.35237226
v -0.46106243 0.80704677 0.36077246
v -0.49523735 0.83139664 0.23895937
v -0.43388855 0.86266845 0.25989193
v -0.39308250 0.84966254 0.34567952
v -0.42864802 0.89941168 -0.04092439
v -0.43191233 0.89811802 -0.03345564
v -0.44653463 0.89232302 0.00000000
v -0.40335536 0.91504341 0.00000000
v -0.35822880 0.92430460 0.13165537
v -0.27326652 0.96193838 0.00000000
v -0.22011703 0.96639258 0.13279247
v -0.34414759 0.87419659 0.33356705
v -0.30125889 0.91624415 0.26408276
v -0.27479747 0.90557295 0.31571203
v -0.16245985 0.95105654 0.26286554
v -0.17844519 0.93846196 0.28873038
v -0.13795224 0.99043888 0.00000000
v 0.00000000 1.00000000 0.00000000
v -0.08224247 0.98768836 0.13307111
v 0.13795224 0.99043888 0.00000000
v 0.08224247 0.98768836 0.13307111
v -0.01717646 0.96883762 0.23855777
v -0.15184842 0.94601488 0.28097248
v -0.09815289 0.95612508 0.26426646
v 0.02619583 0.97145069 0.22393534
v 0.11844390 0.97115672 0.19164625
v 0.46780428 0.73203206 -0.49071997
v 0.70264018 0.60904378 -0.36608064
v 0.71309781 0.60211974 -0.35609651
v 0.82219958 0.51915175 -0.21905658
v 0.82971817 0.51279402 -0.20765154
v 0.78526115 0.55038697 -0.27508897
v 0.85353994 0.48985735 -0.16295905
v 0.84978116 0.49411684 -0.17197287
v 0.84259784 0.51528138 -0.15397106
v 0.84017789 0.51925850 -0.15643446
v 0.84044945 0.51942635 -0.15237838
v 0.83287829 0.53154927 -0.14727034
v 0.75865233 0.60682517 -0.23708633
v 0.57491285 0.68099213 -0.44935918
v 0.59649032 0.66984028 -0.43836251
v 0.67299861 0.62628132 -0.38706318
v 0.58778524 0.68819094 -0.42532539
v 0.64741188 0.70230985 -0.29600459
v 0.75987548 0.63948244 -0.09983741
v 0.77622139 0.61776048 -0.10996127
v 0.69378048 0.70204645 -0.16062203
v 0.69922405 0.70755488 -0.06481777
v 0.29709598 0.80067009 -0.51770407
v 0.31917328 0.79251754 -0.51643318
v 0.21137577 0.82895762 -0.51232398
v 0.30901700 0.80901700 -0.50000000
v 0.43505657 0.74623358 -0.49906561
v 0.45399049 0.75793540 -0.46842986
v 0.51612163 0.78345168 -0.34615302
v 0.37503856 0.84391147 -0.38361374
v 0.43388855 0.86266845 -0.25989193
v 0.48444164 0.86492932 -0.13120037
v 0.23867694 0.89100653 -0.38618737
v 0.30125889 0.91624415 -0.26408276
v 0.22011703 0.96639258 -0.13279247
v 0.35822880 0.92430460 -0.13165537
v 0.57125163 0.79264921 -0.21302287
v 0.61564201 0.78384304 -0.08108629
v 0.34148479 0.93172133 0.10570925
v 0.27326652 0.96193838 0.00000000
v 0.22011703 0.96639258 0.13279247
v 0.27560246 0.94948405 0.13233565
v 0.40335536 0.91504341 0.00000000
v 0.37141076 0.92159933 0.09319743
v 0.44191533 0.89121205 0.06239134
v 0.20871072 0.96335864 0.15852484
v 0.23080215 0.95978880 0.15008135
v 0.65776199 0.74882001 -0.04194856
v 0.61564201 0.78384304 -0.02011761
v 0.54346609 0.83747292 0.01599432
v 0.52573109 0.85065079 0.00000000
v 0.51671433 0.85376894 0.02865143
f 4 2 3
f 4 7 2
f 4 3 33
f 8 6 5
f 4 5 7
f 8 1 6
f 8 5 9
f 4 9 5
f 4 38 9
f 17 11 10
f 15 13 12
f 15 16 13
f 15 14 1
f 15 12 14
f 8 15 1
f 15 18 17
f 8 18 15
f 15 17 16
f 17 10 16
f 17 87 11
f 17 20 87
f 17 18 20
f 8 19 18
f 8 9 19
f 9 45 19
f 19 21 18
f 19 46 21
f 18 21 20
f 20 21 89
f 21 48 89
f 25 24 22
f 25 22 23
f 28 26 29
f 27 28 29
f 25 23 30
f 25 30 31
f 31 30 27
f 31 27 29
f 31 29 32
f 31 32 40
f 36 33 34
f 36 34 35
f 4 33 36
f 4 36 38
f 25 35 24
f 25 36 35
f 25 37 36
f 36 37 38
f 9 38 45
f 38 37 39
f 38 39 45
f 25 31 37
f 37 31 41
f 31 40 41
f 37 41 39
f 41 40 42
f 41 42 44
f 41 44 43
f 41 43 39
f 43 44 51
f 19 45 46
f 45 39 47
f 45 47 46
f 47 49 46
f 21 46 48
f 46 49 48
f 49 95 48
f 47 43 52
f 39 43 47
f 47 53 49
f 47 50 53
f 47 52 50
f 43 51 52
f 49 53 54
f 49 54 95
f 82 71 55
f 67 59 58
f 67 64 59
f 63 61 62
f 64 62 59
f 64 63 62
f 64 65 63
f 64 66 65
f 67 60 57
f 67 58 60
f 67 74 64
f 64 74 66
f 71 69 68
f 71 70 69
f 72 56 70
f 71 72 70
f 71 68 55
f 82 83 71
f 71 83 72
f 72 57 56
f 72 91 75
f 75 92 76
f 72 67 57
f 72 75 67
f 75 74 67
f 75 73 74
f 75 76 73
f 80 78 77
f 87 79 11
f 87 80 79
f 80 77 79
f 87 84 80
f 80 82 81
f 80 81 78
f 80 84 82
f 82 55 81
f 84 83 82
f 84 85 83
f 85 91 83
f 85 86 91
f 87 20 88
f 87 88 84
f 88 85 84
f 89 90 88
f 20 89 88
f 89 94 90
f 88 90 85
f 85 90 86
f 90 97 86
f 72 83 91
f 75 91 92
f 86 92 91
f 105 99 106
f 90 94 97
f 89 48 94
f 95 101 96
f 48 95 94
f 95 93 94
f 94 93 97
f 95 96 93
f 86 97 105
f 97 99 105
f 97 93 98
f 97 98 99
f 95 54 100
f 95 100 101
f 92 105 103
f 92 103 102
f 92 102 76
f 86 105 92
f 105 104 103
f 105 106 104
f 22 61 23
f 22 24 61
f 27 30 61
f 23 61 30
f 27 61 28
f 28 61 26
f 29 26 61
f 29 66 32
f 14 58 1
f 35 34 59
f 33 58 34
f 3 58 33
f 6 58 5
f 2 7 58
f 7 5 58
f 6 1 58
f 3 2 58
f 35 61 24
f 44 66 51
f 32 66 40
f 40 66 42
f 42 66 44
f 16 57 60
f 13 60 58
f 16 70 56
f 11 68 69
f 16 69 70
f 16 56 57
f 59 34 58
f 35 59 62
f 35 62 61
f 29 63 65
f 29 61 63
f 29 65 66
f 74 96 66
f 73 93 74
f 16 10 69
f 11 69 10
f 79 77 55
f 79 68 11
f 13 16 60
f 13 58 12
f 14 12 58
f 55 77 81
f 79 55 68
f 81 77 78
f 52 51 66
f 52 66 50
f 66 54 53
f 66 53 50
f 73 98 93
f 76 99 98
f 66 100 54
f 66 101 100
f 66 96 101
f 74 93 96
f 102 99 76
f 102 103 106
f 73 76 98
f 102 106 99
f 106 103 104

