# https://github.com/mikedh/trimesh
v -0.57125163 -0.79264921 -0.21302287
v -0.58778524 -0.68819094 -0.42532539
v -0.64741188 -0.70230985 -0.29600459
v -0.70710677 -0.60150093 -0.37174803
v -0.64657778 -0.56425422 -0.51337546
v -0.75865233 -0.60682517 -0.23708633
v -0.37503856 -0.84391147 -0.38361374
v -0.51612163 -0.78345168 -0.34615302
v -0.43388855 -0.86266845 -0.25989193
v -0.23867694 -0.89100653 -0.38618737
v -0.30125889 -0.91624415 -0.26408276
v -0.16245985 -0.95105654 -0.26286554
v -0.30901700 -0.80901700 -0.50000000
v -0.15643446 -0.84017789 -0.51925850
v -0.37174803 -0.70710677 -0.60150093
v -0.42532539 -0.58778524 -0.68819094
v -0.29600459 -0.64741188 -0.70230985
v -0.23708633 -0.75865233 -0.60682517
v -0.16062203 -0.69378048 -0.70204645
v -0.21302287 -0.57125163 -0.79264921
v -0.51337546 -0.64657778 -0.56425422
v -0.45399049 -0.75793540 -0.46842986
v -0.61564201 -0.78384304 -0.08108629
v -0.61564201 -0.78384304 0.08108629
v -0.57125163 -0.79264921 0.21302287
v -0.78020436 -0.62023956 -0.08114185
v -0.78020436 -0.62023956 0.08114185
v -0.70290703 -0.71128172 0.00000000
v -0.69378048 -0.70204645 -0.16062203
v -0.69378048 -0.70204645 0.16062203
v -0.75865233 -0.60682517 0.23708633
v -0.64741188 -0.70230985 0.29600459
v -0.58778524 -0.68819094 0.42532539
v -0.70710677 -0.60150093 0.37174803
v -0.64657778 -0.56425422 0.51337546
v -0.40335536 -0.91504341 0.00000000
v -0.48444164 -0.86492932 -0.13120037
v -0.52573109 -0.85065079 0.00000000
v -0.48444164 -0.86492932 0.13120037
v -0.27326652 -0.96193838 0.00000000
v -0.35822880 -0.92430460 -0.13165537
v -0.22011703 -0.96639258 -0.13279247
v -0.35822880 -0.92430460 0.13165537
v -0.22011703 -0.96639258 0.13279247
v -0.51612163 -0.78345168 0.34615302
v -0.43388855 -0.86266845 0.25989193
v -0.37503856 -0.84391147 0.38361374
v -0.30125889 -0.91624415 0.26408276
v -0.16245985 -0.95105654 0.26286554
v -0.23867694 -0.89100653 0.38618737
v -0.30901700 -0.80901700 0.50000000
v -0.15643446 -0.84017789 0.51925850
v -0.20121956 -0.76360923 0.60991043
v -0.51337546 -0.64657778 0.56425422
v -0.45399049 -0.75793540 0.46842986
v -0.37174803 -0.70710677 0.60150093
v -0.39690346 -0.65108341 0.64220327
v -0.55327934 -0.54210806 0.62882006
v -0.50825447 -0.56319928 0.64509082
v -0.45549330 -0.60792887 0.64572746
v -0.34506452 -0.68607700 0.63701469
v -0.23708633 -0.75865233 0.60682517
v -0.24539493 -0.74296528 0.62029034
v -0.22887176 -0.75168312 0.61705482
v -0.68819094 -0.42532539 -0.58778524
v -0.70230985 -0.29600459 -0.64741188
v -0.60150093 -0.37174803 -0.70710677
v -0.80901700 -0.50000000 -0.30901700
v -0.84391147 -0.38361374 -0.37503856
v -0.78345168 -0.34615302 -0.51612163
v -0.89100653 -0.38618737 -0.23867694
v -0.75793540 -0.46842986 -0.45399049
v -0.79264921 -0.21302287 -0.57125163
v -0.80378693 -0.05687989 -0.58880121
v -0.78384304 -0.08108629 -0.61564201
v -0.78384304 -0.05510911 -0.61564201
v -0.60682517 -0.23708633 -0.75865233
v -0.62023956 -0.08114185 -0.78020436
v -0.62023956 -0.05873665 -0.78020436
v -0.59703988 -0.06122337 -0.79749733
v -0.70204645 -0.16062203 -0.69378048
v -0.70816809 -0.05415315 -0.69983006
v -0.75968790 -0.05409327 -0.64469188
v -0.64763337 -0.05672697 -0.75694627
v -0.86266845 -0.25989193 -0.43388855
v -0.91624415 -0.26408276 -0.30125889
v -0.92108661 -0.08590864 -0.37390909
v -0.88699454 -0.07343288 -0.44873938
v -0.86492932 -0.13120037 -0.48444164
v -0.85775244 -0.06525472 -0.50519508
v -0.92430460 -0.13165537 -0.35822880
v -0.96639258 -0.13279247 -0.22011703
v -0.96591425 -0.11853169 -0.22582483
v -0.97357440 -0.13288644 -0.17362016
v -0.96839118 -0.12175557 -0.21328799
v -0.93505353 -0.09405211 -0.33396196
v -0.56425422 -0.51337546 -0.64657778
v -0.46842986 -0.45399049 -0.75793540
v -0.50000000 -0.30901700 -0.80901700
v -0.38361374 -0.37503856 -0.84391147
v -0.34615302 -0.51612163 -0.78345168
v -0.25989193 -0.43388855 -0.86266845
v -0.26408276 -0.30125889 -0.91624415
v -0.38618737 -0.23867694 -0.89100653
v -0.51925850 -0.15643446 -0.84017789
v -0.55503601 -0.06701577 -0.82485437
v -0.52277416 -0.07146472 -0.84586638
v -0.41309479 -0.09067775 -0.90477556
v -0.39864081 -0.09358138 -0.91140014
v -0.36774001 -0.10099902 -0.92185545
v -0.26286554 -0.16245985 -0.95105654
v -0.26363710 -0.12704310 -0.95384800
v -0.22380204 -0.13831727 -0.96208143
v -0.84017789 -0.51925850 -0.15643446
v -0.85065079 -0.52573109 0.00000000
v -0.84017789 -0.51925850 0.15643446
v -0.91298246 -0.39960706 -0.08232358
v -0.91298246 -0.39960706 0.08232358
v -0.89100653 -0.38618737 0.23867694
v -0.80901700 -0.50000000 0.30901700
v -0.90795720 -0.30417663 0.28070968
v -0.84391147 -0.38361374 0.37503856
v -0.84751570 -0.35984015 0.38634679
v -0.82878131 -0.37423915 0.41034478
v -0.87094814 -0.33893523 0.34746107
v -0.75793540 -0.46842986 0.45399049
v -0.67248297 -0.47776759 0.55969739
v -0.72337365 -0.44706950 0.52029228
v -0.76846069 -0.41799158 0.47961912
v -0.58475488 -0.52604556 0.61340696
v -0.95105654 -0.26286554 -0.16245985
v -0.96386129 -0.26640469 0.00000000
v -0.95105654 -0.26286554 0.16245985
v -0.94339299 -0.26313350 0.19301483
v -0.95605701 -0.24514775 0.15150966
v -0.95238066 -0.25163522 0.16743790
v -0.97538745 -0.20190574 0.03978407
v -0.98136866 -0.15546314 -0.09608150
v -0.98169291 -0.16662109 -0.06154826
v -0.08114185 -0.78020436 -0.62023956
v 0.08114185 -0.78020436 -0.62023956
v -0.08232358 -0.91298246 -0.39960706
v 0.00000000 -0.96386129 -0.26640469
v 0.00000000 -0.85065079 -0.52573109
v 0.08232358 -0.91298246 -0.39960706
v 0.23867694 -0.89100653 -0.38618737
v 0.16245985 -0.95105654 -0.26286554
v 0.15643446 -0.84017789 -0.51925850
v 0.00000000 -0.70290703 -0.71128172
v -0.08108629 -0.61564201 -0.78384304
v 0.23708633 -0.75865233 -0.60682517
v 0.16062203 -0.69378048 -0.70204645
v 0.08108629 -0.61564201 -0.78384304
v 0.21302287 -0.57125163 -0.79264921
v 0.30125889 -0.91624415 -0.26408276
v 0.30901700 -0.80901700 -0.50000000
v 0.37503856 -0.84391147 -0.38361374
v 0.43388855 -0.86266845 -0.25989193
v 0.51612163 -0.78345168 -0.34615302
v 0.57125163 -0.79264921 -0.21302287
v 0.29600459 -0.64741188 -0.70230985
v 0.37174803 -0.70710677 -0.60150093
v 0.42532539 -0.58778524 -0.68819094
v 0.45399049 -0.75793540 -0.46842986
v 0.51337546 -0.64657778 -0.56425422
v 0.58778524 -0.68819094 -0.42532539
v 0.67795014 -0.71375203 -0.16739205
v 0.64741188 -0.70230985 -0.29600459
v 0.67725861 -0.67669052 -0.28019634
v 0.67278916 -0.65945435 -0.32820436
v 0.67891318 -0.70213091 -0.20403022
v 0.67885655 -0.70281386 -0.20187706
v 0.63359404 -0.59162438 -0.49393052
v 0.66152805 -0.63461500 -0.39221364
v 0.62318391 -0.57871240 -0.52231109
v -0.08224247 -0.98768836 -0.13307111
v -0.13795224 -0.99043888 0.00000000
v 0.00000000 -1.00000000 0.00000000
v -0.08224247 -0.98768836 0.13307111
v 0.08224247 -0.98768836 -0.13307111
v 0.13795224 -0.99043888 0.00000000
v 0.22011703 -0.96639258 -0.13279247
v 0.08224247 -0.98768836 0.13307111
v 0.22011703 -0.96639258 0.13279247
v -0.08232358 -0.91298246 0.39960706
v 0.00000000 -0.96386129 0.26640469
v -0.10792945 -0.80154175 0.58431250
v 0.00000000 -0.85065079 0.52573109
v 0.01427461 -0.83825773 0.54235721
v -0.02719096 -0.82704389 0.55740124
v 0.08232358 -0.91298246 0.39960706
v 0.16245985 -0.95105654 0.26286554
v 0.23867694 -0.89100653 0.38618737
v 0.24607210 -0.86288023 0.43354326
v 0.26256752 -0.86315924 0.42484316
v 0.10417225 -0.85341841 0.50379962
v 0.05986775 -0.84664279 0.52325404
v 0.13773191 -0.85855079 0.48906338
v 0.19167903 -0.86196023 0.46223158
v 0.27326652 -0.96193838 0.00000000
v 0.35822880 -0.92430460 -0.13165537
v 0.40335536 -0.91504341 0.00000000
v 0.35822880 -0.92430460 0.13165537
v 0.48444164 -0.86492932 -0.13120037
v 0.52573109 -0.85065079 0.00000000
v 0.61564201 -0.78384304 -0.08108629
v 0.48444164 -0.86492932 0.13120037
v 0.56597012 -0.79704672 0.20804481
v 0.55448437 -0.79885519 0.22591878
v 0.56073767 -0.79800856 0.21661030
v 0.61564201 -0.78384304 0.08108629
v 0.62190157 -0.77729040 0.08745781
v 0.62796265 -0.77359837 0.06963801
v 0.58994210 -0.78894138 0.15747125
v 0.30125889 -0.91624415 0.26408276
v 0.33225238 -0.85868847 0.38442126
v 0.36365297 -0.85507375 0.36516783
v 0.43388855 -0.86266845 0.25989193
v 0.46660221 -0.83115470 0.29420799
v 0.39300933 -0.84963918 0.34583336
v 0.67550594 -0.72117651 -0.14202072
v 0.65856934 -0.74814874 -0.04119839
v -0.13120037 -0.48444164 -0.86492932
v 0.00000000 -0.52573109 -0.85065079
v -0.13165537 -0.35822880 -0.92430460
v 0.00000000 -0.40335536 -0.91504341
v 0.13120037 -0.48444164 -0.86492932
v 0.25989193 -0.43388855 -0.86266845
v 0.13165537 -0.35822880 -0.92430460
v 0.26325563 -0.32743570 -0.90567005
v 0.23533328 -0.31362686 -0.91799402
v -0.13279247 -0.22011703 -0.96639258
v -0.07641613 -0.18523440 -0.97660130
v 0.00000000 -0.27326652 -0.96193838
v 0.00000000 -0.21263470 -0.97470891
v -0.13290176 -0.16604309 -0.97474474
v 0.07632474 -0.24271795 -0.96449852
v 0.13241178 -0.26635659 -0.95230162
v 0.34615302 -0.51612163 -0.78345168
v 0.44268298 -0.43002376 -0.78403437
v 0.46842986 -0.45399049 -0.75793540
v 0.46988511 -0.44730777 -0.76029009
v 0.36678177 -0.38304493 -0.84646332
v 0.37950811 -0.39050102 -0.83728516
v 0.52679759 -0.49016255 -0.69010621
v 0.56006390 -0.51561981 -0.64783287
v 0.56256491 -0.51779819 -0.64384437
v 0.47430643 -0.45035857 -0.75569075
f 5 97 21
f 114 68 6
f 6 3 29
f 8 1 3
f 8 3 2
f 1 29 3
f 3 4 2
f 5 4 72
f 5 21 2
f 5 2 4
f 6 4 3
f 6 68 4
f 18 140 14
f 9 41 37
f 9 11 41
f 8 22 7
f 22 13 7
f 1 9 37
f 8 9 1
f 8 7 9
f 7 11 9
f 7 10 11
f 11 42 41
f 11 12 42
f 12 176 42
f 11 10 12
f 10 142 12
f 7 13 10
f 14 10 13
f 14 142 10
f 18 14 13
f 21 16 15
f 16 17 15
f 21 97 16
f 17 18 15
f 18 19 140
f 17 19 18
f 101 17 16
f 101 20 17
f 17 20 19
f 20 150 19
f 8 2 22
f 21 22 2
f 15 13 22
f 21 15 22
f 15 18 13
f 23 38 24
f 26 27 115
f 114 6 26
f 114 26 115
f 115 27 116
f 27 31 116
f 116 31 120
f 23 28 29
f 26 29 28
f 26 28 27
f 1 23 29
f 23 24 28
f 24 30 28
f 27 28 30
f 31 30 32
f 24 25 30
f 25 32 30
f 6 29 26
f 27 30 31
f 25 45 32
f 45 33 32
f 32 33 34
f 31 32 34
f 31 34 120
f 34 33 35
f 34 35 126
f 33 54 35
f 35 54 130
f 37 41 36
f 36 43 39
f 39 43 46
f 43 48 46
f 23 37 38
f 37 36 38
f 1 37 23
f 24 38 39
f 38 36 39
f 25 39 46
f 24 39 25
f 41 42 40
f 41 40 36
f 42 177 40
f 40 44 43
f 36 40 43
f 43 44 48
f 40 177 44
f 48 44 49
f 44 179 49
f 25 46 45
f 45 46 47
f 46 48 47
f 45 47 55
f 55 47 51
f 47 48 50
f 48 49 50
f 49 185 50
f 47 50 51
f 50 185 52
f 50 52 51
f 51 52 62
f 52 187 53
f 62 52 53
f 45 55 33
f 33 55 54
f 55 51 56
f 54 55 56
f 54 56 60
f 56 61 57
f 56 57 60
f 54 60 59
f 54 58 130
f 54 59 58
f 56 63 61
f 51 62 56
f 56 62 63
f 62 64 63
f 62 53 64
f 5 65 97
f 97 65 67
f 70 66 65
f 65 66 67
f 66 77 67
f 67 77 99
f 69 72 68
f 114 71 68
f 69 68 71
f 70 72 69
f 70 69 85
f 86 85 69
f 86 69 71
f 86 71 131
f 5 72 65
f 4 68 72
f 70 65 72
f 75 76 83
f 75 74 76
f 70 73 66
f 66 81 77
f 73 81 66
f 77 78 105
f 105 78 80
f 78 79 80
f 73 75 81
f 78 81 82
f 75 82 81
f 75 83 82
f 77 81 78
f 78 82 84
f 78 84 79
f 85 91 89
f 70 85 73
f 73 85 89
f 86 92 91
f 86 91 85
f 86 131 92
f 91 88 89
f 91 87 88
f 73 89 75
f 75 89 90
f 89 88 90
f 75 90 74
f 91 92 96
f 92 93 96
f 92 95 93
f 92 94 95
f 91 96 87
f 101 98 100
f 97 98 16
f 97 67 98
f 101 16 98
f 98 99 100
f 100 99 104
f 67 99 98
f 101 102 20
f 101 100 102
f 20 102 223
f 102 225 223
f 100 103 102
f 100 104 103
f 102 103 225
f 103 232 225
f 77 105 99
f 105 104 99
f 105 106 107
f 105 80 106
f 105 107 108
f 105 108 104
f 104 109 110
f 104 108 109
f 103 104 111
f 103 111 232
f 111 113 232
f 232 113 236
f 104 110 111
f 111 110 112
f 111 112 113
f 114 117 71
f 117 115 118
f 114 115 117
f 116 119 118
f 115 116 118
f 116 120 119
f 117 118 132
f 117 132 131
f 71 117 131
f 118 133 132
f 118 119 133
f 119 121 133
f 119 120 122
f 120 126 122
f 126 129 124
f 119 125 121
f 119 122 125
f 122 123 125
f 122 124 123
f 122 126 124
f 34 126 120
f 35 127 126
f 126 128 129
f 126 127 128
f 35 130 127
f 131 132 139
f 131 138 92
f 131 139 138
f 132 137 139
f 132 133 137
f 133 135 137
f 133 121 134
f 133 136 135
f 133 134 136
f 92 138 94
f 140 141 144
f 141 151 148
f 142 144 145
f 12 142 143
f 12 143 176
f 176 143 180
f 142 145 143
f 14 144 142
f 14 140 144
f 145 147 143
f 143 147 180
f 147 182 180
f 147 155 182
f 145 146 147
f 146 155 147
f 144 148 145
f 144 141 148
f 148 146 145
f 148 156 146
f 148 151 156
f 140 19 149
f 150 149 19
f 140 149 141
f 20 223 150
f 150 223 224
f 150 224 153
f 150 153 149
f 141 149 152
f 141 152 151
f 153 152 149
f 151 152 161
f 224 227 153
f 153 227 154
f 153 154 152
f 154 161 152
f 146 157 155
f 182 155 201
f 155 158 201
f 158 204 201
f 146 156 157
f 156 164 157
f 157 164 159
f 155 157 158
f 157 159 158
f 158 160 204
f 158 159 160
f 151 161 162
f 161 163 162
f 162 163 165
f 154 239 161
f 239 163 161
f 163 245 246
f 163 247 165
f 163 246 247
f 165 247 175
f 151 162 156
f 162 164 156
f 162 165 164
f 164 166 159
f 164 165 166
f 166 174 168
f 159 168 160
f 159 166 168
f 160 172 167
f 160 168 171
f 160 171 172
f 168 170 169
f 168 174 170
f 168 169 171
f 165 173 166
f 165 175 173
f 166 173 174
f 42 176 177
f 176 178 177
f 176 180 178
f 177 179 44
f 177 178 179
f 179 186 49
f 179 178 183
f 179 183 186
f 180 182 181
f 180 181 178
f 182 200 181
f 178 181 183
f 183 181 184
f 183 192 186
f 183 184 192
f 181 200 184
f 184 215 192
f 49 186 185
f 185 186 191
f 185 191 188
f 185 188 52
f 52 188 187
f 188 189 190
f 191 197 188
f 188 197 189
f 188 190 187
f 186 192 191
f 192 215 193
f 191 192 193
f 191 193 199
f 193 194 199
f 193 195 194
f 191 196 197
f 191 198 196
f 191 199 198
f 182 201 200
f 201 202 200
f 201 204 202
f 184 200 203
f 200 202 203
f 184 203 215
f 203 218 215
f 203 202 207
f 203 207 218
f 204 205 202
f 202 205 207
f 204 206 205
f 204 160 206
f 206 211 205
f 206 222 211
f 211 222 213
f 207 205 211
f 207 210 218
f 207 211 214
f 207 214 208
f 207 208 210
f 211 213 212
f 211 212 214
f 193 215 217
f 215 218 217
f 193 217 216
f 193 216 195
f 218 220 217
f 218 219 220
f 218 210 219
f 219 210 209
f 160 167 206
f 206 167 221
f 206 221 222
f 223 225 226
f 223 226 224
f 224 226 227
f 225 234 226
f 226 234 229
f 226 229 227
f 154 227 228
f 227 229 228
f 234 238 229
f 229 231 228
f 228 231 230
f 229 238 231
f 225 232 234
f 232 236 233
f 232 233 234
f 234 235 237
f 234 233 235
f 234 237 238
f 154 228 239
f 239 228 244
f 239 244 240
f 239 240 241
f 239 241 163
f 241 242 248
f 241 240 242
f 228 230 243
f 228 243 244
f 163 241 245
f 241 248 245
f 129 209 124
f 129 128 209
f 127 209 128
f 130 209 127
f 130 58 209
f 58 59 209
f 90 209 74
f 87 209 88
f 90 88 209
f 83 209 82
f 82 209 84
f 84 209 79
f 80 79 209
f 80 209 106
f 76 74 209
f 83 76 209
f 121 209 134
f 135 136 209
f 135 209 137
f 134 209 136
f 138 209 94
f 138 139 209
f 94 209 95
f 87 96 209
f 93 209 96
f 93 95 209
f 139 137 209
f 125 123 209
f 123 124 209
f 121 125 209
f 212 213 106
f 222 106 213
f 214 212 106
f 64 209 63
f 64 53 209
f 217 189 216
f 217 220 190
f 187 220 219
f 187 190 220
f 198 199 196
f 195 197 196
f 217 190 189
f 216 189 197
f 187 209 53
f 199 194 196
f 195 196 194
f 195 216 197
f 208 214 106
f 210 106 209
f 208 106 210
f 61 209 57
f 60 209 59
f 60 57 209
f 61 63 209
f 187 219 209
f 113 174 236
f 236 174 233
f 237 235 174
f 233 174 235
f 113 112 174
f 221 106 222
f 108 174 109
f 108 107 174
f 107 106 171
f 110 109 174
f 110 174 112
f 243 248 242
f 243 242 240
f 231 174 230
f 230 247 246
f 245 248 243
f 245 230 246
f 245 243 230
f 243 240 244
f 237 174 238
f 238 174 231
f 230 175 247
f 230 173 175
f 230 174 173
f 107 169 170
f 167 106 221
f 107 171 169
f 171 106 172
f 167 172 106
f 107 170 174

