# https://github.com/mikedh/trimesh
v -0.78384304 -0.05510911 -0.61564201
v -0.75968790 -0.05409327 -0.64469188
v -0.80378693 -0.05687989 -0.58880121
v -0.78384304 0.08108629 -0.61564201
v -0.62023956 -0.05873665 -0.78020436
v -0.59703988 -0.06122337 -0.79749733
v -0.52277416 -0.07146472 -0.84586638
v -0.55503601 -0.06701577 -0.82485437
v -0.62023956 0.08114185 -0.78020436
v -0.52573109 0.00000000 -0.85065079
v -0.70816809 -0.05415315 -0.69983006
v -0.64763337 -0.05672697 -0.75694627
v -0.71128172 0.00000000 -0.70290703
v -0.97357440 -0.13288644 -0.17362016
v -0.98136866 -0.15546314 -0.09608150
v -0.88699454 -0.07343288 -0.44873938
v -0.92108661 -0.08590864 -0.37390909
v -0.93505353 -0.09405211 -0.33396196
v -0.91504341 0.00000000 -0.40335536
v -0.85775244 -0.06525472 -0.50519508
v -0.85065079 0.00000000 -0.52573109
v -0.96591425 -0.11853169 -0.22582483
v -0.96839118 -0.12175557 -0.21328799
v -0.96193838 0.00000000 -0.27326652
v -0.99043888 0.00000000 -0.13795224
v -0.26363710 -0.12704310 -0.95384800
v -0.41309479 -0.09067775 -0.90477556
v -0.39864081 -0.09358138 -0.91140014
v -0.39960706 -0.08232358 -0.91298246
v -0.39960706 0.08232358 -0.91298246
v -0.36774001 -0.10099902 -0.92185545
v -0.26640469 0.00000000 -0.96386129
v -0.22380204 -0.13831727 -0.96208143
v -0.13290176 -0.16604309 -0.97474474
v -0.07641613 -0.18523440 -0.97660130
v -0.13307111 -0.08224247 -0.98768836
v -0.13307111 0.08224247 -0.98768836
v -0.84751570 -0.35984015 0.38634679
v -0.82878131 -0.37423915 0.41034478
v -0.76846069 -0.41799158 0.47961912
v -0.67248297 -0.47776759 0.55969739
v -0.72337365 -0.44706950 0.52029228
v -0.68819094 -0.42532539 0.58778524
v -0.58475488 -0.52604556 0.61340696
v -0.56425422 -0.51337546 0.64657778
v -0.55327934 -0.54210806 0.62882006
v -0.50825447 -0.56319928 0.64509082
v -0.52703691 -0.53330892 0.65772539
v -0.54390156 -0.50076234 0.67022961
v -0.60150093 -0.37174803 0.70710677
v -0.59379888 -0.36698791 0.71483988
v -0.59046471 -0.37856877 0.71132225
v -0.98169291 -0.16662109 -0.06154826
v -0.98768836 -0.13307111 -0.08224247
v -0.97538745 -0.20190574 0.03978407
v -0.98768836 -0.13307111 0.08224247
v -0.95605701 -0.24514775 0.15150966
v -0.95238066 -0.25163522 0.16743790
v -0.94339299 -0.26313350 0.19301483
v -0.90795720 -0.30417663 0.28070968
v -0.91624415 -0.26408276 0.30125889
v -0.96639258 -0.13279247 0.22011703
v -0.92430460 -0.13165537 0.35822880
v -0.87094814 -0.33893523 0.34746107
v -1.00000000 0.00000000 0.00000000
v -0.99043888 0.00000000 0.13795224
v -0.96193838 0.00000000 0.27326652
v -0.86266845 -0.25989193 0.43388855
v -0.78345168 -0.34615302 0.51612163
v -0.86492932 -0.13120037 0.48444164
v -0.79264921 -0.21302287 0.57125163
v -0.91504341 0.00000000 0.40335536
v -0.85065079 0.00000000 0.52573109
v -0.78384304 -0.08108629 0.61564201
v -0.78384304 0.08108629 0.61564201
v -0.70230985 -0.29600459 0.64741188
v -0.70204645 -0.16062203 0.69378048
v -0.60375601 -0.31471229 0.72893882
v -0.61609131 -0.24280395 0.74785721
v -0.61760676 -0.22842853 0.75130713
v -0.71128172 0.00000000 0.70290703
v -0.61847860 -0.10161339 0.77737510
v -0.61846298 -0.08246651 0.78125948
v -0.62023956 -0.08114185 0.78020436
v -0.61812627 -0.07932747 0.78177959
v -0.62023956 0.08114185 0.78020436
v -0.59273082 0.05752377 0.80070931
v -0.79264921 0.21302287 -0.57125163
v -0.51925850 0.15643446 -0.84017789
v -0.70204645 0.16062203 -0.69378048
v -0.70230985 0.29600459 -0.64741188
v -0.60682517 0.23708633 -0.75865233
v -0.68819094 0.42532539 -0.58778524
v -0.60150093 0.37174803 -0.70710677
v -0.56425422 0.51337546 -0.64657778
v -0.92430460 0.13165537 -0.35822880
v -0.86492932 0.13120037 -0.48444164
v -0.86266845 0.25989193 -0.43388855
v -0.96639258 0.13279247 -0.22011703
v -0.91624415 0.26408276 -0.30125889
v -0.95105654 0.26286554 -0.16245985
v -0.78345168 0.34615302 -0.51612163
v -0.84391147 0.38361374 -0.37503856
v -0.75793540 0.46842986 -0.45399049
v -0.89100653 0.38618737 -0.23867694
v -0.80901700 0.50000000 -0.30901700
v -0.84017789 0.51925850 -0.15643446
v -0.51337546 0.64657778 -0.56425422
v -0.75865233 0.60682517 -0.23708633
v -0.64657778 0.56425422 -0.51337546
v -0.70710677 0.60150093 -0.37174803
v -0.58778524 0.68819094 -0.42532539
v -0.64741188 0.70230985 -0.29600459
v -0.69378048 0.70204645 -0.16062203
v -0.51612163 0.78345168 -0.34615302
v -0.57125163 0.79264921 -0.21302287
v -0.38618737 0.23867694 -0.89100653
v -0.50000000 0.30901700 -0.80901700
v -0.26286554 0.16245985 -0.95105654
v -0.26408276 0.30125889 -0.91624415
v -0.38361374 0.37503856 -0.84391147
v -0.25989193 0.43388855 -0.86266845
v -0.34615302 0.51612163 -0.78345168
v -0.46842986 0.45399049 -0.75793540
v -0.13279247 0.22011703 -0.96639258
v -0.13165537 0.35822880 -0.92430460
v -0.13120037 0.48444164 -0.86492932
v -0.42532539 0.58778524 -0.68819094
v -0.29600459 0.64741188 -0.70230985
v -0.37174803 0.70710677 -0.60150093
v -0.21302287 0.57125163 -0.79264921
v -0.08108629 0.61564201 -0.78384304
v -0.16062203 0.69378048 -0.70204645
v -0.23708633 0.75865233 -0.60682517
v -0.08114185 0.78020436 -0.62023956
v -0.45399049 0.75793540 -0.46842986
v -0.37503856 0.84391147 -0.38361374
v -0.30901700 0.80901700 -0.50000000
v -0.43388855 0.86266845 -0.25989193
v -0.48444164 0.86492932 -0.13120037
v -0.30125889 0.91624415 -0.26408276
v -0.35822880 0.92430460 -0.13165537
v -0.15643446 0.84017789 -0.51925850
v -0.23867694 0.89100653 -0.38618737
v -0.08232358 0.91298246 -0.39960706
v -0.16245985 0.95105654 -0.26286554
v -0.22011703 0.96639258 -0.13279247
v -0.08224247 0.98768836 -0.13307111
v -0.98768836 0.13307111 -0.08224247
v -0.98768836 0.13307111 0.08224247
v -0.96386129 0.26640469 0.00000000
v -0.96639258 0.13279247 0.22011703
v -0.92430460 0.13165537 0.35822880
v -0.95105654 0.26286554 0.16245985
v -0.91624415 0.26408276 0.30125889
v -0.91298246 0.39960706 -0.08232358
v -0.91298246 0.39960706 0.08232358
v -0.85065079 0.52573109 0.00000000
v -0.89100653 0.38618737 0.23867694
v -0.84017789 0.51925850 0.15643446
v -0.80901700 0.50000000 0.30901700
v -0.86492932 0.13120037 0.48444164
v -0.86266845 0.25989193 0.43388855
v -0.79264921 0.21302287 0.57125163
v -0.84391147 0.38361374 0.37503856
v -0.78345168 0.34615302 0.51612163
v -0.75793540 0.46842986 0.45399049
v -0.70204645 0.16062203 0.69378048
v -0.70230985 0.29600459 0.64741188
v -0.57614559 0.11401883 0.80639219
v -0.54995263 0.18470480 0.81160134
v -0.60682517 0.23708633 0.75865233
v -0.52153891 0.24339162 0.81359684
v -0.50360876 0.28042519 0.81485611
v -0.68819094 0.42532539 0.58778524
v -0.60150093 0.37174803 0.70710677
v -0.56425422 0.51337546 0.64657778
v -0.78020436 0.62023956 -0.08114185
v -0.78020436 0.62023956 0.08114185
v -0.75865233 0.60682517 0.23708633
v -0.70290703 0.71128172 0.00000000
v -0.69378048 0.70204645 0.16062203
v -0.64741188 0.70230985 0.29600459
v -0.61564201 0.78384304 -0.08108629
v -0.52573109 0.85065079 0.00000000
v -0.61564201 0.78384304 0.08108629
v -0.57125163 0.79264921 0.21302287
v -0.51612163 0.78345168 0.34615302
v -0.70710677 0.60150093 0.37174803
v -0.64657778 0.56425422 0.51337546
v -0.51337546 0.64657778 0.56425422
v -0.58778524 0.68819094 0.42532539
v -0.50000000 0.30901700 0.80901700
v -0.49131039 0.30364653 0.81527692
v -0.48054701 0.32005197 0.81484932
v -0.41695911 0.40607843 0.81011003
v -0.46842986 0.45399049 0.75793540
v -0.35811362 0.47107607 0.80275553
v -0.34615302 0.51612163 0.78345168
v -0.32954112 0.50028545 0.79870701
v -0.27354211 0.54619026 0.78846812
v -0.48444164 0.86492932 0.13120037
v -0.40335536 0.91504341 0.00000000
v -0.27326652 0.96193838 0.00000000
v -0.35822880 0.92430460 0.13165537
v -0.43388855 0.86266845 0.25989193
v -0.30125889 0.91624415 0.26408276
v -0.13795224 0.99043888 0.00000000
v -0.22011703 0.96639258 0.13279247
v -0.08224247 0.98768836 0.13307111
v -0.16245985 0.95105654 0.26286554
v -0.45399049 0.75793540 0.46842986
v -0.42532539 0.58778524 0.68819094
v -0.29600459 0.64741188 0.70230985
v -0.37174803 0.70710677 0.60150093
v -0.37503856 0.84391147 0.38361374
v -0.30901700 0.80901700 0.50000000
v -0.22547823 0.58268309 0.77908951
v -0.20211343 0.59676117 0.77378643
v -0.23708633 0.75865233 0.60682517
v -0.16062203 0.69378048 0.70204645
v -0.11183642 0.64585191 0.75221884
v -0.01760856 0.68395668 0.72703904
v -0.15643446 0.84017789 0.51925850
v -0.23867694 0.89100653 0.38618737
v -0.08232358 0.91298246 0.39960706
v -0.08114185 0.78020436 0.62023956
v 0.36678177 -0.38304493 -0.84646332
v 0.37950811 -0.39050102 -0.83728516
v 0.38361374 -0.37503856 -0.84391147
v 0.44268298 -0.43002376 -0.78403437
v 0.47430643 -0.45035857 -0.75569075
v 0.46988511 -0.44730777 -0.76029009
v 0.07632474 -0.24271795 -0.96449852
v 0.00000000 -0.21263470 -0.97470891
v 0.00000000 -0.13795224 -0.99043888
v 0.13241178 -0.26635659 -0.95230162
v 0.23533328 -0.31362686 -0.91799402
v 0.13279247 -0.22011703 -0.96639258
v 0.00000000 0.00000000 -1.00000000
v 0.13307111 -0.08224247 -0.98768836
v 0.13307111 0.08224247 -0.98768836
v 0.26325563 -0.32743570 -0.90567005
v 0.26408276 -0.30125889 -0.91624415
v 0.26286554 -0.16245985 -0.95105654
v 0.38618737 -0.23867694 -0.89100653
v 0.26640469 0.00000000 -0.96386129
v 0.39960706 -0.08232358 -0.91298246
v 0.39960706 0.08232358 -0.91298246
v 0.52679759 -0.49016255 -0.69010621
v 0.56006390 -0.51561981 -0.64783287
v 0.56256491 -0.51779819 -0.64384437
v 0.56425422 -0.51337546 -0.64657778
v 0.60150093 -0.37174803 -0.70710677
v 0.68819094 -0.42532539 -0.58778524
v 0.62318391 -0.57871240 -0.52231109
v 0.63359404 -0.59162438 -0.49393052
v 0.66152805 -0.63461500 -0.39221364
v 0.67278916 -0.65945435 -0.32820436
v 0.70710677 -0.60150093 -0.37174803
v 0.67891318 -0.70213091 -0.20403022
v 0.67885655 -0.70281386 -0.20187706
v 0.67795014 -0.71375203 -0.16739205
v 0.67550594 -0.72117651 -0.14202072
v 0.69378048 -0.70204645 -0.16062203
v 0.67725861 -0.67669052 -0.28019634
v 0.64657778 -0.56425422 -0.51337546
v 0.75865233 -0.60682517 -0.23708633
v 0.75793540 -0.46842986 -0.45399049
v 0.84391147 -0.38361374 -0.37503856
v 0.80901700 -0.50000000 -0.30901700
v 0.84017789 -0.51925850 -0.15643446
v 0.89100653 -0.38618737 -0.23867694
v 0.50000000 -0.30901700 -0.80901700
v 0.51925850 -0.15643446 -0.84017789
v 0.60682517 -0.23708633 -0.75865233
v 0.70230985 -0.29600459 -0.64741188
v 0.70204645 -0.16062203 -0.69378048
v 0.62023956 -0.08114185 -0.78020436
v 0.52573109 0.00000000 -0.85065079
v 0.62023956 0.08114185 -0.78020436
v 0.71128172 0.00000000 -0.70290703
v 0.79264921 -0.21302287 -0.57125163
v 0.78384304 -0.08108629 -0.61564201
v 0.78384304 0.08108629 -0.61564201
v 0.78345168 -0.34615302 -0.51612163
v 0.86266845 -0.25989193 -0.43388855
v 0.86492932 -0.13120037 -0.48444164
v 0.92430460 -0.13165537 -0.35822880
v 0.91624415 -0.26408276 -0.30125889
v 0.95105654 -0.26286554 -0.16245985
v 0.96639258 -0.13279247 -0.22011703
v 0.85065079 0.00000000 -0.52573109
v 0.91504341 0.00000000 -0.40335536
v 0.96193838 0.00000000 -0.27326652
v 0.99043888 0.00000000 -0.13795224
v 0.62190157 -0.77729040 0.08745781
v 0.65856934 -0.74814874 -0.04119839
v 0.70290703 -0.71128172 0.00000000
v 0.62796265 -0.77359837 0.06963801
v 0.56073767 -0.79800856 0.21661030
v 0.55448437 -0.79885519 0.22591878
v 0.58994210 -0.78894138 0.15747125
v 0.56597012 -0.79704672 0.20804481
v 0.57125163 -0.79264921 0.21302287
v 0.56716681 -0.79196775 0.22288707
v 0.57817888 -0.78443229 0.22057058
v 0.67966515 -0.70212662 0.20183456
v 0.69378048 -0.70204645 0.16062203
v 0.72329348 -0.65872622 0.19540893
v 0.72819668 -0.65310669 0.19483750
v 0.78020436 -0.62023956 -0.08114185
v 0.78020436 -0.62023956 0.08114185
v 0.76508540 -0.61082923 0.19053839
v 0.85065079 -0.52573109 0.00000000
v 0.91298246 -0.39960706 -0.08232358
v 0.91298246 -0.39960706 0.08232358
v 0.80932945 -0.55239284 0.18695231
v 0.84017789 -0.51925850 0.15643446
v 0.83419108 -0.51555848 0.18574938
v 0.85861808 -0.47098151 0.18627128
v 0.89800739 -0.39046249 0.18886757
v 0.96386129 -0.26640469 0.00000000
v 0.98768836 -0.13307111 -0.08224247
v 0.98768836 -0.13307111 0.08224247
v 0.92578042 -0.31477392 0.19454098
v 0.95105654 -0.26286554 0.16245985
v 0.94178414 -0.26318976 0.19942933
v 0.96522146 -0.14272544 0.21571407
v 0.96684897 -0.13279845 0.21716219
v 0.96705955 -0.12910932 0.21783809
v 1.00000000 0.00000000 0.00000000
v 0.99043888 0.00000000 0.13795224
v 0.96817011 0.00000000 0.24367958
v 0.96349221 0.04632501 0.25472519
v 0.00000000 0.13795224 -0.99043888
v 0.00000000 0.27326652 -0.96193838
v 0.13279247 0.22011703 -0.96639258
v 0.00000000 0.40335536 -0.91504341
v 0.00000000 0.52573109 -0.85065079
v 0.13165537 0.35822880 -0.92430460
v 0.13120037 0.48444164 -0.86492932
v 0.26286554 0.16245985 -0.95105654
v 0.26408276 0.30125889 -0.91624415
v 0.38618737 0.23867694 -0.89100653
v 0.25989193 0.43388855 -0.86266845
v 0.34615302 0.51612163 -0.78345168
v 0.38361374 0.37503856 -0.84391147
v 0.46842986 0.45399049 -0.75793540
v 0.08108629 0.61564201 -0.78384304
v 0.21302287 0.57125163 -0.79264921
v 0.00000000 0.70290703 -0.71128172
v 0.16062203 0.69378048 -0.70204645
v 0.23708633 0.75865233 -0.60682517
v 0.08114185 0.78020436 -0.62023956
v 0.29600459 0.64741188 -0.70230985
v 0.37174803 0.70710677 -0.60150093
v 0.42532539 0.58778524 -0.68819094
v 0.00000000 0.85065079 -0.52573109
v 0.08232358 0.91298246 -0.39960706
v 0.15643446 0.84017789 -0.51925850
v 0.23867694 0.89100653 -0.38618737
v 0.00000000 0.96386129 -0.26640469
v 0.08224247 0.98768836 -0.13307111
v 0.16245985 0.95105654 -0.26286554
v 0.22011703 0.96639258 -0.13279247
v 0.45399049 0.75793540 -0.46842986
v 0.30901700 0.80901700 -0.50000000
v 0.37503856 0.84391147 -0.38361374
v 0.30125889 0.91624415 -0.26408276
v 0.35822880 0.92430460 -0.13165537
v 0.43388855 0.86266845 -0.25989193
v 0.48444164 0.86492932 -0.13120037
v 0.51925850 0.15643446 -0.84017789
v 0.50000000 0.30901700 -0.80901700
v 0.60682517 0.23708633 -0.75865233
v 0.70204645 0.16062203 -0.69378048
v 0.70230985 0.29600459 -0.64741188
v 0.60150093 0.37174803 -0.70710677
v 0.56425422 0.51337546 -0.64657778
v 0.68819094 0.42532539 -0.58778524
v 0.79264921 0.21302287 -0.57125163
v 0.86492932 0.13120037 -0.48444164
v 0.86266845 0.25989193 -0.43388855
v 0.92430460 0.13165537 -0.35822880
v 0.96639258 0.13279247 -0.22011703
v 0.91624415 0.26408276 -0.30125889
v 0.95105654 0.26286554 -0.16245985
v 0.78345168 0.34615302 -0.51612163
v 0.84391147 0.38361374 -0.37503856
v 0.75793540 0.46842986 -0.45399049
v 0.80901700 0.50000000 -0.30901700
v 0.84017789 0.51925850 -0.15643446
v 0.89100653 0.38618737 -0.23867694
v 0.51337546 0.64657778 -0.56425422
v 0.58778524 0.68819094 -0.42532539
v 0.64657778 0.56425422 -0.51337546
v 0.70710677 0.60150093 -0.37174803
v 0.64741188 0.70230985 -0.29600459
v 0.69378048 0.70204645 -0.16062203
v 0.51612163 0.78345168 -0.34615302
v 0.57125163 0.79264921 -0.21302287
v 0.75865233 0.60682517 -0.23708633
v 0.00000000 1.00000000 0.00000000
v 0.08224247 0.98768836 0.13307111
v 0.13795224 0.99043888 0.00000000
v 0.22011703 0.96639258 0.13279247
v 0.00000000 0.96386129 0.26640469
v 0.16245985 0.95105654 0.26286554
v 0.27326652 0.96193838 0.00000000
v 0.35822880 0.92430460 0.13165537
v 0.48444164 0.86492932 0.13120037
v 0.40335536 0.91504341 0.00000000
v 0.30125889 0.91624415 0.26408276
v 0.43388855 0.86266845 0.25989193
v 0.00000000 0.70290703 0.71128172
v 0.00919772 0.69300842 0.71951246
v 0.04434444 0.70038736 0.70873207
v 0.13856506 0.71776444 0.67934376
v 0.23708633 0.75865233 0.60682517
v 0.19364826 0.72179973 0.66091877
v 0.00000000 0.85065079 0.52573109
v 0.08232358 0.91298246 0.39960706
v 0.15643446 0.84017789 0.51925850
v 0.23867694 0.89100653 0.38618737
v 0.08114185 0.78020436 0.62023956
v 0.45399049 0.75793540 0.46842986
v 0.25680277 0.72142673 0.63877821
v 0.35680708 0.71282583 0.60209167
v 0.36922735 0.71120179 0.59742236
v 0.37590173 0.70967388 0.59478009
v 0.30901700 0.80901700 0.50000000
v 0.37503856 0.84391147 0.38361374
v 0.98768836 0.13307111 -0.08224247
v 0.98768836 0.13307111 0.08224247
v 0.96386129 0.26640469 0.00000000
v 0.96639258 0.13279247 0.22011703
v 0.94897664 0.13232194 0.27726752
v 0.95105654 0.26286554 0.16245985
v 0.91624415 0.26408276 0.30125889
v 0.91756564 0.24237129 0.31059912
v 0.90960908 0.26356375 0.31768435
v 0.85065079 0.52573109 0.00000000
v 0.91298246 0.39960706 -0.08232358
v 0.91298246 0.39960706 0.08232358
v 0.87380618 0.33421224 0.34454581
v 0.84017789 0.51925850 0.15643446
v 0.80901700 0.50000000 0.30901700
v 0.89100653 0.38618737 0.23867694
v 0.74125272 0.51210570 0.42699733
v 0.84048158 0.39505374 0.36854908
v 0.84782672 0.38382769 0.36370221
v 0.77388442 0.47828686 0.40872604
v 0.70290703 0.71128172 0.00000000
v 0.69378048 0.70204645 0.16062203
v 0.64741188 0.70230985 0.29600459
v 0.52573109 0.85065079 0.00000000
v 0.61564201 0.78384304 -0.08108629
v 0.61564201 0.78384304 0.08108629
v 0.57125163 0.79264921 0.21302287
v 0.51612163 0.78345168 0.34615302
v 0.78020436 0.62023956 -0.08114185
v 0.78020436 0.62023956 0.08114185
v 0.75865233 0.60682517 0.23708633
v 0.53196341 0.65697294 0.52954912
v 0.58778524 0.68819094 0.42532539
v 0.50043881 0.67083633 0.54337949
v 0.66676557 0.57667685 0.46613955
v 0.70710677 0.60150093 0.37174803
v 0.62780797 0.60382158 0.48526508
f 21 1 3
f 13 2 1
f 4 13 1
f 21 4 1
f 10 6 5
f 10 7 8
f 10 8 6
f 9 10 5
f 9 89 10
f 13 12 11
f 13 11 2
f 13 5 12
f 4 90 13
f 9 5 13
f 9 13 90
f 54 23 14
f 54 14 15
f 21 16 19
f 19 16 17
f 19 17 18
f 19 18 24
f 21 19 97
f 19 24 96
f 19 96 97
f 21 20 16
f 21 3 20
f 21 97 4
f 24 18 22
f 24 22 23
f 24 23 25
f 54 25 23
f 24 25 99
f 24 99 96
f 25 149 99
f 29 27 7
f 29 31 28
f 29 28 27
f 29 7 10
f 29 10 30
f 10 89 30
f 29 26 31
f 29 32 26
f 29 30 32
f 30 119 32
f 36 34 33
f 36 35 34
f 36 236 35
f 236 235 35
f 36 26 32
f 36 33 26
f 32 119 37
f 36 32 37
f 36 240 236
f 36 37 240
f 37 336 240
f 69 39 40
f 69 40 42
f 69 42 43
f 43 42 41
f 69 43 76
f 45 43 41
f 43 50 76
f 45 44 46
f 45 41 44
f 45 49 50
f 45 46 48
f 46 47 48
f 45 48 49
f 45 50 43
f 50 49 52
f 50 52 51
f 50 51 78
f 54 15 53
f 54 53 55
f 54 55 56
f 56 55 57
f 61 60 64
f 61 59 60
f 61 64 68
f 62 57 58
f 62 58 59
f 61 62 59
f 56 57 62
f 61 63 62
f 54 56 65
f 54 65 25
f 56 66 65
f 25 65 149
f 149 65 150
f 65 66 150
f 56 62 66
f 62 67 66
f 62 63 67
f 63 72 67
f 66 67 152
f 66 152 150
f 152 67 153
f 67 72 153
f 61 68 63
f 68 70 63
f 68 38 39
f 68 64 38
f 68 39 69
f 68 69 71
f 69 76 71
f 68 71 70
f 70 71 74
f 71 77 74
f 63 70 72
f 70 73 72
f 72 73 162
f 72 162 153
f 70 74 73
f 162 73 75
f 74 75 73
f 74 81 75
f 76 50 78
f 76 78 79
f 71 76 77
f 76 79 77
f 77 79 80
f 77 80 82
f 74 77 81
f 77 84 81
f 77 82 84
f 75 81 168
f 84 86 81
f 81 86 168
f 84 82 83
f 84 83 85
f 84 85 87
f 84 87 86
f 86 87 170
f 4 97 88
f 4 88 90
f 88 102 91
f 9 92 89
f 92 118 89
f 9 90 92
f 92 90 91
f 92 91 94
f 88 91 90
f 92 94 118
f 102 93 91
f 91 93 94
f 93 110 95
f 94 124 118
f 93 95 94
f 94 95 124
f 96 98 97
f 96 100 98
f 88 97 98
f 88 98 102
f 100 103 98
f 96 99 100
f 99 149 101
f 99 101 100
f 100 101 105
f 102 98 103
f 102 103 104
f 103 106 104
f 104 106 111
f 100 105 103
f 101 156 105
f 105 156 107
f 103 105 106
f 105 107 106
f 106 107 109
f 102 104 93
f 93 104 110
f 104 111 110
f 110 108 95
f 95 108 128
f 106 109 111
f 107 178 109
f 110 111 112
f 111 113 112
f 110 112 108
f 108 112 136
f 113 115 112
f 112 115 136
f 109 113 111
f 109 178 114
f 109 114 113
f 113 114 116
f 114 184 116
f 113 116 115
f 115 116 139
f 116 184 140
f 89 117 30
f 89 118 117
f 117 118 121
f 30 117 119
f 117 120 119
f 117 121 120
f 118 124 121
f 124 123 121
f 121 122 120
f 121 123 122
f 122 123 131
f 95 128 124
f 124 128 123
f 119 125 37
f 119 120 125
f 120 126 125
f 37 125 336
f 125 337 336
f 125 126 337
f 120 122 126
f 122 127 126
f 122 131 127
f 126 127 339
f 126 339 337
f 127 132 340
f 127 340 339
f 108 130 128
f 123 128 129
f 128 130 129
f 123 129 131
f 129 130 134
f 130 138 134
f 127 131 132
f 129 133 131
f 131 133 132
f 129 134 133
f 133 134 135
f 132 133 352
f 133 135 352
f 134 143 135
f 143 359 135
f 108 136 130
f 130 136 138
f 136 137 138
f 115 137 136
f 115 139 137
f 137 144 138
f 137 141 144
f 116 140 139
f 139 140 142
f 137 139 141
f 139 142 141
f 141 142 147
f 134 138 143
f 143 138 144
f 143 144 145
f 144 146 145
f 143 145 359
f 141 146 144
f 141 147 146
f 146 147 148
f 146 363 145
f 146 148 363
f 149 150 151
f 149 151 101
f 101 151 156
f 150 154 151
f 151 154 157
f 150 152 154
f 152 153 155
f 152 155 154
f 154 155 159
f 156 151 157
f 156 157 158
f 156 158 107
f 157 160 158
f 154 159 157
f 157 159 160
f 159 155 165
f 159 165 161
f 159 161 160
f 160 161 180
f 153 162 163
f 153 163 155
f 162 75 164
f 162 164 163
f 155 163 165
f 163 164 166
f 164 169 166
f 75 168 164
f 163 166 165
f 165 166 167
f 165 167 161
f 167 189 161
f 168 86 172
f 164 168 169
f 168 172 169
f 172 176 169
f 86 170 171
f 86 171 172
f 172 193 176
f 172 171 173
f 172 173 174
f 172 174 193
f 166 169 175
f 167 166 175
f 167 190 189
f 167 175 190
f 175 177 190
f 169 176 175
f 175 176 177
f 176 193 197
f 176 197 177
f 107 158 178
f 178 158 179
f 178 179 181
f 158 160 179
f 179 160 180
f 180 161 189
f 178 181 114
f 114 181 184
f 184 181 186
f 179 182 181
f 181 182 186
f 179 180 182
f 180 189 183
f 180 183 182
f 182 187 186
f 182 183 187
f 183 188 187
f 183 192 188
f 184 186 185
f 184 185 140
f 186 202 185
f 186 187 202
f 187 188 206
f 189 190 192
f 189 192 183
f 190 177 191
f 192 190 191
f 192 212 188
f 192 191 212
f 177 213 191
f 193 174 194
f 193 194 195
f 193 195 196
f 193 196 197
f 177 197 213
f 197 196 198
f 197 198 199
f 197 199 213
f 199 198 200
f 199 200 201
f 140 185 203
f 185 202 203
f 140 203 142
f 202 205 203
f 142 203 204
f 142 204 147
f 203 205 204
f 204 205 209
f 187 206 202
f 202 206 205
f 188 216 206
f 206 216 207
f 216 225 207
f 205 206 207
f 205 207 209
f 147 204 208
f 147 208 148
f 204 209 208
f 208 209 210
f 148 208 404
f 208 210 404
f 207 211 209
f 209 211 210
f 207 225 211
f 211 225 226
f 210 211 408
f 211 226 408
f 191 215 212
f 212 215 217
f 215 220 217
f 191 213 215
f 213 214 215
f 213 199 214
f 214 199 201
f 214 201 218
f 215 214 220
f 188 212 216
f 212 217 216
f 216 217 225
f 214 218 219
f 214 219 221
f 221 219 222
f 214 221 220
f 221 227 220
f 221 416 227
f 221 222 416
f 416 222 223
f 416 223 417
f 225 217 224
f 225 224 226
f 217 220 224
f 220 227 224
f 224 227 422
f 226 224 422
f 230 228 243
f 230 229 228
f 230 231 229
f 230 274 231
f 274 233 231
f 274 232 233
f 239 237 234
f 236 234 235
f 236 239 234
f 236 241 239
f 239 244 237
f 244 238 237
f 239 241 245
f 239 245 244
f 236 240 241
f 240 336 242
f 241 240 242
f 241 247 245
f 241 242 247
f 242 343 247
f 244 243 238
f 244 230 243
f 244 246 230
f 244 245 246
f 245 248 246
f 230 246 274
f 246 248 275
f 246 275 274
f 245 247 248
f 247 343 249
f 248 247 249
f 248 280 275
f 248 249 280
f 249 374 280
f 253 251 250
f 253 252 251
f 253 256 252
f 253 267 256
f 254 250 232
f 274 254 232
f 253 250 254
f 253 254 255
f 253 255 267
f 254 277 255
f 255 277 286
f 267 257 256
f 267 258 257
f 260 259 258
f 260 266 259
f 267 260 258
f 265 261 266
f 265 262 261
f 265 263 262
f 265 264 263
f 265 298 264
f 265 266 268
f 260 268 266
f 265 268 312
f 267 269 260
f 267 255 269
f 255 286 269
f 268 272 312
f 260 269 271
f 286 270 269
f 269 270 271
f 260 271 268
f 268 271 272
f 272 271 273
f 270 273 271
f 272 273 316
f 273 291 316
f 274 275 276
f 275 279 276
f 274 276 254
f 254 276 277
f 277 276 278
f 276 279 278
f 277 278 283
f 275 280 279
f 280 374 281
f 279 280 281
f 279 282 278
f 278 282 284
f 279 281 282
f 281 377 282
f 282 377 285
f 277 283 286
f 278 284 283
f 283 284 288
f 284 282 285
f 284 285 293
f 286 287 270
f 286 283 287
f 270 287 290
f 283 288 287
f 287 289 290
f 287 288 289
f 270 290 273
f 290 291 273
f 290 289 292
f 290 292 291
f 291 292 324
f 284 293 288
f 285 383 293
f 288 293 294
f 288 294 289
f 289 294 295
f 293 383 294
f 294 385 295
f 383 385 294
f 289 295 292
f 292 295 296
f 292 296 324
f 295 386 296
f 295 385 386
f 296 386 434
f 299 300 298
f 265 299 298
f 309 297 300
f 299 309 300
f 265 312 299
f 299 313 309
f 306 302 301
f 305 303 309
f 305 304 303
f 305 301 304
f 305 306 301
f 305 307 306
f 305 308 307
f 309 303 297
f 305 309 308
f 309 310 308
f 309 313 310
f 313 311 310
f 312 313 299
f 312 315 313
f 313 314 311
f 313 319 314
f 272 315 312
f 272 316 315
f 313 315 319
f 315 317 319
f 316 317 315
f 316 323 317
f 319 318 314
f 319 320 318
f 319 321 320
f 319 317 321
f 317 322 321
f 317 327 322
f 316 291 323
f 317 323 327
f 291 324 323
f 324 325 323
f 323 325 327
f 327 326 322
f 327 328 326
f 327 329 328
f 327 325 329
f 325 330 329
f 325 331 330
f 324 332 325
f 324 296 332
f 325 332 333
f 296 434 332
f 434 435 332
f 332 435 333
f 325 333 331
f 333 334 331
f 333 335 334
f 333 435 437
f 333 437 335
f 336 337 338
f 336 338 242
f 338 337 341
f 242 338 343
f 338 341 344
f 338 344 343
f 337 339 341
f 339 342 341
f 339 340 342
f 342 340 350
f 341 346 344
f 341 342 346
f 342 351 346
f 343 345 249
f 343 344 345
f 345 344 348
f 249 345 374
f 345 348 375
f 345 375 374
f 344 346 348
f 346 351 347
f 346 347 348
f 348 349 375
f 348 347 349
f 349 347 358
f 349 358 380
f 132 350 340
f 342 350 351
f 132 352 350
f 350 352 353
f 352 355 353
f 135 355 352
f 350 353 351
f 351 353 356
f 353 354 356
f 353 355 354
f 135 359 355
f 359 361 355
f 355 361 354
f 351 356 347
f 347 356 358
f 356 357 358
f 354 357 356
f 354 368 357
f 357 395 358
f 359 360 361
f 145 360 359
f 145 363 360
f 361 360 362
f 361 368 354
f 361 362 368
f 360 365 362
f 360 363 365
f 363 364 365
f 148 364 363
f 362 365 370
f 365 366 370
f 365 364 366
f 357 368 367
f 357 367 395
f 362 369 368
f 362 370 369
f 368 369 367
f 369 401 367
f 369 372 401
f 370 372 369
f 370 371 372
f 366 371 370
f 372 371 373
f 372 373 402
f 281 374 376
f 374 375 376
f 376 375 379
f 281 376 377
f 376 378 377
f 376 379 378
f 377 378 382
f 349 379 375
f 379 380 381
f 349 380 379
f 379 381 378
f 378 381 389
f 381 380 397
f 377 382 285
f 285 382 383
f 378 389 382
f 381 391 389
f 381 397 391
f 391 397 398
f 382 384 383
f 382 389 384
f 384 390 387
f 383 384 385
f 385 384 387
f 385 387 386
f 386 388 434
f 387 394 388
f 386 387 388
f 389 391 390
f 389 390 384
f 391 392 390
f 391 398 392
f 390 392 394
f 392 403 393
f 394 392 393
f 390 394 387
f 388 394 444
f 394 393 444
f 358 395 380
f 380 395 397
f 395 396 397
f 367 396 395
f 367 401 396
f 396 401 399
f 397 396 398
f 396 399 398
f 399 401 402
f 398 399 403
f 400 462 403
f 399 402 400
f 399 400 403
f 400 402 458
f 372 402 401
f 373 458 402
f 398 403 392
f 403 462 393
f 148 404 364
f 364 404 406
f 210 405 404
f 404 405 406
f 364 406 366
f 366 406 410
f 405 407 406
f 406 407 410
f 210 408 405
f 405 408 409
f 226 423 408
f 408 423 409
f 405 409 407
f 407 409 414
f 423 425 409
f 409 425 414
f 366 410 371
f 371 410 413
f 407 411 410
f 410 411 413
f 373 413 457
f 412 457 413
f 371 413 373
f 411 412 413
f 425 433 414
f 414 433 415
f 407 414 411
f 411 414 415
f 411 415 412
f 412 415 460
f 415 433 461
f 227 416 426
f 416 418 426
f 426 418 419
f 416 417 418
f 426 419 420
f 420 421 428
f 420 419 421
f 422 426 424
f 423 422 424
f 226 422 423
f 423 424 425
f 425 424 432
f 426 420 424
f 424 420 432
f 227 426 422
f 420 430 432
f 432 430 431
f 427 432 431
f 427 467 465
f 427 431 467
f 420 428 429
f 420 429 430
f 425 432 433
f 433 432 427
f 433 427 461
f 434 436 435
f 434 388 436
f 388 444 436
f 435 436 439
f 436 445 439
f 435 439 437
f 440 441 438
f 437 438 335
f 437 440 438
f 439 449 440
f 437 439 440
f 440 442 441
f 440 446 442
f 444 393 443
f 445 443 447
f 444 445 436
f 444 443 445
f 449 452 446
f 449 448 452
f 448 451 452
f 464 448 447
f 449 447 448
f 439 445 449
f 445 447 449
f 449 446 440
f 448 453 451
f 448 450 453
f 469 450 448
f 400 458 454
f 458 459 454
f 400 454 462
f 454 459 455
f 454 455 463
f 456 460 461
f 466 456 461
f 455 464 463
f 469 464 456
f 455 459 460
f 455 460 456
f 455 456 464
f 373 457 458
f 458 457 459
f 412 459 457
f 412 460 459
f 415 461 460
f 462 463 443
f 462 454 463
f 393 462 443
f 463 447 443
f 463 464 447
f 469 448 464
f 466 465 470
f 427 465 466
f 427 466 461
f 469 470 468
f 466 470 469
f 469 468 450
f 466 469 456
f 7 261 8
f 27 258 7
f 27 28 258
f 31 258 28
f 1 302 3
f 2 302 1
f 11 12 302
f 2 11 302
f 20 302 16
f 22 18 302
f 17 302 18
f 17 16 302
f 20 3 302
f 12 5 302
f 6 302 5
f 6 8 302
f 14 23 302
f 15 14 302
f 15 302 53
f 53 302 55
f 60 302 64
f 64 302 38
f 57 55 302
f 57 302 58
f 59 58 302
f 60 59 302
f 38 302 39
f 41 42 302
f 40 39 302
f 40 302 42
f 44 41 302
f 44 302 46
f 46 302 47
f 49 48 307
f 48 47 307
f 49 308 52
f 52 308 51
f 78 51 308
f 78 308 79
f 79 308 80
f 22 302 23
f 80 308 82
f 82 308 83
f 83 308 85
f 85 308 87
f 87 310 170
f 170 310 171
f 171 310 173
f 174 173 322
f 174 322 194
f 194 322 195
f 234 258 235
f 228 231 233
f 228 233 232
f 250 243 228
f 228 229 231
f 234 237 258
f 237 238 258
f 243 252 256
f 238 243 258
f 250 251 243
f 250 228 232
f 243 251 252
f 298 300 8
f 297 8 300
f 301 302 8
f 304 8 303
f 303 8 297
f 304 301 8
f 7 259 266
f 7 266 261
f 261 262 8
f 263 8 262
f 263 264 8
f 264 298 8
f 7 258 259
f 33 34 258
f 34 35 258
f 35 235 258
f 33 258 26
f 31 26 258
f 243 257 258
f 243 256 257
f 306 47 302
f 306 307 47
f 49 307 308
f 87 308 310
f 310 311 173
f 314 173 311
f 314 318 173
f 318 320 173
f 320 321 173
f 321 322 173
f 195 322 326
f 195 326 328
f 218 328 219
f 195 328 196
f 196 328 198
f 198 328 200
f 200 328 201
f 201 328 218
f 222 219 328
f 222 328 223
f 223 328 417
f 328 418 417
f 328 419 418
f 328 421 419
f 328 428 421
f 328 329 428
f 329 330 428
f 330 331 428
f 331 334 431
f 331 430 429
f 331 431 430
f 331 429 428
f 431 438 441
f 431 441 442
f 431 442 446
f 452 467 446
f 451 465 452
f 451 453 465
f 450 468 453
f 334 335 431
f 431 335 438
f 431 446 467
f 470 465 453
f 470 453 468
f 452 465 467

