# https://github.com/mikedh/trimesh
v -0.10792945 -0.80154175 0.58431250
v -0.02719096 -0.82704389 0.55740124
v 0.13773191 -0.85855079 0.48906338
v 0.05986775 -0.84664279 0.52325404
v 0.01427461 -0.83825773 0.54235721
v 0.15643446 -0.84017789 0.51925850
v -0.52703691 -0.53330892 0.65772539
v -0.54390156 -0.50076234 0.67022961
v -0.45549330 -0.60792887 0.64572746
v -0.42532539 -0.58778524 0.68819094
v -0.50825447 -0.56319928 0.64509082
v -0.34506452 -0.68607700 0.63701469
v -0.22887176 -0.75168312 0.61705482
v -0.24539493 -0.74296528 0.62029034
v -0.40986016 -0.64154011 0.64298260
v -0.39690346 -0.65108341 0.64220327
v -0.34615302 -0.51612163 0.78345168
v -0.29600459 -0.64741188 0.70230985
v -0.59046471 -0.37856877 0.71132225
v -0.59379888 -0.36698791 0.71483988
v -0.60375601 -0.31471229 0.72893882
v -0.46842986 -0.45399049 0.75793540
v -0.61609131 -0.24280395 0.74785721
v -0.61760676 -0.22842853 0.75130713
v -0.60682517 -0.23708633 0.75865233
v -0.61847860 -0.10161339 0.77737510
v -0.61846298 -0.08246651 0.78125948
v -0.61812627 -0.07932747 0.78177959
v -0.50000000 -0.30901700 0.80901700
v -0.51925850 -0.15643446 0.84017789
v -0.38361374 -0.37503856 0.84391147
v -0.25989193 -0.43388855 0.86266845
v -0.26408276 -0.30125889 0.91624415
v -0.38618737 -0.23867694 0.89100653
v -0.39960706 -0.08232358 0.91298246
v -0.26286554 -0.16245985 0.95105654
v -0.20121956 -0.76360923 0.60991043
v -0.08114185 -0.78020436 0.62023956
v -0.16062203 -0.69378048 0.70204645
v -0.21302287 -0.57125163 0.79264921
v -0.08108629 -0.61564201 0.78384304
v 0.08114185 -0.78020436 0.62023956
v 0.00000000 -0.70290703 0.71128172
v 0.16062203 -0.69378048 0.70204645
v 0.08108629 -0.61564201 0.78384304
v -0.13120037 -0.48444164 0.86492932
v 0.00000000 -0.52573109 0.85065079
v 0.13120037 -0.48444164 0.86492932
v -0.13165537 -0.35822880 0.92430460
v -0.13279247 -0.22011703 0.96639258
v -0.13307111 -0.08224247 0.98768836
v 0.00000000 -0.40335536 0.91504341
v 0.00000000 -0.27326652 0.96193838
v 0.13165537 -0.35822880 0.92430460
v 0.00000000 -0.13795224 0.99043888
v 0.13279247 -0.22011703 0.96639258
v 0.13307111 -0.08224247 0.98768836
v -0.52573109 0.00000000 0.85065079
v -0.59273082 0.05752377 0.80070931
v -0.57614559 0.11401883 0.80639219
v -0.54995263 0.18470480 0.81160134
v -0.52153891 0.24339162 0.81359684
v -0.51925850 0.15643446 0.84017789
v -0.50360876 0.28042519 0.81485611
v -0.49131039 0.30364653 0.81527692
v -0.48054701 0.32005197 0.81484932
v -0.39960706 0.08232358 0.91298246
v -0.26640469 0.00000000 0.96386129
v -0.38618737 0.23867694 0.89100653
v -0.26286554 0.16245985 0.95105654
v -0.26408276 0.30125889 0.91624415
v -0.27354211 0.54619026 0.78846812
v -0.22547823 0.58268309 0.77908951
v -0.38361374 0.37503856 0.84391147
v -0.41695911 0.40607843 0.81011003
v -0.35811362 0.47107607 0.80275553
v -0.32954112 0.50028545 0.79870701
v -0.25989193 0.43388855 0.86266845
v -0.13307111 0.08224247 0.98768836
v -0.13279247 0.22011703 0.96639258
v 0.00000000 0.00000000 1.00000000
v 0.13307111 0.08224247 0.98768836
v 0.00000000 0.13795224 0.99043888
v 0.00000000 0.27326652 0.96193838
v 0.13279247 0.22011703 0.96639258
v -0.21302287 0.57125163 0.79264921
v -0.20211343 0.59676117 0.77378643
v -0.08108629 0.61564201 0.78384304
v -0.11183642 0.64585191 0.75221884
v 0.13856506 0.71776444 0.67934376
v 0.00919772 0.69300842 0.71951246
v -0.01760856 0.68395668 0.72703904
v 0.04434444 0.70038736 0.70873207
v 0.08108629 0.61564201 0.78384304
v 0.16062203 0.69378048 0.70204645
v -0.13120037 0.48444164 0.86492932
v -0.13165537 0.35822880 0.92430460
v 0.13120037 0.48444164 0.86492932
v 0.00000000 0.40335536 0.91504341
v 0.13165537 0.35822880 0.92430460
v 0.00000000 0.52573109 0.85065079
v 0.33225241 -0.85868847 0.38442126
v 0.36365297 -0.85507375 0.36516783
v 0.56716681 -0.79196775 0.22288707
v 0.55448437 -0.79885519 0.22591878
v 0.46660221 -0.83115470 0.29420799
v 0.39300933 -0.84963918 0.34583336
v 0.37503856 -0.84391147 0.38361374
v 0.51612163 -0.78345168 0.34615302
v 0.26256752 -0.86315924 0.42484316
v 0.19167903 -0.86196023 0.46223158
v 0.30998597 -0.86011702 0.39733729
v 0.30901700 -0.80901700 0.50000000
v 0.45399049 -0.75793540 0.46842986
v 0.51337546 -0.64657778 0.56425422
v 0.57817888 -0.78443229 0.22057058
v 0.67966515 -0.70212662 0.20183456
v 0.64741188 -0.70230985 0.29600459
v 0.72329348 -0.65872622 0.19540893
v 0.72819668 -0.65310669 0.19483750
v 0.76508540 -0.61082923 0.19053839
v 0.75865233 -0.60682517 0.23708633
v 0.70710677 -0.60150093 0.37174803
v 0.80932945 -0.55239284 0.18695231
v 0.83419108 -0.51555848 0.18574938
v 0.85861808 -0.47098151 0.18627128
v 0.80901700 -0.50000000 0.30901700
v 0.58778524 -0.68819094 0.42532539
v 0.75793540 -0.46842986 0.45399049
v 0.64657778 -0.56425422 0.51337546
v 0.89800739 -0.39046249 0.18886757
v 0.89100653 -0.38618737 0.23867694
v 0.92578042 -0.31477392 0.19454098
v 0.84391147 -0.38361374 0.37503856
v 0.94178414 -0.26318976 0.19942933
v 0.96522146 -0.14272544 0.21571407
v 0.96684897 -0.13279845 0.21716219
v 0.96639258 -0.13279247 0.22011703
v 0.96705955 -0.12910932 0.21783809
v 0.91624415 -0.26408276 0.30125889
v 0.92430460 -0.13165537 0.35822880
v 0.68819094 -0.42532539 0.58778524
v 0.78345168 -0.34615302 0.51612163
v 0.86266845 -0.25989193 0.43388855
v 0.86492932 -0.13120037 0.48444164
v 0.79264921 -0.21302287 0.57125163
v 0.23708633 -0.75865233 0.60682517
v 0.37174803 -0.70710677 0.60150093
v 0.21302287 -0.57125163 0.79264921
v 0.29600459 -0.64741188 0.70230985
v 0.34615302 -0.51612163 0.78345168
v 0.42532539 -0.58778524 0.68819094
v 0.56425422 -0.51337546 0.64657778
v 0.46842986 -0.45399049 0.75793540
v 0.25989193 -0.43388855 0.86266845
v 0.26408276 -0.30125889 0.91624415
v 0.26286554 -0.16245985 0.95105654
v 0.38361374 -0.37503856 0.84391147
v 0.50000000 -0.30901700 0.80901700
v 0.38618737 -0.23867694 0.89100653
v 0.51925850 -0.15643446 0.84017789
v 0.39960706 -0.08232358 0.91298246
v 0.70230985 -0.29600459 0.64741188
v 0.60150093 -0.37174803 0.70710677
v 0.70204645 -0.16062203 0.69378048
v 0.60682517 -0.23708633 0.75865233
v 0.62023956 -0.08114185 0.78020436
v 0.78384304 -0.08108629 0.61564201
v 0.53196341 0.65697294 0.52954912
v 0.51337546 0.64657778 0.56425422
v 0.50043881 0.67083633 0.54337949
v 0.96817011 0.00000000 0.24367958
v 0.96193838 0.00000000 0.27326652
v 0.96349221 0.04632501 0.25472519
v 0.94897664 0.13232194 0.27726752
v 0.92430460 0.13165537 0.35822880
v 0.91756564 0.24237129 0.31059912
v 0.90960908 0.26356375 0.31768435
v 0.91504341 0.00000000 0.40335536
v 0.85065079 0.00000000 0.52573109
v 0.86492932 0.13120037 0.48444164
v 0.86266845 0.25989193 0.43388855
v 0.79264921 0.21302287 0.57125163
v 0.84782672 0.38382769 0.36370221
v 0.84391147 0.38361374 0.37503856
v 0.84048158 0.39505374 0.36854908
v 0.87380618 0.33421224 0.34454581
v 0.74125272 0.51210570 0.42699733
v 0.75793540 0.46842986 0.45399049
v 0.68819094 0.42532539 0.58778524
v 0.62780797 0.60382158 0.48526508
v 0.66676557 0.57667685 0.46613955
v 0.64657778 0.56425422 0.51337546
v 0.77388442 0.47828686 0.40872604
v 0.78345168 0.34615302 0.51612163
v 0.26640469 0.00000000 0.96386129
v 0.26286554 0.16245985 0.95105654
v 0.26408276 0.30125889 0.91624415
v 0.52573109 0.00000000 0.85065079
v 0.39960706 0.08232358 0.91298246
v 0.38618737 0.23867694 0.89100653
v 0.51925850 0.15643446 0.84017789
v 0.50000000 0.30901700 0.80901700
v 0.34615302 0.51612163 0.78345168
v 0.25680277 0.72142673 0.63877821
v 0.19364826 0.72179973 0.66091877
v 0.35680708 0.71282583 0.60209167
v 0.37174803 0.70710677 0.60150093
v 0.36922735 0.71120179 0.59742236
v 0.21302287 0.57125163 0.79264921
v 0.29600459 0.64741188 0.70230985
v 0.56425422 0.51337546 0.64657778
v 0.46842986 0.45399049 0.75793540
v 0.42532539 0.58778524 0.68819094
v 0.37590173 0.70967388 0.59478009
v 0.25989193 0.43388855 0.86266845
v 0.38361374 0.37503856 0.84391147
v 0.62023956 0.08114185 0.78020436
v 0.71128172 0.00000000 0.70290703
v 0.70204645 0.16062203 0.69378048
v 0.70230985 0.29600459 0.64741188
v 0.60682517 0.23708633 0.75865233
v 0.78384304 0.08108629 0.61564201
v 0.60150093 0.37174803 0.70710677
f 38 1 2
f 6 3 111
f 42 2 5
f 42 5 4
f 6 4 3
f 42 4 6
f 42 6 147
f 10 11 9
f 10 9 15
f 10 7 11
f 10 22 7
f 22 8 7
f 18 12 14
f 18 14 39
f 10 15 16
f 10 16 18
f 18 16 12
f 10 18 17
f 10 17 22
f 18 39 40
f 18 40 17
f 17 40 32
f 22 19 8
f 22 29 19
f 29 20 19
f 25 21 29
f 29 21 20
f 25 23 21
f 25 24 23
f 25 26 24
f 25 30 26
f 17 31 22
f 22 31 29
f 31 34 29
f 25 29 30
f 30 27 26
f 30 28 27
f 30 58 28
f 30 29 34
f 30 35 58
f 30 34 35
f 17 32 31
f 31 33 34
f 31 32 33
f 34 36 35
f 33 36 34
f 35 36 68
f 38 37 1
f 39 13 37
f 39 14 13
f 38 39 37
f 38 43 39
f 39 43 41
f 39 41 40
f 38 2 42
f 38 42 43
f 42 147 44
f 42 44 43
f 43 44 45
f 41 43 45
f 44 149 45
f 40 46 32
f 40 41 46
f 41 47 46
f 46 47 52
f 41 45 47
f 47 45 48
f 47 48 52
f 45 149 48
f 32 46 49
f 32 49 33
f 33 49 50
f 46 52 49
f 49 52 53
f 49 53 50
f 33 50 36
f 36 50 51
f 36 51 68
f 50 53 55
f 50 55 51
f 51 55 81
f 48 155 54
f 52 54 53
f 52 48 54
f 53 54 56
f 53 56 55
f 55 57 81
f 55 56 57
f 58 59 28
f 58 63 59
f 63 60 59
f 35 67 58
f 58 67 63
f 63 61 60
f 63 62 61
f 63 67 69
f 63 69 64
f 63 64 62
f 69 65 64
f 69 74 65
f 35 68 67
f 67 68 70
f 69 71 74
f 67 70 69
f 69 70 71
f 86 73 72
f 74 66 65
f 74 75 66
f 74 76 75
f 74 78 76
f 74 71 78
f 78 77 76
f 78 72 77
f 78 86 72
f 51 79 68
f 68 79 70
f 51 81 79
f 79 81 83
f 70 79 80
f 70 80 71
f 71 80 97
f 79 83 80
f 80 83 84
f 80 84 97
f 81 82 83
f 57 82 81
f 83 85 84
f 83 82 85
f 85 100 84
f 86 87 73
f 88 89 87
f 86 88 87
f 88 92 89
f 95 206 90
f 94 91 92
f 94 93 91
f 88 94 92
f 95 93 94
f 95 90 93
f 95 94 210
f 78 96 86
f 78 97 96
f 96 99 101
f 71 97 78
f 97 99 96
f 97 84 99
f 96 88 86
f 96 101 88
f 99 98 101
f 100 216 98
f 84 100 99
f 99 100 98
f 88 101 94
f 98 94 101
f 98 210 94
f 108 102 103
f 109 105 104
f 109 104 116
f 108 107 106
f 108 103 107
f 108 106 109
f 109 106 105
f 113 111 110
f 113 112 102
f 108 113 102
f 113 110 112
f 6 111 113
f 6 113 147
f 147 113 148
f 108 109 114
f 108 114 113
f 114 109 128
f 114 128 115
f 114 148 113
f 114 115 148
f 118 116 117
f 118 117 122
f 109 116 118
f 109 118 128
f 122 119 120
f 122 120 121
f 122 117 119
f 128 118 123
f 118 122 123
f 123 122 127
f 123 127 129
f 122 121 124
f 122 124 125
f 127 125 126
f 122 125 127
f 128 123 130
f 123 129 130
f 128 130 115
f 115 130 153
f 153 130 142
f 130 129 142
f 132 127 126
f 132 126 131
f 132 131 133
f 140 133 135
f 132 133 140
f 132 134 127
f 127 134 129
f 132 140 134
f 134 140 144
f 138 135 136
f 140 135 138
f 138 136 137
f 138 137 139
f 138 139 172
f 138 173 141
f 140 138 141
f 144 140 141
f 129 143 142
f 142 143 163
f 163 143 146
f 129 134 143
f 134 144 143
f 144 146 143
f 144 141 145
f 145 141 179
f 144 145 146
f 145 180 168
f 145 168 146
f 147 150 44
f 147 148 150
f 148 152 150
f 44 150 149
f 150 152 151
f 149 150 151
f 148 115 152
f 152 115 153
f 152 154 151
f 152 153 154
f 149 155 48
f 149 151 155
f 151 154 158
f 154 153 164
f 154 164 159
f 164 166 159
f 151 158 155
f 155 158 156
f 156 158 160
f 54 155 156
f 54 156 56
f 56 156 157
f 56 157 57
f 57 157 196
f 156 160 157
f 157 162 196
f 157 160 162
f 158 154 159
f 158 159 160
f 160 159 161
f 160 161 162
f 159 166 161
f 161 167 199
f 162 161 199
f 153 142 164
f 164 142 163
f 164 163 166
f 163 146 165
f 165 146 168
f 165 168 219
f 163 165 166
f 165 167 166
f 161 166 167
f 165 219 167
f 208 171 215
f 208 170 171
f 170 191 169
f 170 169 171
f 138 172 173
f 173 172 174
f 173 174 175
f 141 173 179
f 173 175 176
f 173 176 179
f 176 175 177
f 176 177 182
f 182 177 178
f 182 178 187
f 221 183 195
f 145 179 180
f 181 179 176
f 181 180 179
f 168 180 223
f 181 223 180
f 181 176 182
f 181 182 183
f 181 183 223
f 182 195 183
f 185 187 184
f 182 187 185
f 185 184 186
f 185 186 194
f 189 194 188
f 189 188 193
f 190 193 212
f 189 190 195
f 221 195 190
f 189 193 190
f 193 192 191
f 193 188 192
f 170 193 191
f 212 193 170
f 189 195 185
f 182 185 195
f 189 185 194
f 222 224 203
f 57 196 82
f 82 196 197
f 162 200 196
f 196 200 197
f 201 217 198
f 82 197 85
f 85 197 198
f 85 198 100
f 197 200 201
f 197 201 198
f 162 199 200
f 199 218 202
f 200 199 202
f 200 202 201
f 201 202 203
f 201 203 217
f 202 222 203
f 95 205 206
f 95 211 205
f 208 207 205
f 208 215 209
f 208 209 207
f 208 205 211
f 208 211 214
f 95 210 211
f 211 204 214
f 210 204 211
f 213 214 204
f 217 213 204
f 213 203 224
f 213 212 214
f 213 224 212
f 208 214 170
f 214 212 170
f 98 216 210
f 216 204 210
f 198 217 216
f 216 217 204
f 100 198 216
f 217 203 213
f 168 223 219
f 219 223 220
f 167 219 218
f 219 220 218
f 220 223 183
f 220 183 221
f 220 222 218
f 218 222 202
f 220 221 222
f 222 221 224
f 167 218 199
f 224 221 190
f 224 190 212
f 106 11 105
f 1 14 2
f 9 11 107
f 16 15 112
f 12 16 110
f 9 103 15
f 14 5 2
f 12 4 5
f 12 3 4
f 7 116 11
f 8 116 7
f 8 19 117
f 19 20 117
f 16 112 110
f 9 107 103
f 103 102 15
f 102 112 15
f 107 11 106
f 12 111 3
f 12 110 111
f 21 117 20
f 21 23 117
f 23 24 117
f 24 26 117
f 26 27 117
f 27 28 117
f 1 37 13
f 1 13 14
f 12 5 14
f 28 59 117
f 59 60 119
f 60 61 119
f 61 62 119
f 72 73 135
f 73 87 135
f 64 131 62
f 64 65 131
f 65 66 131
f 66 75 135
f 75 76 135
f 76 77 135
f 77 72 135
f 104 105 11
f 104 11 116
f 8 117 116
f 59 119 117
f 119 62 120
f 121 120 62
f 121 62 124
f 124 62 125
f 125 62 126
f 126 62 131
f 66 133 131
f 66 135 133
f 89 135 87
f 89 92 135
f 92 91 135
f 135 91 93
f 139 205 207
f 139 209 215
f 139 207 209
f 135 93 90
f 135 90 206
f 135 206 205
f 135 205 136
f 136 205 137
f 137 205 139
f 172 215 174
f 215 175 174
f 139 215 172
f 215 177 175
f 215 178 177
f 215 187 178
f 186 169 194
f 184 187 171
f 186 184 169
f 188 194 192
f 184 171 169
f 191 194 169
f 191 192 194
f 215 171 187

